M48
; DRILL file {KiCad 7.0.10-7.0.10~ubuntu22.04.1} date Mon 09 Sep 2024 09:26:18 AM PDT
; FORMAT={-:-/ absolute / inch / decimal}
; #@! TF.CreationDate,2024-09-09T09:26:18-07:00
; #@! TF.GenerationSoftware,Kicad,Pcbnew,7.0.10-7.0.10~ubuntu22.04.1
; #@! TF.FileFunction,Plated,1,2,PTH
FMAT,2
INCH
; #@! TA.AperFunction,Plated,PTH,ViaDrill
T1C0.0157
; #@! TA.AperFunction,Plated,PTH,ViaDrill
T2C0.0236
; #@! TA.AperFunction,Plated,PTH,ComponentDrill
T3C0.0315
; #@! TA.AperFunction,Plated,PTH,ComponentDrill
T4C0.0420
; #@! TA.AperFunction,Plated,PTH,ComponentDrill
T5C0.1000
%
G90
G05
T1
X4.5511Y-3.0061
X5.1249Y-2.4497
X5.2165Y-2.6973
X5.4913Y-2.7413
X5.5453Y-3.8307
X5.7026Y-2.6926
X5.7693Y-2.8166
X5.8632Y-3.105
X5.874Y-2.8839
X5.876Y-2.5315
X5.8799Y-3.2598
T2
X2.707Y-4.334
X5.5472Y-2.4916
X5.9272Y-2.998
X5.9272Y-3.6457
X5.9291Y-2.3642
T4
X2.735Y-2.431
X2.735Y-2.531
X2.735Y-2.631
X2.735Y-2.731
X2.735Y-2.831
X2.735Y-2.931
X2.735Y-3.031
X2.735Y-3.131
X2.735Y-3.231
X2.735Y-3.331
X2.735Y-3.431
X2.735Y-3.531
X2.735Y-3.631
X2.735Y-3.731
X2.735Y-3.831
X2.735Y-3.931
X3.535Y-2.831
X3.535Y-2.931
X3.535Y-3.031
X3.535Y-3.131
X3.535Y-3.231
X3.535Y-3.331
X3.535Y-3.431
X3.535Y-3.531
X3.535Y-3.631
X3.535Y-3.731
X3.535Y-3.831
X3.535Y-3.931
X3.685Y-2.431
X3.685Y-2.531
X3.685Y-2.631
X3.685Y-2.731
X3.685Y-2.831
X3.685Y-2.931
X3.685Y-3.031
X3.685Y-3.131
X3.685Y-3.231
X3.685Y-3.331
X3.685Y-3.431
X3.685Y-3.531
X3.685Y-3.631
X3.685Y-3.731
X3.685Y-3.831
X3.685Y-3.931
X4.485Y-2.831
X4.485Y-2.931
X4.485Y-3.031
X4.485Y-3.131
X4.485Y-3.231
X4.485Y-3.331
X4.485Y-3.431
X4.485Y-3.531
X4.485Y-3.631
X4.485Y-3.731
X4.485Y-3.831
X4.485Y-3.931
X4.635Y-2.431
X4.635Y-2.531
X4.635Y-2.631
X4.635Y-2.731
X4.635Y-2.831
X4.635Y-2.931
X4.635Y-3.031
X4.635Y-3.131
X4.635Y-3.231
X4.635Y-3.331
X4.635Y-3.431
X4.635Y-3.531
X4.635Y-3.631
X4.635Y-3.731
X4.635Y-3.831
X4.635Y-3.931
X5.435Y-2.831
X5.435Y-2.931
X5.435Y-3.031
X5.435Y-3.131
X5.435Y-3.231
X5.435Y-3.331
X5.435Y-3.431
X5.435Y-3.531
X5.435Y-3.631
X5.435Y-3.731
X5.435Y-3.831
X5.435Y-3.931
T5
X2.785Y-2.281
X3.485Y-2.281
X3.735Y-2.281
X4.435Y-2.281
X4.685Y-2.281
X5.385Y-2.281
T3
G00X2.2554Y-4.0705
M15
G01X2.2554Y-3.9838
M16
G05
G00X2.4876Y-3.8992
M15
G01X2.401Y-3.8992
M16
G05
G00X2.4876Y-4.1433
M15
G01X2.401Y-4.1433
M16
G05
M30
