%TF.GenerationSoftware,KiCad,Pcbnew,7.0.10-7.0.10~ubuntu22.04.1*%
%TF.CreationDate,2024-08-18T20:33:25-07:00*%
%TF.ProjectId,iorodeo_feather_tripler_enc1,696f726f-6465-46f5-9f66-656174686572,rev?*%
%TF.SameCoordinates,Original*%
%TF.FileFunction,Soldermask,Bot*%
%TF.FilePolarity,Negative*%
%FSLAX46Y46*%
G04 Gerber Fmt 4.6, Leading zero omitted, Abs format (unit mm)*
G04 Created by KiCad (PCBNEW 7.0.10-7.0.10~ubuntu22.04.1) date 2024-08-18 20:33:25*
%MOMM*%
%LPD*%
G01*
G04 APERTURE LIST*
%ADD10C,0.900000*%
%ADD11C,4.300000*%
%ADD12O,4.500000X2.300000*%
%ADD13O,2.000000X4.500000*%
%ADD14C,3.048000*%
%ADD15C,1.778000*%
G04 APERTURE END LIST*
D10*
%TO.C,SW1*%
X52324000Y-79466000D03*
X52324000Y-74966000D03*
%TD*%
D11*
%TO.C,M2*%
X146812000Y-50800000D03*
%TD*%
D12*
%TO.C,J1*%
X62086300Y-105239700D03*
X62086300Y-99039700D03*
D13*
X57286300Y-102289700D03*
%TD*%
D14*
%TO.C,U1*%
X88519000Y-103657400D03*
X88519000Y-57937400D03*
X70739000Y-103657400D03*
X70739000Y-57937400D03*
D15*
X89789000Y-99847400D03*
X89789000Y-97307400D03*
X89789000Y-94767400D03*
X89789000Y-92227400D03*
X89789000Y-89687400D03*
X89789000Y-87147400D03*
X89789000Y-84607400D03*
X89789000Y-82067400D03*
X89789000Y-79527400D03*
X89789000Y-76987400D03*
X89789000Y-74447400D03*
X89789000Y-71907400D03*
X69469000Y-61747400D03*
X69469000Y-64287400D03*
X69469000Y-66827400D03*
X69469000Y-69367400D03*
X69469000Y-71907400D03*
X69469000Y-74447400D03*
X69469000Y-76987400D03*
X69469000Y-79527400D03*
X69469000Y-82067400D03*
X69469000Y-84607400D03*
X69469000Y-87147400D03*
X69469000Y-89687400D03*
X69469000Y-92227400D03*
X69469000Y-94767400D03*
X69469000Y-97307400D03*
X69469000Y-99847400D03*
%TD*%
D14*
%TO.C,U3*%
X136779000Y-103657400D03*
X136779000Y-57937400D03*
X118999000Y-103657400D03*
X118999000Y-57937400D03*
D15*
X138049000Y-99847400D03*
X138049000Y-97307400D03*
X138049000Y-94767400D03*
X138049000Y-92227400D03*
X138049000Y-89687400D03*
X138049000Y-87147400D03*
X138049000Y-84607400D03*
X138049000Y-82067400D03*
X138049000Y-79527400D03*
X138049000Y-76987400D03*
X138049000Y-74447400D03*
X138049000Y-71907400D03*
X117729000Y-61747400D03*
X117729000Y-64287400D03*
X117729000Y-66827400D03*
X117729000Y-69367400D03*
X117729000Y-71907400D03*
X117729000Y-74447400D03*
X117729000Y-76987400D03*
X117729000Y-79527400D03*
X117729000Y-82067400D03*
X117729000Y-84607400D03*
X117729000Y-87147400D03*
X117729000Y-89687400D03*
X117729000Y-92227400D03*
X117729000Y-94767400D03*
X117729000Y-97307400D03*
X117729000Y-99847400D03*
%TD*%
D14*
%TO.C,U2*%
X112649000Y-103657400D03*
X112649000Y-57937400D03*
X94869000Y-103657400D03*
X94869000Y-57937400D03*
D15*
X113919000Y-99847400D03*
X113919000Y-97307400D03*
X113919000Y-94767400D03*
X113919000Y-92227400D03*
X113919000Y-89687400D03*
X113919000Y-87147400D03*
X113919000Y-84607400D03*
X113919000Y-82067400D03*
X113919000Y-79527400D03*
X113919000Y-76987400D03*
X113919000Y-74447400D03*
X113919000Y-71907400D03*
X93599000Y-61747400D03*
X93599000Y-64287400D03*
X93599000Y-66827400D03*
X93599000Y-69367400D03*
X93599000Y-71907400D03*
X93599000Y-74447400D03*
X93599000Y-76987400D03*
X93599000Y-79527400D03*
X93599000Y-82067400D03*
X93599000Y-84607400D03*
X93599000Y-87147400D03*
X93599000Y-89687400D03*
X93599000Y-92227400D03*
X93599000Y-94767400D03*
X93599000Y-97307400D03*
X93599000Y-99847400D03*
%TD*%
D11*
%TO.C,M1*%
X50800000Y-50800000D03*
%TD*%
%TO.C,M3*%
X146812000Y-110794800D03*
%TD*%
%TO.C,M4*%
X50800000Y-110794800D03*
%TD*%
M02*
