%TF.GenerationSoftware,KiCad,Pcbnew,7.0.10-7.0.10~ubuntu22.04.1*%
%TF.CreationDate,2024-09-09T09:20:23-07:00*%
%TF.ProjectId,iorodeo_feather_tripler_enc1,696f726f-6465-46f5-9f66-656174686572,rev?*%
%TF.SameCoordinates,Original*%
%TF.FileFunction,Legend,Top*%
%TF.FilePolarity,Positive*%
%FSLAX46Y46*%
G04 Gerber Fmt 4.6, Leading zero omitted, Abs format (unit mm)*
G04 Created by KiCad (PCBNEW 7.0.10-7.0.10~ubuntu22.04.1) date 2024-09-09 09:20:23*
%MOMM*%
%LPD*%
G01*
G04 APERTURE LIST*
%ADD10C,0.116153*%
%ADD11C,0.134716*%
%ADD12C,0.126579*%
%ADD13C,0.000000*%
%ADD14C,0.094402*%
%ADD15C,0.150000*%
%ADD16C,0.200000*%
%ADD17C,0.250000*%
%ADD18C,0.203200*%
%ADD19C,0.100000*%
%ADD20C,0.127000*%
%ADD21C,0.120000*%
G04 APERTURE END LIST*
D10*
X52731529Y-98961167D02*
X52696985Y-98911602D01*
D11*
X53828272Y-95131737D02*
X53767410Y-95136365D01*
X53947265Y-92765399D02*
X54005246Y-92778781D01*
X54592837Y-102499535D02*
X54630504Y-102543019D01*
D10*
X52768838Y-97484813D02*
X52808910Y-97438147D01*
X52586441Y-97792610D02*
X52609932Y-97738538D01*
D11*
X53239251Y-104409594D02*
X53186165Y-104385594D01*
D10*
X52665203Y-98860750D02*
X52636186Y-98808718D01*
X53041199Y-99255818D02*
X52991636Y-99221274D01*
D11*
X53186165Y-104385594D02*
X53134490Y-104359128D01*
D10*
X52547751Y-98590929D02*
X52532551Y-98534604D01*
X54901011Y-98073699D02*
X54907920Y-98131312D01*
D11*
X54630504Y-104067653D02*
X54592837Y-104111138D01*
X54375793Y-104299099D02*
X54327169Y-104330271D01*
D10*
X54049582Y-99405049D02*
X53993257Y-99420248D01*
D11*
X53705739Y-104503773D02*
X53644068Y-104502213D01*
X54890355Y-93756978D02*
X54897977Y-93816955D01*
X54809987Y-94405973D02*
X54785987Y-94459059D01*
X52521099Y-94121998D02*
X52513477Y-94062021D01*
D10*
X53475059Y-99432684D02*
X53418197Y-99420248D01*
D11*
X54553156Y-93092065D02*
X54592837Y-93133686D01*
X52531637Y-93697961D02*
X52545019Y-93639980D01*
D10*
X54863703Y-98590929D02*
X54845739Y-98646610D01*
D11*
X53644068Y-95136365D02*
X53583206Y-95131737D01*
D10*
X52498006Y-98247075D02*
X52499388Y-98189140D01*
D11*
X53947265Y-95113577D02*
X53888249Y-95124116D01*
X52680795Y-94560921D02*
X52651938Y-94510734D01*
X52507290Y-93939488D02*
X52508849Y-93877816D01*
X52521098Y-103122826D02*
X52531637Y-103063810D01*
X54831444Y-103717399D02*
X54809987Y-103771822D01*
D10*
X54891339Y-98477742D02*
X54878902Y-98534603D01*
D11*
X52508849Y-93877816D02*
X52513477Y-93816955D01*
D10*
X54913447Y-98247075D02*
X54912065Y-98305010D01*
D11*
X54005246Y-95100195D02*
X53947265Y-95113577D01*
X54730665Y-94560921D02*
X54699493Y-94609545D01*
X54592837Y-104111138D02*
X54553156Y-104152759D01*
D10*
X54602544Y-99056003D02*
X54559708Y-99101060D01*
D11*
X54831444Y-94351550D02*
X54809987Y-94405973D01*
X53134479Y-102251545D02*
X53186154Y-102225079D01*
X54699493Y-102635279D02*
X54730665Y-102683903D01*
D12*
X53705739Y-97761252D02*
X53705739Y-95192683D01*
D10*
X52665203Y-97633399D02*
X52696985Y-97582547D01*
X54825012Y-97792609D02*
X54845739Y-97847539D01*
D11*
X53644068Y-104502213D02*
X53583206Y-104497585D01*
D13*
G36*
X53755155Y-93888190D02*
G01*
X54092004Y-93888190D01*
X54092004Y-93990789D01*
X53755155Y-93990789D01*
X53755155Y-94327633D01*
X53656275Y-94327633D01*
X53656275Y-93990789D01*
X53319425Y-93990789D01*
X53319425Y-93888190D01*
X53656275Y-93888190D01*
X53656275Y-93551344D01*
X53755155Y-93551344D01*
X53755155Y-93888190D01*
G37*
D11*
X54890355Y-103487846D02*
X54879816Y-103546863D01*
X54117800Y-104431052D02*
X54062116Y-104449893D01*
D10*
X52586441Y-98701540D02*
X52565714Y-98646610D01*
D11*
X53293675Y-104431052D02*
X53239251Y-104409594D01*
X54005246Y-102144630D02*
X54062116Y-102160779D01*
X53134490Y-104359128D02*
X53084303Y-104330271D01*
X54375793Y-92945725D02*
X54422778Y-92979138D01*
X53767410Y-92742610D02*
X53828272Y-92747238D01*
X54468051Y-93014716D02*
X54511535Y-93052383D01*
X52531638Y-94181014D02*
X52521099Y-94121998D01*
D10*
X54775268Y-97685432D02*
X54801522Y-97738538D01*
D11*
X54327169Y-102280401D02*
X54375793Y-102311574D01*
X52988680Y-102344987D02*
X53035667Y-102311574D01*
X52745381Y-94656531D02*
X52711968Y-94609545D01*
D10*
X52532551Y-97959546D02*
X52547751Y-97903221D01*
D11*
X52625471Y-103824908D02*
X52601471Y-103771822D01*
D10*
X53418197Y-99420248D02*
X53361871Y-99405049D01*
D11*
X54172223Y-95043745D02*
X54117800Y-95065204D01*
D10*
X53092051Y-99287599D02*
X53041199Y-99255818D01*
D11*
X52580009Y-93527425D02*
X52601467Y-93473002D01*
X54785987Y-102785765D02*
X54809987Y-102838851D01*
D10*
X54679924Y-97532983D02*
X54714469Y-97582547D01*
D11*
X54699493Y-94609545D02*
X54666081Y-94656531D01*
X54785987Y-103824908D02*
X54759522Y-103876582D01*
X54062116Y-95084045D02*
X54005246Y-95100195D01*
X54666081Y-104022380D02*
X54630504Y-104067653D01*
X53406222Y-92778781D02*
X53464205Y-92765399D01*
X54730665Y-93318055D02*
X54759522Y-93368242D01*
X54117800Y-92813772D02*
X54172223Y-92835230D01*
X54897977Y-103182803D02*
X54902605Y-103243665D01*
D10*
X54907920Y-98362837D02*
X54901011Y-98420450D01*
D11*
X52651933Y-102734090D02*
X52680789Y-102683903D01*
D10*
X52636186Y-97685432D02*
X52665203Y-97633399D01*
X54679924Y-98961167D02*
X54642616Y-99009336D01*
D11*
X54850286Y-94295866D02*
X54831444Y-94351550D01*
X54005246Y-104466043D02*
X53947265Y-104479425D01*
D10*
X54642616Y-97484813D02*
X54679924Y-97532983D01*
D11*
X53705739Y-92741051D02*
X53767410Y-92742610D01*
X53464212Y-95113577D02*
X53406230Y-95100195D01*
D10*
X53879103Y-99442357D02*
X53821490Y-99449265D01*
D11*
X53406230Y-104466043D02*
X53349359Y-104449893D01*
X52625467Y-102785765D02*
X52651933Y-102734090D01*
X54759522Y-94510734D02*
X54730665Y-94560921D01*
X54225308Y-104385594D02*
X54172223Y-104409594D01*
X53464205Y-102131248D02*
X53523223Y-102120708D01*
D10*
X52499388Y-98189140D02*
X52503533Y-98131312D01*
D11*
X52507290Y-103305336D02*
X52508849Y-103243665D01*
X53349350Y-92794930D02*
X53406222Y-92778781D01*
X52680789Y-102683903D02*
X52711962Y-102635279D01*
X53349350Y-102160779D02*
X53406222Y-102144630D01*
X52745374Y-93222444D02*
X52780952Y-93177171D01*
X52561170Y-94295866D02*
X52545021Y-94238996D01*
X54172223Y-102201079D02*
X54225308Y-102225079D01*
X54422778Y-104265686D02*
X54375793Y-104299099D01*
X52943407Y-93014716D02*
X52988680Y-92979138D01*
X53947265Y-102131248D02*
X54005246Y-102144630D01*
X54327169Y-92914553D02*
X54375793Y-92945725D01*
X54809987Y-103771822D02*
X54785987Y-103824908D01*
X53293665Y-102179621D02*
X53349350Y-102160779D01*
X54511535Y-94826592D02*
X54468051Y-94864260D01*
D13*
G36*
X53761646Y-103498172D02*
G01*
X53649783Y-103498172D01*
X53649783Y-103112500D01*
X53761646Y-103112500D01*
X53761646Y-103498172D01*
G37*
D11*
X53947265Y-104479425D02*
X53888249Y-104489964D01*
X54327169Y-104330271D02*
X54276982Y-104359128D01*
X52680789Y-93318055D02*
X52711962Y-93269431D01*
D10*
X54878902Y-97959546D02*
X54891339Y-98016408D01*
D11*
X53186165Y-95019746D02*
X53134490Y-94993280D01*
D10*
X54514652Y-99143895D02*
X54467986Y-99183966D01*
X53532350Y-99442357D02*
X53475059Y-99432684D01*
D11*
X53084292Y-92914553D02*
X53134479Y-92885696D01*
X52858301Y-102457914D02*
X52899922Y-102418232D01*
X54468051Y-94864260D02*
X54422778Y-94899837D01*
D10*
X54746250Y-97633399D02*
X54775268Y-97685432D01*
D11*
X52508849Y-103243665D02*
X52513477Y-103182803D01*
X54422778Y-94899837D02*
X54375793Y-94933250D01*
X54850286Y-103661715D02*
X54831444Y-103717399D01*
X54225308Y-95019746D02*
X54172223Y-95043745D01*
X54890355Y-94121998D02*
X54879816Y-94181014D01*
X52580012Y-103717399D02*
X52561170Y-103661715D01*
X52545021Y-103604844D02*
X52531638Y-103546863D01*
X54866435Y-94238996D02*
X54850286Y-94295866D01*
X52943417Y-94864260D02*
X52899932Y-94826592D01*
X52513477Y-94062021D02*
X52508849Y-94001159D01*
D10*
X52499388Y-98305010D02*
X52498006Y-98247075D01*
D11*
X54850286Y-102948958D02*
X54866435Y-103005828D01*
X53644065Y-102108459D02*
X53705739Y-102106900D01*
X53767410Y-102108459D02*
X53828272Y-102113087D01*
X53349359Y-95084045D02*
X53293675Y-95065204D01*
X54785987Y-94459059D02*
X54759522Y-94510734D01*
X54890355Y-103122826D02*
X54897977Y-103182803D01*
X52745381Y-104022380D02*
X52711968Y-103975394D01*
X54630504Y-102543019D02*
X54666081Y-102588293D01*
X52711968Y-94609545D02*
X52680795Y-94560921D01*
X54831444Y-93527425D02*
X54850286Y-93583110D01*
D10*
X54642616Y-99009336D02*
X54602544Y-99056003D01*
X52547751Y-97903221D02*
X52565714Y-97847540D01*
X54878902Y-98534603D02*
X54863703Y-98590929D01*
D11*
X53186154Y-102225079D02*
X53239241Y-102201079D01*
X53583206Y-95131737D02*
X53523229Y-95124116D01*
X54375793Y-94933250D02*
X54327169Y-94964423D01*
D10*
X52991636Y-99221274D02*
X52943467Y-99183966D01*
D11*
X54511535Y-102418232D02*
X54553156Y-102457914D01*
X53406230Y-95100195D02*
X53349359Y-95084045D01*
D10*
X53993257Y-99420248D02*
X53936395Y-99432684D01*
D11*
X52625471Y-94459059D02*
X52601471Y-94405973D01*
X54730665Y-103926769D02*
X54699493Y-103975394D01*
X54062116Y-104449893D02*
X54005246Y-104466043D01*
D10*
X54907920Y-98131312D02*
X54912065Y-98189140D01*
D11*
X54511535Y-93052383D02*
X54553156Y-93092065D01*
D10*
X52943467Y-99183966D02*
X52896801Y-99143895D01*
X52768838Y-99009336D02*
X52731529Y-98961167D01*
X53306190Y-99387086D02*
X53251260Y-99366359D01*
D11*
X52521098Y-93756978D02*
X52531637Y-93697961D01*
D10*
X54467986Y-99183966D02*
X54419818Y-99221274D01*
D11*
X54062116Y-102160779D02*
X54117800Y-102179621D01*
X52780952Y-102543019D02*
X52818619Y-102499535D01*
X52780952Y-93177171D02*
X52818619Y-93133686D01*
X52561168Y-93583110D02*
X52580009Y-93527425D01*
X54225308Y-102225079D02*
X54276982Y-102251545D01*
X54785987Y-93419916D02*
X54809987Y-93473002D01*
X52545019Y-103005828D02*
X52561168Y-102948958D01*
D10*
X53361871Y-99405049D02*
X53306190Y-99387086D01*
D11*
X54902605Y-103367008D02*
X54897977Y-103427870D01*
D14*
X53729366Y-97806329D02*
X53752682Y-97808102D01*
X53775659Y-97811021D01*
X53798268Y-97815059D01*
X53820481Y-97820185D01*
X53842268Y-97826372D01*
X53863600Y-97833590D01*
X53884449Y-97841811D01*
X53904786Y-97851005D01*
X53924581Y-97861144D01*
X53943807Y-97872199D01*
X53962435Y-97884141D01*
X53980434Y-97896941D01*
X53997778Y-97910571D01*
X54014436Y-97925001D01*
X54030380Y-97940203D01*
X54045581Y-97956148D01*
X54060011Y-97972807D01*
X54073640Y-97990151D01*
X54086439Y-98008151D01*
X54098381Y-98026779D01*
X54109435Y-98046005D01*
X54119573Y-98065802D01*
X54128767Y-98086139D01*
X54136987Y-98106988D01*
X54144204Y-98128321D01*
X54150391Y-98150107D01*
X54155517Y-98172320D01*
X54159554Y-98194929D01*
X54162473Y-98217906D01*
X54164246Y-98241222D01*
X54164844Y-98264848D01*
X54164246Y-98288474D01*
X54162473Y-98311790D01*
X54159554Y-98334767D01*
X54155517Y-98357376D01*
X54150391Y-98379588D01*
X54144204Y-98401375D01*
X54136987Y-98422708D01*
X54128767Y-98443557D01*
X54119573Y-98463894D01*
X54109435Y-98483690D01*
X54098381Y-98502917D01*
X54086439Y-98521544D01*
X54073640Y-98539545D01*
X54060011Y-98556889D01*
X54045581Y-98573548D01*
X54030380Y-98589492D01*
X54014436Y-98604694D01*
X53997778Y-98619125D01*
X53980434Y-98632754D01*
X53962435Y-98645555D01*
X53943807Y-98657497D01*
X53924581Y-98668552D01*
X53904786Y-98678691D01*
X53884449Y-98687885D01*
X53863600Y-98696105D01*
X53842268Y-98703323D01*
X53820481Y-98709510D01*
X53798268Y-98714637D01*
X53775659Y-98718674D01*
X53752682Y-98721594D01*
X53729366Y-98723367D01*
X53705739Y-98723964D01*
X53682112Y-98723367D01*
X53658796Y-98721594D01*
X53635818Y-98718674D01*
X53613208Y-98714637D01*
X53590996Y-98709510D01*
X53569208Y-98703323D01*
X53547875Y-98696105D01*
X53527025Y-98687885D01*
X53506688Y-98678691D01*
X53486891Y-98668552D01*
X53467664Y-98657497D01*
X53449036Y-98645555D01*
X53431035Y-98632754D01*
X53413690Y-98619125D01*
X53397031Y-98604694D01*
X53381086Y-98589492D01*
X53365883Y-98573548D01*
X53351453Y-98556889D01*
X53337823Y-98539545D01*
X53325022Y-98521544D01*
X53313080Y-98502917D01*
X53302024Y-98483690D01*
X53291885Y-98463894D01*
X53282691Y-98443557D01*
X53274470Y-98422708D01*
X53267252Y-98401375D01*
X53261065Y-98379588D01*
X53255938Y-98357376D01*
X53251900Y-98334767D01*
X53248980Y-98311790D01*
X53247207Y-98288474D01*
X53246610Y-98264848D01*
X53247207Y-98241222D01*
X53248980Y-98217906D01*
X53251900Y-98194929D01*
X53255938Y-98172320D01*
X53261065Y-98150107D01*
X53267252Y-98128321D01*
X53274470Y-98106988D01*
X53282691Y-98086139D01*
X53291885Y-98065802D01*
X53302024Y-98046005D01*
X53313080Y-98026779D01*
X53325022Y-98008151D01*
X53337823Y-97990151D01*
X53351453Y-97972807D01*
X53365883Y-97956148D01*
X53381086Y-97940203D01*
X53397031Y-97925001D01*
X53413690Y-97910571D01*
X53431035Y-97896941D01*
X53449036Y-97884141D01*
X53467664Y-97872199D01*
X53486891Y-97861144D01*
X53506688Y-97851005D01*
X53527025Y-97841811D01*
X53547875Y-97833590D01*
X53569208Y-97826372D01*
X53590996Y-97820185D01*
X53613208Y-97815059D01*
X53635818Y-97811021D01*
X53658796Y-97808102D01*
X53682112Y-97806329D01*
X53705739Y-97805731D01*
X53729366Y-97806329D01*
G36*
X53729366Y-97806329D02*
G01*
X53752682Y-97808102D01*
X53775659Y-97811021D01*
X53798268Y-97815059D01*
X53820481Y-97820185D01*
X53842268Y-97826372D01*
X53863600Y-97833590D01*
X53884449Y-97841811D01*
X53904786Y-97851005D01*
X53924581Y-97861144D01*
X53943807Y-97872199D01*
X53962435Y-97884141D01*
X53980434Y-97896941D01*
X53997778Y-97910571D01*
X54014436Y-97925001D01*
X54030380Y-97940203D01*
X54045581Y-97956148D01*
X54060011Y-97972807D01*
X54073640Y-97990151D01*
X54086439Y-98008151D01*
X54098381Y-98026779D01*
X54109435Y-98046005D01*
X54119573Y-98065802D01*
X54128767Y-98086139D01*
X54136987Y-98106988D01*
X54144204Y-98128321D01*
X54150391Y-98150107D01*
X54155517Y-98172320D01*
X54159554Y-98194929D01*
X54162473Y-98217906D01*
X54164246Y-98241222D01*
X54164844Y-98264848D01*
X54164246Y-98288474D01*
X54162473Y-98311790D01*
X54159554Y-98334767D01*
X54155517Y-98357376D01*
X54150391Y-98379588D01*
X54144204Y-98401375D01*
X54136987Y-98422708D01*
X54128767Y-98443557D01*
X54119573Y-98463894D01*
X54109435Y-98483690D01*
X54098381Y-98502917D01*
X54086439Y-98521544D01*
X54073640Y-98539545D01*
X54060011Y-98556889D01*
X54045581Y-98573548D01*
X54030380Y-98589492D01*
X54014436Y-98604694D01*
X53997778Y-98619125D01*
X53980434Y-98632754D01*
X53962435Y-98645555D01*
X53943807Y-98657497D01*
X53924581Y-98668552D01*
X53904786Y-98678691D01*
X53884449Y-98687885D01*
X53863600Y-98696105D01*
X53842268Y-98703323D01*
X53820481Y-98709510D01*
X53798268Y-98714637D01*
X53775659Y-98718674D01*
X53752682Y-98721594D01*
X53729366Y-98723367D01*
X53705739Y-98723964D01*
X53682112Y-98723367D01*
X53658796Y-98721594D01*
X53635818Y-98718674D01*
X53613208Y-98714637D01*
X53590996Y-98709510D01*
X53569208Y-98703323D01*
X53547875Y-98696105D01*
X53527025Y-98687885D01*
X53506688Y-98678691D01*
X53486891Y-98668552D01*
X53467664Y-98657497D01*
X53449036Y-98645555D01*
X53431035Y-98632754D01*
X53413690Y-98619125D01*
X53397031Y-98604694D01*
X53381086Y-98589492D01*
X53365883Y-98573548D01*
X53351453Y-98556889D01*
X53337823Y-98539545D01*
X53325022Y-98521544D01*
X53313080Y-98502917D01*
X53302024Y-98483690D01*
X53291885Y-98463894D01*
X53282691Y-98443557D01*
X53274470Y-98422708D01*
X53267252Y-98401375D01*
X53261065Y-98379588D01*
X53255938Y-98357376D01*
X53251900Y-98334767D01*
X53248980Y-98311790D01*
X53247207Y-98288474D01*
X53246610Y-98264848D01*
X53247207Y-98241222D01*
X53248980Y-98217906D01*
X53251900Y-98194929D01*
X53255938Y-98172320D01*
X53261065Y-98150107D01*
X53267252Y-98128321D01*
X53274470Y-98106988D01*
X53282691Y-98086139D01*
X53291885Y-98065802D01*
X53302024Y-98046005D01*
X53313080Y-98026779D01*
X53325022Y-98008151D01*
X53337823Y-97990151D01*
X53351453Y-97972807D01*
X53365883Y-97956148D01*
X53381086Y-97940203D01*
X53397031Y-97925001D01*
X53413690Y-97910571D01*
X53431035Y-97896941D01*
X53449036Y-97884141D01*
X53467664Y-97872199D01*
X53486891Y-97861144D01*
X53506688Y-97851005D01*
X53527025Y-97841811D01*
X53547875Y-97833590D01*
X53569208Y-97826372D01*
X53590996Y-97820185D01*
X53613208Y-97815059D01*
X53635818Y-97811021D01*
X53658796Y-97808102D01*
X53682112Y-97806329D01*
X53705739Y-97805731D01*
X53729366Y-97806329D01*
G37*
D10*
X52896801Y-99143895D02*
X52851745Y-99101060D01*
D11*
X54327169Y-94964423D02*
X54276982Y-94993280D01*
X52508849Y-94001159D02*
X52507290Y-93939488D01*
X52988691Y-94899837D02*
X52943417Y-94864260D01*
D10*
X52503533Y-98131312D02*
X52510442Y-98073699D01*
D11*
X54375793Y-102311574D02*
X54422778Y-102344987D01*
X52580012Y-94351550D02*
X52561170Y-94295866D01*
X53134490Y-94993280D02*
X53084303Y-94964423D01*
X54666081Y-94656531D02*
X54630504Y-94701805D01*
X52531637Y-103063810D02*
X52545019Y-103005828D01*
X53464212Y-104479425D02*
X53406230Y-104466043D01*
D10*
X52696985Y-97582547D02*
X52731529Y-97532983D01*
D11*
X52858310Y-104152759D02*
X52818628Y-104111138D01*
D10*
X54267370Y-99316616D02*
X54214265Y-99342869D01*
D11*
X53583202Y-92747238D02*
X53644065Y-92742610D01*
X53828272Y-92747238D02*
X53888249Y-92754860D01*
X54897977Y-103427870D02*
X54890355Y-103487846D01*
X54866435Y-103005828D02*
X54879816Y-103063810D01*
D10*
X52636186Y-98808718D02*
X52609932Y-98755612D01*
D11*
X52899932Y-104192441D02*
X52858310Y-104152759D01*
D10*
X52808910Y-99056003D02*
X52768838Y-99009336D01*
D11*
X53035678Y-94933250D02*
X52988691Y-94899837D01*
X52943417Y-104230108D02*
X52899932Y-104192441D01*
X52943407Y-102380564D02*
X52988680Y-102344987D01*
X53583206Y-104497585D02*
X53523229Y-104489964D01*
X52601467Y-93473002D02*
X52625467Y-93419916D01*
X52545019Y-93639980D02*
X52561168Y-93583110D01*
X54117800Y-95065204D02*
X54062116Y-95084045D01*
X53888249Y-102120708D02*
X53947265Y-102131248D01*
X54630504Y-93177171D02*
X54666081Y-93222444D01*
X52580009Y-102893274D02*
X52601467Y-102838851D01*
D10*
X53763662Y-99453411D02*
X53705727Y-99454792D01*
X54801522Y-98755612D02*
X54775268Y-98808718D01*
X54714469Y-98911602D02*
X54679924Y-98961167D01*
D11*
X54468051Y-104230108D02*
X54422778Y-104265686D01*
D10*
X53705727Y-99454792D02*
X53647791Y-99453411D01*
D11*
X52818619Y-102499535D02*
X52858301Y-102457914D01*
D10*
X54775268Y-98808718D02*
X54746250Y-98860750D01*
D11*
X53035667Y-92945725D02*
X53084292Y-92914553D01*
D10*
X52609932Y-98755612D02*
X52586441Y-98701540D01*
D11*
X54904164Y-93939488D02*
X54902605Y-94001159D01*
X52680795Y-103926769D02*
X52651938Y-103876582D01*
X53523229Y-104489964D02*
X53464212Y-104479425D01*
X53084303Y-94964423D02*
X53035678Y-94933250D01*
X54592837Y-94745289D02*
X54553156Y-94786910D01*
X54897977Y-94062021D02*
X54890355Y-94121998D01*
X53084292Y-102280401D02*
X53134479Y-102251545D01*
X53767410Y-104502213D02*
X53705739Y-104503773D01*
X52711962Y-102635279D02*
X52745374Y-102588293D01*
D10*
X54105263Y-99387086D02*
X54049582Y-99405049D01*
D11*
X54276982Y-92885696D02*
X54327169Y-92914553D01*
X52988680Y-92979138D02*
X53035667Y-92945725D01*
D10*
X54746250Y-98860750D02*
X54714469Y-98911602D01*
D11*
X52711968Y-103975394D02*
X52680795Y-103926769D01*
D10*
X52609932Y-97738538D02*
X52636186Y-97685432D01*
D11*
X54468051Y-102380564D02*
X54511535Y-102418232D01*
D10*
X54160193Y-99366359D02*
X54105263Y-99387086D01*
D11*
X54902605Y-94001159D02*
X54897977Y-94062021D01*
X54879816Y-94181014D02*
X54866435Y-94238996D01*
D10*
X52731529Y-97532983D02*
X52768838Y-97484813D01*
D11*
X54759522Y-93368242D02*
X54785987Y-93419916D01*
X53035678Y-104299099D02*
X52988691Y-104265686D01*
X52651933Y-93368242D02*
X52680789Y-93318055D01*
X54553156Y-104152759D02*
X54511535Y-104192441D01*
X53084303Y-104330271D02*
X53035678Y-104299099D01*
D10*
X53589963Y-99449265D02*
X53532350Y-99442357D01*
D11*
X53828272Y-104497585D02*
X53767410Y-104502213D01*
X54276982Y-94993280D02*
X54225308Y-95019746D01*
D10*
X52503533Y-98362838D02*
X52499388Y-98305010D01*
D11*
X54904164Y-103305336D02*
X54902605Y-103367008D01*
D10*
X54370254Y-99255818D02*
X54319403Y-99287599D01*
X54559708Y-99101060D02*
X54514652Y-99143895D01*
D11*
X54879816Y-103546863D02*
X54866435Y-103604844D01*
D10*
X54845739Y-98646610D02*
X54825012Y-98701540D01*
D11*
X52625467Y-93419916D02*
X52651933Y-93368242D01*
D10*
X52851745Y-99101060D02*
X52808910Y-99056003D01*
D11*
X52513477Y-93816955D02*
X52521098Y-93756978D01*
X54809987Y-93473002D02*
X54831444Y-93527425D01*
D10*
X54419818Y-99221274D02*
X54370254Y-99255818D01*
D11*
X53134479Y-92885696D02*
X53186154Y-92859230D01*
X54005246Y-92778781D02*
X54062116Y-92794930D01*
D10*
X53197189Y-99342869D02*
X53144083Y-99316616D01*
D11*
X53523229Y-95124116D02*
X53464212Y-95113577D01*
X54511535Y-104192441D02*
X54468051Y-104230108D01*
X54666081Y-93222444D02*
X54699493Y-93269431D01*
X53523223Y-102120708D02*
X53583202Y-102113087D01*
D10*
X54863703Y-97903221D02*
X54878902Y-97959546D01*
D11*
X54902605Y-93877816D02*
X54904164Y-93939488D01*
D10*
X52510442Y-98420451D02*
X52503533Y-98362838D01*
D11*
X52780960Y-94701805D02*
X52745381Y-94656531D01*
X54866435Y-103604844D02*
X54850286Y-103661715D01*
D10*
X52808910Y-97438147D02*
X52851745Y-97393089D01*
D11*
X52899932Y-94826592D02*
X52858310Y-94786910D01*
D10*
X52565714Y-98646610D02*
X52547751Y-98590929D01*
X53251260Y-99366359D02*
X53197189Y-99342869D01*
D11*
X53035667Y-102311574D02*
X53084292Y-102280401D01*
X52818628Y-104111138D02*
X52780960Y-104067653D01*
X54699493Y-93269431D02*
X54730665Y-93318055D01*
X54759522Y-103876582D02*
X54730665Y-103926769D01*
X52531638Y-103546863D02*
X52521099Y-103487846D01*
X53349359Y-104449893D02*
X53293675Y-104431052D01*
D10*
X54214265Y-99342869D02*
X54160193Y-99366359D01*
D11*
X53828272Y-102113087D02*
X53888249Y-102120708D01*
D10*
X54891339Y-98016408D02*
X54901011Y-98073699D01*
D11*
X54225308Y-92859230D02*
X54276982Y-92885696D01*
X53186154Y-92859230D02*
X53239241Y-92835230D01*
X53888249Y-104489964D02*
X53828272Y-104497585D01*
X52858301Y-93092065D02*
X52899922Y-93052383D01*
X54276982Y-104359128D02*
X54225308Y-104385594D01*
X54759522Y-102734090D02*
X54785987Y-102785765D01*
X52513477Y-103427870D02*
X52508849Y-103367008D01*
X52561170Y-103661715D02*
X52545021Y-103604844D01*
X53705739Y-95137925D02*
X53644068Y-95136365D01*
D10*
X54559708Y-97393089D02*
X54602544Y-97438147D01*
X52696985Y-98911602D02*
X52665203Y-98860750D01*
X53647791Y-99453411D02*
X53589963Y-99449265D01*
X54845739Y-97847539D02*
X54863703Y-97903221D01*
D11*
X54630504Y-94701805D02*
X54592837Y-94745289D01*
X54422778Y-92979138D02*
X54468051Y-93014716D01*
X54831444Y-102893274D02*
X54850286Y-102948958D01*
X52651938Y-103876582D02*
X52625471Y-103824908D01*
X52545021Y-94238996D02*
X52531638Y-94181014D01*
X54172223Y-92835230D02*
X54225308Y-92859230D01*
X53705739Y-102106900D02*
X53767410Y-102108459D01*
X52745374Y-102588293D02*
X52780952Y-102543019D01*
X53239241Y-92835230D02*
X53293665Y-92813772D01*
X54062116Y-92794930D02*
X54117800Y-92813772D01*
X53239241Y-102201079D02*
X53293665Y-102179621D01*
X53293665Y-92813772D02*
X53349350Y-92794930D01*
X52711962Y-93269431D02*
X52745374Y-93222444D01*
X52601467Y-102838851D02*
X52625467Y-102785765D01*
X53406222Y-102144630D02*
X53464205Y-102131248D01*
D10*
X54714469Y-97582547D02*
X54746250Y-97633399D01*
D11*
X54850286Y-93583110D02*
X54866435Y-93639980D01*
X53293675Y-95065204D02*
X53239251Y-95043745D01*
X52818619Y-93133686D02*
X52858301Y-93092065D01*
X54276982Y-102251545D02*
X54327169Y-102280401D01*
X52601471Y-94405973D02*
X52580012Y-94351550D01*
D10*
X54801522Y-97738538D02*
X54825012Y-97792609D01*
D11*
X53464205Y-92765399D02*
X53523223Y-92754860D01*
D10*
X52520115Y-98477742D02*
X52510442Y-98420451D01*
X54901011Y-98420450D02*
X54891339Y-98477742D01*
D11*
X54866435Y-93639980D02*
X54879816Y-93697961D01*
X52601471Y-103771822D02*
X52580012Y-103717399D01*
X54117800Y-102179621D02*
X54172223Y-102201079D01*
X54879816Y-93697961D02*
X54890355Y-93756978D01*
X54809987Y-102838851D02*
X54831444Y-102893274D01*
D10*
X53821490Y-99449265D02*
X53763662Y-99453411D01*
D11*
X54902605Y-103243665D02*
X54904164Y-103305336D01*
X54553156Y-94786910D02*
X54511535Y-94826592D01*
D10*
X54912065Y-98189140D02*
X54913447Y-98247075D01*
X54912065Y-98305010D02*
X54907920Y-98362837D01*
D11*
X54666081Y-102588293D02*
X54699493Y-102635279D01*
X52561168Y-102948958D02*
X52580009Y-102893274D01*
D10*
X54602544Y-97438147D02*
X54642616Y-97484813D01*
D11*
X52780960Y-104067653D02*
X52745381Y-104022380D01*
X52513477Y-103182803D02*
X52521098Y-103122826D01*
X53239251Y-95043745D02*
X53186165Y-95019746D01*
X53644065Y-92742610D02*
X53705739Y-92741051D01*
D10*
X54825012Y-98701540D02*
X54801522Y-98755612D01*
D11*
X52899922Y-93052383D02*
X52943407Y-93014716D01*
X52858310Y-94786910D02*
X52818628Y-94745289D01*
D10*
X53936395Y-99432684D02*
X53879103Y-99442357D01*
X54319403Y-99287599D02*
X54267370Y-99316616D01*
D11*
X54422778Y-102344987D02*
X54468051Y-102380564D01*
X54592837Y-93133686D02*
X54630504Y-93177171D01*
D10*
X52510442Y-98073699D02*
X52520115Y-98016408D01*
D11*
X54879816Y-103063810D02*
X54890355Y-103122826D01*
X53767410Y-95136365D02*
X53705739Y-95137925D01*
X52651938Y-94510734D02*
X52625471Y-94459059D01*
X52899922Y-102418232D02*
X52943407Y-102380564D01*
X54699493Y-103975394D02*
X54666081Y-104022380D01*
X52818628Y-94745289D02*
X52780960Y-94701805D01*
X53523223Y-92754860D02*
X53583202Y-92747238D01*
X53583202Y-102113087D02*
X53644065Y-102108459D01*
X54553156Y-102457914D02*
X54592837Y-102499535D01*
X52521099Y-103487846D02*
X52513477Y-103427870D01*
D10*
X52565714Y-97847540D02*
X52586441Y-97792610D01*
D11*
X54172223Y-104409594D02*
X54117800Y-104431052D01*
X54897977Y-93816955D02*
X54902605Y-93877816D01*
D12*
X53705739Y-102060604D02*
X53705739Y-99492035D01*
D10*
X52532551Y-98534604D02*
X52520115Y-98477742D01*
D11*
X52508849Y-103367008D02*
X52507290Y-103305336D01*
X54730665Y-102683903D02*
X54759522Y-102734090D01*
X52988691Y-104265686D02*
X52943417Y-104230108D01*
X53888249Y-95124116D02*
X53828272Y-95131737D01*
X53888249Y-92754860D02*
X53947265Y-92765399D01*
D10*
X52520115Y-98016408D02*
X52532551Y-97959546D01*
X53144083Y-99316616D02*
X53092051Y-99287599D01*
D15*
X148493922Y-97869819D02*
X149065350Y-97869819D01*
X148779636Y-98869819D02*
X148779636Y-97869819D01*
X149303446Y-97869819D02*
X149970112Y-98869819D01*
X149970112Y-97869819D02*
X149303446Y-98869819D01*
D16*
X49877278Y-98419743D02*
X49877278Y-99134029D01*
X49877278Y-99134029D02*
X50591564Y-99205457D01*
X50591564Y-99205457D02*
X50520135Y-99134029D01*
X50520135Y-99134029D02*
X50448707Y-98991172D01*
X50448707Y-98991172D02*
X50448707Y-98634029D01*
X50448707Y-98634029D02*
X50520135Y-98491172D01*
X50520135Y-98491172D02*
X50591564Y-98419743D01*
X50591564Y-98419743D02*
X50734421Y-98348314D01*
X50734421Y-98348314D02*
X51091564Y-98348314D01*
X51091564Y-98348314D02*
X51234421Y-98419743D01*
X51234421Y-98419743D02*
X51305850Y-98491172D01*
X51305850Y-98491172D02*
X51377278Y-98634029D01*
X51377278Y-98634029D02*
X51377278Y-98991172D01*
X51377278Y-98991172D02*
X51305850Y-99134029D01*
X51305850Y-99134029D02*
X51234421Y-99205457D01*
X49877278Y-97919743D02*
X51377278Y-97419743D01*
X51377278Y-97419743D02*
X49877278Y-96919743D01*
D15*
X148436779Y-84359819D02*
X148436779Y-83359819D01*
X148436779Y-83359819D02*
X148674874Y-83359819D01*
X148674874Y-83359819D02*
X148817731Y-83407438D01*
X148817731Y-83407438D02*
X148912969Y-83502676D01*
X148912969Y-83502676D02*
X148960588Y-83597914D01*
X148960588Y-83597914D02*
X149008207Y-83788390D01*
X149008207Y-83788390D02*
X149008207Y-83931247D01*
X149008207Y-83931247D02*
X148960588Y-84121723D01*
X148960588Y-84121723D02*
X148912969Y-84216961D01*
X148912969Y-84216961D02*
X148817731Y-84312200D01*
X148817731Y-84312200D02*
X148674874Y-84359819D01*
X148674874Y-84359819D02*
X148436779Y-84359819D01*
X149484398Y-84359819D02*
X149674874Y-84359819D01*
X149674874Y-84359819D02*
X149770112Y-84312200D01*
X149770112Y-84312200D02*
X149817731Y-84264580D01*
X149817731Y-84264580D02*
X149912969Y-84121723D01*
X149912969Y-84121723D02*
X149960588Y-83931247D01*
X149960588Y-83931247D02*
X149960588Y-83550295D01*
X149960588Y-83550295D02*
X149912969Y-83455057D01*
X149912969Y-83455057D02*
X149865350Y-83407438D01*
X149865350Y-83407438D02*
X149770112Y-83359819D01*
X149770112Y-83359819D02*
X149579636Y-83359819D01*
X149579636Y-83359819D02*
X149484398Y-83407438D01*
X149484398Y-83407438D02*
X149436779Y-83455057D01*
X149436779Y-83455057D02*
X149389160Y-83550295D01*
X149389160Y-83550295D02*
X149389160Y-83788390D01*
X149389160Y-83788390D02*
X149436779Y-83883628D01*
X149436779Y-83883628D02*
X149484398Y-83931247D01*
X149484398Y-83931247D02*
X149579636Y-83978866D01*
X149579636Y-83978866D02*
X149770112Y-83978866D01*
X149770112Y-83978866D02*
X149865350Y-83931247D01*
X149865350Y-83931247D02*
X149912969Y-83883628D01*
X149912969Y-83883628D02*
X149960588Y-83788390D01*
X151103445Y-83312200D02*
X150246303Y-84597914D01*
X148436779Y-85969819D02*
X148436779Y-84969819D01*
X148436779Y-84969819D02*
X148674874Y-84969819D01*
X148674874Y-84969819D02*
X148817731Y-85017438D01*
X148817731Y-85017438D02*
X148912969Y-85112676D01*
X148912969Y-85112676D02*
X148960588Y-85207914D01*
X148960588Y-85207914D02*
X149008207Y-85398390D01*
X149008207Y-85398390D02*
X149008207Y-85541247D01*
X149008207Y-85541247D02*
X148960588Y-85731723D01*
X148960588Y-85731723D02*
X148912969Y-85826961D01*
X148912969Y-85826961D02*
X148817731Y-85922200D01*
X148817731Y-85922200D02*
X148674874Y-85969819D01*
X148674874Y-85969819D02*
X148436779Y-85969819D01*
X149960588Y-85969819D02*
X149389160Y-85969819D01*
X149674874Y-85969819D02*
X149674874Y-84969819D01*
X149674874Y-84969819D02*
X149579636Y-85112676D01*
X149579636Y-85112676D02*
X149484398Y-85207914D01*
X149484398Y-85207914D02*
X149389160Y-85255533D01*
X150579636Y-84969819D02*
X150674874Y-84969819D01*
X150674874Y-84969819D02*
X150770112Y-85017438D01*
X150770112Y-85017438D02*
X150817731Y-85065057D01*
X150817731Y-85065057D02*
X150865350Y-85160295D01*
X150865350Y-85160295D02*
X150912969Y-85350771D01*
X150912969Y-85350771D02*
X150912969Y-85588866D01*
X150912969Y-85588866D02*
X150865350Y-85779342D01*
X150865350Y-85779342D02*
X150817731Y-85874580D01*
X150817731Y-85874580D02*
X150770112Y-85922200D01*
X150770112Y-85922200D02*
X150674874Y-85969819D01*
X150674874Y-85969819D02*
X150579636Y-85969819D01*
X150579636Y-85969819D02*
X150484398Y-85922200D01*
X150484398Y-85922200D02*
X150436779Y-85874580D01*
X150436779Y-85874580D02*
X150389160Y-85779342D01*
X150389160Y-85779342D02*
X150341541Y-85588866D01*
X150341541Y-85588866D02*
X150341541Y-85350771D01*
X150341541Y-85350771D02*
X150389160Y-85160295D01*
X150389160Y-85160295D02*
X150436779Y-85065057D01*
X150436779Y-85065057D02*
X150484398Y-85017438D01*
X150484398Y-85017438D02*
X150579636Y-84969819D01*
X148441541Y-62769819D02*
X149060588Y-62769819D01*
X149060588Y-62769819D02*
X148727255Y-63150771D01*
X148727255Y-63150771D02*
X148870112Y-63150771D01*
X148870112Y-63150771D02*
X148965350Y-63198390D01*
X148965350Y-63198390D02*
X149012969Y-63246009D01*
X149012969Y-63246009D02*
X149060588Y-63341247D01*
X149060588Y-63341247D02*
X149060588Y-63579342D01*
X149060588Y-63579342D02*
X149012969Y-63674580D01*
X149012969Y-63674580D02*
X148965350Y-63722200D01*
X148965350Y-63722200D02*
X148870112Y-63769819D01*
X148870112Y-63769819D02*
X148584398Y-63769819D01*
X148584398Y-63769819D02*
X148489160Y-63722200D01*
X148489160Y-63722200D02*
X148441541Y-63674580D01*
X149346303Y-62769819D02*
X149679636Y-63769819D01*
X149679636Y-63769819D02*
X150012969Y-62769819D01*
X150251065Y-62769819D02*
X150870112Y-62769819D01*
X150870112Y-62769819D02*
X150536779Y-63150771D01*
X150536779Y-63150771D02*
X150679636Y-63150771D01*
X150679636Y-63150771D02*
X150774874Y-63198390D01*
X150774874Y-63198390D02*
X150822493Y-63246009D01*
X150822493Y-63246009D02*
X150870112Y-63341247D01*
X150870112Y-63341247D02*
X150870112Y-63579342D01*
X150870112Y-63579342D02*
X150822493Y-63674580D01*
X150822493Y-63674580D02*
X150774874Y-63722200D01*
X150774874Y-63722200D02*
X150679636Y-63769819D01*
X150679636Y-63769819D02*
X150393922Y-63769819D01*
X150393922Y-63769819D02*
X150298684Y-63722200D01*
X150298684Y-63722200D02*
X150251065Y-63674580D01*
X149060588Y-93817438D02*
X148965350Y-93769819D01*
X148965350Y-93769819D02*
X148822493Y-93769819D01*
X148822493Y-93769819D02*
X148679636Y-93817438D01*
X148679636Y-93817438D02*
X148584398Y-93912676D01*
X148584398Y-93912676D02*
X148536779Y-94007914D01*
X148536779Y-94007914D02*
X148489160Y-94198390D01*
X148489160Y-94198390D02*
X148489160Y-94341247D01*
X148489160Y-94341247D02*
X148536779Y-94531723D01*
X148536779Y-94531723D02*
X148584398Y-94626961D01*
X148584398Y-94626961D02*
X148679636Y-94722200D01*
X148679636Y-94722200D02*
X148822493Y-94769819D01*
X148822493Y-94769819D02*
X148917731Y-94769819D01*
X148917731Y-94769819D02*
X149060588Y-94722200D01*
X149060588Y-94722200D02*
X149108207Y-94674580D01*
X149108207Y-94674580D02*
X149108207Y-94341247D01*
X149108207Y-94341247D02*
X148917731Y-94341247D01*
X149536779Y-94769819D02*
X149536779Y-93769819D01*
X149536779Y-93769819D02*
X150108207Y-94769819D01*
X150108207Y-94769819D02*
X150108207Y-93769819D01*
X150584398Y-94769819D02*
X150584398Y-93769819D01*
X150584398Y-93769819D02*
X150822493Y-93769819D01*
X150822493Y-93769819D02*
X150965350Y-93817438D01*
X150965350Y-93817438D02*
X151060588Y-93912676D01*
X151060588Y-93912676D02*
X151108207Y-94007914D01*
X151108207Y-94007914D02*
X151155826Y-94198390D01*
X151155826Y-94198390D02*
X151155826Y-94341247D01*
X151155826Y-94341247D02*
X151108207Y-94531723D01*
X151108207Y-94531723D02*
X151060588Y-94626961D01*
X151060588Y-94626961D02*
X150965350Y-94722200D01*
X150965350Y-94722200D02*
X150822493Y-94769819D01*
X150822493Y-94769819D02*
X150584398Y-94769819D01*
X112899819Y-111550220D02*
X111899819Y-111550220D01*
X111995057Y-111121649D02*
X111947438Y-111074030D01*
X111947438Y-111074030D02*
X111899819Y-110978792D01*
X111899819Y-110978792D02*
X111899819Y-110740697D01*
X111899819Y-110740697D02*
X111947438Y-110645459D01*
X111947438Y-110645459D02*
X111995057Y-110597840D01*
X111995057Y-110597840D02*
X112090295Y-110550221D01*
X112090295Y-110550221D02*
X112185533Y-110550221D01*
X112185533Y-110550221D02*
X112328390Y-110597840D01*
X112328390Y-110597840D02*
X112899819Y-111169268D01*
X112899819Y-111169268D02*
X112899819Y-110550221D01*
X112804580Y-109550221D02*
X112852200Y-109597840D01*
X112852200Y-109597840D02*
X112899819Y-109740697D01*
X112899819Y-109740697D02*
X112899819Y-109835935D01*
X112899819Y-109835935D02*
X112852200Y-109978792D01*
X112852200Y-109978792D02*
X112756961Y-110074030D01*
X112756961Y-110074030D02*
X112661723Y-110121649D01*
X112661723Y-110121649D02*
X112471247Y-110169268D01*
X112471247Y-110169268D02*
X112328390Y-110169268D01*
X112328390Y-110169268D02*
X112137914Y-110121649D01*
X112137914Y-110121649D02*
X112042676Y-110074030D01*
X112042676Y-110074030D02*
X111947438Y-109978792D01*
X111947438Y-109978792D02*
X111899819Y-109835935D01*
X111899819Y-109835935D02*
X111899819Y-109740697D01*
X111899819Y-109740697D02*
X111947438Y-109597840D01*
X111947438Y-109597840D02*
X111995057Y-109550221D01*
X51905019Y-83372744D02*
X51905019Y-83182268D01*
X51905019Y-83182268D02*
X51952638Y-83087030D01*
X51952638Y-83087030D02*
X52047876Y-82991792D01*
X52047876Y-82991792D02*
X52238352Y-82944173D01*
X52238352Y-82944173D02*
X52571685Y-82944173D01*
X52571685Y-82944173D02*
X52762161Y-82991792D01*
X52762161Y-82991792D02*
X52857400Y-83087030D01*
X52857400Y-83087030D02*
X52905019Y-83182268D01*
X52905019Y-83182268D02*
X52905019Y-83372744D01*
X52905019Y-83372744D02*
X52857400Y-83467982D01*
X52857400Y-83467982D02*
X52762161Y-83563220D01*
X52762161Y-83563220D02*
X52571685Y-83610839D01*
X52571685Y-83610839D02*
X52238352Y-83610839D01*
X52238352Y-83610839D02*
X52047876Y-83563220D01*
X52047876Y-83563220D02*
X51952638Y-83467982D01*
X51952638Y-83467982D02*
X51905019Y-83372744D01*
X52381209Y-82182268D02*
X52381209Y-82515601D01*
X52905019Y-82515601D02*
X51905019Y-82515601D01*
X51905019Y-82515601D02*
X51905019Y-82039411D01*
X52381209Y-81325125D02*
X52381209Y-81658458D01*
X52905019Y-81658458D02*
X51905019Y-81658458D01*
X51905019Y-81658458D02*
X51905019Y-81182268D01*
X51905019Y-72972744D02*
X51905019Y-72782268D01*
X51905019Y-72782268D02*
X51952638Y-72687030D01*
X51952638Y-72687030D02*
X52047876Y-72591792D01*
X52047876Y-72591792D02*
X52238352Y-72544173D01*
X52238352Y-72544173D02*
X52571685Y-72544173D01*
X52571685Y-72544173D02*
X52762161Y-72591792D01*
X52762161Y-72591792D02*
X52857400Y-72687030D01*
X52857400Y-72687030D02*
X52905019Y-72782268D01*
X52905019Y-72782268D02*
X52905019Y-72972744D01*
X52905019Y-72972744D02*
X52857400Y-73067982D01*
X52857400Y-73067982D02*
X52762161Y-73163220D01*
X52762161Y-73163220D02*
X52571685Y-73210839D01*
X52571685Y-73210839D02*
X52238352Y-73210839D01*
X52238352Y-73210839D02*
X52047876Y-73163220D01*
X52047876Y-73163220D02*
X51952638Y-73067982D01*
X51952638Y-73067982D02*
X51905019Y-72972744D01*
X52905019Y-72115601D02*
X51905019Y-72115601D01*
X51905019Y-72115601D02*
X52905019Y-71544173D01*
X52905019Y-71544173D02*
X51905019Y-71544173D01*
X148436779Y-67759819D02*
X148436779Y-66759819D01*
X148436779Y-66759819D02*
X148674874Y-66759819D01*
X148674874Y-66759819D02*
X148817731Y-66807438D01*
X148817731Y-66807438D02*
X148912969Y-66902676D01*
X148912969Y-66902676D02*
X148960588Y-66997914D01*
X148960588Y-66997914D02*
X149008207Y-67188390D01*
X149008207Y-67188390D02*
X149008207Y-67331247D01*
X149008207Y-67331247D02*
X148960588Y-67521723D01*
X148960588Y-67521723D02*
X148912969Y-67616961D01*
X148912969Y-67616961D02*
X148817731Y-67712200D01*
X148817731Y-67712200D02*
X148674874Y-67759819D01*
X148674874Y-67759819D02*
X148436779Y-67759819D01*
X149865350Y-66759819D02*
X149674874Y-66759819D01*
X149674874Y-66759819D02*
X149579636Y-66807438D01*
X149579636Y-66807438D02*
X149532017Y-66855057D01*
X149532017Y-66855057D02*
X149436779Y-66997914D01*
X149436779Y-66997914D02*
X149389160Y-67188390D01*
X149389160Y-67188390D02*
X149389160Y-67569342D01*
X149389160Y-67569342D02*
X149436779Y-67664580D01*
X149436779Y-67664580D02*
X149484398Y-67712200D01*
X149484398Y-67712200D02*
X149579636Y-67759819D01*
X149579636Y-67759819D02*
X149770112Y-67759819D01*
X149770112Y-67759819D02*
X149865350Y-67712200D01*
X149865350Y-67712200D02*
X149912969Y-67664580D01*
X149912969Y-67664580D02*
X149960588Y-67569342D01*
X149960588Y-67569342D02*
X149960588Y-67331247D01*
X149960588Y-67331247D02*
X149912969Y-67236009D01*
X149912969Y-67236009D02*
X149865350Y-67188390D01*
X149865350Y-67188390D02*
X149770112Y-67140771D01*
X149770112Y-67140771D02*
X149579636Y-67140771D01*
X149579636Y-67140771D02*
X149484398Y-67188390D01*
X149484398Y-67188390D02*
X149436779Y-67236009D01*
X149436779Y-67236009D02*
X149389160Y-67331247D01*
X151103445Y-66712200D02*
X150246303Y-67997914D01*
X148436779Y-69369819D02*
X148436779Y-68369819D01*
X148436779Y-68369819D02*
X148674874Y-68369819D01*
X148674874Y-68369819D02*
X148817731Y-68417438D01*
X148817731Y-68417438D02*
X148912969Y-68512676D01*
X148912969Y-68512676D02*
X148960588Y-68607914D01*
X148960588Y-68607914D02*
X149008207Y-68798390D01*
X149008207Y-68798390D02*
X149008207Y-68941247D01*
X149008207Y-68941247D02*
X148960588Y-69131723D01*
X148960588Y-69131723D02*
X148912969Y-69226961D01*
X148912969Y-69226961D02*
X148817731Y-69322200D01*
X148817731Y-69322200D02*
X148674874Y-69369819D01*
X148674874Y-69369819D02*
X148436779Y-69369819D01*
X149960588Y-69369819D02*
X149389160Y-69369819D01*
X149674874Y-69369819D02*
X149674874Y-68369819D01*
X149674874Y-68369819D02*
X149579636Y-68512676D01*
X149579636Y-68512676D02*
X149484398Y-68607914D01*
X149484398Y-68607914D02*
X149389160Y-68655533D01*
X150579636Y-68369819D02*
X150674874Y-68369819D01*
X150674874Y-68369819D02*
X150770112Y-68417438D01*
X150770112Y-68417438D02*
X150817731Y-68465057D01*
X150817731Y-68465057D02*
X150865350Y-68560295D01*
X150865350Y-68560295D02*
X150912969Y-68750771D01*
X150912969Y-68750771D02*
X150912969Y-68988866D01*
X150912969Y-68988866D02*
X150865350Y-69179342D01*
X150865350Y-69179342D02*
X150817731Y-69274580D01*
X150817731Y-69274580D02*
X150770112Y-69322200D01*
X150770112Y-69322200D02*
X150674874Y-69369819D01*
X150674874Y-69369819D02*
X150579636Y-69369819D01*
X150579636Y-69369819D02*
X150484398Y-69322200D01*
X150484398Y-69322200D02*
X150436779Y-69274580D01*
X150436779Y-69274580D02*
X150389160Y-69179342D01*
X150389160Y-69179342D02*
X150341541Y-68988866D01*
X150341541Y-68988866D02*
X150341541Y-68750771D01*
X150341541Y-68750771D02*
X150389160Y-68560295D01*
X150389160Y-68560295D02*
X150436779Y-68465057D01*
X150436779Y-68465057D02*
X150484398Y-68417438D01*
X150484398Y-68417438D02*
X150579636Y-68369819D01*
X149108207Y-100769819D02*
X148774874Y-100293628D01*
X148536779Y-100769819D02*
X148536779Y-99769819D01*
X148536779Y-99769819D02*
X148917731Y-99769819D01*
X148917731Y-99769819D02*
X149012969Y-99817438D01*
X149012969Y-99817438D02*
X149060588Y-99865057D01*
X149060588Y-99865057D02*
X149108207Y-99960295D01*
X149108207Y-99960295D02*
X149108207Y-100103152D01*
X149108207Y-100103152D02*
X149060588Y-100198390D01*
X149060588Y-100198390D02*
X149012969Y-100246009D01*
X149012969Y-100246009D02*
X148917731Y-100293628D01*
X148917731Y-100293628D02*
X148536779Y-100293628D01*
X149441541Y-99769819D02*
X150108207Y-100769819D01*
X150108207Y-99769819D02*
X149441541Y-100769819D01*
X148960588Y-77417438D02*
X148865350Y-77369819D01*
X148865350Y-77369819D02*
X148722493Y-77369819D01*
X148722493Y-77369819D02*
X148579636Y-77417438D01*
X148579636Y-77417438D02*
X148484398Y-77512676D01*
X148484398Y-77512676D02*
X148436779Y-77607914D01*
X148436779Y-77607914D02*
X148389160Y-77798390D01*
X148389160Y-77798390D02*
X148389160Y-77941247D01*
X148389160Y-77941247D02*
X148436779Y-78131723D01*
X148436779Y-78131723D02*
X148484398Y-78226961D01*
X148484398Y-78226961D02*
X148579636Y-78322200D01*
X148579636Y-78322200D02*
X148722493Y-78369819D01*
X148722493Y-78369819D02*
X148817731Y-78369819D01*
X148817731Y-78369819D02*
X148960588Y-78322200D01*
X148960588Y-78322200D02*
X149008207Y-78274580D01*
X149008207Y-78274580D02*
X149008207Y-77941247D01*
X149008207Y-77941247D02*
X148817731Y-77941247D01*
X149436779Y-78369819D02*
X149436779Y-77369819D01*
X149436779Y-77369819D02*
X150008207Y-78369819D01*
X150008207Y-78369819D02*
X150008207Y-77369819D01*
X150484398Y-78369819D02*
X150484398Y-77369819D01*
X150484398Y-77369819D02*
X150722493Y-77369819D01*
X150722493Y-77369819D02*
X150865350Y-77417438D01*
X150865350Y-77417438D02*
X150960588Y-77512676D01*
X150960588Y-77512676D02*
X151008207Y-77607914D01*
X151008207Y-77607914D02*
X151055826Y-77798390D01*
X151055826Y-77798390D02*
X151055826Y-77941247D01*
X151055826Y-77941247D02*
X151008207Y-78131723D01*
X151008207Y-78131723D02*
X150960588Y-78226961D01*
X150960588Y-78226961D02*
X150865350Y-78322200D01*
X150865350Y-78322200D02*
X150722493Y-78369819D01*
X150722493Y-78369819D02*
X150484398Y-78369819D01*
X148960588Y-60817438D02*
X148865350Y-60769819D01*
X148865350Y-60769819D02*
X148722493Y-60769819D01*
X148722493Y-60769819D02*
X148579636Y-60817438D01*
X148579636Y-60817438D02*
X148484398Y-60912676D01*
X148484398Y-60912676D02*
X148436779Y-61007914D01*
X148436779Y-61007914D02*
X148389160Y-61198390D01*
X148389160Y-61198390D02*
X148389160Y-61341247D01*
X148389160Y-61341247D02*
X148436779Y-61531723D01*
X148436779Y-61531723D02*
X148484398Y-61626961D01*
X148484398Y-61626961D02*
X148579636Y-61722200D01*
X148579636Y-61722200D02*
X148722493Y-61769819D01*
X148722493Y-61769819D02*
X148817731Y-61769819D01*
X148817731Y-61769819D02*
X148960588Y-61722200D01*
X148960588Y-61722200D02*
X149008207Y-61674580D01*
X149008207Y-61674580D02*
X149008207Y-61341247D01*
X149008207Y-61341247D02*
X148817731Y-61341247D01*
X149436779Y-61769819D02*
X149436779Y-60769819D01*
X149436779Y-60769819D02*
X150008207Y-61769819D01*
X150008207Y-61769819D02*
X150008207Y-60769819D01*
X150484398Y-61769819D02*
X150484398Y-60769819D01*
X150484398Y-60769819D02*
X150722493Y-60769819D01*
X150722493Y-60769819D02*
X150865350Y-60817438D01*
X150865350Y-60817438D02*
X150960588Y-60912676D01*
X150960588Y-60912676D02*
X151008207Y-61007914D01*
X151008207Y-61007914D02*
X151055826Y-61198390D01*
X151055826Y-61198390D02*
X151055826Y-61341247D01*
X151055826Y-61341247D02*
X151008207Y-61531723D01*
X151008207Y-61531723D02*
X150960588Y-61626961D01*
X150960588Y-61626961D02*
X150865350Y-61722200D01*
X150865350Y-61722200D02*
X150722493Y-61769819D01*
X150722493Y-61769819D02*
X150484398Y-61769819D01*
X148489160Y-81984104D02*
X148965350Y-81984104D01*
X148393922Y-82269819D02*
X148727255Y-81269819D01*
X148727255Y-81269819D02*
X149060588Y-82269819D01*
X149917731Y-82269819D02*
X149346303Y-82269819D01*
X149632017Y-82269819D02*
X149632017Y-81269819D01*
X149632017Y-81269819D02*
X149536779Y-81412676D01*
X149536779Y-81412676D02*
X149441541Y-81507914D01*
X149441541Y-81507914D02*
X149346303Y-81555533D01*
X148441541Y-79369819D02*
X149060588Y-79369819D01*
X149060588Y-79369819D02*
X148727255Y-79750771D01*
X148727255Y-79750771D02*
X148870112Y-79750771D01*
X148870112Y-79750771D02*
X148965350Y-79798390D01*
X148965350Y-79798390D02*
X149012969Y-79846009D01*
X149012969Y-79846009D02*
X149060588Y-79941247D01*
X149060588Y-79941247D02*
X149060588Y-80179342D01*
X149060588Y-80179342D02*
X149012969Y-80274580D01*
X149012969Y-80274580D02*
X148965350Y-80322200D01*
X148965350Y-80322200D02*
X148870112Y-80369819D01*
X148870112Y-80369819D02*
X148584398Y-80369819D01*
X148584398Y-80369819D02*
X148489160Y-80322200D01*
X148489160Y-80322200D02*
X148441541Y-80274580D01*
X149346303Y-79369819D02*
X149679636Y-80369819D01*
X149679636Y-80369819D02*
X150012969Y-79369819D01*
X150251065Y-79369819D02*
X150870112Y-79369819D01*
X150870112Y-79369819D02*
X150536779Y-79750771D01*
X150536779Y-79750771D02*
X150679636Y-79750771D01*
X150679636Y-79750771D02*
X150774874Y-79798390D01*
X150774874Y-79798390D02*
X150822493Y-79846009D01*
X150822493Y-79846009D02*
X150870112Y-79941247D01*
X150870112Y-79941247D02*
X150870112Y-80179342D01*
X150870112Y-80179342D02*
X150822493Y-80274580D01*
X150822493Y-80274580D02*
X150774874Y-80322200D01*
X150774874Y-80322200D02*
X150679636Y-80369819D01*
X150679636Y-80369819D02*
X150393922Y-80369819D01*
X150393922Y-80369819D02*
X150298684Y-80322200D01*
X150298684Y-80322200D02*
X150251065Y-80274580D01*
X88642819Y-111550220D02*
X87642819Y-111550220D01*
X87738057Y-111121649D02*
X87690438Y-111074030D01*
X87690438Y-111074030D02*
X87642819Y-110978792D01*
X87642819Y-110978792D02*
X87642819Y-110740697D01*
X87642819Y-110740697D02*
X87690438Y-110645459D01*
X87690438Y-110645459D02*
X87738057Y-110597840D01*
X87738057Y-110597840D02*
X87833295Y-110550221D01*
X87833295Y-110550221D02*
X87928533Y-110550221D01*
X87928533Y-110550221D02*
X88071390Y-110597840D01*
X88071390Y-110597840D02*
X88642819Y-111169268D01*
X88642819Y-111169268D02*
X88642819Y-110550221D01*
X88547580Y-109550221D02*
X88595200Y-109597840D01*
X88595200Y-109597840D02*
X88642819Y-109740697D01*
X88642819Y-109740697D02*
X88642819Y-109835935D01*
X88642819Y-109835935D02*
X88595200Y-109978792D01*
X88595200Y-109978792D02*
X88499961Y-110074030D01*
X88499961Y-110074030D02*
X88404723Y-110121649D01*
X88404723Y-110121649D02*
X88214247Y-110169268D01*
X88214247Y-110169268D02*
X88071390Y-110169268D01*
X88071390Y-110169268D02*
X87880914Y-110121649D01*
X87880914Y-110121649D02*
X87785676Y-110074030D01*
X87785676Y-110074030D02*
X87690438Y-109978792D01*
X87690438Y-109978792D02*
X87642819Y-109835935D01*
X87642819Y-109835935D02*
X87642819Y-109740697D01*
X87642819Y-109740697D02*
X87690438Y-109597840D01*
X87690438Y-109597840D02*
X87738057Y-109550221D01*
X148489160Y-65484104D02*
X148965350Y-65484104D01*
X148393922Y-65769819D02*
X148727255Y-64769819D01*
X148727255Y-64769819D02*
X149060588Y-65769819D01*
X149584398Y-64769819D02*
X149679636Y-64769819D01*
X149679636Y-64769819D02*
X149774874Y-64817438D01*
X149774874Y-64817438D02*
X149822493Y-64865057D01*
X149822493Y-64865057D02*
X149870112Y-64960295D01*
X149870112Y-64960295D02*
X149917731Y-65150771D01*
X149917731Y-65150771D02*
X149917731Y-65388866D01*
X149917731Y-65388866D02*
X149870112Y-65579342D01*
X149870112Y-65579342D02*
X149822493Y-65674580D01*
X149822493Y-65674580D02*
X149774874Y-65722200D01*
X149774874Y-65722200D02*
X149679636Y-65769819D01*
X149679636Y-65769819D02*
X149584398Y-65769819D01*
X149584398Y-65769819D02*
X149489160Y-65722200D01*
X149489160Y-65722200D02*
X149441541Y-65674580D01*
X149441541Y-65674580D02*
X149393922Y-65579342D01*
X149393922Y-65579342D02*
X149346303Y-65388866D01*
X149346303Y-65388866D02*
X149346303Y-65150771D01*
X149346303Y-65150771D02*
X149393922Y-64960295D01*
X149393922Y-64960295D02*
X149441541Y-64865057D01*
X149441541Y-64865057D02*
X149489160Y-64817438D01*
X149489160Y-64817438D02*
X149584398Y-64769819D01*
D17*
X90959001Y-47825571D02*
X90559001Y-47825571D01*
X90559001Y-48454142D02*
X90559001Y-47254142D01*
X90559001Y-47254142D02*
X91130429Y-47254142D01*
X92044715Y-48397000D02*
X91930429Y-48454142D01*
X91930429Y-48454142D02*
X91701858Y-48454142D01*
X91701858Y-48454142D02*
X91587572Y-48397000D01*
X91587572Y-48397000D02*
X91530429Y-48282714D01*
X91530429Y-48282714D02*
X91530429Y-47825571D01*
X91530429Y-47825571D02*
X91587572Y-47711285D01*
X91587572Y-47711285D02*
X91701858Y-47654142D01*
X91701858Y-47654142D02*
X91930429Y-47654142D01*
X91930429Y-47654142D02*
X92044715Y-47711285D01*
X92044715Y-47711285D02*
X92101858Y-47825571D01*
X92101858Y-47825571D02*
X92101858Y-47939857D01*
X92101858Y-47939857D02*
X91530429Y-48054142D01*
X93130429Y-48454142D02*
X93130429Y-47825571D01*
X93130429Y-47825571D02*
X93073286Y-47711285D01*
X93073286Y-47711285D02*
X92959000Y-47654142D01*
X92959000Y-47654142D02*
X92730429Y-47654142D01*
X92730429Y-47654142D02*
X92616143Y-47711285D01*
X93130429Y-48397000D02*
X93016143Y-48454142D01*
X93016143Y-48454142D02*
X92730429Y-48454142D01*
X92730429Y-48454142D02*
X92616143Y-48397000D01*
X92616143Y-48397000D02*
X92559000Y-48282714D01*
X92559000Y-48282714D02*
X92559000Y-48168428D01*
X92559000Y-48168428D02*
X92616143Y-48054142D01*
X92616143Y-48054142D02*
X92730429Y-47997000D01*
X92730429Y-47997000D02*
X93016143Y-47997000D01*
X93016143Y-47997000D02*
X93130429Y-47939857D01*
X93530428Y-47654142D02*
X93987571Y-47654142D01*
X93701857Y-47254142D02*
X93701857Y-48282714D01*
X93701857Y-48282714D02*
X93759000Y-48397000D01*
X93759000Y-48397000D02*
X93873285Y-48454142D01*
X93873285Y-48454142D02*
X93987571Y-48454142D01*
X94387571Y-48454142D02*
X94387571Y-47254142D01*
X94901857Y-48454142D02*
X94901857Y-47825571D01*
X94901857Y-47825571D02*
X94844714Y-47711285D01*
X94844714Y-47711285D02*
X94730428Y-47654142D01*
X94730428Y-47654142D02*
X94558999Y-47654142D01*
X94558999Y-47654142D02*
X94444714Y-47711285D01*
X94444714Y-47711285D02*
X94387571Y-47768428D01*
X95930428Y-48397000D02*
X95816142Y-48454142D01*
X95816142Y-48454142D02*
X95587571Y-48454142D01*
X95587571Y-48454142D02*
X95473285Y-48397000D01*
X95473285Y-48397000D02*
X95416142Y-48282714D01*
X95416142Y-48282714D02*
X95416142Y-47825571D01*
X95416142Y-47825571D02*
X95473285Y-47711285D01*
X95473285Y-47711285D02*
X95587571Y-47654142D01*
X95587571Y-47654142D02*
X95816142Y-47654142D01*
X95816142Y-47654142D02*
X95930428Y-47711285D01*
X95930428Y-47711285D02*
X95987571Y-47825571D01*
X95987571Y-47825571D02*
X95987571Y-47939857D01*
X95987571Y-47939857D02*
X95416142Y-48054142D01*
X96501856Y-48454142D02*
X96501856Y-47654142D01*
X96501856Y-47882714D02*
X96558999Y-47768428D01*
X96558999Y-47768428D02*
X96616142Y-47711285D01*
X96616142Y-47711285D02*
X96730427Y-47654142D01*
X96730427Y-47654142D02*
X96844713Y-47654142D01*
X97987570Y-47254142D02*
X98673285Y-47254142D01*
X98330427Y-48454142D02*
X98330427Y-47254142D01*
X99073285Y-48454142D02*
X99073285Y-47654142D01*
X99073285Y-47882714D02*
X99130428Y-47768428D01*
X99130428Y-47768428D02*
X99187571Y-47711285D01*
X99187571Y-47711285D02*
X99301856Y-47654142D01*
X99301856Y-47654142D02*
X99416142Y-47654142D01*
X99816142Y-48454142D02*
X99816142Y-47654142D01*
X99816142Y-47254142D02*
X99758999Y-47311285D01*
X99758999Y-47311285D02*
X99816142Y-47368428D01*
X99816142Y-47368428D02*
X99873285Y-47311285D01*
X99873285Y-47311285D02*
X99816142Y-47254142D01*
X99816142Y-47254142D02*
X99816142Y-47368428D01*
X100387571Y-47654142D02*
X100387571Y-48854142D01*
X100387571Y-47711285D02*
X100501857Y-47654142D01*
X100501857Y-47654142D02*
X100730428Y-47654142D01*
X100730428Y-47654142D02*
X100844714Y-47711285D01*
X100844714Y-47711285D02*
X100901857Y-47768428D01*
X100901857Y-47768428D02*
X100958999Y-47882714D01*
X100958999Y-47882714D02*
X100958999Y-48225571D01*
X100958999Y-48225571D02*
X100901857Y-48339857D01*
X100901857Y-48339857D02*
X100844714Y-48397000D01*
X100844714Y-48397000D02*
X100730428Y-48454142D01*
X100730428Y-48454142D02*
X100501857Y-48454142D01*
X100501857Y-48454142D02*
X100387571Y-48397000D01*
X101644713Y-48454142D02*
X101530428Y-48397000D01*
X101530428Y-48397000D02*
X101473285Y-48282714D01*
X101473285Y-48282714D02*
X101473285Y-47254142D01*
X102558999Y-48397000D02*
X102444713Y-48454142D01*
X102444713Y-48454142D02*
X102216142Y-48454142D01*
X102216142Y-48454142D02*
X102101856Y-48397000D01*
X102101856Y-48397000D02*
X102044713Y-48282714D01*
X102044713Y-48282714D02*
X102044713Y-47825571D01*
X102044713Y-47825571D02*
X102101856Y-47711285D01*
X102101856Y-47711285D02*
X102216142Y-47654142D01*
X102216142Y-47654142D02*
X102444713Y-47654142D01*
X102444713Y-47654142D02*
X102558999Y-47711285D01*
X102558999Y-47711285D02*
X102616142Y-47825571D01*
X102616142Y-47825571D02*
X102616142Y-47939857D01*
X102616142Y-47939857D02*
X102044713Y-48054142D01*
X103130427Y-48454142D02*
X103130427Y-47654142D01*
X103130427Y-47882714D02*
X103187570Y-47768428D01*
X103187570Y-47768428D02*
X103244713Y-47711285D01*
X103244713Y-47711285D02*
X103358998Y-47654142D01*
X103358998Y-47654142D02*
X103473284Y-47654142D01*
X104787570Y-47825571D02*
X105187570Y-47825571D01*
X105358998Y-48454142D02*
X104787570Y-48454142D01*
X104787570Y-48454142D02*
X104787570Y-47254142D01*
X104787570Y-47254142D02*
X105358998Y-47254142D01*
X105873284Y-48454142D02*
X105873284Y-47254142D01*
X105873284Y-47254142D02*
X106558998Y-48454142D01*
X106558998Y-48454142D02*
X106558998Y-47254142D01*
X107816141Y-48339857D02*
X107758998Y-48397000D01*
X107758998Y-48397000D02*
X107587570Y-48454142D01*
X107587570Y-48454142D02*
X107473284Y-48454142D01*
X107473284Y-48454142D02*
X107301855Y-48397000D01*
X107301855Y-48397000D02*
X107187570Y-48282714D01*
X107187570Y-48282714D02*
X107130427Y-48168428D01*
X107130427Y-48168428D02*
X107073284Y-47939857D01*
X107073284Y-47939857D02*
X107073284Y-47768428D01*
X107073284Y-47768428D02*
X107130427Y-47539857D01*
X107130427Y-47539857D02*
X107187570Y-47425571D01*
X107187570Y-47425571D02*
X107301855Y-47311285D01*
X107301855Y-47311285D02*
X107473284Y-47254142D01*
X107473284Y-47254142D02*
X107587570Y-47254142D01*
X107587570Y-47254142D02*
X107758998Y-47311285D01*
X107758998Y-47311285D02*
X107816141Y-47368428D01*
X108958998Y-48454142D02*
X108273284Y-48454142D01*
X108616141Y-48454142D02*
X108616141Y-47254142D01*
X108616141Y-47254142D02*
X108501855Y-47425571D01*
X108501855Y-47425571D02*
X108387570Y-47539857D01*
X108387570Y-47539857D02*
X108273284Y-47597000D01*
X110216141Y-47254142D02*
X110616141Y-48454142D01*
X110616141Y-48454142D02*
X111016141Y-47254142D01*
X111644712Y-47254142D02*
X111758998Y-47254142D01*
X111758998Y-47254142D02*
X111873284Y-47311285D01*
X111873284Y-47311285D02*
X111930427Y-47368428D01*
X111930427Y-47368428D02*
X111987569Y-47482714D01*
X111987569Y-47482714D02*
X112044712Y-47711285D01*
X112044712Y-47711285D02*
X112044712Y-47997000D01*
X112044712Y-47997000D02*
X111987569Y-48225571D01*
X111987569Y-48225571D02*
X111930427Y-48339857D01*
X111930427Y-48339857D02*
X111873284Y-48397000D01*
X111873284Y-48397000D02*
X111758998Y-48454142D01*
X111758998Y-48454142D02*
X111644712Y-48454142D01*
X111644712Y-48454142D02*
X111530427Y-48397000D01*
X111530427Y-48397000D02*
X111473284Y-48339857D01*
X111473284Y-48339857D02*
X111416141Y-48225571D01*
X111416141Y-48225571D02*
X111358998Y-47997000D01*
X111358998Y-47997000D02*
X111358998Y-47711285D01*
X111358998Y-47711285D02*
X111416141Y-47482714D01*
X111416141Y-47482714D02*
X111473284Y-47368428D01*
X111473284Y-47368428D02*
X111530427Y-47311285D01*
X111530427Y-47311285D02*
X111644712Y-47254142D01*
X112558998Y-48339857D02*
X112616141Y-48397000D01*
X112616141Y-48397000D02*
X112558998Y-48454142D01*
X112558998Y-48454142D02*
X112501855Y-48397000D01*
X112501855Y-48397000D02*
X112558998Y-48339857D01*
X112558998Y-48339857D02*
X112558998Y-48454142D01*
X113758998Y-48454142D02*
X113073284Y-48454142D01*
X113416141Y-48454142D02*
X113416141Y-47254142D01*
X113416141Y-47254142D02*
X113301855Y-47425571D01*
X113301855Y-47425571D02*
X113187570Y-47539857D01*
X113187570Y-47539857D02*
X113073284Y-47597000D01*
X115873284Y-48454142D02*
X115473284Y-47882714D01*
X115187570Y-48454142D02*
X115187570Y-47254142D01*
X115187570Y-47254142D02*
X115644713Y-47254142D01*
X115644713Y-47254142D02*
X115758998Y-47311285D01*
X115758998Y-47311285D02*
X115816141Y-47368428D01*
X115816141Y-47368428D02*
X115873284Y-47482714D01*
X115873284Y-47482714D02*
X115873284Y-47654142D01*
X115873284Y-47654142D02*
X115816141Y-47768428D01*
X115816141Y-47768428D02*
X115758998Y-47825571D01*
X115758998Y-47825571D02*
X115644713Y-47882714D01*
X115644713Y-47882714D02*
X115187570Y-47882714D01*
X116330427Y-47368428D02*
X116387570Y-47311285D01*
X116387570Y-47311285D02*
X116501856Y-47254142D01*
X116501856Y-47254142D02*
X116787570Y-47254142D01*
X116787570Y-47254142D02*
X116901856Y-47311285D01*
X116901856Y-47311285D02*
X116958998Y-47368428D01*
X116958998Y-47368428D02*
X117016141Y-47482714D01*
X117016141Y-47482714D02*
X117016141Y-47597000D01*
X117016141Y-47597000D02*
X116958998Y-47768428D01*
X116958998Y-47768428D02*
X116273284Y-48454142D01*
X116273284Y-48454142D02*
X117016141Y-48454142D01*
X96273286Y-49586142D02*
X96501858Y-50386142D01*
X96501858Y-50386142D02*
X96730429Y-49814714D01*
X96730429Y-49814714D02*
X96959000Y-50386142D01*
X96959000Y-50386142D02*
X97187572Y-49586142D01*
X97530429Y-49586142D02*
X97759001Y-50386142D01*
X97759001Y-50386142D02*
X97987572Y-49814714D01*
X97987572Y-49814714D02*
X98216143Y-50386142D01*
X98216143Y-50386142D02*
X98444715Y-49586142D01*
X98787572Y-49586142D02*
X99016144Y-50386142D01*
X99016144Y-50386142D02*
X99244715Y-49814714D01*
X99244715Y-49814714D02*
X99473286Y-50386142D01*
X99473286Y-50386142D02*
X99701858Y-49586142D01*
X100159001Y-50271857D02*
X100216144Y-50329000D01*
X100216144Y-50329000D02*
X100159001Y-50386142D01*
X100159001Y-50386142D02*
X100101858Y-50329000D01*
X100101858Y-50329000D02*
X100159001Y-50271857D01*
X100159001Y-50271857D02*
X100159001Y-50386142D01*
X100730430Y-50386142D02*
X100730430Y-49586142D01*
X100730430Y-49186142D02*
X100673287Y-49243285D01*
X100673287Y-49243285D02*
X100730430Y-49300428D01*
X100730430Y-49300428D02*
X100787573Y-49243285D01*
X100787573Y-49243285D02*
X100730430Y-49186142D01*
X100730430Y-49186142D02*
X100730430Y-49300428D01*
X101473287Y-50386142D02*
X101359002Y-50329000D01*
X101359002Y-50329000D02*
X101301859Y-50271857D01*
X101301859Y-50271857D02*
X101244716Y-50157571D01*
X101244716Y-50157571D02*
X101244716Y-49814714D01*
X101244716Y-49814714D02*
X101301859Y-49700428D01*
X101301859Y-49700428D02*
X101359002Y-49643285D01*
X101359002Y-49643285D02*
X101473287Y-49586142D01*
X101473287Y-49586142D02*
X101644716Y-49586142D01*
X101644716Y-49586142D02*
X101759002Y-49643285D01*
X101759002Y-49643285D02*
X101816145Y-49700428D01*
X101816145Y-49700428D02*
X101873287Y-49814714D01*
X101873287Y-49814714D02*
X101873287Y-50157571D01*
X101873287Y-50157571D02*
X101816145Y-50271857D01*
X101816145Y-50271857D02*
X101759002Y-50329000D01*
X101759002Y-50329000D02*
X101644716Y-50386142D01*
X101644716Y-50386142D02*
X101473287Y-50386142D01*
X102387573Y-50386142D02*
X102387573Y-49586142D01*
X102387573Y-49814714D02*
X102444716Y-49700428D01*
X102444716Y-49700428D02*
X102501859Y-49643285D01*
X102501859Y-49643285D02*
X102616144Y-49586142D01*
X102616144Y-49586142D02*
X102730430Y-49586142D01*
X103301858Y-50386142D02*
X103187573Y-50329000D01*
X103187573Y-50329000D02*
X103130430Y-50271857D01*
X103130430Y-50271857D02*
X103073287Y-50157571D01*
X103073287Y-50157571D02*
X103073287Y-49814714D01*
X103073287Y-49814714D02*
X103130430Y-49700428D01*
X103130430Y-49700428D02*
X103187573Y-49643285D01*
X103187573Y-49643285D02*
X103301858Y-49586142D01*
X103301858Y-49586142D02*
X103473287Y-49586142D01*
X103473287Y-49586142D02*
X103587573Y-49643285D01*
X103587573Y-49643285D02*
X103644716Y-49700428D01*
X103644716Y-49700428D02*
X103701858Y-49814714D01*
X103701858Y-49814714D02*
X103701858Y-50157571D01*
X103701858Y-50157571D02*
X103644716Y-50271857D01*
X103644716Y-50271857D02*
X103587573Y-50329000D01*
X103587573Y-50329000D02*
X103473287Y-50386142D01*
X103473287Y-50386142D02*
X103301858Y-50386142D01*
X104730430Y-50386142D02*
X104730430Y-49186142D01*
X104730430Y-50329000D02*
X104616144Y-50386142D01*
X104616144Y-50386142D02*
X104387572Y-50386142D01*
X104387572Y-50386142D02*
X104273287Y-50329000D01*
X104273287Y-50329000D02*
X104216144Y-50271857D01*
X104216144Y-50271857D02*
X104159001Y-50157571D01*
X104159001Y-50157571D02*
X104159001Y-49814714D01*
X104159001Y-49814714D02*
X104216144Y-49700428D01*
X104216144Y-49700428D02*
X104273287Y-49643285D01*
X104273287Y-49643285D02*
X104387572Y-49586142D01*
X104387572Y-49586142D02*
X104616144Y-49586142D01*
X104616144Y-49586142D02*
X104730430Y-49643285D01*
X105759001Y-50329000D02*
X105644715Y-50386142D01*
X105644715Y-50386142D02*
X105416144Y-50386142D01*
X105416144Y-50386142D02*
X105301858Y-50329000D01*
X105301858Y-50329000D02*
X105244715Y-50214714D01*
X105244715Y-50214714D02*
X105244715Y-49757571D01*
X105244715Y-49757571D02*
X105301858Y-49643285D01*
X105301858Y-49643285D02*
X105416144Y-49586142D01*
X105416144Y-49586142D02*
X105644715Y-49586142D01*
X105644715Y-49586142D02*
X105759001Y-49643285D01*
X105759001Y-49643285D02*
X105816144Y-49757571D01*
X105816144Y-49757571D02*
X105816144Y-49871857D01*
X105816144Y-49871857D02*
X105244715Y-49986142D01*
X106501857Y-50386142D02*
X106387572Y-50329000D01*
X106387572Y-50329000D02*
X106330429Y-50271857D01*
X106330429Y-50271857D02*
X106273286Y-50157571D01*
X106273286Y-50157571D02*
X106273286Y-49814714D01*
X106273286Y-49814714D02*
X106330429Y-49700428D01*
X106330429Y-49700428D02*
X106387572Y-49643285D01*
X106387572Y-49643285D02*
X106501857Y-49586142D01*
X106501857Y-49586142D02*
X106673286Y-49586142D01*
X106673286Y-49586142D02*
X106787572Y-49643285D01*
X106787572Y-49643285D02*
X106844715Y-49700428D01*
X106844715Y-49700428D02*
X106901857Y-49814714D01*
X106901857Y-49814714D02*
X106901857Y-50157571D01*
X106901857Y-50157571D02*
X106844715Y-50271857D01*
X106844715Y-50271857D02*
X106787572Y-50329000D01*
X106787572Y-50329000D02*
X106673286Y-50386142D01*
X106673286Y-50386142D02*
X106501857Y-50386142D01*
X107416143Y-50271857D02*
X107473286Y-50329000D01*
X107473286Y-50329000D02*
X107416143Y-50386142D01*
X107416143Y-50386142D02*
X107359000Y-50329000D01*
X107359000Y-50329000D02*
X107416143Y-50271857D01*
X107416143Y-50271857D02*
X107416143Y-50386142D01*
X108501858Y-50329000D02*
X108387572Y-50386142D01*
X108387572Y-50386142D02*
X108159000Y-50386142D01*
X108159000Y-50386142D02*
X108044715Y-50329000D01*
X108044715Y-50329000D02*
X107987572Y-50271857D01*
X107987572Y-50271857D02*
X107930429Y-50157571D01*
X107930429Y-50157571D02*
X107930429Y-49814714D01*
X107930429Y-49814714D02*
X107987572Y-49700428D01*
X107987572Y-49700428D02*
X108044715Y-49643285D01*
X108044715Y-49643285D02*
X108159000Y-49586142D01*
X108159000Y-49586142D02*
X108387572Y-49586142D01*
X108387572Y-49586142D02*
X108501858Y-49643285D01*
X109187571Y-50386142D02*
X109073286Y-50329000D01*
X109073286Y-50329000D02*
X109016143Y-50271857D01*
X109016143Y-50271857D02*
X108959000Y-50157571D01*
X108959000Y-50157571D02*
X108959000Y-49814714D01*
X108959000Y-49814714D02*
X109016143Y-49700428D01*
X109016143Y-49700428D02*
X109073286Y-49643285D01*
X109073286Y-49643285D02*
X109187571Y-49586142D01*
X109187571Y-49586142D02*
X109359000Y-49586142D01*
X109359000Y-49586142D02*
X109473286Y-49643285D01*
X109473286Y-49643285D02*
X109530429Y-49700428D01*
X109530429Y-49700428D02*
X109587571Y-49814714D01*
X109587571Y-49814714D02*
X109587571Y-50157571D01*
X109587571Y-50157571D02*
X109530429Y-50271857D01*
X109530429Y-50271857D02*
X109473286Y-50329000D01*
X109473286Y-50329000D02*
X109359000Y-50386142D01*
X109359000Y-50386142D02*
X109187571Y-50386142D01*
X110101857Y-50386142D02*
X110101857Y-49586142D01*
X110101857Y-49700428D02*
X110159000Y-49643285D01*
X110159000Y-49643285D02*
X110273285Y-49586142D01*
X110273285Y-49586142D02*
X110444714Y-49586142D01*
X110444714Y-49586142D02*
X110559000Y-49643285D01*
X110559000Y-49643285D02*
X110616143Y-49757571D01*
X110616143Y-49757571D02*
X110616143Y-50386142D01*
X110616143Y-49757571D02*
X110673285Y-49643285D01*
X110673285Y-49643285D02*
X110787571Y-49586142D01*
X110787571Y-49586142D02*
X110959000Y-49586142D01*
X110959000Y-49586142D02*
X111073285Y-49643285D01*
X111073285Y-49643285D02*
X111130428Y-49757571D01*
X111130428Y-49757571D02*
X111130428Y-50386142D01*
D15*
X148541541Y-95769819D02*
X149160588Y-95769819D01*
X149160588Y-95769819D02*
X148827255Y-96150771D01*
X148827255Y-96150771D02*
X148970112Y-96150771D01*
X148970112Y-96150771D02*
X149065350Y-96198390D01*
X149065350Y-96198390D02*
X149112969Y-96246009D01*
X149112969Y-96246009D02*
X149160588Y-96341247D01*
X149160588Y-96341247D02*
X149160588Y-96579342D01*
X149160588Y-96579342D02*
X149112969Y-96674580D01*
X149112969Y-96674580D02*
X149065350Y-96722200D01*
X149065350Y-96722200D02*
X148970112Y-96769819D01*
X148970112Y-96769819D02*
X148684398Y-96769819D01*
X148684398Y-96769819D02*
X148589160Y-96722200D01*
X148589160Y-96722200D02*
X148541541Y-96674580D01*
X149446303Y-95769819D02*
X149779636Y-96769819D01*
X149779636Y-96769819D02*
X150112969Y-95769819D01*
X150351065Y-95769819D02*
X150970112Y-95769819D01*
X150970112Y-95769819D02*
X150636779Y-96150771D01*
X150636779Y-96150771D02*
X150779636Y-96150771D01*
X150779636Y-96150771D02*
X150874874Y-96198390D01*
X150874874Y-96198390D02*
X150922493Y-96246009D01*
X150922493Y-96246009D02*
X150970112Y-96341247D01*
X150970112Y-96341247D02*
X150970112Y-96579342D01*
X150970112Y-96579342D02*
X150922493Y-96674580D01*
X150922493Y-96674580D02*
X150874874Y-96722200D01*
X150874874Y-96722200D02*
X150779636Y-96769819D01*
X150779636Y-96769819D02*
X150493922Y-96769819D01*
X150493922Y-96769819D02*
X150398684Y-96722200D01*
X150398684Y-96722200D02*
X150351065Y-96674580D01*
X47651200Y-78295332D02*
X47698819Y-78152475D01*
X47698819Y-78152475D02*
X47698819Y-77914380D01*
X47698819Y-77914380D02*
X47651200Y-77819142D01*
X47651200Y-77819142D02*
X47603580Y-77771523D01*
X47603580Y-77771523D02*
X47508342Y-77723904D01*
X47508342Y-77723904D02*
X47413104Y-77723904D01*
X47413104Y-77723904D02*
X47317866Y-77771523D01*
X47317866Y-77771523D02*
X47270247Y-77819142D01*
X47270247Y-77819142D02*
X47222628Y-77914380D01*
X47222628Y-77914380D02*
X47175009Y-78104856D01*
X47175009Y-78104856D02*
X47127390Y-78200094D01*
X47127390Y-78200094D02*
X47079771Y-78247713D01*
X47079771Y-78247713D02*
X46984533Y-78295332D01*
X46984533Y-78295332D02*
X46889295Y-78295332D01*
X46889295Y-78295332D02*
X46794057Y-78247713D01*
X46794057Y-78247713D02*
X46746438Y-78200094D01*
X46746438Y-78200094D02*
X46698819Y-78104856D01*
X46698819Y-78104856D02*
X46698819Y-77866761D01*
X46698819Y-77866761D02*
X46746438Y-77723904D01*
X46698819Y-77390570D02*
X47698819Y-77152475D01*
X47698819Y-77152475D02*
X46984533Y-76961999D01*
X46984533Y-76961999D02*
X47698819Y-76771523D01*
X47698819Y-76771523D02*
X46698819Y-76533428D01*
X47698819Y-75628666D02*
X47698819Y-76200094D01*
X47698819Y-75914380D02*
X46698819Y-75914380D01*
X46698819Y-75914380D02*
X46841676Y-76009618D01*
X46841676Y-76009618D02*
X46936914Y-76104856D01*
X46936914Y-76104856D02*
X46984533Y-76200094D01*
X61567119Y-108719033D02*
X62281404Y-108719033D01*
X62281404Y-108719033D02*
X62424261Y-108766652D01*
X62424261Y-108766652D02*
X62519500Y-108861890D01*
X62519500Y-108861890D02*
X62567119Y-109004747D01*
X62567119Y-109004747D02*
X62567119Y-109099985D01*
X62567119Y-107719033D02*
X62567119Y-108290461D01*
X62567119Y-108004747D02*
X61567119Y-108004747D01*
X61567119Y-108004747D02*
X61709976Y-108099985D01*
X61709976Y-108099985D02*
X61805214Y-108195223D01*
X61805214Y-108195223D02*
X61852833Y-108290461D01*
X78994095Y-53810819D02*
X78994095Y-54620342D01*
X78994095Y-54620342D02*
X79041714Y-54715580D01*
X79041714Y-54715580D02*
X79089333Y-54763200D01*
X79089333Y-54763200D02*
X79184571Y-54810819D01*
X79184571Y-54810819D02*
X79375047Y-54810819D01*
X79375047Y-54810819D02*
X79470285Y-54763200D01*
X79470285Y-54763200D02*
X79517904Y-54715580D01*
X79517904Y-54715580D02*
X79565523Y-54620342D01*
X79565523Y-54620342D02*
X79565523Y-53810819D01*
X80565523Y-54810819D02*
X79994095Y-54810819D01*
X80279809Y-54810819D02*
X80279809Y-53810819D01*
X80279809Y-53810819D02*
X80184571Y-53953676D01*
X80184571Y-53953676D02*
X80089333Y-54048914D01*
X80089333Y-54048914D02*
X79994095Y-54096533D01*
D18*
X86015285Y-85066853D02*
X86015285Y-84050853D01*
X86015285Y-84050853D02*
X86257190Y-84050853D01*
X86257190Y-84050853D02*
X86402333Y-84099234D01*
X86402333Y-84099234D02*
X86499095Y-84195996D01*
X86499095Y-84195996D02*
X86547476Y-84292758D01*
X86547476Y-84292758D02*
X86595857Y-84486282D01*
X86595857Y-84486282D02*
X86595857Y-84631425D01*
X86595857Y-84631425D02*
X86547476Y-84824949D01*
X86547476Y-84824949D02*
X86499095Y-84921711D01*
X86499095Y-84921711D02*
X86402333Y-85018473D01*
X86402333Y-85018473D02*
X86257190Y-85066853D01*
X86257190Y-85066853D02*
X86015285Y-85066853D01*
X87563476Y-85066853D02*
X86982904Y-85066853D01*
X87273190Y-85066853D02*
X87273190Y-84050853D01*
X87273190Y-84050853D02*
X87176428Y-84195996D01*
X87176428Y-84195996D02*
X87079666Y-84292758D01*
X87079666Y-84292758D02*
X86982904Y-84341139D01*
X88531095Y-85066853D02*
X87950523Y-85066853D01*
X88240809Y-85066853D02*
X88240809Y-84050853D01*
X88240809Y-84050853D02*
X88144047Y-84195996D01*
X88144047Y-84195996D02*
X88047285Y-84292758D01*
X88047285Y-84292758D02*
X87950523Y-84341139D01*
X87007095Y-74374663D02*
X87345762Y-74374663D01*
X87490905Y-74906853D02*
X87007095Y-74906853D01*
X87007095Y-74906853D02*
X87007095Y-73890853D01*
X87007095Y-73890853D02*
X87490905Y-73890853D01*
X87926333Y-74906853D02*
X87926333Y-73890853D01*
X87926333Y-73890853D02*
X88506905Y-74906853D01*
X88506905Y-74906853D02*
X88506905Y-73890853D01*
X71029285Y-74616568D02*
X71513095Y-74616568D01*
X70932523Y-74906853D02*
X71271190Y-73890853D01*
X71271190Y-73890853D02*
X71609857Y-74906853D01*
X72480714Y-74906853D02*
X71900142Y-74906853D01*
X72190428Y-74906853D02*
X72190428Y-73890853D01*
X72190428Y-73890853D02*
X72093666Y-74035996D01*
X72093666Y-74035996D02*
X71996904Y-74132758D01*
X71996904Y-74132758D02*
X71900142Y-74181139D01*
X86039476Y-97718473D02*
X86184619Y-97766853D01*
X86184619Y-97766853D02*
X86426524Y-97766853D01*
X86426524Y-97766853D02*
X86523286Y-97718473D01*
X86523286Y-97718473D02*
X86571667Y-97670092D01*
X86571667Y-97670092D02*
X86620048Y-97573330D01*
X86620048Y-97573330D02*
X86620048Y-97476568D01*
X86620048Y-97476568D02*
X86571667Y-97379806D01*
X86571667Y-97379806D02*
X86523286Y-97331425D01*
X86523286Y-97331425D02*
X86426524Y-97283044D01*
X86426524Y-97283044D02*
X86233000Y-97234663D01*
X86233000Y-97234663D02*
X86136238Y-97186282D01*
X86136238Y-97186282D02*
X86087857Y-97137901D01*
X86087857Y-97137901D02*
X86039476Y-97041139D01*
X86039476Y-97041139D02*
X86039476Y-96944377D01*
X86039476Y-96944377D02*
X86087857Y-96847615D01*
X86087857Y-96847615D02*
X86136238Y-96799234D01*
X86136238Y-96799234D02*
X86233000Y-96750853D01*
X86233000Y-96750853D02*
X86474905Y-96750853D01*
X86474905Y-96750853D02*
X86620048Y-96799234D01*
X87636048Y-97670092D02*
X87587667Y-97718473D01*
X87587667Y-97718473D02*
X87442524Y-97766853D01*
X87442524Y-97766853D02*
X87345762Y-97766853D01*
X87345762Y-97766853D02*
X87200619Y-97718473D01*
X87200619Y-97718473D02*
X87103857Y-97621711D01*
X87103857Y-97621711D02*
X87055476Y-97524949D01*
X87055476Y-97524949D02*
X87007095Y-97331425D01*
X87007095Y-97331425D02*
X87007095Y-97186282D01*
X87007095Y-97186282D02*
X87055476Y-96992758D01*
X87055476Y-96992758D02*
X87103857Y-96895996D01*
X87103857Y-96895996D02*
X87200619Y-96799234D01*
X87200619Y-96799234D02*
X87345762Y-96750853D01*
X87345762Y-96750853D02*
X87442524Y-96750853D01*
X87442524Y-96750853D02*
X87587667Y-96799234D01*
X87587667Y-96799234D02*
X87636048Y-96847615D01*
X88555286Y-97766853D02*
X88071476Y-97766853D01*
X88071476Y-97766853D02*
X88071476Y-96750853D01*
X86626095Y-71834663D02*
X86771238Y-71883044D01*
X86771238Y-71883044D02*
X86819619Y-71931425D01*
X86819619Y-71931425D02*
X86868000Y-72028187D01*
X86868000Y-72028187D02*
X86868000Y-72173330D01*
X86868000Y-72173330D02*
X86819619Y-72270092D01*
X86819619Y-72270092D02*
X86771238Y-72318473D01*
X86771238Y-72318473D02*
X86674476Y-72366853D01*
X86674476Y-72366853D02*
X86287428Y-72366853D01*
X86287428Y-72366853D02*
X86287428Y-71350853D01*
X86287428Y-71350853D02*
X86626095Y-71350853D01*
X86626095Y-71350853D02*
X86722857Y-71399234D01*
X86722857Y-71399234D02*
X86771238Y-71447615D01*
X86771238Y-71447615D02*
X86819619Y-71544377D01*
X86819619Y-71544377D02*
X86819619Y-71641139D01*
X86819619Y-71641139D02*
X86771238Y-71737901D01*
X86771238Y-71737901D02*
X86722857Y-71786282D01*
X86722857Y-71786282D02*
X86626095Y-71834663D01*
X86626095Y-71834663D02*
X86287428Y-71834663D01*
X87255047Y-72076568D02*
X87738857Y-72076568D01*
X87158285Y-72366853D02*
X87496952Y-71350853D01*
X87496952Y-71350853D02*
X87835619Y-72366853D01*
X88029142Y-71350853D02*
X88609714Y-71350853D01*
X88319428Y-72366853D02*
X88319428Y-71350853D01*
X86015285Y-82272853D02*
X86015285Y-81256853D01*
X86015285Y-81256853D02*
X86257190Y-81256853D01*
X86257190Y-81256853D02*
X86402333Y-81305234D01*
X86402333Y-81305234D02*
X86499095Y-81401996D01*
X86499095Y-81401996D02*
X86547476Y-81498758D01*
X86547476Y-81498758D02*
X86595857Y-81692282D01*
X86595857Y-81692282D02*
X86595857Y-81837425D01*
X86595857Y-81837425D02*
X86547476Y-82030949D01*
X86547476Y-82030949D02*
X86499095Y-82127711D01*
X86499095Y-82127711D02*
X86402333Y-82224473D01*
X86402333Y-82224473D02*
X86257190Y-82272853D01*
X86257190Y-82272853D02*
X86015285Y-82272853D01*
X87563476Y-82272853D02*
X86982904Y-82272853D01*
X87273190Y-82272853D02*
X87273190Y-81256853D01*
X87273190Y-81256853D02*
X87176428Y-81401996D01*
X87176428Y-81401996D02*
X87079666Y-81498758D01*
X87079666Y-81498758D02*
X86982904Y-81547139D01*
X87950523Y-81353615D02*
X87998904Y-81305234D01*
X87998904Y-81305234D02*
X88095666Y-81256853D01*
X88095666Y-81256853D02*
X88337571Y-81256853D01*
X88337571Y-81256853D02*
X88434333Y-81305234D01*
X88434333Y-81305234D02*
X88482714Y-81353615D01*
X88482714Y-81353615D02*
X88531095Y-81450377D01*
X88531095Y-81450377D02*
X88531095Y-81547139D01*
X88531095Y-81547139D02*
X88482714Y-81692282D01*
X88482714Y-81692282D02*
X87902142Y-82272853D01*
X87902142Y-82272853D02*
X88531095Y-82272853D01*
X71029285Y-77156568D02*
X71513095Y-77156568D01*
X70932523Y-77446853D02*
X71271190Y-76430853D01*
X71271190Y-76430853D02*
X71609857Y-77446853D01*
X71900142Y-76527615D02*
X71948523Y-76479234D01*
X71948523Y-76479234D02*
X72045285Y-76430853D01*
X72045285Y-76430853D02*
X72287190Y-76430853D01*
X72287190Y-76430853D02*
X72383952Y-76479234D01*
X72383952Y-76479234D02*
X72432333Y-76527615D01*
X72432333Y-76527615D02*
X72480714Y-76624377D01*
X72480714Y-76624377D02*
X72480714Y-76721139D01*
X72480714Y-76721139D02*
X72432333Y-76866282D01*
X72432333Y-76866282D02*
X71851761Y-77446853D01*
X71851761Y-77446853D02*
X72480714Y-77446853D01*
X87007095Y-92686853D02*
X87007095Y-91670853D01*
X87007095Y-91670853D02*
X87249000Y-91670853D01*
X87249000Y-91670853D02*
X87394143Y-91719234D01*
X87394143Y-91719234D02*
X87490905Y-91815996D01*
X87490905Y-91815996D02*
X87539286Y-91912758D01*
X87539286Y-91912758D02*
X87587667Y-92106282D01*
X87587667Y-92106282D02*
X87587667Y-92251425D01*
X87587667Y-92251425D02*
X87539286Y-92444949D01*
X87539286Y-92444949D02*
X87490905Y-92541711D01*
X87490905Y-92541711D02*
X87394143Y-92638473D01*
X87394143Y-92638473D02*
X87249000Y-92686853D01*
X87249000Y-92686853D02*
X87007095Y-92686853D01*
X88458524Y-91670853D02*
X88265000Y-91670853D01*
X88265000Y-91670853D02*
X88168238Y-91719234D01*
X88168238Y-91719234D02*
X88119857Y-91767615D01*
X88119857Y-91767615D02*
X88023095Y-91912758D01*
X88023095Y-91912758D02*
X87974714Y-92106282D01*
X87974714Y-92106282D02*
X87974714Y-92493330D01*
X87974714Y-92493330D02*
X88023095Y-92590092D01*
X88023095Y-92590092D02*
X88071476Y-92638473D01*
X88071476Y-92638473D02*
X88168238Y-92686853D01*
X88168238Y-92686853D02*
X88361762Y-92686853D01*
X88361762Y-92686853D02*
X88458524Y-92638473D01*
X88458524Y-92638473D02*
X88506905Y-92590092D01*
X88506905Y-92590092D02*
X88555286Y-92493330D01*
X88555286Y-92493330D02*
X88555286Y-92251425D01*
X88555286Y-92251425D02*
X88506905Y-92154663D01*
X88506905Y-92154663D02*
X88458524Y-92106282D01*
X88458524Y-92106282D02*
X88361762Y-92057901D01*
X88361762Y-92057901D02*
X88168238Y-92057901D01*
X88168238Y-92057901D02*
X88071476Y-92106282D01*
X88071476Y-92106282D02*
X88023095Y-92154663D01*
X88023095Y-92154663D02*
X87974714Y-92251425D01*
X71331667Y-94972853D02*
X70993000Y-94489044D01*
X70751095Y-94972853D02*
X70751095Y-93956853D01*
X70751095Y-93956853D02*
X71138143Y-93956853D01*
X71138143Y-93956853D02*
X71234905Y-94005234D01*
X71234905Y-94005234D02*
X71283286Y-94053615D01*
X71283286Y-94053615D02*
X71331667Y-94150377D01*
X71331667Y-94150377D02*
X71331667Y-94295520D01*
X71331667Y-94295520D02*
X71283286Y-94392282D01*
X71283286Y-94392282D02*
X71234905Y-94440663D01*
X71234905Y-94440663D02*
X71138143Y-94489044D01*
X71138143Y-94489044D02*
X70751095Y-94489044D01*
X71670333Y-93956853D02*
X72347667Y-94972853D01*
X72347667Y-93956853D02*
X71670333Y-94972853D01*
X70920428Y-92686853D02*
X70920428Y-91670853D01*
X70920428Y-91670853D02*
X71259095Y-92396568D01*
X71259095Y-92396568D02*
X71597762Y-91670853D01*
X71597762Y-91670853D02*
X71597762Y-92686853D01*
X72081571Y-92686853D02*
X72081571Y-91670853D01*
X72517000Y-92638473D02*
X72662143Y-92686853D01*
X72662143Y-92686853D02*
X72904048Y-92686853D01*
X72904048Y-92686853D02*
X73000810Y-92638473D01*
X73000810Y-92638473D02*
X73049191Y-92590092D01*
X73049191Y-92590092D02*
X73097572Y-92493330D01*
X73097572Y-92493330D02*
X73097572Y-92396568D01*
X73097572Y-92396568D02*
X73049191Y-92299806D01*
X73049191Y-92299806D02*
X73000810Y-92251425D01*
X73000810Y-92251425D02*
X72904048Y-92203044D01*
X72904048Y-92203044D02*
X72710524Y-92154663D01*
X72710524Y-92154663D02*
X72613762Y-92106282D01*
X72613762Y-92106282D02*
X72565381Y-92057901D01*
X72565381Y-92057901D02*
X72517000Y-91961139D01*
X72517000Y-91961139D02*
X72517000Y-91864377D01*
X72517000Y-91864377D02*
X72565381Y-91767615D01*
X72565381Y-91767615D02*
X72613762Y-91719234D01*
X72613762Y-91719234D02*
X72710524Y-91670853D01*
X72710524Y-91670853D02*
X72952429Y-91670853D01*
X72952429Y-91670853D02*
X73097572Y-91719234D01*
X73726524Y-91670853D02*
X73920048Y-91670853D01*
X73920048Y-91670853D02*
X74016810Y-91719234D01*
X74016810Y-91719234D02*
X74113572Y-91815996D01*
X74113572Y-91815996D02*
X74161953Y-92009520D01*
X74161953Y-92009520D02*
X74161953Y-92348187D01*
X74161953Y-92348187D02*
X74113572Y-92541711D01*
X74113572Y-92541711D02*
X74016810Y-92638473D01*
X74016810Y-92638473D02*
X73920048Y-92686853D01*
X73920048Y-92686853D02*
X73726524Y-92686853D01*
X73726524Y-92686853D02*
X73629762Y-92638473D01*
X73629762Y-92638473D02*
X73533000Y-92541711D01*
X73533000Y-92541711D02*
X73484619Y-92348187D01*
X73484619Y-92348187D02*
X73484619Y-92009520D01*
X73484619Y-92009520D02*
X73533000Y-91815996D01*
X73533000Y-91815996D02*
X73629762Y-91719234D01*
X73629762Y-91719234D02*
X73726524Y-91670853D01*
X86015285Y-87606853D02*
X86015285Y-86590853D01*
X86015285Y-86590853D02*
X86257190Y-86590853D01*
X86257190Y-86590853D02*
X86402333Y-86639234D01*
X86402333Y-86639234D02*
X86499095Y-86735996D01*
X86499095Y-86735996D02*
X86547476Y-86832758D01*
X86547476Y-86832758D02*
X86595857Y-87026282D01*
X86595857Y-87026282D02*
X86595857Y-87171425D01*
X86595857Y-87171425D02*
X86547476Y-87364949D01*
X86547476Y-87364949D02*
X86499095Y-87461711D01*
X86499095Y-87461711D02*
X86402333Y-87558473D01*
X86402333Y-87558473D02*
X86257190Y-87606853D01*
X86257190Y-87606853D02*
X86015285Y-87606853D01*
X87563476Y-87606853D02*
X86982904Y-87606853D01*
X87273190Y-87606853D02*
X87273190Y-86590853D01*
X87273190Y-86590853D02*
X87176428Y-86735996D01*
X87176428Y-86735996D02*
X87079666Y-86832758D01*
X87079666Y-86832758D02*
X86982904Y-86881139D01*
X88192428Y-86590853D02*
X88289190Y-86590853D01*
X88289190Y-86590853D02*
X88385952Y-86639234D01*
X88385952Y-86639234D02*
X88434333Y-86687615D01*
X88434333Y-86687615D02*
X88482714Y-86784377D01*
X88482714Y-86784377D02*
X88531095Y-86977901D01*
X88531095Y-86977901D02*
X88531095Y-87219806D01*
X88531095Y-87219806D02*
X88482714Y-87413330D01*
X88482714Y-87413330D02*
X88434333Y-87510092D01*
X88434333Y-87510092D02*
X88385952Y-87558473D01*
X88385952Y-87558473D02*
X88289190Y-87606853D01*
X88289190Y-87606853D02*
X88192428Y-87606853D01*
X88192428Y-87606853D02*
X88095666Y-87558473D01*
X88095666Y-87558473D02*
X88047285Y-87510092D01*
X88047285Y-87510092D02*
X87998904Y-87413330D01*
X87998904Y-87413330D02*
X87950523Y-87219806D01*
X87950523Y-87219806D02*
X87950523Y-86977901D01*
X87950523Y-86977901D02*
X87998904Y-86784377D01*
X87998904Y-86784377D02*
X88047285Y-86687615D01*
X88047285Y-86687615D02*
X88095666Y-86639234D01*
X88095666Y-86639234D02*
X88192428Y-86590853D01*
X71029285Y-84776568D02*
X71513095Y-84776568D01*
X70932523Y-85066853D02*
X71271190Y-84050853D01*
X71271190Y-84050853D02*
X71609857Y-85066853D01*
X72432333Y-84050853D02*
X71948523Y-84050853D01*
X71948523Y-84050853D02*
X71900142Y-84534663D01*
X71900142Y-84534663D02*
X71948523Y-84486282D01*
X71948523Y-84486282D02*
X72045285Y-84437901D01*
X72045285Y-84437901D02*
X72287190Y-84437901D01*
X72287190Y-84437901D02*
X72383952Y-84486282D01*
X72383952Y-84486282D02*
X72432333Y-84534663D01*
X72432333Y-84534663D02*
X72480714Y-84631425D01*
X72480714Y-84631425D02*
X72480714Y-84873330D01*
X72480714Y-84873330D02*
X72432333Y-84970092D01*
X72432333Y-84970092D02*
X72383952Y-85018473D01*
X72383952Y-85018473D02*
X72287190Y-85066853D01*
X72287190Y-85066853D02*
X72045285Y-85066853D01*
X72045285Y-85066853D02*
X71948523Y-85018473D01*
X71948523Y-85018473D02*
X71900142Y-84970092D01*
X71029285Y-82236568D02*
X71513095Y-82236568D01*
X70932523Y-82526853D02*
X71271190Y-81510853D01*
X71271190Y-81510853D02*
X71609857Y-82526853D01*
X72383952Y-81849520D02*
X72383952Y-82526853D01*
X72142047Y-81462473D02*
X71900142Y-82188187D01*
X71900142Y-82188187D02*
X72529095Y-82188187D01*
X70726904Y-96750853D02*
X71307476Y-96750853D01*
X71017190Y-97766853D02*
X71017190Y-96750853D01*
X71549380Y-96750853D02*
X72226714Y-97766853D01*
X72226714Y-96750853D02*
X71549380Y-97766853D01*
X86015285Y-100258473D02*
X86160428Y-100306853D01*
X86160428Y-100306853D02*
X86402333Y-100306853D01*
X86402333Y-100306853D02*
X86499095Y-100258473D01*
X86499095Y-100258473D02*
X86547476Y-100210092D01*
X86547476Y-100210092D02*
X86595857Y-100113330D01*
X86595857Y-100113330D02*
X86595857Y-100016568D01*
X86595857Y-100016568D02*
X86547476Y-99919806D01*
X86547476Y-99919806D02*
X86499095Y-99871425D01*
X86499095Y-99871425D02*
X86402333Y-99823044D01*
X86402333Y-99823044D02*
X86208809Y-99774663D01*
X86208809Y-99774663D02*
X86112047Y-99726282D01*
X86112047Y-99726282D02*
X86063666Y-99677901D01*
X86063666Y-99677901D02*
X86015285Y-99581139D01*
X86015285Y-99581139D02*
X86015285Y-99484377D01*
X86015285Y-99484377D02*
X86063666Y-99387615D01*
X86063666Y-99387615D02*
X86112047Y-99339234D01*
X86112047Y-99339234D02*
X86208809Y-99290853D01*
X86208809Y-99290853D02*
X86450714Y-99290853D01*
X86450714Y-99290853D02*
X86595857Y-99339234D01*
X87031285Y-100306853D02*
X87031285Y-99290853D01*
X87031285Y-99290853D02*
X87273190Y-99290853D01*
X87273190Y-99290853D02*
X87418333Y-99339234D01*
X87418333Y-99339234D02*
X87515095Y-99435996D01*
X87515095Y-99435996D02*
X87563476Y-99532758D01*
X87563476Y-99532758D02*
X87611857Y-99726282D01*
X87611857Y-99726282D02*
X87611857Y-99871425D01*
X87611857Y-99871425D02*
X87563476Y-100064949D01*
X87563476Y-100064949D02*
X87515095Y-100161711D01*
X87515095Y-100161711D02*
X87418333Y-100258473D01*
X87418333Y-100258473D02*
X87273190Y-100306853D01*
X87273190Y-100306853D02*
X87031285Y-100306853D01*
X87998904Y-100016568D02*
X88482714Y-100016568D01*
X87902142Y-100306853D02*
X88240809Y-99290853D01*
X88240809Y-99290853D02*
X88579476Y-100306853D01*
X70702714Y-87558473D02*
X70847857Y-87606853D01*
X70847857Y-87606853D02*
X71089762Y-87606853D01*
X71089762Y-87606853D02*
X71186524Y-87558473D01*
X71186524Y-87558473D02*
X71234905Y-87510092D01*
X71234905Y-87510092D02*
X71283286Y-87413330D01*
X71283286Y-87413330D02*
X71283286Y-87316568D01*
X71283286Y-87316568D02*
X71234905Y-87219806D01*
X71234905Y-87219806D02*
X71186524Y-87171425D01*
X71186524Y-87171425D02*
X71089762Y-87123044D01*
X71089762Y-87123044D02*
X70896238Y-87074663D01*
X70896238Y-87074663D02*
X70799476Y-87026282D01*
X70799476Y-87026282D02*
X70751095Y-86977901D01*
X70751095Y-86977901D02*
X70702714Y-86881139D01*
X70702714Y-86881139D02*
X70702714Y-86784377D01*
X70702714Y-86784377D02*
X70751095Y-86687615D01*
X70751095Y-86687615D02*
X70799476Y-86639234D01*
X70799476Y-86639234D02*
X70896238Y-86590853D01*
X70896238Y-86590853D02*
X71138143Y-86590853D01*
X71138143Y-86590853D02*
X71283286Y-86639234D01*
X72299286Y-87510092D02*
X72250905Y-87558473D01*
X72250905Y-87558473D02*
X72105762Y-87606853D01*
X72105762Y-87606853D02*
X72009000Y-87606853D01*
X72009000Y-87606853D02*
X71863857Y-87558473D01*
X71863857Y-87558473D02*
X71767095Y-87461711D01*
X71767095Y-87461711D02*
X71718714Y-87364949D01*
X71718714Y-87364949D02*
X71670333Y-87171425D01*
X71670333Y-87171425D02*
X71670333Y-87026282D01*
X71670333Y-87026282D02*
X71718714Y-86832758D01*
X71718714Y-86832758D02*
X71767095Y-86735996D01*
X71767095Y-86735996D02*
X71863857Y-86639234D01*
X71863857Y-86639234D02*
X72009000Y-86590853D01*
X72009000Y-86590853D02*
X72105762Y-86590853D01*
X72105762Y-86590853D02*
X72250905Y-86639234D01*
X72250905Y-86639234D02*
X72299286Y-86687615D01*
X72734714Y-87606853D02*
X72734714Y-86590853D01*
X73315286Y-87606853D02*
X72879857Y-87026282D01*
X73315286Y-86590853D02*
X72734714Y-87171425D01*
X70920428Y-89892853D02*
X70920428Y-88876853D01*
X70920428Y-88876853D02*
X71259095Y-89602568D01*
X71259095Y-89602568D02*
X71597762Y-88876853D01*
X71597762Y-88876853D02*
X71597762Y-89892853D01*
X72275095Y-88876853D02*
X72468619Y-88876853D01*
X72468619Y-88876853D02*
X72565381Y-88925234D01*
X72565381Y-88925234D02*
X72662143Y-89021996D01*
X72662143Y-89021996D02*
X72710524Y-89215520D01*
X72710524Y-89215520D02*
X72710524Y-89554187D01*
X72710524Y-89554187D02*
X72662143Y-89747711D01*
X72662143Y-89747711D02*
X72565381Y-89844473D01*
X72565381Y-89844473D02*
X72468619Y-89892853D01*
X72468619Y-89892853D02*
X72275095Y-89892853D01*
X72275095Y-89892853D02*
X72178333Y-89844473D01*
X72178333Y-89844473D02*
X72081571Y-89747711D01*
X72081571Y-89747711D02*
X72033190Y-89554187D01*
X72033190Y-89554187D02*
X72033190Y-89215520D01*
X72033190Y-89215520D02*
X72081571Y-89021996D01*
X72081571Y-89021996D02*
X72178333Y-88925234D01*
X72178333Y-88925234D02*
X72275095Y-88876853D01*
X73097571Y-89844473D02*
X73242714Y-89892853D01*
X73242714Y-89892853D02*
X73484619Y-89892853D01*
X73484619Y-89892853D02*
X73581381Y-89844473D01*
X73581381Y-89844473D02*
X73629762Y-89796092D01*
X73629762Y-89796092D02*
X73678143Y-89699330D01*
X73678143Y-89699330D02*
X73678143Y-89602568D01*
X73678143Y-89602568D02*
X73629762Y-89505806D01*
X73629762Y-89505806D02*
X73581381Y-89457425D01*
X73581381Y-89457425D02*
X73484619Y-89409044D01*
X73484619Y-89409044D02*
X73291095Y-89360663D01*
X73291095Y-89360663D02*
X73194333Y-89312282D01*
X73194333Y-89312282D02*
X73145952Y-89263901D01*
X73145952Y-89263901D02*
X73097571Y-89167139D01*
X73097571Y-89167139D02*
X73097571Y-89070377D01*
X73097571Y-89070377D02*
X73145952Y-88973615D01*
X73145952Y-88973615D02*
X73194333Y-88925234D01*
X73194333Y-88925234D02*
X73291095Y-88876853D01*
X73291095Y-88876853D02*
X73533000Y-88876853D01*
X73533000Y-88876853D02*
X73678143Y-88925234D01*
X74113571Y-89892853D02*
X74113571Y-88876853D01*
X71718714Y-100306853D02*
X71718714Y-99290853D01*
X71718714Y-99290853D02*
X72299286Y-100306853D01*
X72299286Y-100306853D02*
X72299286Y-99290853D01*
X72976619Y-99290853D02*
X73170143Y-99290853D01*
X73170143Y-99290853D02*
X73266905Y-99339234D01*
X73266905Y-99339234D02*
X73363667Y-99435996D01*
X73363667Y-99435996D02*
X73412048Y-99629520D01*
X73412048Y-99629520D02*
X73412048Y-99968187D01*
X73412048Y-99968187D02*
X73363667Y-100161711D01*
X73363667Y-100161711D02*
X73266905Y-100258473D01*
X73266905Y-100258473D02*
X73170143Y-100306853D01*
X73170143Y-100306853D02*
X72976619Y-100306853D01*
X72976619Y-100306853D02*
X72879857Y-100258473D01*
X72879857Y-100258473D02*
X72783095Y-100161711D01*
X72783095Y-100161711D02*
X72734714Y-99968187D01*
X72734714Y-99968187D02*
X72734714Y-99629520D01*
X72734714Y-99629520D02*
X72783095Y-99435996D01*
X72783095Y-99435996D02*
X72879857Y-99339234D01*
X72879857Y-99339234D02*
X72976619Y-99290853D01*
X73799095Y-100258473D02*
X73944238Y-100306853D01*
X73944238Y-100306853D02*
X74186143Y-100306853D01*
X74186143Y-100306853D02*
X74282905Y-100258473D01*
X74282905Y-100258473D02*
X74331286Y-100210092D01*
X74331286Y-100210092D02*
X74379667Y-100113330D01*
X74379667Y-100113330D02*
X74379667Y-100016568D01*
X74379667Y-100016568D02*
X74331286Y-99919806D01*
X74331286Y-99919806D02*
X74282905Y-99871425D01*
X74282905Y-99871425D02*
X74186143Y-99823044D01*
X74186143Y-99823044D02*
X73992619Y-99774663D01*
X73992619Y-99774663D02*
X73895857Y-99726282D01*
X73895857Y-99726282D02*
X73847476Y-99677901D01*
X73847476Y-99677901D02*
X73799095Y-99581139D01*
X73799095Y-99581139D02*
X73799095Y-99484377D01*
X73799095Y-99484377D02*
X73847476Y-99387615D01*
X73847476Y-99387615D02*
X73895857Y-99339234D01*
X73895857Y-99339234D02*
X73992619Y-99290853D01*
X73992619Y-99290853D02*
X74234524Y-99290853D01*
X74234524Y-99290853D02*
X74379667Y-99339234D01*
X71029285Y-79696568D02*
X71513095Y-79696568D01*
X70932523Y-79986853D02*
X71271190Y-78970853D01*
X71271190Y-78970853D02*
X71609857Y-79986853D01*
X71851761Y-78970853D02*
X72480714Y-78970853D01*
X72480714Y-78970853D02*
X72142047Y-79357901D01*
X72142047Y-79357901D02*
X72287190Y-79357901D01*
X72287190Y-79357901D02*
X72383952Y-79406282D01*
X72383952Y-79406282D02*
X72432333Y-79454663D01*
X72432333Y-79454663D02*
X72480714Y-79551425D01*
X72480714Y-79551425D02*
X72480714Y-79793330D01*
X72480714Y-79793330D02*
X72432333Y-79890092D01*
X72432333Y-79890092D02*
X72383952Y-79938473D01*
X72383952Y-79938473D02*
X72287190Y-79986853D01*
X72287190Y-79986853D02*
X71996904Y-79986853D01*
X71996904Y-79986853D02*
X71900142Y-79938473D01*
X71900142Y-79938473D02*
X71851761Y-79890092D01*
X87007095Y-90146853D02*
X87007095Y-89130853D01*
X87007095Y-89130853D02*
X87249000Y-89130853D01*
X87249000Y-89130853D02*
X87394143Y-89179234D01*
X87394143Y-89179234D02*
X87490905Y-89275996D01*
X87490905Y-89275996D02*
X87539286Y-89372758D01*
X87539286Y-89372758D02*
X87587667Y-89566282D01*
X87587667Y-89566282D02*
X87587667Y-89711425D01*
X87587667Y-89711425D02*
X87539286Y-89904949D01*
X87539286Y-89904949D02*
X87490905Y-90001711D01*
X87490905Y-90001711D02*
X87394143Y-90098473D01*
X87394143Y-90098473D02*
X87249000Y-90146853D01*
X87249000Y-90146853D02*
X87007095Y-90146853D01*
X88071476Y-90146853D02*
X88265000Y-90146853D01*
X88265000Y-90146853D02*
X88361762Y-90098473D01*
X88361762Y-90098473D02*
X88410143Y-90050092D01*
X88410143Y-90050092D02*
X88506905Y-89904949D01*
X88506905Y-89904949D02*
X88555286Y-89711425D01*
X88555286Y-89711425D02*
X88555286Y-89324377D01*
X88555286Y-89324377D02*
X88506905Y-89227615D01*
X88506905Y-89227615D02*
X88458524Y-89179234D01*
X88458524Y-89179234D02*
X88361762Y-89130853D01*
X88361762Y-89130853D02*
X88168238Y-89130853D01*
X88168238Y-89130853D02*
X88071476Y-89179234D01*
X88071476Y-89179234D02*
X88023095Y-89227615D01*
X88023095Y-89227615D02*
X87974714Y-89324377D01*
X87974714Y-89324377D02*
X87974714Y-89566282D01*
X87974714Y-89566282D02*
X88023095Y-89663044D01*
X88023095Y-89663044D02*
X88071476Y-89711425D01*
X88071476Y-89711425D02*
X88168238Y-89759806D01*
X88168238Y-89759806D02*
X88361762Y-89759806D01*
X88361762Y-89759806D02*
X88458524Y-89711425D01*
X88458524Y-89711425D02*
X88506905Y-89663044D01*
X88506905Y-89663044D02*
X88555286Y-89566282D01*
X86015285Y-79986853D02*
X86015285Y-78970853D01*
X86015285Y-78970853D02*
X86257190Y-78970853D01*
X86257190Y-78970853D02*
X86402333Y-79019234D01*
X86402333Y-79019234D02*
X86499095Y-79115996D01*
X86499095Y-79115996D02*
X86547476Y-79212758D01*
X86547476Y-79212758D02*
X86595857Y-79406282D01*
X86595857Y-79406282D02*
X86595857Y-79551425D01*
X86595857Y-79551425D02*
X86547476Y-79744949D01*
X86547476Y-79744949D02*
X86499095Y-79841711D01*
X86499095Y-79841711D02*
X86402333Y-79938473D01*
X86402333Y-79938473D02*
X86257190Y-79986853D01*
X86257190Y-79986853D02*
X86015285Y-79986853D01*
X87563476Y-79986853D02*
X86982904Y-79986853D01*
X87273190Y-79986853D02*
X87273190Y-78970853D01*
X87273190Y-78970853D02*
X87176428Y-79115996D01*
X87176428Y-79115996D02*
X87079666Y-79212758D01*
X87079666Y-79212758D02*
X86982904Y-79261139D01*
X87902142Y-78970853D02*
X88531095Y-78970853D01*
X88531095Y-78970853D02*
X88192428Y-79357901D01*
X88192428Y-79357901D02*
X88337571Y-79357901D01*
X88337571Y-79357901D02*
X88434333Y-79406282D01*
X88434333Y-79406282D02*
X88482714Y-79454663D01*
X88482714Y-79454663D02*
X88531095Y-79551425D01*
X88531095Y-79551425D02*
X88531095Y-79793330D01*
X88531095Y-79793330D02*
X88482714Y-79890092D01*
X88482714Y-79890092D02*
X88434333Y-79938473D01*
X88434333Y-79938473D02*
X88337571Y-79986853D01*
X88337571Y-79986853D02*
X88047285Y-79986853D01*
X88047285Y-79986853D02*
X87950523Y-79938473D01*
X87950523Y-79938473D02*
X87902142Y-79890092D01*
X70980904Y-63730853D02*
X71609857Y-63730853D01*
X71609857Y-63730853D02*
X71271190Y-64117901D01*
X71271190Y-64117901D02*
X71416333Y-64117901D01*
X71416333Y-64117901D02*
X71513095Y-64166282D01*
X71513095Y-64166282D02*
X71561476Y-64214663D01*
X71561476Y-64214663D02*
X71609857Y-64311425D01*
X71609857Y-64311425D02*
X71609857Y-64553330D01*
X71609857Y-64553330D02*
X71561476Y-64650092D01*
X71561476Y-64650092D02*
X71513095Y-64698473D01*
X71513095Y-64698473D02*
X71416333Y-64746853D01*
X71416333Y-64746853D02*
X71126047Y-64746853D01*
X71126047Y-64746853D02*
X71029285Y-64698473D01*
X71029285Y-64698473D02*
X70980904Y-64650092D01*
X71900142Y-63730853D02*
X72238809Y-64746853D01*
X72238809Y-64746853D02*
X72577476Y-63730853D01*
X71452619Y-62206853D02*
X71113952Y-61723044D01*
X70872047Y-62206853D02*
X70872047Y-61190853D01*
X70872047Y-61190853D02*
X71259095Y-61190853D01*
X71259095Y-61190853D02*
X71355857Y-61239234D01*
X71355857Y-61239234D02*
X71404238Y-61287615D01*
X71404238Y-61287615D02*
X71452619Y-61384377D01*
X71452619Y-61384377D02*
X71452619Y-61529520D01*
X71452619Y-61529520D02*
X71404238Y-61626282D01*
X71404238Y-61626282D02*
X71355857Y-61674663D01*
X71355857Y-61674663D02*
X71259095Y-61723044D01*
X71259095Y-61723044D02*
X70872047Y-61723044D01*
X71839666Y-62158473D02*
X71984809Y-62206853D01*
X71984809Y-62206853D02*
X72226714Y-62206853D01*
X72226714Y-62206853D02*
X72323476Y-62158473D01*
X72323476Y-62158473D02*
X72371857Y-62110092D01*
X72371857Y-62110092D02*
X72420238Y-62013330D01*
X72420238Y-62013330D02*
X72420238Y-61916568D01*
X72420238Y-61916568D02*
X72371857Y-61819806D01*
X72371857Y-61819806D02*
X72323476Y-61771425D01*
X72323476Y-61771425D02*
X72226714Y-61723044D01*
X72226714Y-61723044D02*
X72033190Y-61674663D01*
X72033190Y-61674663D02*
X71936428Y-61626282D01*
X71936428Y-61626282D02*
X71888047Y-61577901D01*
X71888047Y-61577901D02*
X71839666Y-61481139D01*
X71839666Y-61481139D02*
X71839666Y-61384377D01*
X71839666Y-61384377D02*
X71888047Y-61287615D01*
X71888047Y-61287615D02*
X71936428Y-61239234D01*
X71936428Y-61239234D02*
X72033190Y-61190853D01*
X72033190Y-61190853D02*
X72275095Y-61190853D01*
X72275095Y-61190853D02*
X72420238Y-61239234D01*
X72710523Y-61190853D02*
X73291095Y-61190853D01*
X73000809Y-62206853D02*
X73000809Y-61190853D01*
X87007095Y-95099853D02*
X87007095Y-94083853D01*
X87007095Y-94083853D02*
X87249000Y-94083853D01*
X87249000Y-94083853D02*
X87394143Y-94132234D01*
X87394143Y-94132234D02*
X87490905Y-94228996D01*
X87490905Y-94228996D02*
X87539286Y-94325758D01*
X87539286Y-94325758D02*
X87587667Y-94519282D01*
X87587667Y-94519282D02*
X87587667Y-94664425D01*
X87587667Y-94664425D02*
X87539286Y-94857949D01*
X87539286Y-94857949D02*
X87490905Y-94954711D01*
X87490905Y-94954711D02*
X87394143Y-95051473D01*
X87394143Y-95051473D02*
X87249000Y-95099853D01*
X87249000Y-95099853D02*
X87007095Y-95099853D01*
X88506905Y-94083853D02*
X88023095Y-94083853D01*
X88023095Y-94083853D02*
X87974714Y-94567663D01*
X87974714Y-94567663D02*
X88023095Y-94519282D01*
X88023095Y-94519282D02*
X88119857Y-94470901D01*
X88119857Y-94470901D02*
X88361762Y-94470901D01*
X88361762Y-94470901D02*
X88458524Y-94519282D01*
X88458524Y-94519282D02*
X88506905Y-94567663D01*
X88506905Y-94567663D02*
X88555286Y-94664425D01*
X88555286Y-94664425D02*
X88555286Y-94906330D01*
X88555286Y-94906330D02*
X88506905Y-95003092D01*
X88506905Y-95003092D02*
X88458524Y-95051473D01*
X88458524Y-95051473D02*
X88361762Y-95099853D01*
X88361762Y-95099853D02*
X88119857Y-95099853D01*
X88119857Y-95099853D02*
X88023095Y-95051473D01*
X88023095Y-95051473D02*
X87974714Y-95003092D01*
X71029285Y-72076568D02*
X71513095Y-72076568D01*
X70932523Y-72366853D02*
X71271190Y-71350853D01*
X71271190Y-71350853D02*
X71609857Y-72366853D01*
X72142047Y-71350853D02*
X72238809Y-71350853D01*
X72238809Y-71350853D02*
X72335571Y-71399234D01*
X72335571Y-71399234D02*
X72383952Y-71447615D01*
X72383952Y-71447615D02*
X72432333Y-71544377D01*
X72432333Y-71544377D02*
X72480714Y-71737901D01*
X72480714Y-71737901D02*
X72480714Y-71979806D01*
X72480714Y-71979806D02*
X72432333Y-72173330D01*
X72432333Y-72173330D02*
X72383952Y-72270092D01*
X72383952Y-72270092D02*
X72335571Y-72318473D01*
X72335571Y-72318473D02*
X72238809Y-72366853D01*
X72238809Y-72366853D02*
X72142047Y-72366853D01*
X72142047Y-72366853D02*
X72045285Y-72318473D01*
X72045285Y-72318473D02*
X71996904Y-72270092D01*
X71996904Y-72270092D02*
X71948523Y-72173330D01*
X71948523Y-72173330D02*
X71900142Y-71979806D01*
X71900142Y-71979806D02*
X71900142Y-71737901D01*
X71900142Y-71737901D02*
X71948523Y-71544377D01*
X71948523Y-71544377D02*
X71996904Y-71447615D01*
X71996904Y-71447615D02*
X72045285Y-71399234D01*
X72045285Y-71399234D02*
X72142047Y-71350853D01*
X70872047Y-66996568D02*
X71355857Y-66996568D01*
X70775285Y-67286853D02*
X71113952Y-66270853D01*
X71113952Y-66270853D02*
X71452619Y-67286853D01*
X72371857Y-67286853D02*
X72033190Y-66803044D01*
X71791285Y-67286853D02*
X71791285Y-66270853D01*
X71791285Y-66270853D02*
X72178333Y-66270853D01*
X72178333Y-66270853D02*
X72275095Y-66319234D01*
X72275095Y-66319234D02*
X72323476Y-66367615D01*
X72323476Y-66367615D02*
X72371857Y-66464377D01*
X72371857Y-66464377D02*
X72371857Y-66609520D01*
X72371857Y-66609520D02*
X72323476Y-66706282D01*
X72323476Y-66706282D02*
X72275095Y-66754663D01*
X72275095Y-66754663D02*
X72178333Y-66803044D01*
X72178333Y-66803044D02*
X71791285Y-66803044D01*
X72807285Y-66754663D02*
X73145952Y-66754663D01*
X73291095Y-67286853D02*
X72807285Y-67286853D01*
X72807285Y-67286853D02*
X72807285Y-66270853D01*
X72807285Y-66270853D02*
X73291095Y-66270853D01*
X74065190Y-66754663D02*
X73726523Y-66754663D01*
X73726523Y-67286853D02*
X73726523Y-66270853D01*
X73726523Y-66270853D02*
X74210333Y-66270853D01*
X85966904Y-76430853D02*
X85966904Y-77253330D01*
X85966904Y-77253330D02*
X86015285Y-77350092D01*
X86015285Y-77350092D02*
X86063666Y-77398473D01*
X86063666Y-77398473D02*
X86160428Y-77446853D01*
X86160428Y-77446853D02*
X86353952Y-77446853D01*
X86353952Y-77446853D02*
X86450714Y-77398473D01*
X86450714Y-77398473D02*
X86499095Y-77350092D01*
X86499095Y-77350092D02*
X86547476Y-77253330D01*
X86547476Y-77253330D02*
X86547476Y-76430853D01*
X86982904Y-77398473D02*
X87128047Y-77446853D01*
X87128047Y-77446853D02*
X87369952Y-77446853D01*
X87369952Y-77446853D02*
X87466714Y-77398473D01*
X87466714Y-77398473D02*
X87515095Y-77350092D01*
X87515095Y-77350092D02*
X87563476Y-77253330D01*
X87563476Y-77253330D02*
X87563476Y-77156568D01*
X87563476Y-77156568D02*
X87515095Y-77059806D01*
X87515095Y-77059806D02*
X87466714Y-77011425D01*
X87466714Y-77011425D02*
X87369952Y-76963044D01*
X87369952Y-76963044D02*
X87176428Y-76914663D01*
X87176428Y-76914663D02*
X87079666Y-76866282D01*
X87079666Y-76866282D02*
X87031285Y-76817901D01*
X87031285Y-76817901D02*
X86982904Y-76721139D01*
X86982904Y-76721139D02*
X86982904Y-76624377D01*
X86982904Y-76624377D02*
X87031285Y-76527615D01*
X87031285Y-76527615D02*
X87079666Y-76479234D01*
X87079666Y-76479234D02*
X87176428Y-76430853D01*
X87176428Y-76430853D02*
X87418333Y-76430853D01*
X87418333Y-76430853D02*
X87563476Y-76479234D01*
X88337571Y-76914663D02*
X88482714Y-76963044D01*
X88482714Y-76963044D02*
X88531095Y-77011425D01*
X88531095Y-77011425D02*
X88579476Y-77108187D01*
X88579476Y-77108187D02*
X88579476Y-77253330D01*
X88579476Y-77253330D02*
X88531095Y-77350092D01*
X88531095Y-77350092D02*
X88482714Y-77398473D01*
X88482714Y-77398473D02*
X88385952Y-77446853D01*
X88385952Y-77446853D02*
X87998904Y-77446853D01*
X87998904Y-77446853D02*
X87998904Y-76430853D01*
X87998904Y-76430853D02*
X88337571Y-76430853D01*
X88337571Y-76430853D02*
X88434333Y-76479234D01*
X88434333Y-76479234D02*
X88482714Y-76527615D01*
X88482714Y-76527615D02*
X88531095Y-76624377D01*
X88531095Y-76624377D02*
X88531095Y-76721139D01*
X88531095Y-76721139D02*
X88482714Y-76817901D01*
X88482714Y-76817901D02*
X88434333Y-76866282D01*
X88434333Y-76866282D02*
X88337571Y-76914663D01*
X88337571Y-76914663D02*
X87998904Y-76914663D01*
X71488905Y-68859234D02*
X71392143Y-68810853D01*
X71392143Y-68810853D02*
X71247000Y-68810853D01*
X71247000Y-68810853D02*
X71101857Y-68859234D01*
X71101857Y-68859234D02*
X71005095Y-68955996D01*
X71005095Y-68955996D02*
X70956714Y-69052758D01*
X70956714Y-69052758D02*
X70908333Y-69246282D01*
X70908333Y-69246282D02*
X70908333Y-69391425D01*
X70908333Y-69391425D02*
X70956714Y-69584949D01*
X70956714Y-69584949D02*
X71005095Y-69681711D01*
X71005095Y-69681711D02*
X71101857Y-69778473D01*
X71101857Y-69778473D02*
X71247000Y-69826853D01*
X71247000Y-69826853D02*
X71343762Y-69826853D01*
X71343762Y-69826853D02*
X71488905Y-69778473D01*
X71488905Y-69778473D02*
X71537286Y-69730092D01*
X71537286Y-69730092D02*
X71537286Y-69391425D01*
X71537286Y-69391425D02*
X71343762Y-69391425D01*
X71972714Y-69826853D02*
X71972714Y-68810853D01*
X71972714Y-68810853D02*
X72553286Y-69826853D01*
X72553286Y-69826853D02*
X72553286Y-68810853D01*
X73037095Y-69826853D02*
X73037095Y-68810853D01*
X73037095Y-68810853D02*
X73279000Y-68810853D01*
X73279000Y-68810853D02*
X73424143Y-68859234D01*
X73424143Y-68859234D02*
X73520905Y-68955996D01*
X73520905Y-68955996D02*
X73569286Y-69052758D01*
X73569286Y-69052758D02*
X73617667Y-69246282D01*
X73617667Y-69246282D02*
X73617667Y-69391425D01*
X73617667Y-69391425D02*
X73569286Y-69584949D01*
X73569286Y-69584949D02*
X73520905Y-69681711D01*
X73520905Y-69681711D02*
X73424143Y-69778473D01*
X73424143Y-69778473D02*
X73279000Y-69826853D01*
X73279000Y-69826853D02*
X73037095Y-69826853D01*
D15*
X127127095Y-53810819D02*
X127127095Y-54620342D01*
X127127095Y-54620342D02*
X127174714Y-54715580D01*
X127174714Y-54715580D02*
X127222333Y-54763200D01*
X127222333Y-54763200D02*
X127317571Y-54810819D01*
X127317571Y-54810819D02*
X127508047Y-54810819D01*
X127508047Y-54810819D02*
X127603285Y-54763200D01*
X127603285Y-54763200D02*
X127650904Y-54715580D01*
X127650904Y-54715580D02*
X127698523Y-54620342D01*
X127698523Y-54620342D02*
X127698523Y-53810819D01*
X128079476Y-53810819D02*
X128698523Y-53810819D01*
X128698523Y-53810819D02*
X128365190Y-54191771D01*
X128365190Y-54191771D02*
X128508047Y-54191771D01*
X128508047Y-54191771D02*
X128603285Y-54239390D01*
X128603285Y-54239390D02*
X128650904Y-54287009D01*
X128650904Y-54287009D02*
X128698523Y-54382247D01*
X128698523Y-54382247D02*
X128698523Y-54620342D01*
X128698523Y-54620342D02*
X128650904Y-54715580D01*
X128650904Y-54715580D02*
X128603285Y-54763200D01*
X128603285Y-54763200D02*
X128508047Y-54810819D01*
X128508047Y-54810819D02*
X128222333Y-54810819D01*
X128222333Y-54810819D02*
X128127095Y-54763200D01*
X128127095Y-54763200D02*
X128079476Y-54715580D01*
D18*
X119289285Y-74616568D02*
X119773095Y-74616568D01*
X119192523Y-74906853D02*
X119531190Y-73890853D01*
X119531190Y-73890853D02*
X119869857Y-74906853D01*
X120740714Y-74906853D02*
X120160142Y-74906853D01*
X120450428Y-74906853D02*
X120450428Y-73890853D01*
X120450428Y-73890853D02*
X120353666Y-74035996D01*
X120353666Y-74035996D02*
X120256904Y-74132758D01*
X120256904Y-74132758D02*
X120160142Y-74181139D01*
X134299476Y-97718473D02*
X134444619Y-97766853D01*
X134444619Y-97766853D02*
X134686524Y-97766853D01*
X134686524Y-97766853D02*
X134783286Y-97718473D01*
X134783286Y-97718473D02*
X134831667Y-97670092D01*
X134831667Y-97670092D02*
X134880048Y-97573330D01*
X134880048Y-97573330D02*
X134880048Y-97476568D01*
X134880048Y-97476568D02*
X134831667Y-97379806D01*
X134831667Y-97379806D02*
X134783286Y-97331425D01*
X134783286Y-97331425D02*
X134686524Y-97283044D01*
X134686524Y-97283044D02*
X134493000Y-97234663D01*
X134493000Y-97234663D02*
X134396238Y-97186282D01*
X134396238Y-97186282D02*
X134347857Y-97137901D01*
X134347857Y-97137901D02*
X134299476Y-97041139D01*
X134299476Y-97041139D02*
X134299476Y-96944377D01*
X134299476Y-96944377D02*
X134347857Y-96847615D01*
X134347857Y-96847615D02*
X134396238Y-96799234D01*
X134396238Y-96799234D02*
X134493000Y-96750853D01*
X134493000Y-96750853D02*
X134734905Y-96750853D01*
X134734905Y-96750853D02*
X134880048Y-96799234D01*
X135896048Y-97670092D02*
X135847667Y-97718473D01*
X135847667Y-97718473D02*
X135702524Y-97766853D01*
X135702524Y-97766853D02*
X135605762Y-97766853D01*
X135605762Y-97766853D02*
X135460619Y-97718473D01*
X135460619Y-97718473D02*
X135363857Y-97621711D01*
X135363857Y-97621711D02*
X135315476Y-97524949D01*
X135315476Y-97524949D02*
X135267095Y-97331425D01*
X135267095Y-97331425D02*
X135267095Y-97186282D01*
X135267095Y-97186282D02*
X135315476Y-96992758D01*
X135315476Y-96992758D02*
X135363857Y-96895996D01*
X135363857Y-96895996D02*
X135460619Y-96799234D01*
X135460619Y-96799234D02*
X135605762Y-96750853D01*
X135605762Y-96750853D02*
X135702524Y-96750853D01*
X135702524Y-96750853D02*
X135847667Y-96799234D01*
X135847667Y-96799234D02*
X135896048Y-96847615D01*
X136815286Y-97766853D02*
X136331476Y-97766853D01*
X136331476Y-97766853D02*
X136331476Y-96750853D01*
X118962714Y-87558473D02*
X119107857Y-87606853D01*
X119107857Y-87606853D02*
X119349762Y-87606853D01*
X119349762Y-87606853D02*
X119446524Y-87558473D01*
X119446524Y-87558473D02*
X119494905Y-87510092D01*
X119494905Y-87510092D02*
X119543286Y-87413330D01*
X119543286Y-87413330D02*
X119543286Y-87316568D01*
X119543286Y-87316568D02*
X119494905Y-87219806D01*
X119494905Y-87219806D02*
X119446524Y-87171425D01*
X119446524Y-87171425D02*
X119349762Y-87123044D01*
X119349762Y-87123044D02*
X119156238Y-87074663D01*
X119156238Y-87074663D02*
X119059476Y-87026282D01*
X119059476Y-87026282D02*
X119011095Y-86977901D01*
X119011095Y-86977901D02*
X118962714Y-86881139D01*
X118962714Y-86881139D02*
X118962714Y-86784377D01*
X118962714Y-86784377D02*
X119011095Y-86687615D01*
X119011095Y-86687615D02*
X119059476Y-86639234D01*
X119059476Y-86639234D02*
X119156238Y-86590853D01*
X119156238Y-86590853D02*
X119398143Y-86590853D01*
X119398143Y-86590853D02*
X119543286Y-86639234D01*
X120559286Y-87510092D02*
X120510905Y-87558473D01*
X120510905Y-87558473D02*
X120365762Y-87606853D01*
X120365762Y-87606853D02*
X120269000Y-87606853D01*
X120269000Y-87606853D02*
X120123857Y-87558473D01*
X120123857Y-87558473D02*
X120027095Y-87461711D01*
X120027095Y-87461711D02*
X119978714Y-87364949D01*
X119978714Y-87364949D02*
X119930333Y-87171425D01*
X119930333Y-87171425D02*
X119930333Y-87026282D01*
X119930333Y-87026282D02*
X119978714Y-86832758D01*
X119978714Y-86832758D02*
X120027095Y-86735996D01*
X120027095Y-86735996D02*
X120123857Y-86639234D01*
X120123857Y-86639234D02*
X120269000Y-86590853D01*
X120269000Y-86590853D02*
X120365762Y-86590853D01*
X120365762Y-86590853D02*
X120510905Y-86639234D01*
X120510905Y-86639234D02*
X120559286Y-86687615D01*
X120994714Y-87606853D02*
X120994714Y-86590853D01*
X121575286Y-87606853D02*
X121139857Y-87026282D01*
X121575286Y-86590853D02*
X120994714Y-87171425D01*
X119289285Y-82236568D02*
X119773095Y-82236568D01*
X119192523Y-82526853D02*
X119531190Y-81510853D01*
X119531190Y-81510853D02*
X119869857Y-82526853D01*
X120643952Y-81849520D02*
X120643952Y-82526853D01*
X120402047Y-81462473D02*
X120160142Y-82188187D01*
X120160142Y-82188187D02*
X120789095Y-82188187D01*
X134275285Y-79986853D02*
X134275285Y-78970853D01*
X134275285Y-78970853D02*
X134517190Y-78970853D01*
X134517190Y-78970853D02*
X134662333Y-79019234D01*
X134662333Y-79019234D02*
X134759095Y-79115996D01*
X134759095Y-79115996D02*
X134807476Y-79212758D01*
X134807476Y-79212758D02*
X134855857Y-79406282D01*
X134855857Y-79406282D02*
X134855857Y-79551425D01*
X134855857Y-79551425D02*
X134807476Y-79744949D01*
X134807476Y-79744949D02*
X134759095Y-79841711D01*
X134759095Y-79841711D02*
X134662333Y-79938473D01*
X134662333Y-79938473D02*
X134517190Y-79986853D01*
X134517190Y-79986853D02*
X134275285Y-79986853D01*
X135823476Y-79986853D02*
X135242904Y-79986853D01*
X135533190Y-79986853D02*
X135533190Y-78970853D01*
X135533190Y-78970853D02*
X135436428Y-79115996D01*
X135436428Y-79115996D02*
X135339666Y-79212758D01*
X135339666Y-79212758D02*
X135242904Y-79261139D01*
X136162142Y-78970853D02*
X136791095Y-78970853D01*
X136791095Y-78970853D02*
X136452428Y-79357901D01*
X136452428Y-79357901D02*
X136597571Y-79357901D01*
X136597571Y-79357901D02*
X136694333Y-79406282D01*
X136694333Y-79406282D02*
X136742714Y-79454663D01*
X136742714Y-79454663D02*
X136791095Y-79551425D01*
X136791095Y-79551425D02*
X136791095Y-79793330D01*
X136791095Y-79793330D02*
X136742714Y-79890092D01*
X136742714Y-79890092D02*
X136694333Y-79938473D01*
X136694333Y-79938473D02*
X136597571Y-79986853D01*
X136597571Y-79986853D02*
X136307285Y-79986853D01*
X136307285Y-79986853D02*
X136210523Y-79938473D01*
X136210523Y-79938473D02*
X136162142Y-79890092D01*
X119180428Y-92686853D02*
X119180428Y-91670853D01*
X119180428Y-91670853D02*
X119519095Y-92396568D01*
X119519095Y-92396568D02*
X119857762Y-91670853D01*
X119857762Y-91670853D02*
X119857762Y-92686853D01*
X120341571Y-92686853D02*
X120341571Y-91670853D01*
X120777000Y-92638473D02*
X120922143Y-92686853D01*
X120922143Y-92686853D02*
X121164048Y-92686853D01*
X121164048Y-92686853D02*
X121260810Y-92638473D01*
X121260810Y-92638473D02*
X121309191Y-92590092D01*
X121309191Y-92590092D02*
X121357572Y-92493330D01*
X121357572Y-92493330D02*
X121357572Y-92396568D01*
X121357572Y-92396568D02*
X121309191Y-92299806D01*
X121309191Y-92299806D02*
X121260810Y-92251425D01*
X121260810Y-92251425D02*
X121164048Y-92203044D01*
X121164048Y-92203044D02*
X120970524Y-92154663D01*
X120970524Y-92154663D02*
X120873762Y-92106282D01*
X120873762Y-92106282D02*
X120825381Y-92057901D01*
X120825381Y-92057901D02*
X120777000Y-91961139D01*
X120777000Y-91961139D02*
X120777000Y-91864377D01*
X120777000Y-91864377D02*
X120825381Y-91767615D01*
X120825381Y-91767615D02*
X120873762Y-91719234D01*
X120873762Y-91719234D02*
X120970524Y-91670853D01*
X120970524Y-91670853D02*
X121212429Y-91670853D01*
X121212429Y-91670853D02*
X121357572Y-91719234D01*
X121986524Y-91670853D02*
X122180048Y-91670853D01*
X122180048Y-91670853D02*
X122276810Y-91719234D01*
X122276810Y-91719234D02*
X122373572Y-91815996D01*
X122373572Y-91815996D02*
X122421953Y-92009520D01*
X122421953Y-92009520D02*
X122421953Y-92348187D01*
X122421953Y-92348187D02*
X122373572Y-92541711D01*
X122373572Y-92541711D02*
X122276810Y-92638473D01*
X122276810Y-92638473D02*
X122180048Y-92686853D01*
X122180048Y-92686853D02*
X121986524Y-92686853D01*
X121986524Y-92686853D02*
X121889762Y-92638473D01*
X121889762Y-92638473D02*
X121793000Y-92541711D01*
X121793000Y-92541711D02*
X121744619Y-92348187D01*
X121744619Y-92348187D02*
X121744619Y-92009520D01*
X121744619Y-92009520D02*
X121793000Y-91815996D01*
X121793000Y-91815996D02*
X121889762Y-91719234D01*
X121889762Y-91719234D02*
X121986524Y-91670853D01*
X134886095Y-71834663D02*
X135031238Y-71883044D01*
X135031238Y-71883044D02*
X135079619Y-71931425D01*
X135079619Y-71931425D02*
X135128000Y-72028187D01*
X135128000Y-72028187D02*
X135128000Y-72173330D01*
X135128000Y-72173330D02*
X135079619Y-72270092D01*
X135079619Y-72270092D02*
X135031238Y-72318473D01*
X135031238Y-72318473D02*
X134934476Y-72366853D01*
X134934476Y-72366853D02*
X134547428Y-72366853D01*
X134547428Y-72366853D02*
X134547428Y-71350853D01*
X134547428Y-71350853D02*
X134886095Y-71350853D01*
X134886095Y-71350853D02*
X134982857Y-71399234D01*
X134982857Y-71399234D02*
X135031238Y-71447615D01*
X135031238Y-71447615D02*
X135079619Y-71544377D01*
X135079619Y-71544377D02*
X135079619Y-71641139D01*
X135079619Y-71641139D02*
X135031238Y-71737901D01*
X135031238Y-71737901D02*
X134982857Y-71786282D01*
X134982857Y-71786282D02*
X134886095Y-71834663D01*
X134886095Y-71834663D02*
X134547428Y-71834663D01*
X135515047Y-72076568D02*
X135998857Y-72076568D01*
X135418285Y-72366853D02*
X135756952Y-71350853D01*
X135756952Y-71350853D02*
X136095619Y-72366853D01*
X136289142Y-71350853D02*
X136869714Y-71350853D01*
X136579428Y-72366853D02*
X136579428Y-71350853D01*
X119132047Y-66996568D02*
X119615857Y-66996568D01*
X119035285Y-67286853D02*
X119373952Y-66270853D01*
X119373952Y-66270853D02*
X119712619Y-67286853D01*
X120631857Y-67286853D02*
X120293190Y-66803044D01*
X120051285Y-67286853D02*
X120051285Y-66270853D01*
X120051285Y-66270853D02*
X120438333Y-66270853D01*
X120438333Y-66270853D02*
X120535095Y-66319234D01*
X120535095Y-66319234D02*
X120583476Y-66367615D01*
X120583476Y-66367615D02*
X120631857Y-66464377D01*
X120631857Y-66464377D02*
X120631857Y-66609520D01*
X120631857Y-66609520D02*
X120583476Y-66706282D01*
X120583476Y-66706282D02*
X120535095Y-66754663D01*
X120535095Y-66754663D02*
X120438333Y-66803044D01*
X120438333Y-66803044D02*
X120051285Y-66803044D01*
X121067285Y-66754663D02*
X121405952Y-66754663D01*
X121551095Y-67286853D02*
X121067285Y-67286853D01*
X121067285Y-67286853D02*
X121067285Y-66270853D01*
X121067285Y-66270853D02*
X121551095Y-66270853D01*
X122325190Y-66754663D02*
X121986523Y-66754663D01*
X121986523Y-67286853D02*
X121986523Y-66270853D01*
X121986523Y-66270853D02*
X122470333Y-66270853D01*
X134226904Y-76430853D02*
X134226904Y-77253330D01*
X134226904Y-77253330D02*
X134275285Y-77350092D01*
X134275285Y-77350092D02*
X134323666Y-77398473D01*
X134323666Y-77398473D02*
X134420428Y-77446853D01*
X134420428Y-77446853D02*
X134613952Y-77446853D01*
X134613952Y-77446853D02*
X134710714Y-77398473D01*
X134710714Y-77398473D02*
X134759095Y-77350092D01*
X134759095Y-77350092D02*
X134807476Y-77253330D01*
X134807476Y-77253330D02*
X134807476Y-76430853D01*
X135242904Y-77398473D02*
X135388047Y-77446853D01*
X135388047Y-77446853D02*
X135629952Y-77446853D01*
X135629952Y-77446853D02*
X135726714Y-77398473D01*
X135726714Y-77398473D02*
X135775095Y-77350092D01*
X135775095Y-77350092D02*
X135823476Y-77253330D01*
X135823476Y-77253330D02*
X135823476Y-77156568D01*
X135823476Y-77156568D02*
X135775095Y-77059806D01*
X135775095Y-77059806D02*
X135726714Y-77011425D01*
X135726714Y-77011425D02*
X135629952Y-76963044D01*
X135629952Y-76963044D02*
X135436428Y-76914663D01*
X135436428Y-76914663D02*
X135339666Y-76866282D01*
X135339666Y-76866282D02*
X135291285Y-76817901D01*
X135291285Y-76817901D02*
X135242904Y-76721139D01*
X135242904Y-76721139D02*
X135242904Y-76624377D01*
X135242904Y-76624377D02*
X135291285Y-76527615D01*
X135291285Y-76527615D02*
X135339666Y-76479234D01*
X135339666Y-76479234D02*
X135436428Y-76430853D01*
X135436428Y-76430853D02*
X135678333Y-76430853D01*
X135678333Y-76430853D02*
X135823476Y-76479234D01*
X136597571Y-76914663D02*
X136742714Y-76963044D01*
X136742714Y-76963044D02*
X136791095Y-77011425D01*
X136791095Y-77011425D02*
X136839476Y-77108187D01*
X136839476Y-77108187D02*
X136839476Y-77253330D01*
X136839476Y-77253330D02*
X136791095Y-77350092D01*
X136791095Y-77350092D02*
X136742714Y-77398473D01*
X136742714Y-77398473D02*
X136645952Y-77446853D01*
X136645952Y-77446853D02*
X136258904Y-77446853D01*
X136258904Y-77446853D02*
X136258904Y-76430853D01*
X136258904Y-76430853D02*
X136597571Y-76430853D01*
X136597571Y-76430853D02*
X136694333Y-76479234D01*
X136694333Y-76479234D02*
X136742714Y-76527615D01*
X136742714Y-76527615D02*
X136791095Y-76624377D01*
X136791095Y-76624377D02*
X136791095Y-76721139D01*
X136791095Y-76721139D02*
X136742714Y-76817901D01*
X136742714Y-76817901D02*
X136694333Y-76866282D01*
X136694333Y-76866282D02*
X136597571Y-76914663D01*
X136597571Y-76914663D02*
X136258904Y-76914663D01*
X134275285Y-82272853D02*
X134275285Y-81256853D01*
X134275285Y-81256853D02*
X134517190Y-81256853D01*
X134517190Y-81256853D02*
X134662333Y-81305234D01*
X134662333Y-81305234D02*
X134759095Y-81401996D01*
X134759095Y-81401996D02*
X134807476Y-81498758D01*
X134807476Y-81498758D02*
X134855857Y-81692282D01*
X134855857Y-81692282D02*
X134855857Y-81837425D01*
X134855857Y-81837425D02*
X134807476Y-82030949D01*
X134807476Y-82030949D02*
X134759095Y-82127711D01*
X134759095Y-82127711D02*
X134662333Y-82224473D01*
X134662333Y-82224473D02*
X134517190Y-82272853D01*
X134517190Y-82272853D02*
X134275285Y-82272853D01*
X135823476Y-82272853D02*
X135242904Y-82272853D01*
X135533190Y-82272853D02*
X135533190Y-81256853D01*
X135533190Y-81256853D02*
X135436428Y-81401996D01*
X135436428Y-81401996D02*
X135339666Y-81498758D01*
X135339666Y-81498758D02*
X135242904Y-81547139D01*
X136210523Y-81353615D02*
X136258904Y-81305234D01*
X136258904Y-81305234D02*
X136355666Y-81256853D01*
X136355666Y-81256853D02*
X136597571Y-81256853D01*
X136597571Y-81256853D02*
X136694333Y-81305234D01*
X136694333Y-81305234D02*
X136742714Y-81353615D01*
X136742714Y-81353615D02*
X136791095Y-81450377D01*
X136791095Y-81450377D02*
X136791095Y-81547139D01*
X136791095Y-81547139D02*
X136742714Y-81692282D01*
X136742714Y-81692282D02*
X136162142Y-82272853D01*
X136162142Y-82272853D02*
X136791095Y-82272853D01*
X135267095Y-92686853D02*
X135267095Y-91670853D01*
X135267095Y-91670853D02*
X135509000Y-91670853D01*
X135509000Y-91670853D02*
X135654143Y-91719234D01*
X135654143Y-91719234D02*
X135750905Y-91815996D01*
X135750905Y-91815996D02*
X135799286Y-91912758D01*
X135799286Y-91912758D02*
X135847667Y-92106282D01*
X135847667Y-92106282D02*
X135847667Y-92251425D01*
X135847667Y-92251425D02*
X135799286Y-92444949D01*
X135799286Y-92444949D02*
X135750905Y-92541711D01*
X135750905Y-92541711D02*
X135654143Y-92638473D01*
X135654143Y-92638473D02*
X135509000Y-92686853D01*
X135509000Y-92686853D02*
X135267095Y-92686853D01*
X136718524Y-91670853D02*
X136525000Y-91670853D01*
X136525000Y-91670853D02*
X136428238Y-91719234D01*
X136428238Y-91719234D02*
X136379857Y-91767615D01*
X136379857Y-91767615D02*
X136283095Y-91912758D01*
X136283095Y-91912758D02*
X136234714Y-92106282D01*
X136234714Y-92106282D02*
X136234714Y-92493330D01*
X136234714Y-92493330D02*
X136283095Y-92590092D01*
X136283095Y-92590092D02*
X136331476Y-92638473D01*
X136331476Y-92638473D02*
X136428238Y-92686853D01*
X136428238Y-92686853D02*
X136621762Y-92686853D01*
X136621762Y-92686853D02*
X136718524Y-92638473D01*
X136718524Y-92638473D02*
X136766905Y-92590092D01*
X136766905Y-92590092D02*
X136815286Y-92493330D01*
X136815286Y-92493330D02*
X136815286Y-92251425D01*
X136815286Y-92251425D02*
X136766905Y-92154663D01*
X136766905Y-92154663D02*
X136718524Y-92106282D01*
X136718524Y-92106282D02*
X136621762Y-92057901D01*
X136621762Y-92057901D02*
X136428238Y-92057901D01*
X136428238Y-92057901D02*
X136331476Y-92106282D01*
X136331476Y-92106282D02*
X136283095Y-92154663D01*
X136283095Y-92154663D02*
X136234714Y-92251425D01*
X119289285Y-79696568D02*
X119773095Y-79696568D01*
X119192523Y-79986853D02*
X119531190Y-78970853D01*
X119531190Y-78970853D02*
X119869857Y-79986853D01*
X120111761Y-78970853D02*
X120740714Y-78970853D01*
X120740714Y-78970853D02*
X120402047Y-79357901D01*
X120402047Y-79357901D02*
X120547190Y-79357901D01*
X120547190Y-79357901D02*
X120643952Y-79406282D01*
X120643952Y-79406282D02*
X120692333Y-79454663D01*
X120692333Y-79454663D02*
X120740714Y-79551425D01*
X120740714Y-79551425D02*
X120740714Y-79793330D01*
X120740714Y-79793330D02*
X120692333Y-79890092D01*
X120692333Y-79890092D02*
X120643952Y-79938473D01*
X120643952Y-79938473D02*
X120547190Y-79986853D01*
X120547190Y-79986853D02*
X120256904Y-79986853D01*
X120256904Y-79986853D02*
X120160142Y-79938473D01*
X120160142Y-79938473D02*
X120111761Y-79890092D01*
X119180428Y-89892853D02*
X119180428Y-88876853D01*
X119180428Y-88876853D02*
X119519095Y-89602568D01*
X119519095Y-89602568D02*
X119857762Y-88876853D01*
X119857762Y-88876853D02*
X119857762Y-89892853D01*
X120535095Y-88876853D02*
X120728619Y-88876853D01*
X120728619Y-88876853D02*
X120825381Y-88925234D01*
X120825381Y-88925234D02*
X120922143Y-89021996D01*
X120922143Y-89021996D02*
X120970524Y-89215520D01*
X120970524Y-89215520D02*
X120970524Y-89554187D01*
X120970524Y-89554187D02*
X120922143Y-89747711D01*
X120922143Y-89747711D02*
X120825381Y-89844473D01*
X120825381Y-89844473D02*
X120728619Y-89892853D01*
X120728619Y-89892853D02*
X120535095Y-89892853D01*
X120535095Y-89892853D02*
X120438333Y-89844473D01*
X120438333Y-89844473D02*
X120341571Y-89747711D01*
X120341571Y-89747711D02*
X120293190Y-89554187D01*
X120293190Y-89554187D02*
X120293190Y-89215520D01*
X120293190Y-89215520D02*
X120341571Y-89021996D01*
X120341571Y-89021996D02*
X120438333Y-88925234D01*
X120438333Y-88925234D02*
X120535095Y-88876853D01*
X121357571Y-89844473D02*
X121502714Y-89892853D01*
X121502714Y-89892853D02*
X121744619Y-89892853D01*
X121744619Y-89892853D02*
X121841381Y-89844473D01*
X121841381Y-89844473D02*
X121889762Y-89796092D01*
X121889762Y-89796092D02*
X121938143Y-89699330D01*
X121938143Y-89699330D02*
X121938143Y-89602568D01*
X121938143Y-89602568D02*
X121889762Y-89505806D01*
X121889762Y-89505806D02*
X121841381Y-89457425D01*
X121841381Y-89457425D02*
X121744619Y-89409044D01*
X121744619Y-89409044D02*
X121551095Y-89360663D01*
X121551095Y-89360663D02*
X121454333Y-89312282D01*
X121454333Y-89312282D02*
X121405952Y-89263901D01*
X121405952Y-89263901D02*
X121357571Y-89167139D01*
X121357571Y-89167139D02*
X121357571Y-89070377D01*
X121357571Y-89070377D02*
X121405952Y-88973615D01*
X121405952Y-88973615D02*
X121454333Y-88925234D01*
X121454333Y-88925234D02*
X121551095Y-88876853D01*
X121551095Y-88876853D02*
X121793000Y-88876853D01*
X121793000Y-88876853D02*
X121938143Y-88925234D01*
X122373571Y-89892853D02*
X122373571Y-88876853D01*
X118986904Y-96750853D02*
X119567476Y-96750853D01*
X119277190Y-97766853D02*
X119277190Y-96750853D01*
X119809380Y-96750853D02*
X120486714Y-97766853D01*
X120486714Y-96750853D02*
X119809380Y-97766853D01*
X135267095Y-74374663D02*
X135605762Y-74374663D01*
X135750905Y-74906853D02*
X135267095Y-74906853D01*
X135267095Y-74906853D02*
X135267095Y-73890853D01*
X135267095Y-73890853D02*
X135750905Y-73890853D01*
X136186333Y-74906853D02*
X136186333Y-73890853D01*
X136186333Y-73890853D02*
X136766905Y-74906853D01*
X136766905Y-74906853D02*
X136766905Y-73890853D01*
X135267095Y-90146853D02*
X135267095Y-89130853D01*
X135267095Y-89130853D02*
X135509000Y-89130853D01*
X135509000Y-89130853D02*
X135654143Y-89179234D01*
X135654143Y-89179234D02*
X135750905Y-89275996D01*
X135750905Y-89275996D02*
X135799286Y-89372758D01*
X135799286Y-89372758D02*
X135847667Y-89566282D01*
X135847667Y-89566282D02*
X135847667Y-89711425D01*
X135847667Y-89711425D02*
X135799286Y-89904949D01*
X135799286Y-89904949D02*
X135750905Y-90001711D01*
X135750905Y-90001711D02*
X135654143Y-90098473D01*
X135654143Y-90098473D02*
X135509000Y-90146853D01*
X135509000Y-90146853D02*
X135267095Y-90146853D01*
X136331476Y-90146853D02*
X136525000Y-90146853D01*
X136525000Y-90146853D02*
X136621762Y-90098473D01*
X136621762Y-90098473D02*
X136670143Y-90050092D01*
X136670143Y-90050092D02*
X136766905Y-89904949D01*
X136766905Y-89904949D02*
X136815286Y-89711425D01*
X136815286Y-89711425D02*
X136815286Y-89324377D01*
X136815286Y-89324377D02*
X136766905Y-89227615D01*
X136766905Y-89227615D02*
X136718524Y-89179234D01*
X136718524Y-89179234D02*
X136621762Y-89130853D01*
X136621762Y-89130853D02*
X136428238Y-89130853D01*
X136428238Y-89130853D02*
X136331476Y-89179234D01*
X136331476Y-89179234D02*
X136283095Y-89227615D01*
X136283095Y-89227615D02*
X136234714Y-89324377D01*
X136234714Y-89324377D02*
X136234714Y-89566282D01*
X136234714Y-89566282D02*
X136283095Y-89663044D01*
X136283095Y-89663044D02*
X136331476Y-89711425D01*
X136331476Y-89711425D02*
X136428238Y-89759806D01*
X136428238Y-89759806D02*
X136621762Y-89759806D01*
X136621762Y-89759806D02*
X136718524Y-89711425D01*
X136718524Y-89711425D02*
X136766905Y-89663044D01*
X136766905Y-89663044D02*
X136815286Y-89566282D01*
X119591667Y-94972853D02*
X119253000Y-94489044D01*
X119011095Y-94972853D02*
X119011095Y-93956853D01*
X119011095Y-93956853D02*
X119398143Y-93956853D01*
X119398143Y-93956853D02*
X119494905Y-94005234D01*
X119494905Y-94005234D02*
X119543286Y-94053615D01*
X119543286Y-94053615D02*
X119591667Y-94150377D01*
X119591667Y-94150377D02*
X119591667Y-94295520D01*
X119591667Y-94295520D02*
X119543286Y-94392282D01*
X119543286Y-94392282D02*
X119494905Y-94440663D01*
X119494905Y-94440663D02*
X119398143Y-94489044D01*
X119398143Y-94489044D02*
X119011095Y-94489044D01*
X119930333Y-93956853D02*
X120607667Y-94972853D01*
X120607667Y-93956853D02*
X119930333Y-94972853D01*
X119978714Y-100306853D02*
X119978714Y-99290853D01*
X119978714Y-99290853D02*
X120559286Y-100306853D01*
X120559286Y-100306853D02*
X120559286Y-99290853D01*
X121236619Y-99290853D02*
X121430143Y-99290853D01*
X121430143Y-99290853D02*
X121526905Y-99339234D01*
X121526905Y-99339234D02*
X121623667Y-99435996D01*
X121623667Y-99435996D02*
X121672048Y-99629520D01*
X121672048Y-99629520D02*
X121672048Y-99968187D01*
X121672048Y-99968187D02*
X121623667Y-100161711D01*
X121623667Y-100161711D02*
X121526905Y-100258473D01*
X121526905Y-100258473D02*
X121430143Y-100306853D01*
X121430143Y-100306853D02*
X121236619Y-100306853D01*
X121236619Y-100306853D02*
X121139857Y-100258473D01*
X121139857Y-100258473D02*
X121043095Y-100161711D01*
X121043095Y-100161711D02*
X120994714Y-99968187D01*
X120994714Y-99968187D02*
X120994714Y-99629520D01*
X120994714Y-99629520D02*
X121043095Y-99435996D01*
X121043095Y-99435996D02*
X121139857Y-99339234D01*
X121139857Y-99339234D02*
X121236619Y-99290853D01*
X122059095Y-100258473D02*
X122204238Y-100306853D01*
X122204238Y-100306853D02*
X122446143Y-100306853D01*
X122446143Y-100306853D02*
X122542905Y-100258473D01*
X122542905Y-100258473D02*
X122591286Y-100210092D01*
X122591286Y-100210092D02*
X122639667Y-100113330D01*
X122639667Y-100113330D02*
X122639667Y-100016568D01*
X122639667Y-100016568D02*
X122591286Y-99919806D01*
X122591286Y-99919806D02*
X122542905Y-99871425D01*
X122542905Y-99871425D02*
X122446143Y-99823044D01*
X122446143Y-99823044D02*
X122252619Y-99774663D01*
X122252619Y-99774663D02*
X122155857Y-99726282D01*
X122155857Y-99726282D02*
X122107476Y-99677901D01*
X122107476Y-99677901D02*
X122059095Y-99581139D01*
X122059095Y-99581139D02*
X122059095Y-99484377D01*
X122059095Y-99484377D02*
X122107476Y-99387615D01*
X122107476Y-99387615D02*
X122155857Y-99339234D01*
X122155857Y-99339234D02*
X122252619Y-99290853D01*
X122252619Y-99290853D02*
X122494524Y-99290853D01*
X122494524Y-99290853D02*
X122639667Y-99339234D01*
X119289285Y-84776568D02*
X119773095Y-84776568D01*
X119192523Y-85066853D02*
X119531190Y-84050853D01*
X119531190Y-84050853D02*
X119869857Y-85066853D01*
X120692333Y-84050853D02*
X120208523Y-84050853D01*
X120208523Y-84050853D02*
X120160142Y-84534663D01*
X120160142Y-84534663D02*
X120208523Y-84486282D01*
X120208523Y-84486282D02*
X120305285Y-84437901D01*
X120305285Y-84437901D02*
X120547190Y-84437901D01*
X120547190Y-84437901D02*
X120643952Y-84486282D01*
X120643952Y-84486282D02*
X120692333Y-84534663D01*
X120692333Y-84534663D02*
X120740714Y-84631425D01*
X120740714Y-84631425D02*
X120740714Y-84873330D01*
X120740714Y-84873330D02*
X120692333Y-84970092D01*
X120692333Y-84970092D02*
X120643952Y-85018473D01*
X120643952Y-85018473D02*
X120547190Y-85066853D01*
X120547190Y-85066853D02*
X120305285Y-85066853D01*
X120305285Y-85066853D02*
X120208523Y-85018473D01*
X120208523Y-85018473D02*
X120160142Y-84970092D01*
X119289285Y-72076568D02*
X119773095Y-72076568D01*
X119192523Y-72366853D02*
X119531190Y-71350853D01*
X119531190Y-71350853D02*
X119869857Y-72366853D01*
X120402047Y-71350853D02*
X120498809Y-71350853D01*
X120498809Y-71350853D02*
X120595571Y-71399234D01*
X120595571Y-71399234D02*
X120643952Y-71447615D01*
X120643952Y-71447615D02*
X120692333Y-71544377D01*
X120692333Y-71544377D02*
X120740714Y-71737901D01*
X120740714Y-71737901D02*
X120740714Y-71979806D01*
X120740714Y-71979806D02*
X120692333Y-72173330D01*
X120692333Y-72173330D02*
X120643952Y-72270092D01*
X120643952Y-72270092D02*
X120595571Y-72318473D01*
X120595571Y-72318473D02*
X120498809Y-72366853D01*
X120498809Y-72366853D02*
X120402047Y-72366853D01*
X120402047Y-72366853D02*
X120305285Y-72318473D01*
X120305285Y-72318473D02*
X120256904Y-72270092D01*
X120256904Y-72270092D02*
X120208523Y-72173330D01*
X120208523Y-72173330D02*
X120160142Y-71979806D01*
X120160142Y-71979806D02*
X120160142Y-71737901D01*
X120160142Y-71737901D02*
X120208523Y-71544377D01*
X120208523Y-71544377D02*
X120256904Y-71447615D01*
X120256904Y-71447615D02*
X120305285Y-71399234D01*
X120305285Y-71399234D02*
X120402047Y-71350853D01*
X134275285Y-100258473D02*
X134420428Y-100306853D01*
X134420428Y-100306853D02*
X134662333Y-100306853D01*
X134662333Y-100306853D02*
X134759095Y-100258473D01*
X134759095Y-100258473D02*
X134807476Y-100210092D01*
X134807476Y-100210092D02*
X134855857Y-100113330D01*
X134855857Y-100113330D02*
X134855857Y-100016568D01*
X134855857Y-100016568D02*
X134807476Y-99919806D01*
X134807476Y-99919806D02*
X134759095Y-99871425D01*
X134759095Y-99871425D02*
X134662333Y-99823044D01*
X134662333Y-99823044D02*
X134468809Y-99774663D01*
X134468809Y-99774663D02*
X134372047Y-99726282D01*
X134372047Y-99726282D02*
X134323666Y-99677901D01*
X134323666Y-99677901D02*
X134275285Y-99581139D01*
X134275285Y-99581139D02*
X134275285Y-99484377D01*
X134275285Y-99484377D02*
X134323666Y-99387615D01*
X134323666Y-99387615D02*
X134372047Y-99339234D01*
X134372047Y-99339234D02*
X134468809Y-99290853D01*
X134468809Y-99290853D02*
X134710714Y-99290853D01*
X134710714Y-99290853D02*
X134855857Y-99339234D01*
X135291285Y-100306853D02*
X135291285Y-99290853D01*
X135291285Y-99290853D02*
X135533190Y-99290853D01*
X135533190Y-99290853D02*
X135678333Y-99339234D01*
X135678333Y-99339234D02*
X135775095Y-99435996D01*
X135775095Y-99435996D02*
X135823476Y-99532758D01*
X135823476Y-99532758D02*
X135871857Y-99726282D01*
X135871857Y-99726282D02*
X135871857Y-99871425D01*
X135871857Y-99871425D02*
X135823476Y-100064949D01*
X135823476Y-100064949D02*
X135775095Y-100161711D01*
X135775095Y-100161711D02*
X135678333Y-100258473D01*
X135678333Y-100258473D02*
X135533190Y-100306853D01*
X135533190Y-100306853D02*
X135291285Y-100306853D01*
X136258904Y-100016568D02*
X136742714Y-100016568D01*
X136162142Y-100306853D02*
X136500809Y-99290853D01*
X136500809Y-99290853D02*
X136839476Y-100306853D01*
X135267095Y-95099853D02*
X135267095Y-94083853D01*
X135267095Y-94083853D02*
X135509000Y-94083853D01*
X135509000Y-94083853D02*
X135654143Y-94132234D01*
X135654143Y-94132234D02*
X135750905Y-94228996D01*
X135750905Y-94228996D02*
X135799286Y-94325758D01*
X135799286Y-94325758D02*
X135847667Y-94519282D01*
X135847667Y-94519282D02*
X135847667Y-94664425D01*
X135847667Y-94664425D02*
X135799286Y-94857949D01*
X135799286Y-94857949D02*
X135750905Y-94954711D01*
X135750905Y-94954711D02*
X135654143Y-95051473D01*
X135654143Y-95051473D02*
X135509000Y-95099853D01*
X135509000Y-95099853D02*
X135267095Y-95099853D01*
X136766905Y-94083853D02*
X136283095Y-94083853D01*
X136283095Y-94083853D02*
X136234714Y-94567663D01*
X136234714Y-94567663D02*
X136283095Y-94519282D01*
X136283095Y-94519282D02*
X136379857Y-94470901D01*
X136379857Y-94470901D02*
X136621762Y-94470901D01*
X136621762Y-94470901D02*
X136718524Y-94519282D01*
X136718524Y-94519282D02*
X136766905Y-94567663D01*
X136766905Y-94567663D02*
X136815286Y-94664425D01*
X136815286Y-94664425D02*
X136815286Y-94906330D01*
X136815286Y-94906330D02*
X136766905Y-95003092D01*
X136766905Y-95003092D02*
X136718524Y-95051473D01*
X136718524Y-95051473D02*
X136621762Y-95099853D01*
X136621762Y-95099853D02*
X136379857Y-95099853D01*
X136379857Y-95099853D02*
X136283095Y-95051473D01*
X136283095Y-95051473D02*
X136234714Y-95003092D01*
X119712619Y-62206853D02*
X119373952Y-61723044D01*
X119132047Y-62206853D02*
X119132047Y-61190853D01*
X119132047Y-61190853D02*
X119519095Y-61190853D01*
X119519095Y-61190853D02*
X119615857Y-61239234D01*
X119615857Y-61239234D02*
X119664238Y-61287615D01*
X119664238Y-61287615D02*
X119712619Y-61384377D01*
X119712619Y-61384377D02*
X119712619Y-61529520D01*
X119712619Y-61529520D02*
X119664238Y-61626282D01*
X119664238Y-61626282D02*
X119615857Y-61674663D01*
X119615857Y-61674663D02*
X119519095Y-61723044D01*
X119519095Y-61723044D02*
X119132047Y-61723044D01*
X120099666Y-62158473D02*
X120244809Y-62206853D01*
X120244809Y-62206853D02*
X120486714Y-62206853D01*
X120486714Y-62206853D02*
X120583476Y-62158473D01*
X120583476Y-62158473D02*
X120631857Y-62110092D01*
X120631857Y-62110092D02*
X120680238Y-62013330D01*
X120680238Y-62013330D02*
X120680238Y-61916568D01*
X120680238Y-61916568D02*
X120631857Y-61819806D01*
X120631857Y-61819806D02*
X120583476Y-61771425D01*
X120583476Y-61771425D02*
X120486714Y-61723044D01*
X120486714Y-61723044D02*
X120293190Y-61674663D01*
X120293190Y-61674663D02*
X120196428Y-61626282D01*
X120196428Y-61626282D02*
X120148047Y-61577901D01*
X120148047Y-61577901D02*
X120099666Y-61481139D01*
X120099666Y-61481139D02*
X120099666Y-61384377D01*
X120099666Y-61384377D02*
X120148047Y-61287615D01*
X120148047Y-61287615D02*
X120196428Y-61239234D01*
X120196428Y-61239234D02*
X120293190Y-61190853D01*
X120293190Y-61190853D02*
X120535095Y-61190853D01*
X120535095Y-61190853D02*
X120680238Y-61239234D01*
X120970523Y-61190853D02*
X121551095Y-61190853D01*
X121260809Y-62206853D02*
X121260809Y-61190853D01*
X119748905Y-68859234D02*
X119652143Y-68810853D01*
X119652143Y-68810853D02*
X119507000Y-68810853D01*
X119507000Y-68810853D02*
X119361857Y-68859234D01*
X119361857Y-68859234D02*
X119265095Y-68955996D01*
X119265095Y-68955996D02*
X119216714Y-69052758D01*
X119216714Y-69052758D02*
X119168333Y-69246282D01*
X119168333Y-69246282D02*
X119168333Y-69391425D01*
X119168333Y-69391425D02*
X119216714Y-69584949D01*
X119216714Y-69584949D02*
X119265095Y-69681711D01*
X119265095Y-69681711D02*
X119361857Y-69778473D01*
X119361857Y-69778473D02*
X119507000Y-69826853D01*
X119507000Y-69826853D02*
X119603762Y-69826853D01*
X119603762Y-69826853D02*
X119748905Y-69778473D01*
X119748905Y-69778473D02*
X119797286Y-69730092D01*
X119797286Y-69730092D02*
X119797286Y-69391425D01*
X119797286Y-69391425D02*
X119603762Y-69391425D01*
X120232714Y-69826853D02*
X120232714Y-68810853D01*
X120232714Y-68810853D02*
X120813286Y-69826853D01*
X120813286Y-69826853D02*
X120813286Y-68810853D01*
X121297095Y-69826853D02*
X121297095Y-68810853D01*
X121297095Y-68810853D02*
X121539000Y-68810853D01*
X121539000Y-68810853D02*
X121684143Y-68859234D01*
X121684143Y-68859234D02*
X121780905Y-68955996D01*
X121780905Y-68955996D02*
X121829286Y-69052758D01*
X121829286Y-69052758D02*
X121877667Y-69246282D01*
X121877667Y-69246282D02*
X121877667Y-69391425D01*
X121877667Y-69391425D02*
X121829286Y-69584949D01*
X121829286Y-69584949D02*
X121780905Y-69681711D01*
X121780905Y-69681711D02*
X121684143Y-69778473D01*
X121684143Y-69778473D02*
X121539000Y-69826853D01*
X121539000Y-69826853D02*
X121297095Y-69826853D01*
X134275285Y-87606853D02*
X134275285Y-86590853D01*
X134275285Y-86590853D02*
X134517190Y-86590853D01*
X134517190Y-86590853D02*
X134662333Y-86639234D01*
X134662333Y-86639234D02*
X134759095Y-86735996D01*
X134759095Y-86735996D02*
X134807476Y-86832758D01*
X134807476Y-86832758D02*
X134855857Y-87026282D01*
X134855857Y-87026282D02*
X134855857Y-87171425D01*
X134855857Y-87171425D02*
X134807476Y-87364949D01*
X134807476Y-87364949D02*
X134759095Y-87461711D01*
X134759095Y-87461711D02*
X134662333Y-87558473D01*
X134662333Y-87558473D02*
X134517190Y-87606853D01*
X134517190Y-87606853D02*
X134275285Y-87606853D01*
X135823476Y-87606853D02*
X135242904Y-87606853D01*
X135533190Y-87606853D02*
X135533190Y-86590853D01*
X135533190Y-86590853D02*
X135436428Y-86735996D01*
X135436428Y-86735996D02*
X135339666Y-86832758D01*
X135339666Y-86832758D02*
X135242904Y-86881139D01*
X136452428Y-86590853D02*
X136549190Y-86590853D01*
X136549190Y-86590853D02*
X136645952Y-86639234D01*
X136645952Y-86639234D02*
X136694333Y-86687615D01*
X136694333Y-86687615D02*
X136742714Y-86784377D01*
X136742714Y-86784377D02*
X136791095Y-86977901D01*
X136791095Y-86977901D02*
X136791095Y-87219806D01*
X136791095Y-87219806D02*
X136742714Y-87413330D01*
X136742714Y-87413330D02*
X136694333Y-87510092D01*
X136694333Y-87510092D02*
X136645952Y-87558473D01*
X136645952Y-87558473D02*
X136549190Y-87606853D01*
X136549190Y-87606853D02*
X136452428Y-87606853D01*
X136452428Y-87606853D02*
X136355666Y-87558473D01*
X136355666Y-87558473D02*
X136307285Y-87510092D01*
X136307285Y-87510092D02*
X136258904Y-87413330D01*
X136258904Y-87413330D02*
X136210523Y-87219806D01*
X136210523Y-87219806D02*
X136210523Y-86977901D01*
X136210523Y-86977901D02*
X136258904Y-86784377D01*
X136258904Y-86784377D02*
X136307285Y-86687615D01*
X136307285Y-86687615D02*
X136355666Y-86639234D01*
X136355666Y-86639234D02*
X136452428Y-86590853D01*
X134275285Y-85066853D02*
X134275285Y-84050853D01*
X134275285Y-84050853D02*
X134517190Y-84050853D01*
X134517190Y-84050853D02*
X134662333Y-84099234D01*
X134662333Y-84099234D02*
X134759095Y-84195996D01*
X134759095Y-84195996D02*
X134807476Y-84292758D01*
X134807476Y-84292758D02*
X134855857Y-84486282D01*
X134855857Y-84486282D02*
X134855857Y-84631425D01*
X134855857Y-84631425D02*
X134807476Y-84824949D01*
X134807476Y-84824949D02*
X134759095Y-84921711D01*
X134759095Y-84921711D02*
X134662333Y-85018473D01*
X134662333Y-85018473D02*
X134517190Y-85066853D01*
X134517190Y-85066853D02*
X134275285Y-85066853D01*
X135823476Y-85066853D02*
X135242904Y-85066853D01*
X135533190Y-85066853D02*
X135533190Y-84050853D01*
X135533190Y-84050853D02*
X135436428Y-84195996D01*
X135436428Y-84195996D02*
X135339666Y-84292758D01*
X135339666Y-84292758D02*
X135242904Y-84341139D01*
X136791095Y-85066853D02*
X136210523Y-85066853D01*
X136500809Y-85066853D02*
X136500809Y-84050853D01*
X136500809Y-84050853D02*
X136404047Y-84195996D01*
X136404047Y-84195996D02*
X136307285Y-84292758D01*
X136307285Y-84292758D02*
X136210523Y-84341139D01*
X119289285Y-77156568D02*
X119773095Y-77156568D01*
X119192523Y-77446853D02*
X119531190Y-76430853D01*
X119531190Y-76430853D02*
X119869857Y-77446853D01*
X120160142Y-76527615D02*
X120208523Y-76479234D01*
X120208523Y-76479234D02*
X120305285Y-76430853D01*
X120305285Y-76430853D02*
X120547190Y-76430853D01*
X120547190Y-76430853D02*
X120643952Y-76479234D01*
X120643952Y-76479234D02*
X120692333Y-76527615D01*
X120692333Y-76527615D02*
X120740714Y-76624377D01*
X120740714Y-76624377D02*
X120740714Y-76721139D01*
X120740714Y-76721139D02*
X120692333Y-76866282D01*
X120692333Y-76866282D02*
X120111761Y-77446853D01*
X120111761Y-77446853D02*
X120740714Y-77446853D01*
X119240904Y-63730853D02*
X119869857Y-63730853D01*
X119869857Y-63730853D02*
X119531190Y-64117901D01*
X119531190Y-64117901D02*
X119676333Y-64117901D01*
X119676333Y-64117901D02*
X119773095Y-64166282D01*
X119773095Y-64166282D02*
X119821476Y-64214663D01*
X119821476Y-64214663D02*
X119869857Y-64311425D01*
X119869857Y-64311425D02*
X119869857Y-64553330D01*
X119869857Y-64553330D02*
X119821476Y-64650092D01*
X119821476Y-64650092D02*
X119773095Y-64698473D01*
X119773095Y-64698473D02*
X119676333Y-64746853D01*
X119676333Y-64746853D02*
X119386047Y-64746853D01*
X119386047Y-64746853D02*
X119289285Y-64698473D01*
X119289285Y-64698473D02*
X119240904Y-64650092D01*
X120160142Y-63730853D02*
X120498809Y-64746853D01*
X120498809Y-64746853D02*
X120837476Y-63730853D01*
D15*
X102997095Y-53810819D02*
X102997095Y-54620342D01*
X102997095Y-54620342D02*
X103044714Y-54715580D01*
X103044714Y-54715580D02*
X103092333Y-54763200D01*
X103092333Y-54763200D02*
X103187571Y-54810819D01*
X103187571Y-54810819D02*
X103378047Y-54810819D01*
X103378047Y-54810819D02*
X103473285Y-54763200D01*
X103473285Y-54763200D02*
X103520904Y-54715580D01*
X103520904Y-54715580D02*
X103568523Y-54620342D01*
X103568523Y-54620342D02*
X103568523Y-53810819D01*
X103997095Y-53906057D02*
X104044714Y-53858438D01*
X104044714Y-53858438D02*
X104139952Y-53810819D01*
X104139952Y-53810819D02*
X104378047Y-53810819D01*
X104378047Y-53810819D02*
X104473285Y-53858438D01*
X104473285Y-53858438D02*
X104520904Y-53906057D01*
X104520904Y-53906057D02*
X104568523Y-54001295D01*
X104568523Y-54001295D02*
X104568523Y-54096533D01*
X104568523Y-54096533D02*
X104520904Y-54239390D01*
X104520904Y-54239390D02*
X103949476Y-54810819D01*
X103949476Y-54810819D02*
X104568523Y-54810819D01*
D18*
X95618905Y-68859234D02*
X95522143Y-68810853D01*
X95522143Y-68810853D02*
X95377000Y-68810853D01*
X95377000Y-68810853D02*
X95231857Y-68859234D01*
X95231857Y-68859234D02*
X95135095Y-68955996D01*
X95135095Y-68955996D02*
X95086714Y-69052758D01*
X95086714Y-69052758D02*
X95038333Y-69246282D01*
X95038333Y-69246282D02*
X95038333Y-69391425D01*
X95038333Y-69391425D02*
X95086714Y-69584949D01*
X95086714Y-69584949D02*
X95135095Y-69681711D01*
X95135095Y-69681711D02*
X95231857Y-69778473D01*
X95231857Y-69778473D02*
X95377000Y-69826853D01*
X95377000Y-69826853D02*
X95473762Y-69826853D01*
X95473762Y-69826853D02*
X95618905Y-69778473D01*
X95618905Y-69778473D02*
X95667286Y-69730092D01*
X95667286Y-69730092D02*
X95667286Y-69391425D01*
X95667286Y-69391425D02*
X95473762Y-69391425D01*
X96102714Y-69826853D02*
X96102714Y-68810853D01*
X96102714Y-68810853D02*
X96683286Y-69826853D01*
X96683286Y-69826853D02*
X96683286Y-68810853D01*
X97167095Y-69826853D02*
X97167095Y-68810853D01*
X97167095Y-68810853D02*
X97409000Y-68810853D01*
X97409000Y-68810853D02*
X97554143Y-68859234D01*
X97554143Y-68859234D02*
X97650905Y-68955996D01*
X97650905Y-68955996D02*
X97699286Y-69052758D01*
X97699286Y-69052758D02*
X97747667Y-69246282D01*
X97747667Y-69246282D02*
X97747667Y-69391425D01*
X97747667Y-69391425D02*
X97699286Y-69584949D01*
X97699286Y-69584949D02*
X97650905Y-69681711D01*
X97650905Y-69681711D02*
X97554143Y-69778473D01*
X97554143Y-69778473D02*
X97409000Y-69826853D01*
X97409000Y-69826853D02*
X97167095Y-69826853D01*
X111137095Y-95099853D02*
X111137095Y-94083853D01*
X111137095Y-94083853D02*
X111379000Y-94083853D01*
X111379000Y-94083853D02*
X111524143Y-94132234D01*
X111524143Y-94132234D02*
X111620905Y-94228996D01*
X111620905Y-94228996D02*
X111669286Y-94325758D01*
X111669286Y-94325758D02*
X111717667Y-94519282D01*
X111717667Y-94519282D02*
X111717667Y-94664425D01*
X111717667Y-94664425D02*
X111669286Y-94857949D01*
X111669286Y-94857949D02*
X111620905Y-94954711D01*
X111620905Y-94954711D02*
X111524143Y-95051473D01*
X111524143Y-95051473D02*
X111379000Y-95099853D01*
X111379000Y-95099853D02*
X111137095Y-95099853D01*
X112636905Y-94083853D02*
X112153095Y-94083853D01*
X112153095Y-94083853D02*
X112104714Y-94567663D01*
X112104714Y-94567663D02*
X112153095Y-94519282D01*
X112153095Y-94519282D02*
X112249857Y-94470901D01*
X112249857Y-94470901D02*
X112491762Y-94470901D01*
X112491762Y-94470901D02*
X112588524Y-94519282D01*
X112588524Y-94519282D02*
X112636905Y-94567663D01*
X112636905Y-94567663D02*
X112685286Y-94664425D01*
X112685286Y-94664425D02*
X112685286Y-94906330D01*
X112685286Y-94906330D02*
X112636905Y-95003092D01*
X112636905Y-95003092D02*
X112588524Y-95051473D01*
X112588524Y-95051473D02*
X112491762Y-95099853D01*
X112491762Y-95099853D02*
X112249857Y-95099853D01*
X112249857Y-95099853D02*
X112153095Y-95051473D01*
X112153095Y-95051473D02*
X112104714Y-95003092D01*
X94832714Y-87558473D02*
X94977857Y-87606853D01*
X94977857Y-87606853D02*
X95219762Y-87606853D01*
X95219762Y-87606853D02*
X95316524Y-87558473D01*
X95316524Y-87558473D02*
X95364905Y-87510092D01*
X95364905Y-87510092D02*
X95413286Y-87413330D01*
X95413286Y-87413330D02*
X95413286Y-87316568D01*
X95413286Y-87316568D02*
X95364905Y-87219806D01*
X95364905Y-87219806D02*
X95316524Y-87171425D01*
X95316524Y-87171425D02*
X95219762Y-87123044D01*
X95219762Y-87123044D02*
X95026238Y-87074663D01*
X95026238Y-87074663D02*
X94929476Y-87026282D01*
X94929476Y-87026282D02*
X94881095Y-86977901D01*
X94881095Y-86977901D02*
X94832714Y-86881139D01*
X94832714Y-86881139D02*
X94832714Y-86784377D01*
X94832714Y-86784377D02*
X94881095Y-86687615D01*
X94881095Y-86687615D02*
X94929476Y-86639234D01*
X94929476Y-86639234D02*
X95026238Y-86590853D01*
X95026238Y-86590853D02*
X95268143Y-86590853D01*
X95268143Y-86590853D02*
X95413286Y-86639234D01*
X96429286Y-87510092D02*
X96380905Y-87558473D01*
X96380905Y-87558473D02*
X96235762Y-87606853D01*
X96235762Y-87606853D02*
X96139000Y-87606853D01*
X96139000Y-87606853D02*
X95993857Y-87558473D01*
X95993857Y-87558473D02*
X95897095Y-87461711D01*
X95897095Y-87461711D02*
X95848714Y-87364949D01*
X95848714Y-87364949D02*
X95800333Y-87171425D01*
X95800333Y-87171425D02*
X95800333Y-87026282D01*
X95800333Y-87026282D02*
X95848714Y-86832758D01*
X95848714Y-86832758D02*
X95897095Y-86735996D01*
X95897095Y-86735996D02*
X95993857Y-86639234D01*
X95993857Y-86639234D02*
X96139000Y-86590853D01*
X96139000Y-86590853D02*
X96235762Y-86590853D01*
X96235762Y-86590853D02*
X96380905Y-86639234D01*
X96380905Y-86639234D02*
X96429286Y-86687615D01*
X96864714Y-87606853D02*
X96864714Y-86590853D01*
X97445286Y-87606853D02*
X97009857Y-87026282D01*
X97445286Y-86590853D02*
X96864714Y-87171425D01*
X110145285Y-100258473D02*
X110290428Y-100306853D01*
X110290428Y-100306853D02*
X110532333Y-100306853D01*
X110532333Y-100306853D02*
X110629095Y-100258473D01*
X110629095Y-100258473D02*
X110677476Y-100210092D01*
X110677476Y-100210092D02*
X110725857Y-100113330D01*
X110725857Y-100113330D02*
X110725857Y-100016568D01*
X110725857Y-100016568D02*
X110677476Y-99919806D01*
X110677476Y-99919806D02*
X110629095Y-99871425D01*
X110629095Y-99871425D02*
X110532333Y-99823044D01*
X110532333Y-99823044D02*
X110338809Y-99774663D01*
X110338809Y-99774663D02*
X110242047Y-99726282D01*
X110242047Y-99726282D02*
X110193666Y-99677901D01*
X110193666Y-99677901D02*
X110145285Y-99581139D01*
X110145285Y-99581139D02*
X110145285Y-99484377D01*
X110145285Y-99484377D02*
X110193666Y-99387615D01*
X110193666Y-99387615D02*
X110242047Y-99339234D01*
X110242047Y-99339234D02*
X110338809Y-99290853D01*
X110338809Y-99290853D02*
X110580714Y-99290853D01*
X110580714Y-99290853D02*
X110725857Y-99339234D01*
X111161285Y-100306853D02*
X111161285Y-99290853D01*
X111161285Y-99290853D02*
X111403190Y-99290853D01*
X111403190Y-99290853D02*
X111548333Y-99339234D01*
X111548333Y-99339234D02*
X111645095Y-99435996D01*
X111645095Y-99435996D02*
X111693476Y-99532758D01*
X111693476Y-99532758D02*
X111741857Y-99726282D01*
X111741857Y-99726282D02*
X111741857Y-99871425D01*
X111741857Y-99871425D02*
X111693476Y-100064949D01*
X111693476Y-100064949D02*
X111645095Y-100161711D01*
X111645095Y-100161711D02*
X111548333Y-100258473D01*
X111548333Y-100258473D02*
X111403190Y-100306853D01*
X111403190Y-100306853D02*
X111161285Y-100306853D01*
X112128904Y-100016568D02*
X112612714Y-100016568D01*
X112032142Y-100306853D02*
X112370809Y-99290853D01*
X112370809Y-99290853D02*
X112709476Y-100306853D01*
X95159285Y-84776568D02*
X95643095Y-84776568D01*
X95062523Y-85066853D02*
X95401190Y-84050853D01*
X95401190Y-84050853D02*
X95739857Y-85066853D01*
X96562333Y-84050853D02*
X96078523Y-84050853D01*
X96078523Y-84050853D02*
X96030142Y-84534663D01*
X96030142Y-84534663D02*
X96078523Y-84486282D01*
X96078523Y-84486282D02*
X96175285Y-84437901D01*
X96175285Y-84437901D02*
X96417190Y-84437901D01*
X96417190Y-84437901D02*
X96513952Y-84486282D01*
X96513952Y-84486282D02*
X96562333Y-84534663D01*
X96562333Y-84534663D02*
X96610714Y-84631425D01*
X96610714Y-84631425D02*
X96610714Y-84873330D01*
X96610714Y-84873330D02*
X96562333Y-84970092D01*
X96562333Y-84970092D02*
X96513952Y-85018473D01*
X96513952Y-85018473D02*
X96417190Y-85066853D01*
X96417190Y-85066853D02*
X96175285Y-85066853D01*
X96175285Y-85066853D02*
X96078523Y-85018473D01*
X96078523Y-85018473D02*
X96030142Y-84970092D01*
X111137095Y-90146853D02*
X111137095Y-89130853D01*
X111137095Y-89130853D02*
X111379000Y-89130853D01*
X111379000Y-89130853D02*
X111524143Y-89179234D01*
X111524143Y-89179234D02*
X111620905Y-89275996D01*
X111620905Y-89275996D02*
X111669286Y-89372758D01*
X111669286Y-89372758D02*
X111717667Y-89566282D01*
X111717667Y-89566282D02*
X111717667Y-89711425D01*
X111717667Y-89711425D02*
X111669286Y-89904949D01*
X111669286Y-89904949D02*
X111620905Y-90001711D01*
X111620905Y-90001711D02*
X111524143Y-90098473D01*
X111524143Y-90098473D02*
X111379000Y-90146853D01*
X111379000Y-90146853D02*
X111137095Y-90146853D01*
X112201476Y-90146853D02*
X112395000Y-90146853D01*
X112395000Y-90146853D02*
X112491762Y-90098473D01*
X112491762Y-90098473D02*
X112540143Y-90050092D01*
X112540143Y-90050092D02*
X112636905Y-89904949D01*
X112636905Y-89904949D02*
X112685286Y-89711425D01*
X112685286Y-89711425D02*
X112685286Y-89324377D01*
X112685286Y-89324377D02*
X112636905Y-89227615D01*
X112636905Y-89227615D02*
X112588524Y-89179234D01*
X112588524Y-89179234D02*
X112491762Y-89130853D01*
X112491762Y-89130853D02*
X112298238Y-89130853D01*
X112298238Y-89130853D02*
X112201476Y-89179234D01*
X112201476Y-89179234D02*
X112153095Y-89227615D01*
X112153095Y-89227615D02*
X112104714Y-89324377D01*
X112104714Y-89324377D02*
X112104714Y-89566282D01*
X112104714Y-89566282D02*
X112153095Y-89663044D01*
X112153095Y-89663044D02*
X112201476Y-89711425D01*
X112201476Y-89711425D02*
X112298238Y-89759806D01*
X112298238Y-89759806D02*
X112491762Y-89759806D01*
X112491762Y-89759806D02*
X112588524Y-89711425D01*
X112588524Y-89711425D02*
X112636905Y-89663044D01*
X112636905Y-89663044D02*
X112685286Y-89566282D01*
X95110904Y-63730853D02*
X95739857Y-63730853D01*
X95739857Y-63730853D02*
X95401190Y-64117901D01*
X95401190Y-64117901D02*
X95546333Y-64117901D01*
X95546333Y-64117901D02*
X95643095Y-64166282D01*
X95643095Y-64166282D02*
X95691476Y-64214663D01*
X95691476Y-64214663D02*
X95739857Y-64311425D01*
X95739857Y-64311425D02*
X95739857Y-64553330D01*
X95739857Y-64553330D02*
X95691476Y-64650092D01*
X95691476Y-64650092D02*
X95643095Y-64698473D01*
X95643095Y-64698473D02*
X95546333Y-64746853D01*
X95546333Y-64746853D02*
X95256047Y-64746853D01*
X95256047Y-64746853D02*
X95159285Y-64698473D01*
X95159285Y-64698473D02*
X95110904Y-64650092D01*
X96030142Y-63730853D02*
X96368809Y-64746853D01*
X96368809Y-64746853D02*
X96707476Y-63730853D01*
X95159285Y-72076568D02*
X95643095Y-72076568D01*
X95062523Y-72366853D02*
X95401190Y-71350853D01*
X95401190Y-71350853D02*
X95739857Y-72366853D01*
X96272047Y-71350853D02*
X96368809Y-71350853D01*
X96368809Y-71350853D02*
X96465571Y-71399234D01*
X96465571Y-71399234D02*
X96513952Y-71447615D01*
X96513952Y-71447615D02*
X96562333Y-71544377D01*
X96562333Y-71544377D02*
X96610714Y-71737901D01*
X96610714Y-71737901D02*
X96610714Y-71979806D01*
X96610714Y-71979806D02*
X96562333Y-72173330D01*
X96562333Y-72173330D02*
X96513952Y-72270092D01*
X96513952Y-72270092D02*
X96465571Y-72318473D01*
X96465571Y-72318473D02*
X96368809Y-72366853D01*
X96368809Y-72366853D02*
X96272047Y-72366853D01*
X96272047Y-72366853D02*
X96175285Y-72318473D01*
X96175285Y-72318473D02*
X96126904Y-72270092D01*
X96126904Y-72270092D02*
X96078523Y-72173330D01*
X96078523Y-72173330D02*
X96030142Y-71979806D01*
X96030142Y-71979806D02*
X96030142Y-71737901D01*
X96030142Y-71737901D02*
X96078523Y-71544377D01*
X96078523Y-71544377D02*
X96126904Y-71447615D01*
X96126904Y-71447615D02*
X96175285Y-71399234D01*
X96175285Y-71399234D02*
X96272047Y-71350853D01*
X95159285Y-79696568D02*
X95643095Y-79696568D01*
X95062523Y-79986853D02*
X95401190Y-78970853D01*
X95401190Y-78970853D02*
X95739857Y-79986853D01*
X95981761Y-78970853D02*
X96610714Y-78970853D01*
X96610714Y-78970853D02*
X96272047Y-79357901D01*
X96272047Y-79357901D02*
X96417190Y-79357901D01*
X96417190Y-79357901D02*
X96513952Y-79406282D01*
X96513952Y-79406282D02*
X96562333Y-79454663D01*
X96562333Y-79454663D02*
X96610714Y-79551425D01*
X96610714Y-79551425D02*
X96610714Y-79793330D01*
X96610714Y-79793330D02*
X96562333Y-79890092D01*
X96562333Y-79890092D02*
X96513952Y-79938473D01*
X96513952Y-79938473D02*
X96417190Y-79986853D01*
X96417190Y-79986853D02*
X96126904Y-79986853D01*
X96126904Y-79986853D02*
X96030142Y-79938473D01*
X96030142Y-79938473D02*
X95981761Y-79890092D01*
X95002047Y-66996568D02*
X95485857Y-66996568D01*
X94905285Y-67286853D02*
X95243952Y-66270853D01*
X95243952Y-66270853D02*
X95582619Y-67286853D01*
X96501857Y-67286853D02*
X96163190Y-66803044D01*
X95921285Y-67286853D02*
X95921285Y-66270853D01*
X95921285Y-66270853D02*
X96308333Y-66270853D01*
X96308333Y-66270853D02*
X96405095Y-66319234D01*
X96405095Y-66319234D02*
X96453476Y-66367615D01*
X96453476Y-66367615D02*
X96501857Y-66464377D01*
X96501857Y-66464377D02*
X96501857Y-66609520D01*
X96501857Y-66609520D02*
X96453476Y-66706282D01*
X96453476Y-66706282D02*
X96405095Y-66754663D01*
X96405095Y-66754663D02*
X96308333Y-66803044D01*
X96308333Y-66803044D02*
X95921285Y-66803044D01*
X96937285Y-66754663D02*
X97275952Y-66754663D01*
X97421095Y-67286853D02*
X96937285Y-67286853D01*
X96937285Y-67286853D02*
X96937285Y-66270853D01*
X96937285Y-66270853D02*
X97421095Y-66270853D01*
X98195190Y-66754663D02*
X97856523Y-66754663D01*
X97856523Y-67286853D02*
X97856523Y-66270853D01*
X97856523Y-66270853D02*
X98340333Y-66270853D01*
X95582619Y-62206853D02*
X95243952Y-61723044D01*
X95002047Y-62206853D02*
X95002047Y-61190853D01*
X95002047Y-61190853D02*
X95389095Y-61190853D01*
X95389095Y-61190853D02*
X95485857Y-61239234D01*
X95485857Y-61239234D02*
X95534238Y-61287615D01*
X95534238Y-61287615D02*
X95582619Y-61384377D01*
X95582619Y-61384377D02*
X95582619Y-61529520D01*
X95582619Y-61529520D02*
X95534238Y-61626282D01*
X95534238Y-61626282D02*
X95485857Y-61674663D01*
X95485857Y-61674663D02*
X95389095Y-61723044D01*
X95389095Y-61723044D02*
X95002047Y-61723044D01*
X95969666Y-62158473D02*
X96114809Y-62206853D01*
X96114809Y-62206853D02*
X96356714Y-62206853D01*
X96356714Y-62206853D02*
X96453476Y-62158473D01*
X96453476Y-62158473D02*
X96501857Y-62110092D01*
X96501857Y-62110092D02*
X96550238Y-62013330D01*
X96550238Y-62013330D02*
X96550238Y-61916568D01*
X96550238Y-61916568D02*
X96501857Y-61819806D01*
X96501857Y-61819806D02*
X96453476Y-61771425D01*
X96453476Y-61771425D02*
X96356714Y-61723044D01*
X96356714Y-61723044D02*
X96163190Y-61674663D01*
X96163190Y-61674663D02*
X96066428Y-61626282D01*
X96066428Y-61626282D02*
X96018047Y-61577901D01*
X96018047Y-61577901D02*
X95969666Y-61481139D01*
X95969666Y-61481139D02*
X95969666Y-61384377D01*
X95969666Y-61384377D02*
X96018047Y-61287615D01*
X96018047Y-61287615D02*
X96066428Y-61239234D01*
X96066428Y-61239234D02*
X96163190Y-61190853D01*
X96163190Y-61190853D02*
X96405095Y-61190853D01*
X96405095Y-61190853D02*
X96550238Y-61239234D01*
X96840523Y-61190853D02*
X97421095Y-61190853D01*
X97130809Y-62206853D02*
X97130809Y-61190853D01*
X95461667Y-94972853D02*
X95123000Y-94489044D01*
X94881095Y-94972853D02*
X94881095Y-93956853D01*
X94881095Y-93956853D02*
X95268143Y-93956853D01*
X95268143Y-93956853D02*
X95364905Y-94005234D01*
X95364905Y-94005234D02*
X95413286Y-94053615D01*
X95413286Y-94053615D02*
X95461667Y-94150377D01*
X95461667Y-94150377D02*
X95461667Y-94295520D01*
X95461667Y-94295520D02*
X95413286Y-94392282D01*
X95413286Y-94392282D02*
X95364905Y-94440663D01*
X95364905Y-94440663D02*
X95268143Y-94489044D01*
X95268143Y-94489044D02*
X94881095Y-94489044D01*
X95800333Y-93956853D02*
X96477667Y-94972853D01*
X96477667Y-93956853D02*
X95800333Y-94972853D01*
X95050428Y-92686853D02*
X95050428Y-91670853D01*
X95050428Y-91670853D02*
X95389095Y-92396568D01*
X95389095Y-92396568D02*
X95727762Y-91670853D01*
X95727762Y-91670853D02*
X95727762Y-92686853D01*
X96211571Y-92686853D02*
X96211571Y-91670853D01*
X96647000Y-92638473D02*
X96792143Y-92686853D01*
X96792143Y-92686853D02*
X97034048Y-92686853D01*
X97034048Y-92686853D02*
X97130810Y-92638473D01*
X97130810Y-92638473D02*
X97179191Y-92590092D01*
X97179191Y-92590092D02*
X97227572Y-92493330D01*
X97227572Y-92493330D02*
X97227572Y-92396568D01*
X97227572Y-92396568D02*
X97179191Y-92299806D01*
X97179191Y-92299806D02*
X97130810Y-92251425D01*
X97130810Y-92251425D02*
X97034048Y-92203044D01*
X97034048Y-92203044D02*
X96840524Y-92154663D01*
X96840524Y-92154663D02*
X96743762Y-92106282D01*
X96743762Y-92106282D02*
X96695381Y-92057901D01*
X96695381Y-92057901D02*
X96647000Y-91961139D01*
X96647000Y-91961139D02*
X96647000Y-91864377D01*
X96647000Y-91864377D02*
X96695381Y-91767615D01*
X96695381Y-91767615D02*
X96743762Y-91719234D01*
X96743762Y-91719234D02*
X96840524Y-91670853D01*
X96840524Y-91670853D02*
X97082429Y-91670853D01*
X97082429Y-91670853D02*
X97227572Y-91719234D01*
X97856524Y-91670853D02*
X98050048Y-91670853D01*
X98050048Y-91670853D02*
X98146810Y-91719234D01*
X98146810Y-91719234D02*
X98243572Y-91815996D01*
X98243572Y-91815996D02*
X98291953Y-92009520D01*
X98291953Y-92009520D02*
X98291953Y-92348187D01*
X98291953Y-92348187D02*
X98243572Y-92541711D01*
X98243572Y-92541711D02*
X98146810Y-92638473D01*
X98146810Y-92638473D02*
X98050048Y-92686853D01*
X98050048Y-92686853D02*
X97856524Y-92686853D01*
X97856524Y-92686853D02*
X97759762Y-92638473D01*
X97759762Y-92638473D02*
X97663000Y-92541711D01*
X97663000Y-92541711D02*
X97614619Y-92348187D01*
X97614619Y-92348187D02*
X97614619Y-92009520D01*
X97614619Y-92009520D02*
X97663000Y-91815996D01*
X97663000Y-91815996D02*
X97759762Y-91719234D01*
X97759762Y-91719234D02*
X97856524Y-91670853D01*
X94856904Y-96750853D02*
X95437476Y-96750853D01*
X95147190Y-97766853D02*
X95147190Y-96750853D01*
X95679380Y-96750853D02*
X96356714Y-97766853D01*
X96356714Y-96750853D02*
X95679380Y-97766853D01*
X95159285Y-77156568D02*
X95643095Y-77156568D01*
X95062523Y-77446853D02*
X95401190Y-76430853D01*
X95401190Y-76430853D02*
X95739857Y-77446853D01*
X96030142Y-76527615D02*
X96078523Y-76479234D01*
X96078523Y-76479234D02*
X96175285Y-76430853D01*
X96175285Y-76430853D02*
X96417190Y-76430853D01*
X96417190Y-76430853D02*
X96513952Y-76479234D01*
X96513952Y-76479234D02*
X96562333Y-76527615D01*
X96562333Y-76527615D02*
X96610714Y-76624377D01*
X96610714Y-76624377D02*
X96610714Y-76721139D01*
X96610714Y-76721139D02*
X96562333Y-76866282D01*
X96562333Y-76866282D02*
X95981761Y-77446853D01*
X95981761Y-77446853D02*
X96610714Y-77446853D01*
X111137095Y-74374663D02*
X111475762Y-74374663D01*
X111620905Y-74906853D02*
X111137095Y-74906853D01*
X111137095Y-74906853D02*
X111137095Y-73890853D01*
X111137095Y-73890853D02*
X111620905Y-73890853D01*
X112056333Y-74906853D02*
X112056333Y-73890853D01*
X112056333Y-73890853D02*
X112636905Y-74906853D01*
X112636905Y-74906853D02*
X112636905Y-73890853D01*
X95050428Y-89892853D02*
X95050428Y-88876853D01*
X95050428Y-88876853D02*
X95389095Y-89602568D01*
X95389095Y-89602568D02*
X95727762Y-88876853D01*
X95727762Y-88876853D02*
X95727762Y-89892853D01*
X96405095Y-88876853D02*
X96598619Y-88876853D01*
X96598619Y-88876853D02*
X96695381Y-88925234D01*
X96695381Y-88925234D02*
X96792143Y-89021996D01*
X96792143Y-89021996D02*
X96840524Y-89215520D01*
X96840524Y-89215520D02*
X96840524Y-89554187D01*
X96840524Y-89554187D02*
X96792143Y-89747711D01*
X96792143Y-89747711D02*
X96695381Y-89844473D01*
X96695381Y-89844473D02*
X96598619Y-89892853D01*
X96598619Y-89892853D02*
X96405095Y-89892853D01*
X96405095Y-89892853D02*
X96308333Y-89844473D01*
X96308333Y-89844473D02*
X96211571Y-89747711D01*
X96211571Y-89747711D02*
X96163190Y-89554187D01*
X96163190Y-89554187D02*
X96163190Y-89215520D01*
X96163190Y-89215520D02*
X96211571Y-89021996D01*
X96211571Y-89021996D02*
X96308333Y-88925234D01*
X96308333Y-88925234D02*
X96405095Y-88876853D01*
X97227571Y-89844473D02*
X97372714Y-89892853D01*
X97372714Y-89892853D02*
X97614619Y-89892853D01*
X97614619Y-89892853D02*
X97711381Y-89844473D01*
X97711381Y-89844473D02*
X97759762Y-89796092D01*
X97759762Y-89796092D02*
X97808143Y-89699330D01*
X97808143Y-89699330D02*
X97808143Y-89602568D01*
X97808143Y-89602568D02*
X97759762Y-89505806D01*
X97759762Y-89505806D02*
X97711381Y-89457425D01*
X97711381Y-89457425D02*
X97614619Y-89409044D01*
X97614619Y-89409044D02*
X97421095Y-89360663D01*
X97421095Y-89360663D02*
X97324333Y-89312282D01*
X97324333Y-89312282D02*
X97275952Y-89263901D01*
X97275952Y-89263901D02*
X97227571Y-89167139D01*
X97227571Y-89167139D02*
X97227571Y-89070377D01*
X97227571Y-89070377D02*
X97275952Y-88973615D01*
X97275952Y-88973615D02*
X97324333Y-88925234D01*
X97324333Y-88925234D02*
X97421095Y-88876853D01*
X97421095Y-88876853D02*
X97663000Y-88876853D01*
X97663000Y-88876853D02*
X97808143Y-88925234D01*
X98243571Y-89892853D02*
X98243571Y-88876853D01*
X95159285Y-74616568D02*
X95643095Y-74616568D01*
X95062523Y-74906853D02*
X95401190Y-73890853D01*
X95401190Y-73890853D02*
X95739857Y-74906853D01*
X96610714Y-74906853D02*
X96030142Y-74906853D01*
X96320428Y-74906853D02*
X96320428Y-73890853D01*
X96320428Y-73890853D02*
X96223666Y-74035996D01*
X96223666Y-74035996D02*
X96126904Y-74132758D01*
X96126904Y-74132758D02*
X96030142Y-74181139D01*
X110096904Y-76430853D02*
X110096904Y-77253330D01*
X110096904Y-77253330D02*
X110145285Y-77350092D01*
X110145285Y-77350092D02*
X110193666Y-77398473D01*
X110193666Y-77398473D02*
X110290428Y-77446853D01*
X110290428Y-77446853D02*
X110483952Y-77446853D01*
X110483952Y-77446853D02*
X110580714Y-77398473D01*
X110580714Y-77398473D02*
X110629095Y-77350092D01*
X110629095Y-77350092D02*
X110677476Y-77253330D01*
X110677476Y-77253330D02*
X110677476Y-76430853D01*
X111112904Y-77398473D02*
X111258047Y-77446853D01*
X111258047Y-77446853D02*
X111499952Y-77446853D01*
X111499952Y-77446853D02*
X111596714Y-77398473D01*
X111596714Y-77398473D02*
X111645095Y-77350092D01*
X111645095Y-77350092D02*
X111693476Y-77253330D01*
X111693476Y-77253330D02*
X111693476Y-77156568D01*
X111693476Y-77156568D02*
X111645095Y-77059806D01*
X111645095Y-77059806D02*
X111596714Y-77011425D01*
X111596714Y-77011425D02*
X111499952Y-76963044D01*
X111499952Y-76963044D02*
X111306428Y-76914663D01*
X111306428Y-76914663D02*
X111209666Y-76866282D01*
X111209666Y-76866282D02*
X111161285Y-76817901D01*
X111161285Y-76817901D02*
X111112904Y-76721139D01*
X111112904Y-76721139D02*
X111112904Y-76624377D01*
X111112904Y-76624377D02*
X111161285Y-76527615D01*
X111161285Y-76527615D02*
X111209666Y-76479234D01*
X111209666Y-76479234D02*
X111306428Y-76430853D01*
X111306428Y-76430853D02*
X111548333Y-76430853D01*
X111548333Y-76430853D02*
X111693476Y-76479234D01*
X112467571Y-76914663D02*
X112612714Y-76963044D01*
X112612714Y-76963044D02*
X112661095Y-77011425D01*
X112661095Y-77011425D02*
X112709476Y-77108187D01*
X112709476Y-77108187D02*
X112709476Y-77253330D01*
X112709476Y-77253330D02*
X112661095Y-77350092D01*
X112661095Y-77350092D02*
X112612714Y-77398473D01*
X112612714Y-77398473D02*
X112515952Y-77446853D01*
X112515952Y-77446853D02*
X112128904Y-77446853D01*
X112128904Y-77446853D02*
X112128904Y-76430853D01*
X112128904Y-76430853D02*
X112467571Y-76430853D01*
X112467571Y-76430853D02*
X112564333Y-76479234D01*
X112564333Y-76479234D02*
X112612714Y-76527615D01*
X112612714Y-76527615D02*
X112661095Y-76624377D01*
X112661095Y-76624377D02*
X112661095Y-76721139D01*
X112661095Y-76721139D02*
X112612714Y-76817901D01*
X112612714Y-76817901D02*
X112564333Y-76866282D01*
X112564333Y-76866282D02*
X112467571Y-76914663D01*
X112467571Y-76914663D02*
X112128904Y-76914663D01*
X110145285Y-87606853D02*
X110145285Y-86590853D01*
X110145285Y-86590853D02*
X110387190Y-86590853D01*
X110387190Y-86590853D02*
X110532333Y-86639234D01*
X110532333Y-86639234D02*
X110629095Y-86735996D01*
X110629095Y-86735996D02*
X110677476Y-86832758D01*
X110677476Y-86832758D02*
X110725857Y-87026282D01*
X110725857Y-87026282D02*
X110725857Y-87171425D01*
X110725857Y-87171425D02*
X110677476Y-87364949D01*
X110677476Y-87364949D02*
X110629095Y-87461711D01*
X110629095Y-87461711D02*
X110532333Y-87558473D01*
X110532333Y-87558473D02*
X110387190Y-87606853D01*
X110387190Y-87606853D02*
X110145285Y-87606853D01*
X111693476Y-87606853D02*
X111112904Y-87606853D01*
X111403190Y-87606853D02*
X111403190Y-86590853D01*
X111403190Y-86590853D02*
X111306428Y-86735996D01*
X111306428Y-86735996D02*
X111209666Y-86832758D01*
X111209666Y-86832758D02*
X111112904Y-86881139D01*
X112322428Y-86590853D02*
X112419190Y-86590853D01*
X112419190Y-86590853D02*
X112515952Y-86639234D01*
X112515952Y-86639234D02*
X112564333Y-86687615D01*
X112564333Y-86687615D02*
X112612714Y-86784377D01*
X112612714Y-86784377D02*
X112661095Y-86977901D01*
X112661095Y-86977901D02*
X112661095Y-87219806D01*
X112661095Y-87219806D02*
X112612714Y-87413330D01*
X112612714Y-87413330D02*
X112564333Y-87510092D01*
X112564333Y-87510092D02*
X112515952Y-87558473D01*
X112515952Y-87558473D02*
X112419190Y-87606853D01*
X112419190Y-87606853D02*
X112322428Y-87606853D01*
X112322428Y-87606853D02*
X112225666Y-87558473D01*
X112225666Y-87558473D02*
X112177285Y-87510092D01*
X112177285Y-87510092D02*
X112128904Y-87413330D01*
X112128904Y-87413330D02*
X112080523Y-87219806D01*
X112080523Y-87219806D02*
X112080523Y-86977901D01*
X112080523Y-86977901D02*
X112128904Y-86784377D01*
X112128904Y-86784377D02*
X112177285Y-86687615D01*
X112177285Y-86687615D02*
X112225666Y-86639234D01*
X112225666Y-86639234D02*
X112322428Y-86590853D01*
X110756095Y-71834663D02*
X110901238Y-71883044D01*
X110901238Y-71883044D02*
X110949619Y-71931425D01*
X110949619Y-71931425D02*
X110998000Y-72028187D01*
X110998000Y-72028187D02*
X110998000Y-72173330D01*
X110998000Y-72173330D02*
X110949619Y-72270092D01*
X110949619Y-72270092D02*
X110901238Y-72318473D01*
X110901238Y-72318473D02*
X110804476Y-72366853D01*
X110804476Y-72366853D02*
X110417428Y-72366853D01*
X110417428Y-72366853D02*
X110417428Y-71350853D01*
X110417428Y-71350853D02*
X110756095Y-71350853D01*
X110756095Y-71350853D02*
X110852857Y-71399234D01*
X110852857Y-71399234D02*
X110901238Y-71447615D01*
X110901238Y-71447615D02*
X110949619Y-71544377D01*
X110949619Y-71544377D02*
X110949619Y-71641139D01*
X110949619Y-71641139D02*
X110901238Y-71737901D01*
X110901238Y-71737901D02*
X110852857Y-71786282D01*
X110852857Y-71786282D02*
X110756095Y-71834663D01*
X110756095Y-71834663D02*
X110417428Y-71834663D01*
X111385047Y-72076568D02*
X111868857Y-72076568D01*
X111288285Y-72366853D02*
X111626952Y-71350853D01*
X111626952Y-71350853D02*
X111965619Y-72366853D01*
X112159142Y-71350853D02*
X112739714Y-71350853D01*
X112449428Y-72366853D02*
X112449428Y-71350853D01*
X110145285Y-79986853D02*
X110145285Y-78970853D01*
X110145285Y-78970853D02*
X110387190Y-78970853D01*
X110387190Y-78970853D02*
X110532333Y-79019234D01*
X110532333Y-79019234D02*
X110629095Y-79115996D01*
X110629095Y-79115996D02*
X110677476Y-79212758D01*
X110677476Y-79212758D02*
X110725857Y-79406282D01*
X110725857Y-79406282D02*
X110725857Y-79551425D01*
X110725857Y-79551425D02*
X110677476Y-79744949D01*
X110677476Y-79744949D02*
X110629095Y-79841711D01*
X110629095Y-79841711D02*
X110532333Y-79938473D01*
X110532333Y-79938473D02*
X110387190Y-79986853D01*
X110387190Y-79986853D02*
X110145285Y-79986853D01*
X111693476Y-79986853D02*
X111112904Y-79986853D01*
X111403190Y-79986853D02*
X111403190Y-78970853D01*
X111403190Y-78970853D02*
X111306428Y-79115996D01*
X111306428Y-79115996D02*
X111209666Y-79212758D01*
X111209666Y-79212758D02*
X111112904Y-79261139D01*
X112032142Y-78970853D02*
X112661095Y-78970853D01*
X112661095Y-78970853D02*
X112322428Y-79357901D01*
X112322428Y-79357901D02*
X112467571Y-79357901D01*
X112467571Y-79357901D02*
X112564333Y-79406282D01*
X112564333Y-79406282D02*
X112612714Y-79454663D01*
X112612714Y-79454663D02*
X112661095Y-79551425D01*
X112661095Y-79551425D02*
X112661095Y-79793330D01*
X112661095Y-79793330D02*
X112612714Y-79890092D01*
X112612714Y-79890092D02*
X112564333Y-79938473D01*
X112564333Y-79938473D02*
X112467571Y-79986853D01*
X112467571Y-79986853D02*
X112177285Y-79986853D01*
X112177285Y-79986853D02*
X112080523Y-79938473D01*
X112080523Y-79938473D02*
X112032142Y-79890092D01*
X110169476Y-97718473D02*
X110314619Y-97766853D01*
X110314619Y-97766853D02*
X110556524Y-97766853D01*
X110556524Y-97766853D02*
X110653286Y-97718473D01*
X110653286Y-97718473D02*
X110701667Y-97670092D01*
X110701667Y-97670092D02*
X110750048Y-97573330D01*
X110750048Y-97573330D02*
X110750048Y-97476568D01*
X110750048Y-97476568D02*
X110701667Y-97379806D01*
X110701667Y-97379806D02*
X110653286Y-97331425D01*
X110653286Y-97331425D02*
X110556524Y-97283044D01*
X110556524Y-97283044D02*
X110363000Y-97234663D01*
X110363000Y-97234663D02*
X110266238Y-97186282D01*
X110266238Y-97186282D02*
X110217857Y-97137901D01*
X110217857Y-97137901D02*
X110169476Y-97041139D01*
X110169476Y-97041139D02*
X110169476Y-96944377D01*
X110169476Y-96944377D02*
X110217857Y-96847615D01*
X110217857Y-96847615D02*
X110266238Y-96799234D01*
X110266238Y-96799234D02*
X110363000Y-96750853D01*
X110363000Y-96750853D02*
X110604905Y-96750853D01*
X110604905Y-96750853D02*
X110750048Y-96799234D01*
X111766048Y-97670092D02*
X111717667Y-97718473D01*
X111717667Y-97718473D02*
X111572524Y-97766853D01*
X111572524Y-97766853D02*
X111475762Y-97766853D01*
X111475762Y-97766853D02*
X111330619Y-97718473D01*
X111330619Y-97718473D02*
X111233857Y-97621711D01*
X111233857Y-97621711D02*
X111185476Y-97524949D01*
X111185476Y-97524949D02*
X111137095Y-97331425D01*
X111137095Y-97331425D02*
X111137095Y-97186282D01*
X111137095Y-97186282D02*
X111185476Y-96992758D01*
X111185476Y-96992758D02*
X111233857Y-96895996D01*
X111233857Y-96895996D02*
X111330619Y-96799234D01*
X111330619Y-96799234D02*
X111475762Y-96750853D01*
X111475762Y-96750853D02*
X111572524Y-96750853D01*
X111572524Y-96750853D02*
X111717667Y-96799234D01*
X111717667Y-96799234D02*
X111766048Y-96847615D01*
X112685286Y-97766853D02*
X112201476Y-97766853D01*
X112201476Y-97766853D02*
X112201476Y-96750853D01*
X111137095Y-92686853D02*
X111137095Y-91670853D01*
X111137095Y-91670853D02*
X111379000Y-91670853D01*
X111379000Y-91670853D02*
X111524143Y-91719234D01*
X111524143Y-91719234D02*
X111620905Y-91815996D01*
X111620905Y-91815996D02*
X111669286Y-91912758D01*
X111669286Y-91912758D02*
X111717667Y-92106282D01*
X111717667Y-92106282D02*
X111717667Y-92251425D01*
X111717667Y-92251425D02*
X111669286Y-92444949D01*
X111669286Y-92444949D02*
X111620905Y-92541711D01*
X111620905Y-92541711D02*
X111524143Y-92638473D01*
X111524143Y-92638473D02*
X111379000Y-92686853D01*
X111379000Y-92686853D02*
X111137095Y-92686853D01*
X112588524Y-91670853D02*
X112395000Y-91670853D01*
X112395000Y-91670853D02*
X112298238Y-91719234D01*
X112298238Y-91719234D02*
X112249857Y-91767615D01*
X112249857Y-91767615D02*
X112153095Y-91912758D01*
X112153095Y-91912758D02*
X112104714Y-92106282D01*
X112104714Y-92106282D02*
X112104714Y-92493330D01*
X112104714Y-92493330D02*
X112153095Y-92590092D01*
X112153095Y-92590092D02*
X112201476Y-92638473D01*
X112201476Y-92638473D02*
X112298238Y-92686853D01*
X112298238Y-92686853D02*
X112491762Y-92686853D01*
X112491762Y-92686853D02*
X112588524Y-92638473D01*
X112588524Y-92638473D02*
X112636905Y-92590092D01*
X112636905Y-92590092D02*
X112685286Y-92493330D01*
X112685286Y-92493330D02*
X112685286Y-92251425D01*
X112685286Y-92251425D02*
X112636905Y-92154663D01*
X112636905Y-92154663D02*
X112588524Y-92106282D01*
X112588524Y-92106282D02*
X112491762Y-92057901D01*
X112491762Y-92057901D02*
X112298238Y-92057901D01*
X112298238Y-92057901D02*
X112201476Y-92106282D01*
X112201476Y-92106282D02*
X112153095Y-92154663D01*
X112153095Y-92154663D02*
X112104714Y-92251425D01*
X95159285Y-82236568D02*
X95643095Y-82236568D01*
X95062523Y-82526853D02*
X95401190Y-81510853D01*
X95401190Y-81510853D02*
X95739857Y-82526853D01*
X96513952Y-81849520D02*
X96513952Y-82526853D01*
X96272047Y-81462473D02*
X96030142Y-82188187D01*
X96030142Y-82188187D02*
X96659095Y-82188187D01*
X110145285Y-82272853D02*
X110145285Y-81256853D01*
X110145285Y-81256853D02*
X110387190Y-81256853D01*
X110387190Y-81256853D02*
X110532333Y-81305234D01*
X110532333Y-81305234D02*
X110629095Y-81401996D01*
X110629095Y-81401996D02*
X110677476Y-81498758D01*
X110677476Y-81498758D02*
X110725857Y-81692282D01*
X110725857Y-81692282D02*
X110725857Y-81837425D01*
X110725857Y-81837425D02*
X110677476Y-82030949D01*
X110677476Y-82030949D02*
X110629095Y-82127711D01*
X110629095Y-82127711D02*
X110532333Y-82224473D01*
X110532333Y-82224473D02*
X110387190Y-82272853D01*
X110387190Y-82272853D02*
X110145285Y-82272853D01*
X111693476Y-82272853D02*
X111112904Y-82272853D01*
X111403190Y-82272853D02*
X111403190Y-81256853D01*
X111403190Y-81256853D02*
X111306428Y-81401996D01*
X111306428Y-81401996D02*
X111209666Y-81498758D01*
X111209666Y-81498758D02*
X111112904Y-81547139D01*
X112080523Y-81353615D02*
X112128904Y-81305234D01*
X112128904Y-81305234D02*
X112225666Y-81256853D01*
X112225666Y-81256853D02*
X112467571Y-81256853D01*
X112467571Y-81256853D02*
X112564333Y-81305234D01*
X112564333Y-81305234D02*
X112612714Y-81353615D01*
X112612714Y-81353615D02*
X112661095Y-81450377D01*
X112661095Y-81450377D02*
X112661095Y-81547139D01*
X112661095Y-81547139D02*
X112612714Y-81692282D01*
X112612714Y-81692282D02*
X112032142Y-82272853D01*
X112032142Y-82272853D02*
X112661095Y-82272853D01*
X110145285Y-85066853D02*
X110145285Y-84050853D01*
X110145285Y-84050853D02*
X110387190Y-84050853D01*
X110387190Y-84050853D02*
X110532333Y-84099234D01*
X110532333Y-84099234D02*
X110629095Y-84195996D01*
X110629095Y-84195996D02*
X110677476Y-84292758D01*
X110677476Y-84292758D02*
X110725857Y-84486282D01*
X110725857Y-84486282D02*
X110725857Y-84631425D01*
X110725857Y-84631425D02*
X110677476Y-84824949D01*
X110677476Y-84824949D02*
X110629095Y-84921711D01*
X110629095Y-84921711D02*
X110532333Y-85018473D01*
X110532333Y-85018473D02*
X110387190Y-85066853D01*
X110387190Y-85066853D02*
X110145285Y-85066853D01*
X111693476Y-85066853D02*
X111112904Y-85066853D01*
X111403190Y-85066853D02*
X111403190Y-84050853D01*
X111403190Y-84050853D02*
X111306428Y-84195996D01*
X111306428Y-84195996D02*
X111209666Y-84292758D01*
X111209666Y-84292758D02*
X111112904Y-84341139D01*
X112661095Y-85066853D02*
X112080523Y-85066853D01*
X112370809Y-85066853D02*
X112370809Y-84050853D01*
X112370809Y-84050853D02*
X112274047Y-84195996D01*
X112274047Y-84195996D02*
X112177285Y-84292758D01*
X112177285Y-84292758D02*
X112080523Y-84341139D01*
X95848714Y-100306853D02*
X95848714Y-99290853D01*
X95848714Y-99290853D02*
X96429286Y-100306853D01*
X96429286Y-100306853D02*
X96429286Y-99290853D01*
X97106619Y-99290853D02*
X97300143Y-99290853D01*
X97300143Y-99290853D02*
X97396905Y-99339234D01*
X97396905Y-99339234D02*
X97493667Y-99435996D01*
X97493667Y-99435996D02*
X97542048Y-99629520D01*
X97542048Y-99629520D02*
X97542048Y-99968187D01*
X97542048Y-99968187D02*
X97493667Y-100161711D01*
X97493667Y-100161711D02*
X97396905Y-100258473D01*
X97396905Y-100258473D02*
X97300143Y-100306853D01*
X97300143Y-100306853D02*
X97106619Y-100306853D01*
X97106619Y-100306853D02*
X97009857Y-100258473D01*
X97009857Y-100258473D02*
X96913095Y-100161711D01*
X96913095Y-100161711D02*
X96864714Y-99968187D01*
X96864714Y-99968187D02*
X96864714Y-99629520D01*
X96864714Y-99629520D02*
X96913095Y-99435996D01*
X96913095Y-99435996D02*
X97009857Y-99339234D01*
X97009857Y-99339234D02*
X97106619Y-99290853D01*
X97929095Y-100258473D02*
X98074238Y-100306853D01*
X98074238Y-100306853D02*
X98316143Y-100306853D01*
X98316143Y-100306853D02*
X98412905Y-100258473D01*
X98412905Y-100258473D02*
X98461286Y-100210092D01*
X98461286Y-100210092D02*
X98509667Y-100113330D01*
X98509667Y-100113330D02*
X98509667Y-100016568D01*
X98509667Y-100016568D02*
X98461286Y-99919806D01*
X98461286Y-99919806D02*
X98412905Y-99871425D01*
X98412905Y-99871425D02*
X98316143Y-99823044D01*
X98316143Y-99823044D02*
X98122619Y-99774663D01*
X98122619Y-99774663D02*
X98025857Y-99726282D01*
X98025857Y-99726282D02*
X97977476Y-99677901D01*
X97977476Y-99677901D02*
X97929095Y-99581139D01*
X97929095Y-99581139D02*
X97929095Y-99484377D01*
X97929095Y-99484377D02*
X97977476Y-99387615D01*
X97977476Y-99387615D02*
X98025857Y-99339234D01*
X98025857Y-99339234D02*
X98122619Y-99290853D01*
X98122619Y-99290853D02*
X98364524Y-99290853D01*
X98364524Y-99290853D02*
X98509667Y-99339234D01*
D15*
X143530819Y-56822933D02*
X144245104Y-56822933D01*
X144245104Y-56822933D02*
X144387961Y-56870552D01*
X144387961Y-56870552D02*
X144483200Y-56965790D01*
X144483200Y-56965790D02*
X144530819Y-57108647D01*
X144530819Y-57108647D02*
X144530819Y-57203885D01*
X143626057Y-56394361D02*
X143578438Y-56346742D01*
X143578438Y-56346742D02*
X143530819Y-56251504D01*
X143530819Y-56251504D02*
X143530819Y-56013409D01*
X143530819Y-56013409D02*
X143578438Y-55918171D01*
X143578438Y-55918171D02*
X143626057Y-55870552D01*
X143626057Y-55870552D02*
X143721295Y-55822933D01*
X143721295Y-55822933D02*
X143816533Y-55822933D01*
X143816533Y-55822933D02*
X143959390Y-55870552D01*
X143959390Y-55870552D02*
X144530819Y-56441980D01*
X144530819Y-56441980D02*
X144530819Y-55822933D01*
X143504819Y-73485333D02*
X144219104Y-73485333D01*
X144219104Y-73485333D02*
X144361961Y-73532952D01*
X144361961Y-73532952D02*
X144457200Y-73628190D01*
X144457200Y-73628190D02*
X144504819Y-73771047D01*
X144504819Y-73771047D02*
X144504819Y-73866285D01*
X143504819Y-73104380D02*
X143504819Y-72485333D01*
X143504819Y-72485333D02*
X143885771Y-72818666D01*
X143885771Y-72818666D02*
X143885771Y-72675809D01*
X143885771Y-72675809D02*
X143933390Y-72580571D01*
X143933390Y-72580571D02*
X143981009Y-72532952D01*
X143981009Y-72532952D02*
X144076247Y-72485333D01*
X144076247Y-72485333D02*
X144314342Y-72485333D01*
X144314342Y-72485333D02*
X144409580Y-72532952D01*
X144409580Y-72532952D02*
X144457200Y-72580571D01*
X144457200Y-72580571D02*
X144504819Y-72675809D01*
X144504819Y-72675809D02*
X144504819Y-72961523D01*
X144504819Y-72961523D02*
X144457200Y-73056761D01*
X144457200Y-73056761D02*
X144409580Y-73104380D01*
X143530819Y-89995333D02*
X144245104Y-89995333D01*
X144245104Y-89995333D02*
X144387961Y-90042952D01*
X144387961Y-90042952D02*
X144483200Y-90138190D01*
X144483200Y-90138190D02*
X144530819Y-90281047D01*
X144530819Y-90281047D02*
X144530819Y-90376285D01*
X143864152Y-89090571D02*
X144530819Y-89090571D01*
X143483200Y-89328666D02*
X144197485Y-89566761D01*
X144197485Y-89566761D02*
X144197485Y-88947714D01*
X94577819Y-111077333D02*
X95292104Y-111077333D01*
X95292104Y-111077333D02*
X95434961Y-111124952D01*
X95434961Y-111124952D02*
X95530200Y-111220190D01*
X95530200Y-111220190D02*
X95577819Y-111363047D01*
X95577819Y-111363047D02*
X95577819Y-111458285D01*
X94577819Y-110124952D02*
X94577819Y-110601142D01*
X94577819Y-110601142D02*
X95054009Y-110648761D01*
X95054009Y-110648761D02*
X95006390Y-110601142D01*
X95006390Y-110601142D02*
X94958771Y-110505904D01*
X94958771Y-110505904D02*
X94958771Y-110267809D01*
X94958771Y-110267809D02*
X95006390Y-110172571D01*
X95006390Y-110172571D02*
X95054009Y-110124952D01*
X95054009Y-110124952D02*
X95149247Y-110077333D01*
X95149247Y-110077333D02*
X95387342Y-110077333D01*
X95387342Y-110077333D02*
X95482580Y-110124952D01*
X95482580Y-110124952D02*
X95530200Y-110172571D01*
X95530200Y-110172571D02*
X95577819Y-110267809D01*
X95577819Y-110267809D02*
X95577819Y-110505904D01*
X95577819Y-110505904D02*
X95530200Y-110601142D01*
X95530200Y-110601142D02*
X95482580Y-110648761D01*
X118707819Y-111077333D02*
X119422104Y-111077333D01*
X119422104Y-111077333D02*
X119564961Y-111124952D01*
X119564961Y-111124952D02*
X119660200Y-111220190D01*
X119660200Y-111220190D02*
X119707819Y-111363047D01*
X119707819Y-111363047D02*
X119707819Y-111458285D01*
X118707819Y-110172571D02*
X118707819Y-110363047D01*
X118707819Y-110363047D02*
X118755438Y-110458285D01*
X118755438Y-110458285D02*
X118803057Y-110505904D01*
X118803057Y-110505904D02*
X118945914Y-110601142D01*
X118945914Y-110601142D02*
X119136390Y-110648761D01*
X119136390Y-110648761D02*
X119517342Y-110648761D01*
X119517342Y-110648761D02*
X119612580Y-110601142D01*
X119612580Y-110601142D02*
X119660200Y-110553523D01*
X119660200Y-110553523D02*
X119707819Y-110458285D01*
X119707819Y-110458285D02*
X119707819Y-110267809D01*
X119707819Y-110267809D02*
X119660200Y-110172571D01*
X119660200Y-110172571D02*
X119612580Y-110124952D01*
X119612580Y-110124952D02*
X119517342Y-110077333D01*
X119517342Y-110077333D02*
X119279247Y-110077333D01*
X119279247Y-110077333D02*
X119184009Y-110124952D01*
X119184009Y-110124952D02*
X119136390Y-110172571D01*
X119136390Y-110172571D02*
X119088771Y-110267809D01*
X119088771Y-110267809D02*
X119088771Y-110458285D01*
X119088771Y-110458285D02*
X119136390Y-110553523D01*
X119136390Y-110553523D02*
X119184009Y-110601142D01*
X119184009Y-110601142D02*
X119279247Y-110648761D01*
D19*
%TO.C,SW1*%
X50324000Y-80766000D02*
X54324000Y-80766000D01*
X54324000Y-80766000D02*
X54324000Y-73666000D01*
X54324000Y-73666000D02*
X50324000Y-73666000D01*
X50324000Y-73666000D02*
X50324000Y-80766000D01*
D20*
%TO.C,J1*%
X66586300Y-105539700D02*
X64206300Y-105539700D01*
X66586300Y-91539700D02*
X66586300Y-105539700D01*
X59966300Y-105539700D02*
X57586300Y-105539700D01*
X57586300Y-105539700D02*
X57586300Y-104409700D01*
X57586300Y-100169700D02*
X57586300Y-91539700D01*
X57586300Y-91539700D02*
X66586300Y-91539700D01*
D15*
%TO.C,U1*%
X91059000Y-103657400D02*
X91059000Y-57937400D01*
X70739000Y-106197400D02*
X88519000Y-106197400D01*
X70739000Y-55397400D02*
X88519000Y-55397400D01*
X68199000Y-103657400D02*
X68199000Y-57937400D01*
X88519000Y-106197400D02*
G75*
G03*
X91059000Y-103657400I-1J2540001D01*
G01*
X91059000Y-57937400D02*
G75*
G03*
X88519000Y-55397400I-2540001J-1D01*
G01*
X68199000Y-103657400D02*
G75*
G03*
X70739000Y-106197400I2540000J0D01*
G01*
X70739000Y-55397400D02*
G75*
G03*
X68199000Y-57937400I0J-2540000D01*
G01*
%TO.C,U3*%
X139319000Y-103657400D02*
X139319000Y-57937400D01*
X118999000Y-106197400D02*
X136779000Y-106197400D01*
X118999000Y-55397400D02*
X136779000Y-55397400D01*
X116459000Y-103657400D02*
X116459000Y-57937400D01*
X136779000Y-106197400D02*
G75*
G03*
X139319000Y-103657400I-1J2540001D01*
G01*
X139319000Y-57937400D02*
G75*
G03*
X136779000Y-55397400I-2540001J-1D01*
G01*
X116459000Y-103657400D02*
G75*
G03*
X118999000Y-106197400I2540000J0D01*
G01*
X118999000Y-55397400D02*
G75*
G03*
X116459000Y-57937400I0J-2540000D01*
G01*
%TO.C,U2*%
X115189000Y-103657400D02*
X115189000Y-57937400D01*
X94869000Y-106197400D02*
X112649000Y-106197400D01*
X94869000Y-55397400D02*
X112649000Y-55397400D01*
X92329000Y-103657400D02*
X92329000Y-57937400D01*
X112649000Y-106197400D02*
G75*
G03*
X115189000Y-103657400I-1J2540001D01*
G01*
X115189000Y-57937400D02*
G75*
G03*
X112649000Y-55397400I-2540001J-1D01*
G01*
X92329000Y-103657400D02*
G75*
G03*
X94869000Y-106197400I2540000J0D01*
G01*
X94869000Y-55397400D02*
G75*
G03*
X92329000Y-57937400I0J-2540000D01*
G01*
D21*
%TO.C,J2*%
X145410000Y-58202400D02*
X145410000Y-60527400D01*
X144560000Y-58202400D02*
X145410000Y-58202400D01*
X140190000Y-58202400D02*
X141040000Y-58202400D01*
X145410000Y-68047400D02*
X147800000Y-68047400D01*
X145410000Y-70372400D02*
X145410000Y-68047400D01*
X144560000Y-70372400D02*
X145410000Y-70372400D01*
X141040000Y-70372400D02*
X140190000Y-70372400D01*
X140190000Y-70372400D02*
X140190000Y-58202400D01*
%TO.C,J3*%
X145410000Y-74712400D02*
X145410000Y-77037400D01*
X144560000Y-74712400D02*
X145410000Y-74712400D01*
X140190000Y-74712400D02*
X141040000Y-74712400D01*
X145410000Y-84557400D02*
X147800000Y-84557400D01*
X145410000Y-86882400D02*
X145410000Y-84557400D01*
X144560000Y-86882400D02*
X145410000Y-86882400D01*
X141040000Y-86882400D02*
X140190000Y-86882400D01*
X140190000Y-86882400D02*
X140190000Y-74712400D01*
%TO.C,J4*%
X145410000Y-91222400D02*
X145410000Y-93547400D01*
X144560000Y-91222400D02*
X145410000Y-91222400D01*
X140190000Y-91222400D02*
X141040000Y-91222400D01*
X145410000Y-101067400D02*
X147800000Y-101067400D01*
X145410000Y-103392400D02*
X145410000Y-101067400D01*
X144560000Y-103392400D02*
X145410000Y-103392400D01*
X141040000Y-103392400D02*
X140190000Y-103392400D01*
X140190000Y-103392400D02*
X140190000Y-91222400D01*
%TO.C,J5*%
X91734000Y-107634000D02*
X90584000Y-107634000D01*
X90584000Y-107634000D02*
X90584000Y-108684000D01*
X90584000Y-108684000D02*
X89594000Y-108684000D01*
X93704000Y-108804000D02*
X93704000Y-112684000D01*
X91734000Y-113854000D02*
X90584000Y-113854000D01*
X90584000Y-113854000D02*
X90584000Y-112804000D01*
%TO.C,J6*%
X115864000Y-107634000D02*
X114714000Y-107634000D01*
X114714000Y-107634000D02*
X114714000Y-108684000D01*
X114714000Y-108684000D02*
X113724000Y-108684000D01*
X117834000Y-108804000D02*
X117834000Y-112684000D01*
X115864000Y-113854000D02*
X114714000Y-113854000D01*
X114714000Y-113854000D02*
X114714000Y-112804000D01*
%TD*%
M02*
