%TF.GenerationSoftware,KiCad,Pcbnew,7.0.10-7.0.10~ubuntu22.04.1*%
%TF.CreationDate,2024-09-09T09:20:23-07:00*%
%TF.ProjectId,iorodeo_feather_tripler_enc1,696f726f-6465-46f5-9f66-656174686572,rev?*%
%TF.SameCoordinates,Original*%
%TF.FileFunction,Copper,L1,Top*%
%TF.FilePolarity,Positive*%
%FSLAX46Y46*%
G04 Gerber Fmt 4.6, Leading zero omitted, Abs format (unit mm)*
G04 Created by KiCad (PCBNEW 7.0.10-7.0.10~ubuntu22.04.1) date 2024-09-09 09:20:23*
%MOMM*%
%LPD*%
G01*
G04 APERTURE LIST*
G04 Aperture macros list*
%AMRoundRect*
0 Rectangle with rounded corners*
0 $1 Rounding radius*
0 $2 $3 $4 $5 $6 $7 $8 $9 X,Y pos of 4 corners*
0 Add a 4 corners polygon primitive as box body*
4,1,4,$2,$3,$4,$5,$6,$7,$8,$9,$2,$3,0*
0 Add four circle primitives for the rounded corners*
1,1,$1+$1,$2,$3*
1,1,$1+$1,$4,$5*
1,1,$1+$1,$6,$7*
1,1,$1+$1,$8,$9*
0 Add four rect primitives between the rounded corners*
20,1,$1+$1,$2,$3,$4,$5,0*
20,1,$1+$1,$4,$5,$6,$7,0*
20,1,$1+$1,$6,$7,$8,$9,0*
20,1,$1+$1,$8,$9,$2,$3,0*%
G04 Aperture macros list end*
%TA.AperFunction,SMDPad,CuDef*%
%ADD10R,2.000000X0.900000*%
%TD*%
%TA.AperFunction,ComponentPad*%
%ADD11O,4.500000X2.300000*%
%TD*%
%TA.AperFunction,ComponentPad*%
%ADD12O,2.000000X4.500000*%
%TD*%
%TA.AperFunction,WasherPad*%
%ADD13C,3.048000*%
%TD*%
%TA.AperFunction,ComponentPad*%
%ADD14C,3.048000*%
%TD*%
%TA.AperFunction,ComponentPad*%
%ADD15C,1.778000*%
%TD*%
%TA.AperFunction,SMDPad,CuDef*%
%ADD16RoundRect,0.250000X2.500000X-0.250000X2.500000X0.250000X-2.500000X0.250000X-2.500000X-0.250000X0*%
%TD*%
%TA.AperFunction,SMDPad,CuDef*%
%ADD17RoundRect,0.250000X1.250000X-0.550000X1.250000X0.550000X-1.250000X0.550000X-1.250000X-0.550000X0*%
%TD*%
%TA.AperFunction,SMDPad,CuDef*%
%ADD18RoundRect,0.150000X-0.625000X0.150000X-0.625000X-0.150000X0.625000X-0.150000X0.625000X0.150000X0*%
%TD*%
%TA.AperFunction,SMDPad,CuDef*%
%ADD19RoundRect,0.250000X-0.650000X0.350000X-0.650000X-0.350000X0.650000X-0.350000X0.650000X0.350000X0*%
%TD*%
%TA.AperFunction,ViaPad*%
%ADD20C,1.000000*%
%TD*%
%TA.AperFunction,ViaPad*%
%ADD21C,0.800000*%
%TD*%
%TA.AperFunction,Conductor*%
%ADD22C,0.500000*%
%TD*%
%TA.AperFunction,Conductor*%
%ADD23C,0.250000*%
%TD*%
G04 APERTURE END LIST*
D10*
%TO.P,SW1,1,A*%
%TO.N,unconnected-(SW1-A-Pad1)*%
X49324000Y-79216000D03*
%TO.P,SW1,2,B*%
%TO.N,/VUSB*%
X49324000Y-77216000D03*
%TO.P,SW1,3,C*%
%TO.N,/5V*%
X49324000Y-75216000D03*
%TO.P,SW1,4,A*%
%TO.N,unconnected-(SW1-A-Pad4)*%
X55324000Y-79216000D03*
%TO.P,SW1,5,B*%
%TO.N,/VUSB*%
X55324000Y-77216000D03*
%TO.P,SW1,6,C*%
%TO.N,/5V*%
X55324000Y-75216000D03*
%TD*%
D11*
%TO.P,J1,1*%
%TO.N,/VUSB*%
X62086300Y-105239700D03*
%TO.P,J1,2*%
%TO.N,GND*%
X62086300Y-99039700D03*
D12*
%TO.P,J1,3*%
X57286300Y-102289700D03*
%TD*%
D13*
%TO.P,U1,*%
%TO.N,*%
X88519000Y-103657400D03*
D14*
X88519000Y-57937400D03*
D13*
X70739000Y-103657400D03*
D14*
X70739000Y-57937400D03*
D15*
%TO.P,U1,1,SDA*%
%TO.N,/SDA*%
X89789000Y-99847400D03*
%TO.P,U1,2,SCL*%
%TO.N,/SCL*%
X89789000Y-97307400D03*
%TO.P,U1,3,D5*%
%TO.N,/D5*%
X89789000Y-94767400D03*
%TO.P,U1,4,D6*%
%TO.N,/D6*%
X89789000Y-92227400D03*
%TO.P,U1,5,D9*%
%TO.N,/D9*%
X89789000Y-89687400D03*
%TO.P,U1,6,D10*%
%TO.N,/D10*%
X89789000Y-87147400D03*
%TO.P,U1,7,D11*%
%TO.N,/D11*%
X89789000Y-84607400D03*
%TO.P,U1,8,D12*%
%TO.N,/D12*%
X89789000Y-82067400D03*
%TO.P,U1,9,D13*%
%TO.N,/D13*%
X89789000Y-79527400D03*
%TO.P,U1,10,VUSB*%
%TO.N,/5V*%
X89789000Y-76987400D03*
%TO.P,U1,11,EN*%
%TO.N,/EN*%
X89789000Y-74447400D03*
%TO.P,U1,12,BAT*%
%TO.N,/BAT*%
X89789000Y-71907400D03*
%TO.P,U1,13,RST*%
%TO.N,/RST*%
X69469000Y-61747400D03*
%TO.P,U1,14,3V3*%
%TO.N,/3V3*%
X69469000Y-64287400D03*
%TO.P,U1,15,AREF*%
%TO.N,/AREF*%
X69469000Y-66827400D03*
%TO.P,U1,16,GND*%
%TO.N,GND*%
X69469000Y-69367400D03*
%TO.P,U1,17,A0*%
%TO.N,/A0*%
X69469000Y-71907400D03*
%TO.P,U1,18,A1*%
%TO.N,/A1*%
X69469000Y-74447400D03*
%TO.P,U1,19,A2*%
%TO.N,/A2*%
X69469000Y-76987400D03*
%TO.P,U1,20,A3*%
%TO.N,/A3*%
X69469000Y-79527400D03*
%TO.P,U1,21,A4*%
%TO.N,/A4*%
X69469000Y-82067400D03*
%TO.P,U1,22,A5*%
%TO.N,/A5*%
X69469000Y-84607400D03*
%TO.P,U1,23,SCK*%
%TO.N,/SCK*%
X69469000Y-87147400D03*
%TO.P,U1,24,MOSI*%
%TO.N,/MOSI*%
X69469000Y-89687400D03*
%TO.P,U1,25,MISO*%
%TO.N,/MISO*%
X69469000Y-92227400D03*
%TO.P,U1,26,RX*%
%TO.N,/RX*%
X69469000Y-94767400D03*
%TO.P,U1,27,TX*%
%TO.N,/TX*%
X69469000Y-97307400D03*
%TO.P,U1,28,NOS*%
%TO.N,unconnected-(U1-NOS-Pad28)*%
X69469000Y-99847400D03*
%TD*%
D13*
%TO.P,U3,*%
%TO.N,*%
X136779000Y-103657400D03*
D14*
X136779000Y-57937400D03*
D13*
X118999000Y-103657400D03*
D14*
X118999000Y-57937400D03*
D15*
%TO.P,U3,1,SDA*%
%TO.N,/SDA*%
X138049000Y-99847400D03*
%TO.P,U3,2,SCL*%
%TO.N,/SCL*%
X138049000Y-97307400D03*
%TO.P,U3,3,D5*%
%TO.N,/D5*%
X138049000Y-94767400D03*
%TO.P,U3,4,D6*%
%TO.N,/D6*%
X138049000Y-92227400D03*
%TO.P,U3,5,D9*%
%TO.N,/D9*%
X138049000Y-89687400D03*
%TO.P,U3,6,D10*%
%TO.N,/D10*%
X138049000Y-87147400D03*
%TO.P,U3,7,D11*%
%TO.N,/D11*%
X138049000Y-84607400D03*
%TO.P,U3,8,D12*%
%TO.N,/D12*%
X138049000Y-82067400D03*
%TO.P,U3,9,D13*%
%TO.N,/D13*%
X138049000Y-79527400D03*
%TO.P,U3,10,VUSB*%
%TO.N,/5V*%
X138049000Y-76987400D03*
%TO.P,U3,11,EN*%
%TO.N,/EN*%
X138049000Y-74447400D03*
%TO.P,U3,12,BAT*%
%TO.N,/BAT*%
X138049000Y-71907400D03*
%TO.P,U3,13,RST*%
%TO.N,/RST*%
X117729000Y-61747400D03*
%TO.P,U3,14,3V3*%
%TO.N,/3V3*%
X117729000Y-64287400D03*
%TO.P,U3,15,AREF*%
%TO.N,/AREF*%
X117729000Y-66827400D03*
%TO.P,U3,16,GND*%
%TO.N,GND*%
X117729000Y-69367400D03*
%TO.P,U3,17,A0*%
%TO.N,/A0*%
X117729000Y-71907400D03*
%TO.P,U3,18,A1*%
%TO.N,/A1*%
X117729000Y-74447400D03*
%TO.P,U3,19,A2*%
%TO.N,/A2*%
X117729000Y-76987400D03*
%TO.P,U3,20,A3*%
%TO.N,/A3*%
X117729000Y-79527400D03*
%TO.P,U3,21,A4*%
%TO.N,/A4*%
X117729000Y-82067400D03*
%TO.P,U3,22,A5*%
%TO.N,/A5*%
X117729000Y-84607400D03*
%TO.P,U3,23,SCK*%
%TO.N,/SCK*%
X117729000Y-87147400D03*
%TO.P,U3,24,MOSI*%
%TO.N,/MOSI*%
X117729000Y-89687400D03*
%TO.P,U3,25,MISO*%
%TO.N,/MISO*%
X117729000Y-92227400D03*
%TO.P,U3,26,RX*%
%TO.N,/RX*%
X117729000Y-94767400D03*
%TO.P,U3,27,TX*%
%TO.N,/TX*%
X117729000Y-97307400D03*
%TO.P,U3,28,NOS*%
%TO.N,unconnected-(U3-NOS-Pad28)*%
X117729000Y-99847400D03*
%TD*%
D13*
%TO.P,U2,*%
%TO.N,*%
X112649000Y-103657400D03*
D14*
X112649000Y-57937400D03*
D13*
X94869000Y-103657400D03*
D14*
X94869000Y-57937400D03*
D15*
%TO.P,U2,1,SDA*%
%TO.N,/SDA*%
X113919000Y-99847400D03*
%TO.P,U2,2,SCL*%
%TO.N,/SCL*%
X113919000Y-97307400D03*
%TO.P,U2,3,D5*%
%TO.N,/D5*%
X113919000Y-94767400D03*
%TO.P,U2,4,D6*%
%TO.N,/D6*%
X113919000Y-92227400D03*
%TO.P,U2,5,D9*%
%TO.N,/D9*%
X113919000Y-89687400D03*
%TO.P,U2,6,D10*%
%TO.N,/D10*%
X113919000Y-87147400D03*
%TO.P,U2,7,D11*%
%TO.N,/D11*%
X113919000Y-84607400D03*
%TO.P,U2,8,D12*%
%TO.N,/D12*%
X113919000Y-82067400D03*
%TO.P,U2,9,D13*%
%TO.N,/D13*%
X113919000Y-79527400D03*
%TO.P,U2,10,VUSB*%
%TO.N,/5V*%
X113919000Y-76987400D03*
%TO.P,U2,11,EN*%
%TO.N,/EN*%
X113919000Y-74447400D03*
%TO.P,U2,12,BAT*%
%TO.N,/BAT*%
X113919000Y-71907400D03*
%TO.P,U2,13,RST*%
%TO.N,/RST*%
X93599000Y-61747400D03*
%TO.P,U2,14,3V3*%
%TO.N,/3V3*%
X93599000Y-64287400D03*
%TO.P,U2,15,AREF*%
%TO.N,/AREF*%
X93599000Y-66827400D03*
%TO.P,U2,16,GND*%
%TO.N,GND*%
X93599000Y-69367400D03*
%TO.P,U2,17,A0*%
%TO.N,/A0*%
X93599000Y-71907400D03*
%TO.P,U2,18,A1*%
%TO.N,/A1*%
X93599000Y-74447400D03*
%TO.P,U2,19,A2*%
%TO.N,/A2*%
X93599000Y-76987400D03*
%TO.P,U2,20,A3*%
%TO.N,/A3*%
X93599000Y-79527400D03*
%TO.P,U2,21,A4*%
%TO.N,/A4*%
X93599000Y-82067400D03*
%TO.P,U2,22,A5*%
%TO.N,/A5*%
X93599000Y-84607400D03*
%TO.P,U2,23,SCK*%
%TO.N,/SCK*%
X93599000Y-87147400D03*
%TO.P,U2,24,MOSI*%
%TO.N,/MOSI*%
X93599000Y-89687400D03*
%TO.P,U2,25,MISO*%
%TO.N,/MISO*%
X93599000Y-92227400D03*
%TO.P,U2,26,RX*%
%TO.N,/RX*%
X93599000Y-94767400D03*
%TO.P,U2,27,TX*%
%TO.N,/TX*%
X93599000Y-97307400D03*
%TO.P,U2,28,NOS*%
%TO.N,unconnected-(U2-NOS-Pad28)*%
X93599000Y-99847400D03*
%TD*%
D16*
%TO.P,J2,1,Pin_1*%
%TO.N,Net-(J2-Pin_1)*%
X145050000Y-67287400D03*
%TO.P,J2,2,Pin_2*%
%TO.N,Net-(J2-Pin_2)*%
X145050000Y-65287400D03*
%TO.P,J2,3,Pin_3*%
%TO.N,/3V3*%
X145050000Y-63287400D03*
%TO.P,J2,4,Pin_4*%
%TO.N,GND*%
X145050000Y-61287400D03*
D17*
%TO.P,J2,MP*%
%TO.N,N/C*%
X142800000Y-58887400D03*
X142800000Y-69687400D03*
%TD*%
D16*
%TO.P,J3,1,Pin_1*%
%TO.N,Net-(J3-Pin_1)*%
X145050000Y-83797400D03*
%TO.P,J3,2,Pin_2*%
%TO.N,Net-(J3-Pin_2)*%
X145050000Y-81797400D03*
%TO.P,J3,3,Pin_3*%
%TO.N,/3V3*%
X145050000Y-79797400D03*
%TO.P,J3,4,Pin_4*%
%TO.N,GND*%
X145050000Y-77797400D03*
D17*
%TO.P,J3,MP*%
%TO.N,N/C*%
X142800000Y-75397400D03*
X142800000Y-86197400D03*
%TD*%
D16*
%TO.P,J4,1,Pin_1*%
%TO.N,/RX*%
X145050000Y-100307400D03*
%TO.P,J4,2,Pin_2*%
%TO.N,/TX*%
X145050000Y-98307400D03*
%TO.P,J4,3,Pin_3*%
%TO.N,/3V3*%
X145050000Y-96307400D03*
%TO.P,J4,4,Pin_4*%
%TO.N,GND*%
X145050000Y-94307400D03*
D17*
%TO.P,J4,MP*%
%TO.N,N/C*%
X142800000Y-91907400D03*
X142800000Y-102707400D03*
%TD*%
D18*
%TO.P,J5,1,Pin_1*%
%TO.N,GND*%
X90369000Y-109244000D03*
%TO.P,J5,2,Pin_2*%
%TO.N,/3V3*%
X90369000Y-110244000D03*
%TO.P,J5,3,Pin_3*%
%TO.N,/SDA*%
X90369000Y-111244000D03*
%TO.P,J5,4,Pin_4*%
%TO.N,/SCL*%
X90369000Y-112244000D03*
D19*
%TO.P,J5,MP*%
%TO.N,N/C*%
X92894000Y-107944000D03*
X92894000Y-113544000D03*
%TD*%
D18*
%TO.P,J6,1,Pin_1*%
%TO.N,GND*%
X114499000Y-109244000D03*
%TO.P,J6,2,Pin_2*%
%TO.N,/3V3*%
X114499000Y-110244000D03*
%TO.P,J6,3,Pin_3*%
%TO.N,/SDA*%
X114499000Y-111244000D03*
%TO.P,J6,4,Pin_4*%
%TO.N,/SCL*%
X114499000Y-112244000D03*
D19*
%TO.P,J6,MP*%
%TO.N,N/C*%
X117024000Y-107944000D03*
X117024000Y-113544000D03*
%TD*%
D20*
%TO.N,GND*%
X150600000Y-60050000D03*
X150550000Y-76150000D03*
X150550000Y-92600000D03*
D21*
%TO.N,/D10*%
X149200000Y-73250000D03*
X146539700Y-71542300D03*
%TO.N,/A0*%
X130173400Y-62222700D03*
D20*
%TO.N,/3V3*%
X140900000Y-63287400D03*
D21*
X68757800Y-110084000D03*
%TO.N,/TX*%
X140850000Y-97300000D03*
%TO.N,/D6*%
X139478200Y-69628900D03*
%TO.N,/EN*%
X115597000Y-76354100D03*
%TO.N,/A2*%
X132497900Y-68511900D03*
%TO.N,Net-(J2-Pin_1)*%
X144845300Y-68392600D03*
%TO.N,Net-(J2-Pin_2)*%
X149250000Y-64300000D03*
%TO.N,Net-(J3-Pin_1)*%
X149350000Y-82800000D03*
%TO.N,Net-(J3-Pin_2)*%
X148925000Y-78867597D03*
%TD*%
D22*
%TO.N,/5V*%
X50114200Y-73533000D02*
X52197000Y-73533000D01*
X104826000Y-53721000D02*
X108712000Y-57607200D01*
X104826000Y-53721000D02*
X125654000Y-53721000D01*
X134518000Y-76987400D02*
X138049000Y-76987400D01*
X52197000Y-73533000D02*
X54406800Y-73533000D01*
X111582000Y-77063600D02*
X111658000Y-76987400D01*
X125654000Y-53721000D02*
X133350000Y-61417200D01*
X82829400Y-53721000D02*
X69900800Y-53721000D01*
X108712000Y-57607200D02*
X108712000Y-74193400D01*
X52222400Y-73507600D02*
X52197000Y-73533000D01*
X49324000Y-74323200D02*
X50114200Y-73533000D01*
X108712000Y-74193400D02*
X111582000Y-77063600D01*
X85064600Y-74828400D02*
X85064600Y-55956200D01*
X133350000Y-75819000D02*
X134518000Y-76987400D01*
X89789000Y-76987400D02*
X87223600Y-76987400D01*
X69900800Y-53721000D02*
X52222400Y-71399400D01*
X133350000Y-61417200D02*
X133350000Y-75819000D01*
X54406800Y-73533000D02*
X55324000Y-74450200D01*
X85064600Y-55956200D02*
X82829400Y-53721000D01*
X87223600Y-76987400D02*
X85064600Y-74828400D01*
X82829400Y-53721000D02*
X104826000Y-53721000D01*
X111658000Y-76987400D02*
X113919000Y-76987400D01*
X49324000Y-75216000D02*
X49324000Y-74323200D01*
X52222400Y-71399400D02*
X52222400Y-73507600D01*
X55324000Y-74450200D02*
X55324000Y-75216000D01*
%TO.N,GND*%
X59430800Y-99039800D02*
X62086200Y-99039800D01*
X57286300Y-102289700D02*
X57286300Y-102290000D01*
X57286300Y-101737000D02*
X57286300Y-102289700D01*
X145050000Y-94307400D02*
X148843000Y-94307400D01*
X57286200Y-101737000D02*
X57286200Y-101184000D01*
X149453000Y-77797400D02*
X145050000Y-77797400D01*
X148843000Y-94307400D02*
X150550000Y-92600000D01*
X62086200Y-99039800D02*
X62086200Y-89652900D01*
X57286200Y-101184000D02*
X59430800Y-99039800D01*
D23*
X65963800Y-105931000D02*
X65963800Y-100584000D01*
D22*
X62086200Y-89652900D02*
X62086200Y-76750100D01*
X62086200Y-76750100D02*
X69469000Y-69367400D01*
X62086300Y-89653000D02*
X62086300Y-99039700D01*
D23*
X69276500Y-109244000D02*
X65963800Y-105931000D01*
D22*
X64419500Y-99039700D02*
X64744600Y-99364800D01*
X150550000Y-76150000D02*
X150550000Y-76700000D01*
X150600000Y-60050000D02*
X150600000Y-60524800D01*
X62086200Y-89652900D02*
X62086300Y-89653000D01*
X57286200Y-102290000D02*
X57286200Y-101737000D01*
X57286200Y-101737000D02*
X57286300Y-101737000D01*
X149837000Y-61287400D02*
X145050000Y-61287400D01*
X150550000Y-76700000D02*
X149453000Y-77797400D01*
X150600000Y-60524800D02*
X149837000Y-61287400D01*
X62086300Y-99039700D02*
X64419500Y-99039700D01*
D23*
X65963800Y-100584000D02*
X64744600Y-99364800D01*
X90369000Y-109244000D02*
X69276500Y-109244000D01*
X90369000Y-109244000D02*
X114499000Y-109244000D01*
%TO.N,/D10*%
X113919000Y-87147400D02*
X115189000Y-85877400D01*
X147292300Y-71542300D02*
X146539700Y-71542300D01*
X149000000Y-73250000D02*
X147292300Y-71542300D01*
X149200000Y-73250000D02*
X149000000Y-73250000D01*
X115189000Y-85877400D02*
X136779000Y-85877400D01*
X136779000Y-85877400D02*
X138049000Y-87147400D01*
%TO.N,/A0*%
X127413700Y-62222700D02*
X130173400Y-62222700D01*
X117729000Y-71907400D02*
X127413700Y-62222700D01*
%TO.N,/3V3*%
X90369000Y-110244000D02*
X114499000Y-110244000D01*
X68918200Y-110244000D02*
X90369000Y-110244000D01*
D22*
X141357000Y-96307400D02*
X145050000Y-96307400D01*
X140350000Y-79800000D02*
X140350000Y-95300000D01*
X140350000Y-95300000D02*
X141357000Y-96307400D01*
X140350000Y-79800000D02*
X140850000Y-79800000D01*
X140850000Y-79800000D02*
X140853000Y-79797400D01*
X140900000Y-63287400D02*
X145050000Y-63287400D01*
X140900000Y-63287400D02*
X140350000Y-63837400D01*
X140853000Y-79797400D02*
X145050000Y-79797400D01*
D23*
X68757800Y-110084000D02*
X68918200Y-110244000D01*
D22*
X140350000Y-63837400D02*
X140350000Y-79800000D01*
D23*
%TO.N,/D11*%
X138049000Y-84582000D02*
X138049000Y-84607400D01*
X112650000Y-83338900D02*
X113919000Y-84607400D01*
X91788800Y-84607400D02*
X93057300Y-83338900D01*
X89789000Y-84607400D02*
X91788800Y-84607400D01*
X93057300Y-83338900D02*
X112650000Y-83338900D01*
%TO.N,/RX*%
X116626400Y-93664900D02*
X117729000Y-94767400D01*
X139745000Y-94345000D02*
X138897400Y-93497400D01*
X138897400Y-93497400D02*
X116793900Y-93497400D01*
X116513000Y-93551500D02*
X116626400Y-93664900D01*
X141507400Y-100307400D02*
X139745000Y-98545000D01*
X95453900Y-93551500D02*
X116513000Y-93551500D01*
X116793900Y-93497400D02*
X116626400Y-93664900D01*
X139745000Y-98545000D02*
X139745000Y-94345000D01*
X145050000Y-100307400D02*
X141507400Y-100307400D01*
X94238000Y-94767400D02*
X95453900Y-93551500D01*
X93599000Y-94767400D02*
X94238000Y-94767400D01*
%TO.N,/TX*%
X93599000Y-97307400D02*
X92329000Y-96037400D01*
X145007400Y-98350000D02*
X145050000Y-98307400D01*
X141900000Y-98350000D02*
X145007400Y-98350000D01*
X92329000Y-96037400D02*
X70739000Y-96037400D01*
X140850000Y-97300000D02*
X141900000Y-98350000D01*
X70739000Y-96037400D02*
X69469000Y-97307400D01*
%TO.N,/SDA*%
X120179000Y-99847400D02*
X138049000Y-99847400D01*
X114499000Y-111244000D02*
X115050000Y-111244000D01*
X115050000Y-111244000D02*
X115624000Y-110669000D01*
X118473000Y-101553000D02*
X120179000Y-99847400D01*
X115624000Y-101553000D02*
X113919000Y-99847400D01*
X115624000Y-101553000D02*
X118473000Y-101553000D01*
X90369000Y-111244000D02*
X114499000Y-111244000D01*
X115624000Y-110669000D02*
X115624000Y-101553000D01*
%TO.N,/SCL*%
X138049000Y-97307400D02*
X136292600Y-97307400D01*
X115135000Y-98523300D02*
X113919000Y-97307400D01*
X90369000Y-112244000D02*
X114499000Y-112244000D01*
X89789000Y-97307400D02*
X91004900Y-98523300D01*
X114499000Y-112244000D02*
X123728000Y-112244000D01*
X91004900Y-98523300D02*
X112703000Y-98523300D01*
X138417000Y-101533000D02*
X139300000Y-100650000D01*
X136292600Y-97307400D02*
X135076700Y-98523300D01*
X123728000Y-112244000D02*
X134439000Y-101533000D01*
X112703000Y-98523300D02*
X113919000Y-97307400D01*
X135076700Y-98523300D02*
X115135000Y-98523300D01*
X139295000Y-98731396D02*
X139295000Y-98553400D01*
X139295000Y-98553400D02*
X138049000Y-97307400D01*
X139300000Y-100650000D02*
X139300000Y-98736396D01*
X134439000Y-101533000D02*
X138417000Y-101533000D01*
X139300000Y-98736396D02*
X139295000Y-98731396D01*
D22*
%TO.N,/VUSB*%
X62086200Y-105240000D02*
X62086000Y-105240000D01*
X62086200Y-105240000D02*
X62086300Y-105240000D01*
X62086000Y-105240000D02*
X62086200Y-105240000D01*
X62086300Y-105240000D02*
X62086300Y-105239700D01*
X47498000Y-95802100D02*
X47498000Y-78155800D01*
X47498000Y-78155800D02*
X48437800Y-77216000D01*
X62086000Y-105240000D02*
X56935600Y-105240000D01*
X56935600Y-105240000D02*
X47498000Y-95802100D01*
X48437800Y-77216000D02*
X49324000Y-77216000D01*
X55324000Y-77216000D02*
X49324000Y-77216000D01*
D23*
%TO.N,/D5*%
X113919000Y-94767400D02*
X115138000Y-95986200D01*
X112700000Y-95986200D02*
X93007600Y-95986200D01*
X93007600Y-95986200D02*
X91788800Y-94767400D01*
X115138000Y-95986200D02*
X118732000Y-95986200D01*
X119951000Y-94767400D02*
X138049000Y-94767400D01*
X118732000Y-95986200D02*
X119951000Y-94767400D01*
X91788800Y-94767400D02*
X89789000Y-94767400D01*
X113919000Y-94767400D02*
X112700000Y-95986200D01*
%TO.N,/D6*%
X139478200Y-90227600D02*
X139478200Y-69628900D01*
X95820700Y-92227400D02*
X113919000Y-92227400D01*
X94562700Y-93485400D02*
X95820700Y-92227400D01*
X91047000Y-93485400D02*
X94562700Y-93485400D01*
X137763700Y-91942100D02*
X136779000Y-90957400D01*
X89789000Y-92227400D02*
X91047000Y-93485400D01*
X136779000Y-90957400D02*
X115189000Y-90957400D01*
X115189000Y-90957400D02*
X113919000Y-92227400D01*
X137763700Y-91942100D02*
X139478200Y-90227600D01*
X138049000Y-92227400D02*
X137763700Y-91942100D01*
%TO.N,/D9*%
X91695900Y-89687400D02*
X92918600Y-88464700D01*
X117149000Y-88471500D02*
X116727000Y-88893100D01*
X92918600Y-88464700D02*
X94112100Y-88464700D01*
X114713000Y-88893100D02*
X113919000Y-89687400D01*
X89789000Y-89687400D02*
X91695900Y-89687400D01*
X138049000Y-89687400D02*
X136833000Y-88471500D01*
X136833000Y-88471500D02*
X117149000Y-88471500D01*
X95334800Y-89687400D02*
X113919000Y-89687400D01*
X116727000Y-88893100D02*
X114713000Y-88893100D01*
X94112100Y-88464700D02*
X95334800Y-89687400D01*
%TO.N,/D12*%
X138049000Y-82067400D02*
X136833000Y-80851500D01*
X117149000Y-80851500D02*
X115933000Y-82067400D01*
X115933000Y-82067400D02*
X113919000Y-82067400D01*
X91788800Y-82067400D02*
X93057300Y-80798900D01*
X89789000Y-82067400D02*
X91788800Y-82067400D01*
X112650000Y-80798900D02*
X113919000Y-82067400D01*
X93057300Y-80798900D02*
X112650000Y-80798900D01*
X136833000Y-80851500D02*
X117149000Y-80851500D01*
%TO.N,/D13*%
X113919000Y-79527400D02*
X115136000Y-78309900D01*
X115136000Y-78309900D02*
X118546000Y-78309900D01*
X119763000Y-79527400D02*
X138049000Y-79527400D01*
X118546000Y-78309900D02*
X119763000Y-79527400D01*
%TO.N,/EN*%
X110108000Y-78204000D02*
X114444000Y-78204000D01*
X115145000Y-76354100D02*
X115597000Y-76354100D01*
X107622000Y-75717400D02*
X110108000Y-78204000D01*
X115145000Y-75673000D02*
X113919000Y-74447400D01*
X91059000Y-75717400D02*
X107622000Y-75717400D01*
X89789000Y-74447400D02*
X91059000Y-75717400D01*
X115145000Y-77503900D02*
X115145000Y-76354100D01*
X115145000Y-76354100D02*
X115145000Y-75673000D01*
X114444000Y-78204000D02*
X115145000Y-77503900D01*
%TO.N,/A2*%
X93599000Y-76987400D02*
X92329000Y-78257400D01*
X124022400Y-76987400D02*
X132497900Y-68511900D01*
X92329000Y-78257400D02*
X70739000Y-78257400D01*
X117729000Y-76987400D02*
X124022400Y-76987400D01*
X70739000Y-78257400D02*
X69469000Y-76987400D01*
%TO.N,/A3*%
X70739000Y-80797400D02*
X69469000Y-79527400D01*
X112200000Y-79527400D02*
X113470000Y-80797400D01*
X113470000Y-80797400D02*
X116459000Y-80797400D01*
X92329000Y-80797400D02*
X70739000Y-80797400D01*
X93599000Y-79527400D02*
X92329000Y-80797400D01*
X93599000Y-79527400D02*
X112200000Y-79527400D01*
X116459000Y-80797400D02*
X117729000Y-79527400D01*
%TO.N,/A4*%
X92329000Y-83337400D02*
X70739000Y-83337400D01*
X70739000Y-83337400D02*
X69469000Y-82067400D01*
X93599000Y-82067400D02*
X92329000Y-83337400D01*
%TO.N,/A5*%
X115702000Y-84607400D02*
X117729000Y-84607400D01*
X93599000Y-84607400D02*
X92329000Y-85877400D01*
X70739000Y-85877400D02*
X69469000Y-84607400D01*
X114486000Y-85823300D02*
X115702000Y-84607400D01*
X94814900Y-85823300D02*
X114486000Y-85823300D01*
X92329000Y-85877400D02*
X70739000Y-85877400D01*
X93599000Y-84607400D02*
X94814900Y-85823300D01*
%TO.N,/SCK*%
X70739000Y-88417400D02*
X69469000Y-87147400D01*
X94869000Y-88417400D02*
X93599000Y-87147400D01*
X116459000Y-88417400D02*
X94869000Y-88417400D01*
X93596800Y-87147400D02*
X92326800Y-88417400D01*
X92326800Y-88417400D02*
X70739000Y-88417400D01*
X117729000Y-87147400D02*
X116459000Y-88417400D01*
X93599000Y-87147400D02*
X93596800Y-87147400D01*
%TO.N,/MOSI*%
X94814900Y-90903300D02*
X114499000Y-90903300D01*
X92329000Y-90957400D02*
X70739000Y-90957400D01*
X114499000Y-90903300D02*
X115715000Y-89687400D01*
X93599000Y-89687400D02*
X94814900Y-90903300D01*
X115715000Y-89687400D02*
X117729000Y-89687400D01*
X93599000Y-89687400D02*
X92329000Y-90957400D01*
X70739000Y-90957400D02*
X69469000Y-89687400D01*
%TO.N,Net-(J2-Pin_1)*%
X144845300Y-68392600D02*
X145050000Y-68187900D01*
X145050000Y-68187900D02*
X145050000Y-67287400D01*
%TO.N,Net-(J2-Pin_2)*%
X148262600Y-65287400D02*
X145050000Y-65287400D01*
X149250000Y-64300000D02*
X148262600Y-65287400D01*
%TO.N,Net-(J3-Pin_1)*%
X148352600Y-83797400D02*
X145050000Y-83797400D01*
X149350000Y-82800000D02*
X148352600Y-83797400D01*
%TO.N,Net-(J3-Pin_2)*%
X148925000Y-78867597D02*
X148925000Y-80975000D01*
X148102600Y-81797400D02*
X145050000Y-81797400D01*
X148925000Y-80975000D02*
X148102600Y-81797400D01*
%TD*%
M02*
