%TF.GenerationSoftware,KiCad,Pcbnew,7.0.10-7.0.10~ubuntu22.04.1*%
%TF.CreationDate,2024-09-09T09:20:23-07:00*%
%TF.ProjectId,iorodeo_feather_tripler_enc1,696f726f-6465-46f5-9f66-656174686572,rev?*%
%TF.SameCoordinates,Original*%
%TF.FileFunction,Soldermask,Top*%
%TF.FilePolarity,Negative*%
%FSLAX46Y46*%
G04 Gerber Fmt 4.6, Leading zero omitted, Abs format (unit mm)*
G04 Created by KiCad (PCBNEW 7.0.10-7.0.10~ubuntu22.04.1) date 2024-09-09 09:20:23*
%MOMM*%
%LPD*%
G01*
G04 APERTURE LIST*
G04 Aperture macros list*
%AMRoundRect*
0 Rectangle with rounded corners*
0 $1 Rounding radius*
0 $2 $3 $4 $5 $6 $7 $8 $9 X,Y pos of 4 corners*
0 Add a 4 corners polygon primitive as box body*
4,1,4,$2,$3,$4,$5,$6,$7,$8,$9,$2,$3,0*
0 Add four circle primitives for the rounded corners*
1,1,$1+$1,$2,$3*
1,1,$1+$1,$4,$5*
1,1,$1+$1,$6,$7*
1,1,$1+$1,$8,$9*
0 Add four rect primitives between the rounded corners*
20,1,$1+$1,$2,$3,$4,$5,0*
20,1,$1+$1,$4,$5,$6,$7,0*
20,1,$1+$1,$6,$7,$8,$9,0*
20,1,$1+$1,$8,$9,$2,$3,0*%
G04 Aperture macros list end*
%ADD10C,0.900000*%
%ADD11R,2.000000X0.900000*%
%ADD12C,4.300000*%
%ADD13O,4.500000X2.300000*%
%ADD14O,2.000000X4.500000*%
%ADD15C,3.048000*%
%ADD16C,1.778000*%
%ADD17RoundRect,0.250000X2.500000X-0.250000X2.500000X0.250000X-2.500000X0.250000X-2.500000X-0.250000X0*%
%ADD18RoundRect,0.250000X1.250000X-0.550000X1.250000X0.550000X-1.250000X0.550000X-1.250000X-0.550000X0*%
%ADD19RoundRect,0.150000X-0.625000X0.150000X-0.625000X-0.150000X0.625000X-0.150000X0.625000X0.150000X0*%
%ADD20RoundRect,0.250000X-0.650000X0.350000X-0.650000X-0.350000X0.650000X-0.350000X0.650000X0.350000X0*%
G04 APERTURE END LIST*
D10*
%TO.C,SW1*%
X52324000Y-79466000D03*
X52324000Y-74966000D03*
D11*
X49324000Y-79216000D03*
X49324000Y-77216000D03*
X49324000Y-75216000D03*
X55324000Y-79216000D03*
X55324000Y-77216000D03*
X55324000Y-75216000D03*
%TD*%
D12*
%TO.C,M2*%
X146812000Y-50800000D03*
%TD*%
D13*
%TO.C,J1*%
X62086300Y-105239700D03*
X62086300Y-99039700D03*
D14*
X57286300Y-102289700D03*
%TD*%
D15*
%TO.C,U1*%
X88519000Y-103657400D03*
X88519000Y-57937400D03*
X70739000Y-103657400D03*
X70739000Y-57937400D03*
D16*
X89789000Y-99847400D03*
X89789000Y-97307400D03*
X89789000Y-94767400D03*
X89789000Y-92227400D03*
X89789000Y-89687400D03*
X89789000Y-87147400D03*
X89789000Y-84607400D03*
X89789000Y-82067400D03*
X89789000Y-79527400D03*
X89789000Y-76987400D03*
X89789000Y-74447400D03*
X89789000Y-71907400D03*
X69469000Y-61747400D03*
X69469000Y-64287400D03*
X69469000Y-66827400D03*
X69469000Y-69367400D03*
X69469000Y-71907400D03*
X69469000Y-74447400D03*
X69469000Y-76987400D03*
X69469000Y-79527400D03*
X69469000Y-82067400D03*
X69469000Y-84607400D03*
X69469000Y-87147400D03*
X69469000Y-89687400D03*
X69469000Y-92227400D03*
X69469000Y-94767400D03*
X69469000Y-97307400D03*
X69469000Y-99847400D03*
%TD*%
D15*
%TO.C,U3*%
X136779000Y-103657400D03*
X136779000Y-57937400D03*
X118999000Y-103657400D03*
X118999000Y-57937400D03*
D16*
X138049000Y-99847400D03*
X138049000Y-97307400D03*
X138049000Y-94767400D03*
X138049000Y-92227400D03*
X138049000Y-89687400D03*
X138049000Y-87147400D03*
X138049000Y-84607400D03*
X138049000Y-82067400D03*
X138049000Y-79527400D03*
X138049000Y-76987400D03*
X138049000Y-74447400D03*
X138049000Y-71907400D03*
X117729000Y-61747400D03*
X117729000Y-64287400D03*
X117729000Y-66827400D03*
X117729000Y-69367400D03*
X117729000Y-71907400D03*
X117729000Y-74447400D03*
X117729000Y-76987400D03*
X117729000Y-79527400D03*
X117729000Y-82067400D03*
X117729000Y-84607400D03*
X117729000Y-87147400D03*
X117729000Y-89687400D03*
X117729000Y-92227400D03*
X117729000Y-94767400D03*
X117729000Y-97307400D03*
X117729000Y-99847400D03*
%TD*%
D15*
%TO.C,U2*%
X112649000Y-103657400D03*
X112649000Y-57937400D03*
X94869000Y-103657400D03*
X94869000Y-57937400D03*
D16*
X113919000Y-99847400D03*
X113919000Y-97307400D03*
X113919000Y-94767400D03*
X113919000Y-92227400D03*
X113919000Y-89687400D03*
X113919000Y-87147400D03*
X113919000Y-84607400D03*
X113919000Y-82067400D03*
X113919000Y-79527400D03*
X113919000Y-76987400D03*
X113919000Y-74447400D03*
X113919000Y-71907400D03*
X93599000Y-61747400D03*
X93599000Y-64287400D03*
X93599000Y-66827400D03*
X93599000Y-69367400D03*
X93599000Y-71907400D03*
X93599000Y-74447400D03*
X93599000Y-76987400D03*
X93599000Y-79527400D03*
X93599000Y-82067400D03*
X93599000Y-84607400D03*
X93599000Y-87147400D03*
X93599000Y-89687400D03*
X93599000Y-92227400D03*
X93599000Y-94767400D03*
X93599000Y-97307400D03*
X93599000Y-99847400D03*
%TD*%
D12*
%TO.C,M1*%
X50800000Y-50800000D03*
%TD*%
D17*
%TO.C,J2*%
X145050000Y-67287400D03*
X145050000Y-65287400D03*
X145050000Y-63287400D03*
X145050000Y-61287400D03*
D18*
X142800000Y-58887400D03*
X142800000Y-69687400D03*
%TD*%
D17*
%TO.C,J3*%
X145050000Y-83797400D03*
X145050000Y-81797400D03*
X145050000Y-79797400D03*
X145050000Y-77797400D03*
D18*
X142800000Y-75397400D03*
X142800000Y-86197400D03*
%TD*%
D17*
%TO.C,J4*%
X145050000Y-100307400D03*
X145050000Y-98307400D03*
X145050000Y-96307400D03*
X145050000Y-94307400D03*
D18*
X142800000Y-91907400D03*
X142800000Y-102707400D03*
%TD*%
D12*
%TO.C,M3*%
X146812000Y-110794800D03*
%TD*%
%TO.C,M4*%
X50800000Y-110794800D03*
%TD*%
D19*
%TO.C,J5*%
X90369000Y-109244000D03*
X90369000Y-110244000D03*
X90369000Y-111244000D03*
X90369000Y-112244000D03*
D20*
X92894000Y-107944000D03*
X92894000Y-113544000D03*
%TD*%
D19*
%TO.C,J6*%
X114499000Y-109244000D03*
X114499000Y-110244000D03*
X114499000Y-111244000D03*
X114499000Y-112244000D03*
D20*
X117024000Y-107944000D03*
X117024000Y-113544000D03*
%TD*%
M02*
