%TF.GenerationSoftware,KiCad,Pcbnew,7.0.10-7.0.10~ubuntu22.04.1*%
%TF.CreationDate,2024-09-09T09:20:23-07:00*%
%TF.ProjectId,iorodeo_feather_tripler_enc1,696f726f-6465-46f5-9f66-656174686572,rev?*%
%TF.SameCoordinates,Original*%
%TF.FileFunction,Legend,Bot*%
%TF.FilePolarity,Positive*%
%FSLAX46Y46*%
G04 Gerber Fmt 4.6, Leading zero omitted, Abs format (unit mm)*
G04 Created by KiCad (PCBNEW 7.0.10-7.0.10~ubuntu22.04.1) date 2024-09-09 09:20:23*
%MOMM*%
%LPD*%
G01*
G04 APERTURE LIST*
%ADD10C,0.200000*%
%ADD11C,0.150000*%
%ADD12C,0.203200*%
%ADD13C,0.120000*%
G04 APERTURE END LIST*
D10*
X150744612Y-56367219D02*
X150744612Y-57081504D01*
X150744612Y-57081504D02*
X150792231Y-57224361D01*
X150792231Y-57224361D02*
X150887469Y-57319600D01*
X150887469Y-57319600D02*
X151030326Y-57367219D01*
X151030326Y-57367219D02*
X151125564Y-57367219D01*
X150316040Y-56462457D02*
X150268421Y-56414838D01*
X150268421Y-56414838D02*
X150173183Y-56367219D01*
X150173183Y-56367219D02*
X149935088Y-56367219D01*
X149935088Y-56367219D02*
X149839850Y-56414838D01*
X149839850Y-56414838D02*
X149792231Y-56462457D01*
X149792231Y-56462457D02*
X149744612Y-56557695D01*
X149744612Y-56557695D02*
X149744612Y-56652933D01*
X149744612Y-56652933D02*
X149792231Y-56795790D01*
X149792231Y-56795790D02*
X150363659Y-57367219D01*
X150363659Y-57367219D02*
X149744612Y-57367219D01*
X148554135Y-57367219D02*
X148554135Y-56367219D01*
X148554135Y-56367219D02*
X148173183Y-56367219D01*
X148173183Y-56367219D02*
X148077945Y-56414838D01*
X148077945Y-56414838D02*
X148030326Y-56462457D01*
X148030326Y-56462457D02*
X147982707Y-56557695D01*
X147982707Y-56557695D02*
X147982707Y-56700552D01*
X147982707Y-56700552D02*
X148030326Y-56795790D01*
X148030326Y-56795790D02*
X148077945Y-56843409D01*
X148077945Y-56843409D02*
X148173183Y-56891028D01*
X148173183Y-56891028D02*
X148554135Y-56891028D01*
X147554135Y-57367219D02*
X147554135Y-56700552D01*
X147554135Y-56367219D02*
X147601754Y-56414838D01*
X147601754Y-56414838D02*
X147554135Y-56462457D01*
X147554135Y-56462457D02*
X147506516Y-56414838D01*
X147506516Y-56414838D02*
X147554135Y-56367219D01*
X147554135Y-56367219D02*
X147554135Y-56462457D01*
X147077945Y-56700552D02*
X147077945Y-57367219D01*
X147077945Y-56795790D02*
X147030326Y-56748171D01*
X147030326Y-56748171D02*
X146935088Y-56700552D01*
X146935088Y-56700552D02*
X146792231Y-56700552D01*
X146792231Y-56700552D02*
X146696993Y-56748171D01*
X146696993Y-56748171D02*
X146649374Y-56843409D01*
X146649374Y-56843409D02*
X146649374Y-57367219D01*
X146220802Y-56462457D02*
X146173183Y-56414838D01*
X146173183Y-56414838D02*
X146077945Y-56367219D01*
X146077945Y-56367219D02*
X145839850Y-56367219D01*
X145839850Y-56367219D02*
X145744612Y-56414838D01*
X145744612Y-56414838D02*
X145696993Y-56462457D01*
X145696993Y-56462457D02*
X145649374Y-56557695D01*
X145649374Y-56557695D02*
X145649374Y-56652933D01*
X145649374Y-56652933D02*
X145696993Y-56795790D01*
X145696993Y-56795790D02*
X146268421Y-57367219D01*
X146268421Y-57367219D02*
X145649374Y-57367219D01*
X144506516Y-57319600D02*
X144363659Y-57367219D01*
X144363659Y-57367219D02*
X144125564Y-57367219D01*
X144125564Y-57367219D02*
X144030326Y-57319600D01*
X144030326Y-57319600D02*
X143982707Y-57271980D01*
X143982707Y-57271980D02*
X143935088Y-57176742D01*
X143935088Y-57176742D02*
X143935088Y-57081504D01*
X143935088Y-57081504D02*
X143982707Y-56986266D01*
X143982707Y-56986266D02*
X144030326Y-56938647D01*
X144030326Y-56938647D02*
X144125564Y-56891028D01*
X144125564Y-56891028D02*
X144316040Y-56843409D01*
X144316040Y-56843409D02*
X144411278Y-56795790D01*
X144411278Y-56795790D02*
X144458897Y-56748171D01*
X144458897Y-56748171D02*
X144506516Y-56652933D01*
X144506516Y-56652933D02*
X144506516Y-56557695D01*
X144506516Y-56557695D02*
X144458897Y-56462457D01*
X144458897Y-56462457D02*
X144411278Y-56414838D01*
X144411278Y-56414838D02*
X144316040Y-56367219D01*
X144316040Y-56367219D02*
X144077945Y-56367219D01*
X144077945Y-56367219D02*
X143935088Y-56414838D01*
X143125564Y-57319600D02*
X143220802Y-57367219D01*
X143220802Y-57367219D02*
X143411278Y-57367219D01*
X143411278Y-57367219D02*
X143506516Y-57319600D01*
X143506516Y-57319600D02*
X143554135Y-57224361D01*
X143554135Y-57224361D02*
X143554135Y-56843409D01*
X143554135Y-56843409D02*
X143506516Y-56748171D01*
X143506516Y-56748171D02*
X143411278Y-56700552D01*
X143411278Y-56700552D02*
X143220802Y-56700552D01*
X143220802Y-56700552D02*
X143125564Y-56748171D01*
X143125564Y-56748171D02*
X143077945Y-56843409D01*
X143077945Y-56843409D02*
X143077945Y-56938647D01*
X143077945Y-56938647D02*
X143554135Y-57033885D01*
X142506516Y-57367219D02*
X142601754Y-57319600D01*
X142601754Y-57319600D02*
X142649373Y-57224361D01*
X142649373Y-57224361D02*
X142649373Y-56367219D01*
X141744611Y-57319600D02*
X141839849Y-57367219D01*
X141839849Y-57367219D02*
X142030325Y-57367219D01*
X142030325Y-57367219D02*
X142125563Y-57319600D01*
X142125563Y-57319600D02*
X142173182Y-57224361D01*
X142173182Y-57224361D02*
X142173182Y-56843409D01*
X142173182Y-56843409D02*
X142125563Y-56748171D01*
X142125563Y-56748171D02*
X142030325Y-56700552D01*
X142030325Y-56700552D02*
X141839849Y-56700552D01*
X141839849Y-56700552D02*
X141744611Y-56748171D01*
X141744611Y-56748171D02*
X141696992Y-56843409D01*
X141696992Y-56843409D02*
X141696992Y-56938647D01*
X141696992Y-56938647D02*
X142173182Y-57033885D01*
X140839849Y-57319600D02*
X140935087Y-57367219D01*
X140935087Y-57367219D02*
X141125563Y-57367219D01*
X141125563Y-57367219D02*
X141220801Y-57319600D01*
X141220801Y-57319600D02*
X141268420Y-57271980D01*
X141268420Y-57271980D02*
X141316039Y-57176742D01*
X141316039Y-57176742D02*
X141316039Y-56891028D01*
X141316039Y-56891028D02*
X141268420Y-56795790D01*
X141268420Y-56795790D02*
X141220801Y-56748171D01*
X141220801Y-56748171D02*
X141125563Y-56700552D01*
X141125563Y-56700552D02*
X140935087Y-56700552D01*
X140935087Y-56700552D02*
X140839849Y-56748171D01*
X140554134Y-56700552D02*
X140173182Y-56700552D01*
X140411277Y-56367219D02*
X140411277Y-57224361D01*
X140411277Y-57224361D02*
X140363658Y-57319600D01*
X140363658Y-57319600D02*
X140268420Y-57367219D01*
X140268420Y-57367219D02*
X140173182Y-57367219D01*
X150744612Y-72767219D02*
X150744612Y-73481504D01*
X150744612Y-73481504D02*
X150792231Y-73624361D01*
X150792231Y-73624361D02*
X150887469Y-73719600D01*
X150887469Y-73719600D02*
X151030326Y-73767219D01*
X151030326Y-73767219D02*
X151125564Y-73767219D01*
X150363659Y-72767219D02*
X149744612Y-72767219D01*
X149744612Y-72767219D02*
X150077945Y-73148171D01*
X150077945Y-73148171D02*
X149935088Y-73148171D01*
X149935088Y-73148171D02*
X149839850Y-73195790D01*
X149839850Y-73195790D02*
X149792231Y-73243409D01*
X149792231Y-73243409D02*
X149744612Y-73338647D01*
X149744612Y-73338647D02*
X149744612Y-73576742D01*
X149744612Y-73576742D02*
X149792231Y-73671980D01*
X149792231Y-73671980D02*
X149839850Y-73719600D01*
X149839850Y-73719600D02*
X149935088Y-73767219D01*
X149935088Y-73767219D02*
X150220802Y-73767219D01*
X150220802Y-73767219D02*
X150316040Y-73719600D01*
X150316040Y-73719600D02*
X150363659Y-73671980D01*
X148554135Y-73767219D02*
X148554135Y-72767219D01*
X148554135Y-72767219D02*
X148173183Y-72767219D01*
X148173183Y-72767219D02*
X148077945Y-72814838D01*
X148077945Y-72814838D02*
X148030326Y-72862457D01*
X148030326Y-72862457D02*
X147982707Y-72957695D01*
X147982707Y-72957695D02*
X147982707Y-73100552D01*
X147982707Y-73100552D02*
X148030326Y-73195790D01*
X148030326Y-73195790D02*
X148077945Y-73243409D01*
X148077945Y-73243409D02*
X148173183Y-73291028D01*
X148173183Y-73291028D02*
X148554135Y-73291028D01*
X147554135Y-73767219D02*
X147554135Y-73100552D01*
X147554135Y-72767219D02*
X147601754Y-72814838D01*
X147601754Y-72814838D02*
X147554135Y-72862457D01*
X147554135Y-72862457D02*
X147506516Y-72814838D01*
X147506516Y-72814838D02*
X147554135Y-72767219D01*
X147554135Y-72767219D02*
X147554135Y-72862457D01*
X147077945Y-73100552D02*
X147077945Y-73767219D01*
X147077945Y-73195790D02*
X147030326Y-73148171D01*
X147030326Y-73148171D02*
X146935088Y-73100552D01*
X146935088Y-73100552D02*
X146792231Y-73100552D01*
X146792231Y-73100552D02*
X146696993Y-73148171D01*
X146696993Y-73148171D02*
X146649374Y-73243409D01*
X146649374Y-73243409D02*
X146649374Y-73767219D01*
X146220802Y-72862457D02*
X146173183Y-72814838D01*
X146173183Y-72814838D02*
X146077945Y-72767219D01*
X146077945Y-72767219D02*
X145839850Y-72767219D01*
X145839850Y-72767219D02*
X145744612Y-72814838D01*
X145744612Y-72814838D02*
X145696993Y-72862457D01*
X145696993Y-72862457D02*
X145649374Y-72957695D01*
X145649374Y-72957695D02*
X145649374Y-73052933D01*
X145649374Y-73052933D02*
X145696993Y-73195790D01*
X145696993Y-73195790D02*
X146268421Y-73767219D01*
X146268421Y-73767219D02*
X145649374Y-73767219D01*
X144506516Y-73719600D02*
X144363659Y-73767219D01*
X144363659Y-73767219D02*
X144125564Y-73767219D01*
X144125564Y-73767219D02*
X144030326Y-73719600D01*
X144030326Y-73719600D02*
X143982707Y-73671980D01*
X143982707Y-73671980D02*
X143935088Y-73576742D01*
X143935088Y-73576742D02*
X143935088Y-73481504D01*
X143935088Y-73481504D02*
X143982707Y-73386266D01*
X143982707Y-73386266D02*
X144030326Y-73338647D01*
X144030326Y-73338647D02*
X144125564Y-73291028D01*
X144125564Y-73291028D02*
X144316040Y-73243409D01*
X144316040Y-73243409D02*
X144411278Y-73195790D01*
X144411278Y-73195790D02*
X144458897Y-73148171D01*
X144458897Y-73148171D02*
X144506516Y-73052933D01*
X144506516Y-73052933D02*
X144506516Y-72957695D01*
X144506516Y-72957695D02*
X144458897Y-72862457D01*
X144458897Y-72862457D02*
X144411278Y-72814838D01*
X144411278Y-72814838D02*
X144316040Y-72767219D01*
X144316040Y-72767219D02*
X144077945Y-72767219D01*
X144077945Y-72767219D02*
X143935088Y-72814838D01*
X143125564Y-73719600D02*
X143220802Y-73767219D01*
X143220802Y-73767219D02*
X143411278Y-73767219D01*
X143411278Y-73767219D02*
X143506516Y-73719600D01*
X143506516Y-73719600D02*
X143554135Y-73624361D01*
X143554135Y-73624361D02*
X143554135Y-73243409D01*
X143554135Y-73243409D02*
X143506516Y-73148171D01*
X143506516Y-73148171D02*
X143411278Y-73100552D01*
X143411278Y-73100552D02*
X143220802Y-73100552D01*
X143220802Y-73100552D02*
X143125564Y-73148171D01*
X143125564Y-73148171D02*
X143077945Y-73243409D01*
X143077945Y-73243409D02*
X143077945Y-73338647D01*
X143077945Y-73338647D02*
X143554135Y-73433885D01*
X142506516Y-73767219D02*
X142601754Y-73719600D01*
X142601754Y-73719600D02*
X142649373Y-73624361D01*
X142649373Y-73624361D02*
X142649373Y-72767219D01*
X141744611Y-73719600D02*
X141839849Y-73767219D01*
X141839849Y-73767219D02*
X142030325Y-73767219D01*
X142030325Y-73767219D02*
X142125563Y-73719600D01*
X142125563Y-73719600D02*
X142173182Y-73624361D01*
X142173182Y-73624361D02*
X142173182Y-73243409D01*
X142173182Y-73243409D02*
X142125563Y-73148171D01*
X142125563Y-73148171D02*
X142030325Y-73100552D01*
X142030325Y-73100552D02*
X141839849Y-73100552D01*
X141839849Y-73100552D02*
X141744611Y-73148171D01*
X141744611Y-73148171D02*
X141696992Y-73243409D01*
X141696992Y-73243409D02*
X141696992Y-73338647D01*
X141696992Y-73338647D02*
X142173182Y-73433885D01*
X140839849Y-73719600D02*
X140935087Y-73767219D01*
X140935087Y-73767219D02*
X141125563Y-73767219D01*
X141125563Y-73767219D02*
X141220801Y-73719600D01*
X141220801Y-73719600D02*
X141268420Y-73671980D01*
X141268420Y-73671980D02*
X141316039Y-73576742D01*
X141316039Y-73576742D02*
X141316039Y-73291028D01*
X141316039Y-73291028D02*
X141268420Y-73195790D01*
X141268420Y-73195790D02*
X141220801Y-73148171D01*
X141220801Y-73148171D02*
X141125563Y-73100552D01*
X141125563Y-73100552D02*
X140935087Y-73100552D01*
X140935087Y-73100552D02*
X140839849Y-73148171D01*
X140554134Y-73100552D02*
X140173182Y-73100552D01*
X140411277Y-72767219D02*
X140411277Y-73624361D01*
X140411277Y-73624361D02*
X140363658Y-73719600D01*
X140363658Y-73719600D02*
X140268420Y-73767219D01*
X140268420Y-73767219D02*
X140173182Y-73767219D01*
D11*
X149910839Y-59084104D02*
X149434649Y-59084104D01*
X150006077Y-59369819D02*
X149672744Y-58369819D01*
X149672744Y-58369819D02*
X149339411Y-59369819D01*
X148815601Y-58369819D02*
X148720363Y-58369819D01*
X148720363Y-58369819D02*
X148625125Y-58417438D01*
X148625125Y-58417438D02*
X148577506Y-58465057D01*
X148577506Y-58465057D02*
X148529887Y-58560295D01*
X148529887Y-58560295D02*
X148482268Y-58750771D01*
X148482268Y-58750771D02*
X148482268Y-58988866D01*
X148482268Y-58988866D02*
X148529887Y-59179342D01*
X148529887Y-59179342D02*
X148577506Y-59274580D01*
X148577506Y-59274580D02*
X148625125Y-59322200D01*
X148625125Y-59322200D02*
X148720363Y-59369819D01*
X148720363Y-59369819D02*
X148815601Y-59369819D01*
X148815601Y-59369819D02*
X148910839Y-59322200D01*
X148910839Y-59322200D02*
X148958458Y-59274580D01*
X148958458Y-59274580D02*
X149006077Y-59179342D01*
X149006077Y-59179342D02*
X149053696Y-58988866D01*
X149053696Y-58988866D02*
X149053696Y-58750771D01*
X149053696Y-58750771D02*
X149006077Y-58560295D01*
X149006077Y-58560295D02*
X148958458Y-58465057D01*
X148958458Y-58465057D02*
X148910839Y-58417438D01*
X148910839Y-58417438D02*
X148815601Y-58369819D01*
X149910839Y-78084104D02*
X149434649Y-78084104D01*
X150006077Y-78369819D02*
X149672744Y-77369819D01*
X149672744Y-77369819D02*
X149339411Y-78369819D01*
X149101315Y-77369819D02*
X148482268Y-77369819D01*
X148482268Y-77369819D02*
X148815601Y-77750771D01*
X148815601Y-77750771D02*
X148672744Y-77750771D01*
X148672744Y-77750771D02*
X148577506Y-77798390D01*
X148577506Y-77798390D02*
X148529887Y-77846009D01*
X148529887Y-77846009D02*
X148482268Y-77941247D01*
X148482268Y-77941247D02*
X148482268Y-78179342D01*
X148482268Y-78179342D02*
X148529887Y-78274580D01*
X148529887Y-78274580D02*
X148577506Y-78322200D01*
X148577506Y-78322200D02*
X148672744Y-78369819D01*
X148672744Y-78369819D02*
X148958458Y-78369819D01*
X148958458Y-78369819D02*
X149053696Y-78322200D01*
X149053696Y-78322200D02*
X149101315Y-78274580D01*
X149910839Y-61684104D02*
X149434649Y-61684104D01*
X150006077Y-61969819D02*
X149672744Y-60969819D01*
X149672744Y-60969819D02*
X149339411Y-61969819D01*
X149053696Y-61065057D02*
X149006077Y-61017438D01*
X149006077Y-61017438D02*
X148910839Y-60969819D01*
X148910839Y-60969819D02*
X148672744Y-60969819D01*
X148672744Y-60969819D02*
X148577506Y-61017438D01*
X148577506Y-61017438D02*
X148529887Y-61065057D01*
X148529887Y-61065057D02*
X148482268Y-61160295D01*
X148482268Y-61160295D02*
X148482268Y-61255533D01*
X148482268Y-61255533D02*
X148529887Y-61398390D01*
X148529887Y-61398390D02*
X149101315Y-61969819D01*
X149101315Y-61969819D02*
X148482268Y-61969819D01*
D10*
X150744612Y-64567219D02*
X150744612Y-65281504D01*
X150744612Y-65281504D02*
X150792231Y-65424361D01*
X150792231Y-65424361D02*
X150887469Y-65519600D01*
X150887469Y-65519600D02*
X151030326Y-65567219D01*
X151030326Y-65567219D02*
X151125564Y-65567219D01*
X150316040Y-64662457D02*
X150268421Y-64614838D01*
X150268421Y-64614838D02*
X150173183Y-64567219D01*
X150173183Y-64567219D02*
X149935088Y-64567219D01*
X149935088Y-64567219D02*
X149839850Y-64614838D01*
X149839850Y-64614838D02*
X149792231Y-64662457D01*
X149792231Y-64662457D02*
X149744612Y-64757695D01*
X149744612Y-64757695D02*
X149744612Y-64852933D01*
X149744612Y-64852933D02*
X149792231Y-64995790D01*
X149792231Y-64995790D02*
X150363659Y-65567219D01*
X150363659Y-65567219D02*
X149744612Y-65567219D01*
X148554135Y-65567219D02*
X148554135Y-64567219D01*
X148554135Y-64567219D02*
X148173183Y-64567219D01*
X148173183Y-64567219D02*
X148077945Y-64614838D01*
X148077945Y-64614838D02*
X148030326Y-64662457D01*
X148030326Y-64662457D02*
X147982707Y-64757695D01*
X147982707Y-64757695D02*
X147982707Y-64900552D01*
X147982707Y-64900552D02*
X148030326Y-64995790D01*
X148030326Y-64995790D02*
X148077945Y-65043409D01*
X148077945Y-65043409D02*
X148173183Y-65091028D01*
X148173183Y-65091028D02*
X148554135Y-65091028D01*
X147554135Y-65567219D02*
X147554135Y-64900552D01*
X147554135Y-64567219D02*
X147601754Y-64614838D01*
X147601754Y-64614838D02*
X147554135Y-64662457D01*
X147554135Y-64662457D02*
X147506516Y-64614838D01*
X147506516Y-64614838D02*
X147554135Y-64567219D01*
X147554135Y-64567219D02*
X147554135Y-64662457D01*
X147077945Y-64900552D02*
X147077945Y-65567219D01*
X147077945Y-64995790D02*
X147030326Y-64948171D01*
X147030326Y-64948171D02*
X146935088Y-64900552D01*
X146935088Y-64900552D02*
X146792231Y-64900552D01*
X146792231Y-64900552D02*
X146696993Y-64948171D01*
X146696993Y-64948171D02*
X146649374Y-65043409D01*
X146649374Y-65043409D02*
X146649374Y-65567219D01*
X145649374Y-65567219D02*
X146220802Y-65567219D01*
X145935088Y-65567219D02*
X145935088Y-64567219D01*
X145935088Y-64567219D02*
X146030326Y-64710076D01*
X146030326Y-64710076D02*
X146125564Y-64805314D01*
X146125564Y-64805314D02*
X146220802Y-64852933D01*
X144506516Y-65519600D02*
X144363659Y-65567219D01*
X144363659Y-65567219D02*
X144125564Y-65567219D01*
X144125564Y-65567219D02*
X144030326Y-65519600D01*
X144030326Y-65519600D02*
X143982707Y-65471980D01*
X143982707Y-65471980D02*
X143935088Y-65376742D01*
X143935088Y-65376742D02*
X143935088Y-65281504D01*
X143935088Y-65281504D02*
X143982707Y-65186266D01*
X143982707Y-65186266D02*
X144030326Y-65138647D01*
X144030326Y-65138647D02*
X144125564Y-65091028D01*
X144125564Y-65091028D02*
X144316040Y-65043409D01*
X144316040Y-65043409D02*
X144411278Y-64995790D01*
X144411278Y-64995790D02*
X144458897Y-64948171D01*
X144458897Y-64948171D02*
X144506516Y-64852933D01*
X144506516Y-64852933D02*
X144506516Y-64757695D01*
X144506516Y-64757695D02*
X144458897Y-64662457D01*
X144458897Y-64662457D02*
X144411278Y-64614838D01*
X144411278Y-64614838D02*
X144316040Y-64567219D01*
X144316040Y-64567219D02*
X144077945Y-64567219D01*
X144077945Y-64567219D02*
X143935088Y-64614838D01*
X143125564Y-65519600D02*
X143220802Y-65567219D01*
X143220802Y-65567219D02*
X143411278Y-65567219D01*
X143411278Y-65567219D02*
X143506516Y-65519600D01*
X143506516Y-65519600D02*
X143554135Y-65424361D01*
X143554135Y-65424361D02*
X143554135Y-65043409D01*
X143554135Y-65043409D02*
X143506516Y-64948171D01*
X143506516Y-64948171D02*
X143411278Y-64900552D01*
X143411278Y-64900552D02*
X143220802Y-64900552D01*
X143220802Y-64900552D02*
X143125564Y-64948171D01*
X143125564Y-64948171D02*
X143077945Y-65043409D01*
X143077945Y-65043409D02*
X143077945Y-65138647D01*
X143077945Y-65138647D02*
X143554135Y-65233885D01*
X142506516Y-65567219D02*
X142601754Y-65519600D01*
X142601754Y-65519600D02*
X142649373Y-65424361D01*
X142649373Y-65424361D02*
X142649373Y-64567219D01*
X141744611Y-65519600D02*
X141839849Y-65567219D01*
X141839849Y-65567219D02*
X142030325Y-65567219D01*
X142030325Y-65567219D02*
X142125563Y-65519600D01*
X142125563Y-65519600D02*
X142173182Y-65424361D01*
X142173182Y-65424361D02*
X142173182Y-65043409D01*
X142173182Y-65043409D02*
X142125563Y-64948171D01*
X142125563Y-64948171D02*
X142030325Y-64900552D01*
X142030325Y-64900552D02*
X141839849Y-64900552D01*
X141839849Y-64900552D02*
X141744611Y-64948171D01*
X141744611Y-64948171D02*
X141696992Y-65043409D01*
X141696992Y-65043409D02*
X141696992Y-65138647D01*
X141696992Y-65138647D02*
X142173182Y-65233885D01*
X140839849Y-65519600D02*
X140935087Y-65567219D01*
X140935087Y-65567219D02*
X141125563Y-65567219D01*
X141125563Y-65567219D02*
X141220801Y-65519600D01*
X141220801Y-65519600D02*
X141268420Y-65471980D01*
X141268420Y-65471980D02*
X141316039Y-65376742D01*
X141316039Y-65376742D02*
X141316039Y-65091028D01*
X141316039Y-65091028D02*
X141268420Y-64995790D01*
X141268420Y-64995790D02*
X141220801Y-64948171D01*
X141220801Y-64948171D02*
X141125563Y-64900552D01*
X141125563Y-64900552D02*
X140935087Y-64900552D01*
X140935087Y-64900552D02*
X140839849Y-64948171D01*
X140554134Y-64900552D02*
X140173182Y-64900552D01*
X140411277Y-64567219D02*
X140411277Y-65424361D01*
X140411277Y-65424361D02*
X140363658Y-65519600D01*
X140363658Y-65519600D02*
X140268420Y-65567219D01*
X140268420Y-65567219D02*
X140173182Y-65567219D01*
X150744612Y-81067219D02*
X150744612Y-81781504D01*
X150744612Y-81781504D02*
X150792231Y-81924361D01*
X150792231Y-81924361D02*
X150887469Y-82019600D01*
X150887469Y-82019600D02*
X151030326Y-82067219D01*
X151030326Y-82067219D02*
X151125564Y-82067219D01*
X150363659Y-81067219D02*
X149744612Y-81067219D01*
X149744612Y-81067219D02*
X150077945Y-81448171D01*
X150077945Y-81448171D02*
X149935088Y-81448171D01*
X149935088Y-81448171D02*
X149839850Y-81495790D01*
X149839850Y-81495790D02*
X149792231Y-81543409D01*
X149792231Y-81543409D02*
X149744612Y-81638647D01*
X149744612Y-81638647D02*
X149744612Y-81876742D01*
X149744612Y-81876742D02*
X149792231Y-81971980D01*
X149792231Y-81971980D02*
X149839850Y-82019600D01*
X149839850Y-82019600D02*
X149935088Y-82067219D01*
X149935088Y-82067219D02*
X150220802Y-82067219D01*
X150220802Y-82067219D02*
X150316040Y-82019600D01*
X150316040Y-82019600D02*
X150363659Y-81971980D01*
X148554135Y-82067219D02*
X148554135Y-81067219D01*
X148554135Y-81067219D02*
X148173183Y-81067219D01*
X148173183Y-81067219D02*
X148077945Y-81114838D01*
X148077945Y-81114838D02*
X148030326Y-81162457D01*
X148030326Y-81162457D02*
X147982707Y-81257695D01*
X147982707Y-81257695D02*
X147982707Y-81400552D01*
X147982707Y-81400552D02*
X148030326Y-81495790D01*
X148030326Y-81495790D02*
X148077945Y-81543409D01*
X148077945Y-81543409D02*
X148173183Y-81591028D01*
X148173183Y-81591028D02*
X148554135Y-81591028D01*
X147554135Y-82067219D02*
X147554135Y-81400552D01*
X147554135Y-81067219D02*
X147601754Y-81114838D01*
X147601754Y-81114838D02*
X147554135Y-81162457D01*
X147554135Y-81162457D02*
X147506516Y-81114838D01*
X147506516Y-81114838D02*
X147554135Y-81067219D01*
X147554135Y-81067219D02*
X147554135Y-81162457D01*
X147077945Y-81400552D02*
X147077945Y-82067219D01*
X147077945Y-81495790D02*
X147030326Y-81448171D01*
X147030326Y-81448171D02*
X146935088Y-81400552D01*
X146935088Y-81400552D02*
X146792231Y-81400552D01*
X146792231Y-81400552D02*
X146696993Y-81448171D01*
X146696993Y-81448171D02*
X146649374Y-81543409D01*
X146649374Y-81543409D02*
X146649374Y-82067219D01*
X145649374Y-82067219D02*
X146220802Y-82067219D01*
X145935088Y-82067219D02*
X145935088Y-81067219D01*
X145935088Y-81067219D02*
X146030326Y-81210076D01*
X146030326Y-81210076D02*
X146125564Y-81305314D01*
X146125564Y-81305314D02*
X146220802Y-81352933D01*
X144506516Y-82019600D02*
X144363659Y-82067219D01*
X144363659Y-82067219D02*
X144125564Y-82067219D01*
X144125564Y-82067219D02*
X144030326Y-82019600D01*
X144030326Y-82019600D02*
X143982707Y-81971980D01*
X143982707Y-81971980D02*
X143935088Y-81876742D01*
X143935088Y-81876742D02*
X143935088Y-81781504D01*
X143935088Y-81781504D02*
X143982707Y-81686266D01*
X143982707Y-81686266D02*
X144030326Y-81638647D01*
X144030326Y-81638647D02*
X144125564Y-81591028D01*
X144125564Y-81591028D02*
X144316040Y-81543409D01*
X144316040Y-81543409D02*
X144411278Y-81495790D01*
X144411278Y-81495790D02*
X144458897Y-81448171D01*
X144458897Y-81448171D02*
X144506516Y-81352933D01*
X144506516Y-81352933D02*
X144506516Y-81257695D01*
X144506516Y-81257695D02*
X144458897Y-81162457D01*
X144458897Y-81162457D02*
X144411278Y-81114838D01*
X144411278Y-81114838D02*
X144316040Y-81067219D01*
X144316040Y-81067219D02*
X144077945Y-81067219D01*
X144077945Y-81067219D02*
X143935088Y-81114838D01*
X143125564Y-82019600D02*
X143220802Y-82067219D01*
X143220802Y-82067219D02*
X143411278Y-82067219D01*
X143411278Y-82067219D02*
X143506516Y-82019600D01*
X143506516Y-82019600D02*
X143554135Y-81924361D01*
X143554135Y-81924361D02*
X143554135Y-81543409D01*
X143554135Y-81543409D02*
X143506516Y-81448171D01*
X143506516Y-81448171D02*
X143411278Y-81400552D01*
X143411278Y-81400552D02*
X143220802Y-81400552D01*
X143220802Y-81400552D02*
X143125564Y-81448171D01*
X143125564Y-81448171D02*
X143077945Y-81543409D01*
X143077945Y-81543409D02*
X143077945Y-81638647D01*
X143077945Y-81638647D02*
X143554135Y-81733885D01*
X142506516Y-82067219D02*
X142601754Y-82019600D01*
X142601754Y-82019600D02*
X142649373Y-81924361D01*
X142649373Y-81924361D02*
X142649373Y-81067219D01*
X141744611Y-82019600D02*
X141839849Y-82067219D01*
X141839849Y-82067219D02*
X142030325Y-82067219D01*
X142030325Y-82067219D02*
X142125563Y-82019600D01*
X142125563Y-82019600D02*
X142173182Y-81924361D01*
X142173182Y-81924361D02*
X142173182Y-81543409D01*
X142173182Y-81543409D02*
X142125563Y-81448171D01*
X142125563Y-81448171D02*
X142030325Y-81400552D01*
X142030325Y-81400552D02*
X141839849Y-81400552D01*
X141839849Y-81400552D02*
X141744611Y-81448171D01*
X141744611Y-81448171D02*
X141696992Y-81543409D01*
X141696992Y-81543409D02*
X141696992Y-81638647D01*
X141696992Y-81638647D02*
X142173182Y-81733885D01*
X140839849Y-82019600D02*
X140935087Y-82067219D01*
X140935087Y-82067219D02*
X141125563Y-82067219D01*
X141125563Y-82067219D02*
X141220801Y-82019600D01*
X141220801Y-82019600D02*
X141268420Y-81971980D01*
X141268420Y-81971980D02*
X141316039Y-81876742D01*
X141316039Y-81876742D02*
X141316039Y-81591028D01*
X141316039Y-81591028D02*
X141268420Y-81495790D01*
X141268420Y-81495790D02*
X141220801Y-81448171D01*
X141220801Y-81448171D02*
X141125563Y-81400552D01*
X141125563Y-81400552D02*
X140935087Y-81400552D01*
X140935087Y-81400552D02*
X140839849Y-81448171D01*
X140554134Y-81400552D02*
X140173182Y-81400552D01*
X140411277Y-81067219D02*
X140411277Y-81924361D01*
X140411277Y-81924361D02*
X140363658Y-82019600D01*
X140363658Y-82019600D02*
X140268420Y-82067219D01*
X140268420Y-82067219D02*
X140173182Y-82067219D01*
D11*
X150863220Y-86669819D02*
X150863220Y-85669819D01*
X150863220Y-85669819D02*
X150625125Y-85669819D01*
X150625125Y-85669819D02*
X150482268Y-85717438D01*
X150482268Y-85717438D02*
X150387030Y-85812676D01*
X150387030Y-85812676D02*
X150339411Y-85907914D01*
X150339411Y-85907914D02*
X150291792Y-86098390D01*
X150291792Y-86098390D02*
X150291792Y-86241247D01*
X150291792Y-86241247D02*
X150339411Y-86431723D01*
X150339411Y-86431723D02*
X150387030Y-86526961D01*
X150387030Y-86526961D02*
X150482268Y-86622200D01*
X150482268Y-86622200D02*
X150625125Y-86669819D01*
X150625125Y-86669819D02*
X150863220Y-86669819D01*
X149339411Y-86669819D02*
X149910839Y-86669819D01*
X149625125Y-86669819D02*
X149625125Y-85669819D01*
X149625125Y-85669819D02*
X149720363Y-85812676D01*
X149720363Y-85812676D02*
X149815601Y-85907914D01*
X149815601Y-85907914D02*
X149910839Y-85955533D01*
X148387030Y-86669819D02*
X148958458Y-86669819D01*
X148672744Y-86669819D02*
X148672744Y-85669819D01*
X148672744Y-85669819D02*
X148767982Y-85812676D01*
X148767982Y-85812676D02*
X148863220Y-85907914D01*
X148863220Y-85907914D02*
X148958458Y-85955533D01*
X150063220Y-84069819D02*
X150063220Y-83069819D01*
X150063220Y-83069819D02*
X149825125Y-83069819D01*
X149825125Y-83069819D02*
X149682268Y-83117438D01*
X149682268Y-83117438D02*
X149587030Y-83212676D01*
X149587030Y-83212676D02*
X149539411Y-83307914D01*
X149539411Y-83307914D02*
X149491792Y-83498390D01*
X149491792Y-83498390D02*
X149491792Y-83641247D01*
X149491792Y-83641247D02*
X149539411Y-83831723D01*
X149539411Y-83831723D02*
X149587030Y-83926961D01*
X149587030Y-83926961D02*
X149682268Y-84022200D01*
X149682268Y-84022200D02*
X149825125Y-84069819D01*
X149825125Y-84069819D02*
X150063220Y-84069819D01*
X149015601Y-84069819D02*
X148825125Y-84069819D01*
X148825125Y-84069819D02*
X148729887Y-84022200D01*
X148729887Y-84022200D02*
X148682268Y-83974580D01*
X148682268Y-83974580D02*
X148587030Y-83831723D01*
X148587030Y-83831723D02*
X148539411Y-83641247D01*
X148539411Y-83641247D02*
X148539411Y-83260295D01*
X148539411Y-83260295D02*
X148587030Y-83165057D01*
X148587030Y-83165057D02*
X148634649Y-83117438D01*
X148634649Y-83117438D02*
X148729887Y-83069819D01*
X148729887Y-83069819D02*
X148920363Y-83069819D01*
X148920363Y-83069819D02*
X149015601Y-83117438D01*
X149015601Y-83117438D02*
X149063220Y-83165057D01*
X149063220Y-83165057D02*
X149110839Y-83260295D01*
X149110839Y-83260295D02*
X149110839Y-83498390D01*
X149110839Y-83498390D02*
X149063220Y-83593628D01*
X149063220Y-83593628D02*
X149015601Y-83641247D01*
X149015601Y-83641247D02*
X148920363Y-83688866D01*
X148920363Y-83688866D02*
X148729887Y-83688866D01*
X148729887Y-83688866D02*
X148634649Y-83641247D01*
X148634649Y-83641247D02*
X148587030Y-83593628D01*
X148587030Y-83593628D02*
X148539411Y-83498390D01*
X149910839Y-75484104D02*
X149434649Y-75484104D01*
X150006077Y-75769819D02*
X149672744Y-74769819D01*
X149672744Y-74769819D02*
X149339411Y-75769819D01*
X148482268Y-75769819D02*
X149053696Y-75769819D01*
X148767982Y-75769819D02*
X148767982Y-74769819D01*
X148767982Y-74769819D02*
X148863220Y-74912676D01*
X148863220Y-74912676D02*
X148958458Y-75007914D01*
X148958458Y-75007914D02*
X149053696Y-75055533D01*
X149963220Y-67569819D02*
X149963220Y-66569819D01*
X149963220Y-66569819D02*
X149725125Y-66569819D01*
X149725125Y-66569819D02*
X149582268Y-66617438D01*
X149582268Y-66617438D02*
X149487030Y-66712676D01*
X149487030Y-66712676D02*
X149439411Y-66807914D01*
X149439411Y-66807914D02*
X149391792Y-66998390D01*
X149391792Y-66998390D02*
X149391792Y-67141247D01*
X149391792Y-67141247D02*
X149439411Y-67331723D01*
X149439411Y-67331723D02*
X149487030Y-67426961D01*
X149487030Y-67426961D02*
X149582268Y-67522200D01*
X149582268Y-67522200D02*
X149725125Y-67569819D01*
X149725125Y-67569819D02*
X149963220Y-67569819D01*
X148534649Y-66569819D02*
X148725125Y-66569819D01*
X148725125Y-66569819D02*
X148820363Y-66617438D01*
X148820363Y-66617438D02*
X148867982Y-66665057D01*
X148867982Y-66665057D02*
X148963220Y-66807914D01*
X148963220Y-66807914D02*
X149010839Y-66998390D01*
X149010839Y-66998390D02*
X149010839Y-67379342D01*
X149010839Y-67379342D02*
X148963220Y-67474580D01*
X148963220Y-67474580D02*
X148915601Y-67522200D01*
X148915601Y-67522200D02*
X148820363Y-67569819D01*
X148820363Y-67569819D02*
X148629887Y-67569819D01*
X148629887Y-67569819D02*
X148534649Y-67522200D01*
X148534649Y-67522200D02*
X148487030Y-67474580D01*
X148487030Y-67474580D02*
X148439411Y-67379342D01*
X148439411Y-67379342D02*
X148439411Y-67141247D01*
X148439411Y-67141247D02*
X148487030Y-67046009D01*
X148487030Y-67046009D02*
X148534649Y-66998390D01*
X148534649Y-66998390D02*
X148629887Y-66950771D01*
X148629887Y-66950771D02*
X148820363Y-66950771D01*
X148820363Y-66950771D02*
X148915601Y-66998390D01*
X148915601Y-66998390D02*
X148963220Y-67046009D01*
X148963220Y-67046009D02*
X149010839Y-67141247D01*
X150763220Y-70169819D02*
X150763220Y-69169819D01*
X150763220Y-69169819D02*
X150525125Y-69169819D01*
X150525125Y-69169819D02*
X150382268Y-69217438D01*
X150382268Y-69217438D02*
X150287030Y-69312676D01*
X150287030Y-69312676D02*
X150239411Y-69407914D01*
X150239411Y-69407914D02*
X150191792Y-69598390D01*
X150191792Y-69598390D02*
X150191792Y-69741247D01*
X150191792Y-69741247D02*
X150239411Y-69931723D01*
X150239411Y-69931723D02*
X150287030Y-70026961D01*
X150287030Y-70026961D02*
X150382268Y-70122200D01*
X150382268Y-70122200D02*
X150525125Y-70169819D01*
X150525125Y-70169819D02*
X150763220Y-70169819D01*
X149239411Y-70169819D02*
X149810839Y-70169819D01*
X149525125Y-70169819D02*
X149525125Y-69169819D01*
X149525125Y-69169819D02*
X149620363Y-69312676D01*
X149620363Y-69312676D02*
X149715601Y-69407914D01*
X149715601Y-69407914D02*
X149810839Y-69455533D01*
X148620363Y-69169819D02*
X148525125Y-69169819D01*
X148525125Y-69169819D02*
X148429887Y-69217438D01*
X148429887Y-69217438D02*
X148382268Y-69265057D01*
X148382268Y-69265057D02*
X148334649Y-69360295D01*
X148334649Y-69360295D02*
X148287030Y-69550771D01*
X148287030Y-69550771D02*
X148287030Y-69788866D01*
X148287030Y-69788866D02*
X148334649Y-69979342D01*
X148334649Y-69979342D02*
X148382268Y-70074580D01*
X148382268Y-70074580D02*
X148429887Y-70122200D01*
X148429887Y-70122200D02*
X148525125Y-70169819D01*
X148525125Y-70169819D02*
X148620363Y-70169819D01*
X148620363Y-70169819D02*
X148715601Y-70122200D01*
X148715601Y-70122200D02*
X148763220Y-70074580D01*
X148763220Y-70074580D02*
X148810839Y-69979342D01*
X148810839Y-69979342D02*
X148858458Y-69788866D01*
X148858458Y-69788866D02*
X148858458Y-69550771D01*
X148858458Y-69550771D02*
X148810839Y-69360295D01*
X148810839Y-69360295D02*
X148763220Y-69265057D01*
X148763220Y-69265057D02*
X148715601Y-69217438D01*
X148715601Y-69217438D02*
X148620363Y-69169819D01*
D12*
X88482714Y-79986853D02*
X88482714Y-78970853D01*
X88482714Y-78970853D02*
X88240809Y-78970853D01*
X88240809Y-78970853D02*
X88095666Y-79019234D01*
X88095666Y-79019234D02*
X87998904Y-79115996D01*
X87998904Y-79115996D02*
X87950523Y-79212758D01*
X87950523Y-79212758D02*
X87902142Y-79406282D01*
X87902142Y-79406282D02*
X87902142Y-79551425D01*
X87902142Y-79551425D02*
X87950523Y-79744949D01*
X87950523Y-79744949D02*
X87998904Y-79841711D01*
X87998904Y-79841711D02*
X88095666Y-79938473D01*
X88095666Y-79938473D02*
X88240809Y-79986853D01*
X88240809Y-79986853D02*
X88482714Y-79986853D01*
X86934523Y-79986853D02*
X87515095Y-79986853D01*
X87224809Y-79986853D02*
X87224809Y-78970853D01*
X87224809Y-78970853D02*
X87321571Y-79115996D01*
X87321571Y-79115996D02*
X87418333Y-79212758D01*
X87418333Y-79212758D02*
X87515095Y-79261139D01*
X86595857Y-78970853D02*
X85966904Y-78970853D01*
X85966904Y-78970853D02*
X86305571Y-79357901D01*
X86305571Y-79357901D02*
X86160428Y-79357901D01*
X86160428Y-79357901D02*
X86063666Y-79406282D01*
X86063666Y-79406282D02*
X86015285Y-79454663D01*
X86015285Y-79454663D02*
X85966904Y-79551425D01*
X85966904Y-79551425D02*
X85966904Y-79793330D01*
X85966904Y-79793330D02*
X86015285Y-79890092D01*
X86015285Y-79890092D02*
X86063666Y-79938473D01*
X86063666Y-79938473D02*
X86160428Y-79986853D01*
X86160428Y-79986853D02*
X86450714Y-79986853D01*
X86450714Y-79986853D02*
X86547476Y-79938473D01*
X86547476Y-79938473D02*
X86595857Y-79890092D01*
X87998904Y-71834663D02*
X87853761Y-71883044D01*
X87853761Y-71883044D02*
X87805380Y-71931425D01*
X87805380Y-71931425D02*
X87756999Y-72028187D01*
X87756999Y-72028187D02*
X87756999Y-72173330D01*
X87756999Y-72173330D02*
X87805380Y-72270092D01*
X87805380Y-72270092D02*
X87853761Y-72318473D01*
X87853761Y-72318473D02*
X87950523Y-72366853D01*
X87950523Y-72366853D02*
X88337571Y-72366853D01*
X88337571Y-72366853D02*
X88337571Y-71350853D01*
X88337571Y-71350853D02*
X87998904Y-71350853D01*
X87998904Y-71350853D02*
X87902142Y-71399234D01*
X87902142Y-71399234D02*
X87853761Y-71447615D01*
X87853761Y-71447615D02*
X87805380Y-71544377D01*
X87805380Y-71544377D02*
X87805380Y-71641139D01*
X87805380Y-71641139D02*
X87853761Y-71737901D01*
X87853761Y-71737901D02*
X87902142Y-71786282D01*
X87902142Y-71786282D02*
X87998904Y-71834663D01*
X87998904Y-71834663D02*
X88337571Y-71834663D01*
X87369952Y-72076568D02*
X86886142Y-72076568D01*
X87466714Y-72366853D02*
X87128047Y-71350853D01*
X87128047Y-71350853D02*
X86789380Y-72366853D01*
X86595857Y-71350853D02*
X86015285Y-71350853D01*
X86305571Y-72366853D02*
X86305571Y-71350853D01*
X72480714Y-72076568D02*
X71996904Y-72076568D01*
X72577476Y-72366853D02*
X72238809Y-71350853D01*
X72238809Y-71350853D02*
X71900142Y-72366853D01*
X71367952Y-71350853D02*
X71271190Y-71350853D01*
X71271190Y-71350853D02*
X71174428Y-71399234D01*
X71174428Y-71399234D02*
X71126047Y-71447615D01*
X71126047Y-71447615D02*
X71077666Y-71544377D01*
X71077666Y-71544377D02*
X71029285Y-71737901D01*
X71029285Y-71737901D02*
X71029285Y-71979806D01*
X71029285Y-71979806D02*
X71077666Y-72173330D01*
X71077666Y-72173330D02*
X71126047Y-72270092D01*
X71126047Y-72270092D02*
X71174428Y-72318473D01*
X71174428Y-72318473D02*
X71271190Y-72366853D01*
X71271190Y-72366853D02*
X71367952Y-72366853D01*
X71367952Y-72366853D02*
X71464714Y-72318473D01*
X71464714Y-72318473D02*
X71513095Y-72270092D01*
X71513095Y-72270092D02*
X71561476Y-72173330D01*
X71561476Y-72173330D02*
X71609857Y-71979806D01*
X71609857Y-71979806D02*
X71609857Y-71737901D01*
X71609857Y-71737901D02*
X71561476Y-71544377D01*
X71561476Y-71544377D02*
X71513095Y-71447615D01*
X71513095Y-71447615D02*
X71464714Y-71399234D01*
X71464714Y-71399234D02*
X71367952Y-71350853D01*
X72275095Y-96750853D02*
X71694523Y-96750853D01*
X71984809Y-97766853D02*
X71984809Y-96750853D01*
X71452619Y-96750853D02*
X70775285Y-97766853D01*
X70775285Y-96750853D02*
X71452619Y-97766853D01*
X88506904Y-74374663D02*
X88168237Y-74374663D01*
X88023094Y-74906853D02*
X88506904Y-74906853D01*
X88506904Y-74906853D02*
X88506904Y-73890853D01*
X88506904Y-73890853D02*
X88023094Y-73890853D01*
X87587666Y-74906853D02*
X87587666Y-73890853D01*
X87587666Y-73890853D02*
X87007094Y-74906853D01*
X87007094Y-74906853D02*
X87007094Y-73890853D01*
X88482714Y-82272853D02*
X88482714Y-81256853D01*
X88482714Y-81256853D02*
X88240809Y-81256853D01*
X88240809Y-81256853D02*
X88095666Y-81305234D01*
X88095666Y-81305234D02*
X87998904Y-81401996D01*
X87998904Y-81401996D02*
X87950523Y-81498758D01*
X87950523Y-81498758D02*
X87902142Y-81692282D01*
X87902142Y-81692282D02*
X87902142Y-81837425D01*
X87902142Y-81837425D02*
X87950523Y-82030949D01*
X87950523Y-82030949D02*
X87998904Y-82127711D01*
X87998904Y-82127711D02*
X88095666Y-82224473D01*
X88095666Y-82224473D02*
X88240809Y-82272853D01*
X88240809Y-82272853D02*
X88482714Y-82272853D01*
X86934523Y-82272853D02*
X87515095Y-82272853D01*
X87224809Y-82272853D02*
X87224809Y-81256853D01*
X87224809Y-81256853D02*
X87321571Y-81401996D01*
X87321571Y-81401996D02*
X87418333Y-81498758D01*
X87418333Y-81498758D02*
X87515095Y-81547139D01*
X86547476Y-81353615D02*
X86499095Y-81305234D01*
X86499095Y-81305234D02*
X86402333Y-81256853D01*
X86402333Y-81256853D02*
X86160428Y-81256853D01*
X86160428Y-81256853D02*
X86063666Y-81305234D01*
X86063666Y-81305234D02*
X86015285Y-81353615D01*
X86015285Y-81353615D02*
X85966904Y-81450377D01*
X85966904Y-81450377D02*
X85966904Y-81547139D01*
X85966904Y-81547139D02*
X86015285Y-81692282D01*
X86015285Y-81692282D02*
X86595857Y-82272853D01*
X86595857Y-82272853D02*
X85966904Y-82272853D01*
X73315285Y-87558473D02*
X73170142Y-87606853D01*
X73170142Y-87606853D02*
X72928237Y-87606853D01*
X72928237Y-87606853D02*
X72831475Y-87558473D01*
X72831475Y-87558473D02*
X72783094Y-87510092D01*
X72783094Y-87510092D02*
X72734713Y-87413330D01*
X72734713Y-87413330D02*
X72734713Y-87316568D01*
X72734713Y-87316568D02*
X72783094Y-87219806D01*
X72783094Y-87219806D02*
X72831475Y-87171425D01*
X72831475Y-87171425D02*
X72928237Y-87123044D01*
X72928237Y-87123044D02*
X73121761Y-87074663D01*
X73121761Y-87074663D02*
X73218523Y-87026282D01*
X73218523Y-87026282D02*
X73266904Y-86977901D01*
X73266904Y-86977901D02*
X73315285Y-86881139D01*
X73315285Y-86881139D02*
X73315285Y-86784377D01*
X73315285Y-86784377D02*
X73266904Y-86687615D01*
X73266904Y-86687615D02*
X73218523Y-86639234D01*
X73218523Y-86639234D02*
X73121761Y-86590853D01*
X73121761Y-86590853D02*
X72879856Y-86590853D01*
X72879856Y-86590853D02*
X72734713Y-86639234D01*
X71718713Y-87510092D02*
X71767094Y-87558473D01*
X71767094Y-87558473D02*
X71912237Y-87606853D01*
X71912237Y-87606853D02*
X72008999Y-87606853D01*
X72008999Y-87606853D02*
X72154142Y-87558473D01*
X72154142Y-87558473D02*
X72250904Y-87461711D01*
X72250904Y-87461711D02*
X72299285Y-87364949D01*
X72299285Y-87364949D02*
X72347666Y-87171425D01*
X72347666Y-87171425D02*
X72347666Y-87026282D01*
X72347666Y-87026282D02*
X72299285Y-86832758D01*
X72299285Y-86832758D02*
X72250904Y-86735996D01*
X72250904Y-86735996D02*
X72154142Y-86639234D01*
X72154142Y-86639234D02*
X72008999Y-86590853D01*
X72008999Y-86590853D02*
X71912237Y-86590853D01*
X71912237Y-86590853D02*
X71767094Y-86639234D01*
X71767094Y-86639234D02*
X71718713Y-86687615D01*
X71283285Y-87606853D02*
X71283285Y-86590853D01*
X70702713Y-87606853D02*
X71138142Y-87026282D01*
X70702713Y-86590853D02*
X71283285Y-87171425D01*
X88482714Y-100258473D02*
X88337571Y-100306853D01*
X88337571Y-100306853D02*
X88095666Y-100306853D01*
X88095666Y-100306853D02*
X87998904Y-100258473D01*
X87998904Y-100258473D02*
X87950523Y-100210092D01*
X87950523Y-100210092D02*
X87902142Y-100113330D01*
X87902142Y-100113330D02*
X87902142Y-100016568D01*
X87902142Y-100016568D02*
X87950523Y-99919806D01*
X87950523Y-99919806D02*
X87998904Y-99871425D01*
X87998904Y-99871425D02*
X88095666Y-99823044D01*
X88095666Y-99823044D02*
X88289190Y-99774663D01*
X88289190Y-99774663D02*
X88385952Y-99726282D01*
X88385952Y-99726282D02*
X88434333Y-99677901D01*
X88434333Y-99677901D02*
X88482714Y-99581139D01*
X88482714Y-99581139D02*
X88482714Y-99484377D01*
X88482714Y-99484377D02*
X88434333Y-99387615D01*
X88434333Y-99387615D02*
X88385952Y-99339234D01*
X88385952Y-99339234D02*
X88289190Y-99290853D01*
X88289190Y-99290853D02*
X88047285Y-99290853D01*
X88047285Y-99290853D02*
X87902142Y-99339234D01*
X87466714Y-100306853D02*
X87466714Y-99290853D01*
X87466714Y-99290853D02*
X87224809Y-99290853D01*
X87224809Y-99290853D02*
X87079666Y-99339234D01*
X87079666Y-99339234D02*
X86982904Y-99435996D01*
X86982904Y-99435996D02*
X86934523Y-99532758D01*
X86934523Y-99532758D02*
X86886142Y-99726282D01*
X86886142Y-99726282D02*
X86886142Y-99871425D01*
X86886142Y-99871425D02*
X86934523Y-100064949D01*
X86934523Y-100064949D02*
X86982904Y-100161711D01*
X86982904Y-100161711D02*
X87079666Y-100258473D01*
X87079666Y-100258473D02*
X87224809Y-100306853D01*
X87224809Y-100306853D02*
X87466714Y-100306853D01*
X86499095Y-100016568D02*
X86015285Y-100016568D01*
X86595857Y-100306853D02*
X86257190Y-99290853D01*
X86257190Y-99290853D02*
X85918523Y-100306853D01*
X88482714Y-85066853D02*
X88482714Y-84050853D01*
X88482714Y-84050853D02*
X88240809Y-84050853D01*
X88240809Y-84050853D02*
X88095666Y-84099234D01*
X88095666Y-84099234D02*
X87998904Y-84195996D01*
X87998904Y-84195996D02*
X87950523Y-84292758D01*
X87950523Y-84292758D02*
X87902142Y-84486282D01*
X87902142Y-84486282D02*
X87902142Y-84631425D01*
X87902142Y-84631425D02*
X87950523Y-84824949D01*
X87950523Y-84824949D02*
X87998904Y-84921711D01*
X87998904Y-84921711D02*
X88095666Y-85018473D01*
X88095666Y-85018473D02*
X88240809Y-85066853D01*
X88240809Y-85066853D02*
X88482714Y-85066853D01*
X86934523Y-85066853D02*
X87515095Y-85066853D01*
X87224809Y-85066853D02*
X87224809Y-84050853D01*
X87224809Y-84050853D02*
X87321571Y-84195996D01*
X87321571Y-84195996D02*
X87418333Y-84292758D01*
X87418333Y-84292758D02*
X87515095Y-84341139D01*
X85966904Y-85066853D02*
X86547476Y-85066853D01*
X86257190Y-85066853D02*
X86257190Y-84050853D01*
X86257190Y-84050853D02*
X86353952Y-84195996D01*
X86353952Y-84195996D02*
X86450714Y-84292758D01*
X86450714Y-84292758D02*
X86547476Y-84341139D01*
X72565380Y-62206853D02*
X72904047Y-61723044D01*
X73145952Y-62206853D02*
X73145952Y-61190853D01*
X73145952Y-61190853D02*
X72758904Y-61190853D01*
X72758904Y-61190853D02*
X72662142Y-61239234D01*
X72662142Y-61239234D02*
X72613761Y-61287615D01*
X72613761Y-61287615D02*
X72565380Y-61384377D01*
X72565380Y-61384377D02*
X72565380Y-61529520D01*
X72565380Y-61529520D02*
X72613761Y-61626282D01*
X72613761Y-61626282D02*
X72662142Y-61674663D01*
X72662142Y-61674663D02*
X72758904Y-61723044D01*
X72758904Y-61723044D02*
X73145952Y-61723044D01*
X72178333Y-62158473D02*
X72033190Y-62206853D01*
X72033190Y-62206853D02*
X71791285Y-62206853D01*
X71791285Y-62206853D02*
X71694523Y-62158473D01*
X71694523Y-62158473D02*
X71646142Y-62110092D01*
X71646142Y-62110092D02*
X71597761Y-62013330D01*
X71597761Y-62013330D02*
X71597761Y-61916568D01*
X71597761Y-61916568D02*
X71646142Y-61819806D01*
X71646142Y-61819806D02*
X71694523Y-61771425D01*
X71694523Y-61771425D02*
X71791285Y-61723044D01*
X71791285Y-61723044D02*
X71984809Y-61674663D01*
X71984809Y-61674663D02*
X72081571Y-61626282D01*
X72081571Y-61626282D02*
X72129952Y-61577901D01*
X72129952Y-61577901D02*
X72178333Y-61481139D01*
X72178333Y-61481139D02*
X72178333Y-61384377D01*
X72178333Y-61384377D02*
X72129952Y-61287615D01*
X72129952Y-61287615D02*
X72081571Y-61239234D01*
X72081571Y-61239234D02*
X71984809Y-61190853D01*
X71984809Y-61190853D02*
X71742904Y-61190853D01*
X71742904Y-61190853D02*
X71597761Y-61239234D01*
X71307476Y-61190853D02*
X70726904Y-61190853D01*
X71017190Y-62206853D02*
X71017190Y-61190853D01*
X72480714Y-84776568D02*
X71996904Y-84776568D01*
X72577476Y-85066853D02*
X72238809Y-84050853D01*
X72238809Y-84050853D02*
X71900142Y-85066853D01*
X71077666Y-84050853D02*
X71561476Y-84050853D01*
X71561476Y-84050853D02*
X71609857Y-84534663D01*
X71609857Y-84534663D02*
X71561476Y-84486282D01*
X71561476Y-84486282D02*
X71464714Y-84437901D01*
X71464714Y-84437901D02*
X71222809Y-84437901D01*
X71222809Y-84437901D02*
X71126047Y-84486282D01*
X71126047Y-84486282D02*
X71077666Y-84534663D01*
X71077666Y-84534663D02*
X71029285Y-84631425D01*
X71029285Y-84631425D02*
X71029285Y-84873330D01*
X71029285Y-84873330D02*
X71077666Y-84970092D01*
X71077666Y-84970092D02*
X71126047Y-85018473D01*
X71126047Y-85018473D02*
X71222809Y-85066853D01*
X71222809Y-85066853D02*
X71464714Y-85066853D01*
X71464714Y-85066853D02*
X71561476Y-85018473D01*
X71561476Y-85018473D02*
X71609857Y-84970092D01*
X74113571Y-89892853D02*
X74113571Y-88876853D01*
X74113571Y-88876853D02*
X73774904Y-89602568D01*
X73774904Y-89602568D02*
X73436237Y-88876853D01*
X73436237Y-88876853D02*
X73436237Y-89892853D01*
X72758904Y-88876853D02*
X72565380Y-88876853D01*
X72565380Y-88876853D02*
X72468618Y-88925234D01*
X72468618Y-88925234D02*
X72371856Y-89021996D01*
X72371856Y-89021996D02*
X72323475Y-89215520D01*
X72323475Y-89215520D02*
X72323475Y-89554187D01*
X72323475Y-89554187D02*
X72371856Y-89747711D01*
X72371856Y-89747711D02*
X72468618Y-89844473D01*
X72468618Y-89844473D02*
X72565380Y-89892853D01*
X72565380Y-89892853D02*
X72758904Y-89892853D01*
X72758904Y-89892853D02*
X72855666Y-89844473D01*
X72855666Y-89844473D02*
X72952428Y-89747711D01*
X72952428Y-89747711D02*
X73000809Y-89554187D01*
X73000809Y-89554187D02*
X73000809Y-89215520D01*
X73000809Y-89215520D02*
X72952428Y-89021996D01*
X72952428Y-89021996D02*
X72855666Y-88925234D01*
X72855666Y-88925234D02*
X72758904Y-88876853D01*
X71936428Y-89844473D02*
X71791285Y-89892853D01*
X71791285Y-89892853D02*
X71549380Y-89892853D01*
X71549380Y-89892853D02*
X71452618Y-89844473D01*
X71452618Y-89844473D02*
X71404237Y-89796092D01*
X71404237Y-89796092D02*
X71355856Y-89699330D01*
X71355856Y-89699330D02*
X71355856Y-89602568D01*
X71355856Y-89602568D02*
X71404237Y-89505806D01*
X71404237Y-89505806D02*
X71452618Y-89457425D01*
X71452618Y-89457425D02*
X71549380Y-89409044D01*
X71549380Y-89409044D02*
X71742904Y-89360663D01*
X71742904Y-89360663D02*
X71839666Y-89312282D01*
X71839666Y-89312282D02*
X71888047Y-89263901D01*
X71888047Y-89263901D02*
X71936428Y-89167139D01*
X71936428Y-89167139D02*
X71936428Y-89070377D01*
X71936428Y-89070377D02*
X71888047Y-88973615D01*
X71888047Y-88973615D02*
X71839666Y-88925234D01*
X71839666Y-88925234D02*
X71742904Y-88876853D01*
X71742904Y-88876853D02*
X71500999Y-88876853D01*
X71500999Y-88876853D02*
X71355856Y-88925234D01*
X70920428Y-89892853D02*
X70920428Y-88876853D01*
X88506904Y-90146853D02*
X88506904Y-89130853D01*
X88506904Y-89130853D02*
X88264999Y-89130853D01*
X88264999Y-89130853D02*
X88119856Y-89179234D01*
X88119856Y-89179234D02*
X88023094Y-89275996D01*
X88023094Y-89275996D02*
X87974713Y-89372758D01*
X87974713Y-89372758D02*
X87926332Y-89566282D01*
X87926332Y-89566282D02*
X87926332Y-89711425D01*
X87926332Y-89711425D02*
X87974713Y-89904949D01*
X87974713Y-89904949D02*
X88023094Y-90001711D01*
X88023094Y-90001711D02*
X88119856Y-90098473D01*
X88119856Y-90098473D02*
X88264999Y-90146853D01*
X88264999Y-90146853D02*
X88506904Y-90146853D01*
X87442523Y-90146853D02*
X87248999Y-90146853D01*
X87248999Y-90146853D02*
X87152237Y-90098473D01*
X87152237Y-90098473D02*
X87103856Y-90050092D01*
X87103856Y-90050092D02*
X87007094Y-89904949D01*
X87007094Y-89904949D02*
X86958713Y-89711425D01*
X86958713Y-89711425D02*
X86958713Y-89324377D01*
X86958713Y-89324377D02*
X87007094Y-89227615D01*
X87007094Y-89227615D02*
X87055475Y-89179234D01*
X87055475Y-89179234D02*
X87152237Y-89130853D01*
X87152237Y-89130853D02*
X87345761Y-89130853D01*
X87345761Y-89130853D02*
X87442523Y-89179234D01*
X87442523Y-89179234D02*
X87490904Y-89227615D01*
X87490904Y-89227615D02*
X87539285Y-89324377D01*
X87539285Y-89324377D02*
X87539285Y-89566282D01*
X87539285Y-89566282D02*
X87490904Y-89663044D01*
X87490904Y-89663044D02*
X87442523Y-89711425D01*
X87442523Y-89711425D02*
X87345761Y-89759806D01*
X87345761Y-89759806D02*
X87152237Y-89759806D01*
X87152237Y-89759806D02*
X87055475Y-89711425D01*
X87055475Y-89711425D02*
X87007094Y-89663044D01*
X87007094Y-89663044D02*
X86958713Y-89566282D01*
X88458523Y-97718473D02*
X88313380Y-97766853D01*
X88313380Y-97766853D02*
X88071475Y-97766853D01*
X88071475Y-97766853D02*
X87974713Y-97718473D01*
X87974713Y-97718473D02*
X87926332Y-97670092D01*
X87926332Y-97670092D02*
X87877951Y-97573330D01*
X87877951Y-97573330D02*
X87877951Y-97476568D01*
X87877951Y-97476568D02*
X87926332Y-97379806D01*
X87926332Y-97379806D02*
X87974713Y-97331425D01*
X87974713Y-97331425D02*
X88071475Y-97283044D01*
X88071475Y-97283044D02*
X88264999Y-97234663D01*
X88264999Y-97234663D02*
X88361761Y-97186282D01*
X88361761Y-97186282D02*
X88410142Y-97137901D01*
X88410142Y-97137901D02*
X88458523Y-97041139D01*
X88458523Y-97041139D02*
X88458523Y-96944377D01*
X88458523Y-96944377D02*
X88410142Y-96847615D01*
X88410142Y-96847615D02*
X88361761Y-96799234D01*
X88361761Y-96799234D02*
X88264999Y-96750853D01*
X88264999Y-96750853D02*
X88023094Y-96750853D01*
X88023094Y-96750853D02*
X87877951Y-96799234D01*
X86861951Y-97670092D02*
X86910332Y-97718473D01*
X86910332Y-97718473D02*
X87055475Y-97766853D01*
X87055475Y-97766853D02*
X87152237Y-97766853D01*
X87152237Y-97766853D02*
X87297380Y-97718473D01*
X87297380Y-97718473D02*
X87394142Y-97621711D01*
X87394142Y-97621711D02*
X87442523Y-97524949D01*
X87442523Y-97524949D02*
X87490904Y-97331425D01*
X87490904Y-97331425D02*
X87490904Y-97186282D01*
X87490904Y-97186282D02*
X87442523Y-96992758D01*
X87442523Y-96992758D02*
X87394142Y-96895996D01*
X87394142Y-96895996D02*
X87297380Y-96799234D01*
X87297380Y-96799234D02*
X87152237Y-96750853D01*
X87152237Y-96750853D02*
X87055475Y-96750853D01*
X87055475Y-96750853D02*
X86910332Y-96799234D01*
X86910332Y-96799234D02*
X86861951Y-96847615D01*
X85942713Y-97766853D02*
X86426523Y-97766853D01*
X86426523Y-97766853D02*
X86426523Y-96750853D01*
X74113571Y-92686853D02*
X74113571Y-91670853D01*
X74113571Y-91670853D02*
X73774904Y-92396568D01*
X73774904Y-92396568D02*
X73436237Y-91670853D01*
X73436237Y-91670853D02*
X73436237Y-92686853D01*
X72952428Y-92686853D02*
X72952428Y-91670853D01*
X72516999Y-92638473D02*
X72371856Y-92686853D01*
X72371856Y-92686853D02*
X72129951Y-92686853D01*
X72129951Y-92686853D02*
X72033189Y-92638473D01*
X72033189Y-92638473D02*
X71984808Y-92590092D01*
X71984808Y-92590092D02*
X71936427Y-92493330D01*
X71936427Y-92493330D02*
X71936427Y-92396568D01*
X71936427Y-92396568D02*
X71984808Y-92299806D01*
X71984808Y-92299806D02*
X72033189Y-92251425D01*
X72033189Y-92251425D02*
X72129951Y-92203044D01*
X72129951Y-92203044D02*
X72323475Y-92154663D01*
X72323475Y-92154663D02*
X72420237Y-92106282D01*
X72420237Y-92106282D02*
X72468618Y-92057901D01*
X72468618Y-92057901D02*
X72516999Y-91961139D01*
X72516999Y-91961139D02*
X72516999Y-91864377D01*
X72516999Y-91864377D02*
X72468618Y-91767615D01*
X72468618Y-91767615D02*
X72420237Y-91719234D01*
X72420237Y-91719234D02*
X72323475Y-91670853D01*
X72323475Y-91670853D02*
X72081570Y-91670853D01*
X72081570Y-91670853D02*
X71936427Y-91719234D01*
X71307475Y-91670853D02*
X71113951Y-91670853D01*
X71113951Y-91670853D02*
X71017189Y-91719234D01*
X71017189Y-91719234D02*
X70920427Y-91815996D01*
X70920427Y-91815996D02*
X70872046Y-92009520D01*
X70872046Y-92009520D02*
X70872046Y-92348187D01*
X70872046Y-92348187D02*
X70920427Y-92541711D01*
X70920427Y-92541711D02*
X71017189Y-92638473D01*
X71017189Y-92638473D02*
X71113951Y-92686853D01*
X71113951Y-92686853D02*
X71307475Y-92686853D01*
X71307475Y-92686853D02*
X71404237Y-92638473D01*
X71404237Y-92638473D02*
X71500999Y-92541711D01*
X71500999Y-92541711D02*
X71549380Y-92348187D01*
X71549380Y-92348187D02*
X71549380Y-92009520D01*
X71549380Y-92009520D02*
X71500999Y-91815996D01*
X71500999Y-91815996D02*
X71404237Y-91719234D01*
X71404237Y-91719234D02*
X71307475Y-91670853D01*
X88506904Y-95099853D02*
X88506904Y-94083853D01*
X88506904Y-94083853D02*
X88264999Y-94083853D01*
X88264999Y-94083853D02*
X88119856Y-94132234D01*
X88119856Y-94132234D02*
X88023094Y-94228996D01*
X88023094Y-94228996D02*
X87974713Y-94325758D01*
X87974713Y-94325758D02*
X87926332Y-94519282D01*
X87926332Y-94519282D02*
X87926332Y-94664425D01*
X87926332Y-94664425D02*
X87974713Y-94857949D01*
X87974713Y-94857949D02*
X88023094Y-94954711D01*
X88023094Y-94954711D02*
X88119856Y-95051473D01*
X88119856Y-95051473D02*
X88264999Y-95099853D01*
X88264999Y-95099853D02*
X88506904Y-95099853D01*
X87007094Y-94083853D02*
X87490904Y-94083853D01*
X87490904Y-94083853D02*
X87539285Y-94567663D01*
X87539285Y-94567663D02*
X87490904Y-94519282D01*
X87490904Y-94519282D02*
X87394142Y-94470901D01*
X87394142Y-94470901D02*
X87152237Y-94470901D01*
X87152237Y-94470901D02*
X87055475Y-94519282D01*
X87055475Y-94519282D02*
X87007094Y-94567663D01*
X87007094Y-94567663D02*
X86958713Y-94664425D01*
X86958713Y-94664425D02*
X86958713Y-94906330D01*
X86958713Y-94906330D02*
X87007094Y-95003092D01*
X87007094Y-95003092D02*
X87055475Y-95051473D01*
X87055475Y-95051473D02*
X87152237Y-95099853D01*
X87152237Y-95099853D02*
X87394142Y-95099853D01*
X87394142Y-95099853D02*
X87490904Y-95051473D01*
X87490904Y-95051473D02*
X87539285Y-95003092D01*
X88482714Y-87606853D02*
X88482714Y-86590853D01*
X88482714Y-86590853D02*
X88240809Y-86590853D01*
X88240809Y-86590853D02*
X88095666Y-86639234D01*
X88095666Y-86639234D02*
X87998904Y-86735996D01*
X87998904Y-86735996D02*
X87950523Y-86832758D01*
X87950523Y-86832758D02*
X87902142Y-87026282D01*
X87902142Y-87026282D02*
X87902142Y-87171425D01*
X87902142Y-87171425D02*
X87950523Y-87364949D01*
X87950523Y-87364949D02*
X87998904Y-87461711D01*
X87998904Y-87461711D02*
X88095666Y-87558473D01*
X88095666Y-87558473D02*
X88240809Y-87606853D01*
X88240809Y-87606853D02*
X88482714Y-87606853D01*
X86934523Y-87606853D02*
X87515095Y-87606853D01*
X87224809Y-87606853D02*
X87224809Y-86590853D01*
X87224809Y-86590853D02*
X87321571Y-86735996D01*
X87321571Y-86735996D02*
X87418333Y-86832758D01*
X87418333Y-86832758D02*
X87515095Y-86881139D01*
X86305571Y-86590853D02*
X86208809Y-86590853D01*
X86208809Y-86590853D02*
X86112047Y-86639234D01*
X86112047Y-86639234D02*
X86063666Y-86687615D01*
X86063666Y-86687615D02*
X86015285Y-86784377D01*
X86015285Y-86784377D02*
X85966904Y-86977901D01*
X85966904Y-86977901D02*
X85966904Y-87219806D01*
X85966904Y-87219806D02*
X86015285Y-87413330D01*
X86015285Y-87413330D02*
X86063666Y-87510092D01*
X86063666Y-87510092D02*
X86112047Y-87558473D01*
X86112047Y-87558473D02*
X86208809Y-87606853D01*
X86208809Y-87606853D02*
X86305571Y-87606853D01*
X86305571Y-87606853D02*
X86402333Y-87558473D01*
X86402333Y-87558473D02*
X86450714Y-87510092D01*
X86450714Y-87510092D02*
X86499095Y-87413330D01*
X86499095Y-87413330D02*
X86547476Y-87219806D01*
X86547476Y-87219806D02*
X86547476Y-86977901D01*
X86547476Y-86977901D02*
X86499095Y-86784377D01*
X86499095Y-86784377D02*
X86450714Y-86687615D01*
X86450714Y-86687615D02*
X86402333Y-86639234D01*
X86402333Y-86639234D02*
X86305571Y-86590853D01*
X72480714Y-77156568D02*
X71996904Y-77156568D01*
X72577476Y-77446853D02*
X72238809Y-76430853D01*
X72238809Y-76430853D02*
X71900142Y-77446853D01*
X71609857Y-76527615D02*
X71561476Y-76479234D01*
X71561476Y-76479234D02*
X71464714Y-76430853D01*
X71464714Y-76430853D02*
X71222809Y-76430853D01*
X71222809Y-76430853D02*
X71126047Y-76479234D01*
X71126047Y-76479234D02*
X71077666Y-76527615D01*
X71077666Y-76527615D02*
X71029285Y-76624377D01*
X71029285Y-76624377D02*
X71029285Y-76721139D01*
X71029285Y-76721139D02*
X71077666Y-76866282D01*
X71077666Y-76866282D02*
X71658238Y-77446853D01*
X71658238Y-77446853D02*
X71029285Y-77446853D01*
X72529095Y-63730853D02*
X71900142Y-63730853D01*
X71900142Y-63730853D02*
X72238809Y-64117901D01*
X72238809Y-64117901D02*
X72093666Y-64117901D01*
X72093666Y-64117901D02*
X71996904Y-64166282D01*
X71996904Y-64166282D02*
X71948523Y-64214663D01*
X71948523Y-64214663D02*
X71900142Y-64311425D01*
X71900142Y-64311425D02*
X71900142Y-64553330D01*
X71900142Y-64553330D02*
X71948523Y-64650092D01*
X71948523Y-64650092D02*
X71996904Y-64698473D01*
X71996904Y-64698473D02*
X72093666Y-64746853D01*
X72093666Y-64746853D02*
X72383952Y-64746853D01*
X72383952Y-64746853D02*
X72480714Y-64698473D01*
X72480714Y-64698473D02*
X72529095Y-64650092D01*
X71609857Y-63730853D02*
X71271190Y-64746853D01*
X71271190Y-64746853D02*
X70932523Y-63730853D01*
X74161952Y-66996568D02*
X73678142Y-66996568D01*
X74258714Y-67286853D02*
X73920047Y-66270853D01*
X73920047Y-66270853D02*
X73581380Y-67286853D01*
X72662142Y-67286853D02*
X73000809Y-66803044D01*
X73242714Y-67286853D02*
X73242714Y-66270853D01*
X73242714Y-66270853D02*
X72855666Y-66270853D01*
X72855666Y-66270853D02*
X72758904Y-66319234D01*
X72758904Y-66319234D02*
X72710523Y-66367615D01*
X72710523Y-66367615D02*
X72662142Y-66464377D01*
X72662142Y-66464377D02*
X72662142Y-66609520D01*
X72662142Y-66609520D02*
X72710523Y-66706282D01*
X72710523Y-66706282D02*
X72758904Y-66754663D01*
X72758904Y-66754663D02*
X72855666Y-66803044D01*
X72855666Y-66803044D02*
X73242714Y-66803044D01*
X72226714Y-66754663D02*
X71888047Y-66754663D01*
X71742904Y-67286853D02*
X72226714Y-67286853D01*
X72226714Y-67286853D02*
X72226714Y-66270853D01*
X72226714Y-66270853D02*
X71742904Y-66270853D01*
X70968809Y-66754663D02*
X71307476Y-66754663D01*
X71307476Y-67286853D02*
X71307476Y-66270853D01*
X71307476Y-66270853D02*
X70823666Y-66270853D01*
X73037094Y-68859234D02*
X73133856Y-68810853D01*
X73133856Y-68810853D02*
X73278999Y-68810853D01*
X73278999Y-68810853D02*
X73424142Y-68859234D01*
X73424142Y-68859234D02*
X73520904Y-68955996D01*
X73520904Y-68955996D02*
X73569285Y-69052758D01*
X73569285Y-69052758D02*
X73617666Y-69246282D01*
X73617666Y-69246282D02*
X73617666Y-69391425D01*
X73617666Y-69391425D02*
X73569285Y-69584949D01*
X73569285Y-69584949D02*
X73520904Y-69681711D01*
X73520904Y-69681711D02*
X73424142Y-69778473D01*
X73424142Y-69778473D02*
X73278999Y-69826853D01*
X73278999Y-69826853D02*
X73182237Y-69826853D01*
X73182237Y-69826853D02*
X73037094Y-69778473D01*
X73037094Y-69778473D02*
X72988713Y-69730092D01*
X72988713Y-69730092D02*
X72988713Y-69391425D01*
X72988713Y-69391425D02*
X73182237Y-69391425D01*
X72553285Y-69826853D02*
X72553285Y-68810853D01*
X72553285Y-68810853D02*
X71972713Y-69826853D01*
X71972713Y-69826853D02*
X71972713Y-68810853D01*
X71488904Y-69826853D02*
X71488904Y-68810853D01*
X71488904Y-68810853D02*
X71246999Y-68810853D01*
X71246999Y-68810853D02*
X71101856Y-68859234D01*
X71101856Y-68859234D02*
X71005094Y-68955996D01*
X71005094Y-68955996D02*
X70956713Y-69052758D01*
X70956713Y-69052758D02*
X70908332Y-69246282D01*
X70908332Y-69246282D02*
X70908332Y-69391425D01*
X70908332Y-69391425D02*
X70956713Y-69584949D01*
X70956713Y-69584949D02*
X71005094Y-69681711D01*
X71005094Y-69681711D02*
X71101856Y-69778473D01*
X71101856Y-69778473D02*
X71246999Y-69826853D01*
X71246999Y-69826853D02*
X71488904Y-69826853D01*
X72480714Y-74616568D02*
X71996904Y-74616568D01*
X72577476Y-74906853D02*
X72238809Y-73890853D01*
X72238809Y-73890853D02*
X71900142Y-74906853D01*
X71029285Y-74906853D02*
X71609857Y-74906853D01*
X71319571Y-74906853D02*
X71319571Y-73890853D01*
X71319571Y-73890853D02*
X71416333Y-74035996D01*
X71416333Y-74035996D02*
X71513095Y-74132758D01*
X71513095Y-74132758D02*
X71609857Y-74181139D01*
X88531095Y-76430853D02*
X88531095Y-77253330D01*
X88531095Y-77253330D02*
X88482714Y-77350092D01*
X88482714Y-77350092D02*
X88434333Y-77398473D01*
X88434333Y-77398473D02*
X88337571Y-77446853D01*
X88337571Y-77446853D02*
X88144047Y-77446853D01*
X88144047Y-77446853D02*
X88047285Y-77398473D01*
X88047285Y-77398473D02*
X87998904Y-77350092D01*
X87998904Y-77350092D02*
X87950523Y-77253330D01*
X87950523Y-77253330D02*
X87950523Y-76430853D01*
X87515095Y-77398473D02*
X87369952Y-77446853D01*
X87369952Y-77446853D02*
X87128047Y-77446853D01*
X87128047Y-77446853D02*
X87031285Y-77398473D01*
X87031285Y-77398473D02*
X86982904Y-77350092D01*
X86982904Y-77350092D02*
X86934523Y-77253330D01*
X86934523Y-77253330D02*
X86934523Y-77156568D01*
X86934523Y-77156568D02*
X86982904Y-77059806D01*
X86982904Y-77059806D02*
X87031285Y-77011425D01*
X87031285Y-77011425D02*
X87128047Y-76963044D01*
X87128047Y-76963044D02*
X87321571Y-76914663D01*
X87321571Y-76914663D02*
X87418333Y-76866282D01*
X87418333Y-76866282D02*
X87466714Y-76817901D01*
X87466714Y-76817901D02*
X87515095Y-76721139D01*
X87515095Y-76721139D02*
X87515095Y-76624377D01*
X87515095Y-76624377D02*
X87466714Y-76527615D01*
X87466714Y-76527615D02*
X87418333Y-76479234D01*
X87418333Y-76479234D02*
X87321571Y-76430853D01*
X87321571Y-76430853D02*
X87079666Y-76430853D01*
X87079666Y-76430853D02*
X86934523Y-76479234D01*
X86160428Y-76914663D02*
X86015285Y-76963044D01*
X86015285Y-76963044D02*
X85966904Y-77011425D01*
X85966904Y-77011425D02*
X85918523Y-77108187D01*
X85918523Y-77108187D02*
X85918523Y-77253330D01*
X85918523Y-77253330D02*
X85966904Y-77350092D01*
X85966904Y-77350092D02*
X86015285Y-77398473D01*
X86015285Y-77398473D02*
X86112047Y-77446853D01*
X86112047Y-77446853D02*
X86499095Y-77446853D01*
X86499095Y-77446853D02*
X86499095Y-76430853D01*
X86499095Y-76430853D02*
X86160428Y-76430853D01*
X86160428Y-76430853D02*
X86063666Y-76479234D01*
X86063666Y-76479234D02*
X86015285Y-76527615D01*
X86015285Y-76527615D02*
X85966904Y-76624377D01*
X85966904Y-76624377D02*
X85966904Y-76721139D01*
X85966904Y-76721139D02*
X86015285Y-76817901D01*
X86015285Y-76817901D02*
X86063666Y-76866282D01*
X86063666Y-76866282D02*
X86160428Y-76914663D01*
X86160428Y-76914663D02*
X86499095Y-76914663D01*
X71670332Y-94972853D02*
X72008999Y-94489044D01*
X72250904Y-94972853D02*
X72250904Y-93956853D01*
X72250904Y-93956853D02*
X71863856Y-93956853D01*
X71863856Y-93956853D02*
X71767094Y-94005234D01*
X71767094Y-94005234D02*
X71718713Y-94053615D01*
X71718713Y-94053615D02*
X71670332Y-94150377D01*
X71670332Y-94150377D02*
X71670332Y-94295520D01*
X71670332Y-94295520D02*
X71718713Y-94392282D01*
X71718713Y-94392282D02*
X71767094Y-94440663D01*
X71767094Y-94440663D02*
X71863856Y-94489044D01*
X71863856Y-94489044D02*
X72250904Y-94489044D01*
X71331666Y-93956853D02*
X70654332Y-94972853D01*
X70654332Y-93956853D02*
X71331666Y-94972853D01*
X74331285Y-100306853D02*
X74331285Y-99290853D01*
X74331285Y-99290853D02*
X73750713Y-100306853D01*
X73750713Y-100306853D02*
X73750713Y-99290853D01*
X73073380Y-99290853D02*
X72879856Y-99290853D01*
X72879856Y-99290853D02*
X72783094Y-99339234D01*
X72783094Y-99339234D02*
X72686332Y-99435996D01*
X72686332Y-99435996D02*
X72637951Y-99629520D01*
X72637951Y-99629520D02*
X72637951Y-99968187D01*
X72637951Y-99968187D02*
X72686332Y-100161711D01*
X72686332Y-100161711D02*
X72783094Y-100258473D01*
X72783094Y-100258473D02*
X72879856Y-100306853D01*
X72879856Y-100306853D02*
X73073380Y-100306853D01*
X73073380Y-100306853D02*
X73170142Y-100258473D01*
X73170142Y-100258473D02*
X73266904Y-100161711D01*
X73266904Y-100161711D02*
X73315285Y-99968187D01*
X73315285Y-99968187D02*
X73315285Y-99629520D01*
X73315285Y-99629520D02*
X73266904Y-99435996D01*
X73266904Y-99435996D02*
X73170142Y-99339234D01*
X73170142Y-99339234D02*
X73073380Y-99290853D01*
X72250904Y-100258473D02*
X72105761Y-100306853D01*
X72105761Y-100306853D02*
X71863856Y-100306853D01*
X71863856Y-100306853D02*
X71767094Y-100258473D01*
X71767094Y-100258473D02*
X71718713Y-100210092D01*
X71718713Y-100210092D02*
X71670332Y-100113330D01*
X71670332Y-100113330D02*
X71670332Y-100016568D01*
X71670332Y-100016568D02*
X71718713Y-99919806D01*
X71718713Y-99919806D02*
X71767094Y-99871425D01*
X71767094Y-99871425D02*
X71863856Y-99823044D01*
X71863856Y-99823044D02*
X72057380Y-99774663D01*
X72057380Y-99774663D02*
X72154142Y-99726282D01*
X72154142Y-99726282D02*
X72202523Y-99677901D01*
X72202523Y-99677901D02*
X72250904Y-99581139D01*
X72250904Y-99581139D02*
X72250904Y-99484377D01*
X72250904Y-99484377D02*
X72202523Y-99387615D01*
X72202523Y-99387615D02*
X72154142Y-99339234D01*
X72154142Y-99339234D02*
X72057380Y-99290853D01*
X72057380Y-99290853D02*
X71815475Y-99290853D01*
X71815475Y-99290853D02*
X71670332Y-99339234D01*
X72480714Y-82236568D02*
X71996904Y-82236568D01*
X72577476Y-82526853D02*
X72238809Y-81510853D01*
X72238809Y-81510853D02*
X71900142Y-82526853D01*
X71126047Y-81849520D02*
X71126047Y-82526853D01*
X71367952Y-81462473D02*
X71609857Y-82188187D01*
X71609857Y-82188187D02*
X70980904Y-82188187D01*
X72480714Y-79696568D02*
X71996904Y-79696568D01*
X72577476Y-79986853D02*
X72238809Y-78970853D01*
X72238809Y-78970853D02*
X71900142Y-79986853D01*
X71658238Y-78970853D02*
X71029285Y-78970853D01*
X71029285Y-78970853D02*
X71367952Y-79357901D01*
X71367952Y-79357901D02*
X71222809Y-79357901D01*
X71222809Y-79357901D02*
X71126047Y-79406282D01*
X71126047Y-79406282D02*
X71077666Y-79454663D01*
X71077666Y-79454663D02*
X71029285Y-79551425D01*
X71029285Y-79551425D02*
X71029285Y-79793330D01*
X71029285Y-79793330D02*
X71077666Y-79890092D01*
X71077666Y-79890092D02*
X71126047Y-79938473D01*
X71126047Y-79938473D02*
X71222809Y-79986853D01*
X71222809Y-79986853D02*
X71513095Y-79986853D01*
X71513095Y-79986853D02*
X71609857Y-79938473D01*
X71609857Y-79938473D02*
X71658238Y-79890092D01*
X88506904Y-92686853D02*
X88506904Y-91670853D01*
X88506904Y-91670853D02*
X88264999Y-91670853D01*
X88264999Y-91670853D02*
X88119856Y-91719234D01*
X88119856Y-91719234D02*
X88023094Y-91815996D01*
X88023094Y-91815996D02*
X87974713Y-91912758D01*
X87974713Y-91912758D02*
X87926332Y-92106282D01*
X87926332Y-92106282D02*
X87926332Y-92251425D01*
X87926332Y-92251425D02*
X87974713Y-92444949D01*
X87974713Y-92444949D02*
X88023094Y-92541711D01*
X88023094Y-92541711D02*
X88119856Y-92638473D01*
X88119856Y-92638473D02*
X88264999Y-92686853D01*
X88264999Y-92686853D02*
X88506904Y-92686853D01*
X87055475Y-91670853D02*
X87248999Y-91670853D01*
X87248999Y-91670853D02*
X87345761Y-91719234D01*
X87345761Y-91719234D02*
X87394142Y-91767615D01*
X87394142Y-91767615D02*
X87490904Y-91912758D01*
X87490904Y-91912758D02*
X87539285Y-92106282D01*
X87539285Y-92106282D02*
X87539285Y-92493330D01*
X87539285Y-92493330D02*
X87490904Y-92590092D01*
X87490904Y-92590092D02*
X87442523Y-92638473D01*
X87442523Y-92638473D02*
X87345761Y-92686853D01*
X87345761Y-92686853D02*
X87152237Y-92686853D01*
X87152237Y-92686853D02*
X87055475Y-92638473D01*
X87055475Y-92638473D02*
X87007094Y-92590092D01*
X87007094Y-92590092D02*
X86958713Y-92493330D01*
X86958713Y-92493330D02*
X86958713Y-92251425D01*
X86958713Y-92251425D02*
X87007094Y-92154663D01*
X87007094Y-92154663D02*
X87055475Y-92106282D01*
X87055475Y-92106282D02*
X87152237Y-92057901D01*
X87152237Y-92057901D02*
X87345761Y-92057901D01*
X87345761Y-92057901D02*
X87442523Y-92106282D01*
X87442523Y-92106282D02*
X87490904Y-92154663D01*
X87490904Y-92154663D02*
X87539285Y-92251425D01*
X120740714Y-74616568D02*
X120256904Y-74616568D01*
X120837476Y-74906853D02*
X120498809Y-73890853D01*
X120498809Y-73890853D02*
X120160142Y-74906853D01*
X119289285Y-74906853D02*
X119869857Y-74906853D01*
X119579571Y-74906853D02*
X119579571Y-73890853D01*
X119579571Y-73890853D02*
X119676333Y-74035996D01*
X119676333Y-74035996D02*
X119773095Y-74132758D01*
X119773095Y-74132758D02*
X119869857Y-74181139D01*
X122373571Y-89892853D02*
X122373571Y-88876853D01*
X122373571Y-88876853D02*
X122034904Y-89602568D01*
X122034904Y-89602568D02*
X121696237Y-88876853D01*
X121696237Y-88876853D02*
X121696237Y-89892853D01*
X121018904Y-88876853D02*
X120825380Y-88876853D01*
X120825380Y-88876853D02*
X120728618Y-88925234D01*
X120728618Y-88925234D02*
X120631856Y-89021996D01*
X120631856Y-89021996D02*
X120583475Y-89215520D01*
X120583475Y-89215520D02*
X120583475Y-89554187D01*
X120583475Y-89554187D02*
X120631856Y-89747711D01*
X120631856Y-89747711D02*
X120728618Y-89844473D01*
X120728618Y-89844473D02*
X120825380Y-89892853D01*
X120825380Y-89892853D02*
X121018904Y-89892853D01*
X121018904Y-89892853D02*
X121115666Y-89844473D01*
X121115666Y-89844473D02*
X121212428Y-89747711D01*
X121212428Y-89747711D02*
X121260809Y-89554187D01*
X121260809Y-89554187D02*
X121260809Y-89215520D01*
X121260809Y-89215520D02*
X121212428Y-89021996D01*
X121212428Y-89021996D02*
X121115666Y-88925234D01*
X121115666Y-88925234D02*
X121018904Y-88876853D01*
X120196428Y-89844473D02*
X120051285Y-89892853D01*
X120051285Y-89892853D02*
X119809380Y-89892853D01*
X119809380Y-89892853D02*
X119712618Y-89844473D01*
X119712618Y-89844473D02*
X119664237Y-89796092D01*
X119664237Y-89796092D02*
X119615856Y-89699330D01*
X119615856Y-89699330D02*
X119615856Y-89602568D01*
X119615856Y-89602568D02*
X119664237Y-89505806D01*
X119664237Y-89505806D02*
X119712618Y-89457425D01*
X119712618Y-89457425D02*
X119809380Y-89409044D01*
X119809380Y-89409044D02*
X120002904Y-89360663D01*
X120002904Y-89360663D02*
X120099666Y-89312282D01*
X120099666Y-89312282D02*
X120148047Y-89263901D01*
X120148047Y-89263901D02*
X120196428Y-89167139D01*
X120196428Y-89167139D02*
X120196428Y-89070377D01*
X120196428Y-89070377D02*
X120148047Y-88973615D01*
X120148047Y-88973615D02*
X120099666Y-88925234D01*
X120099666Y-88925234D02*
X120002904Y-88876853D01*
X120002904Y-88876853D02*
X119760999Y-88876853D01*
X119760999Y-88876853D02*
X119615856Y-88925234D01*
X119180428Y-89892853D02*
X119180428Y-88876853D01*
X136258904Y-71834663D02*
X136113761Y-71883044D01*
X136113761Y-71883044D02*
X136065380Y-71931425D01*
X136065380Y-71931425D02*
X136016999Y-72028187D01*
X136016999Y-72028187D02*
X136016999Y-72173330D01*
X136016999Y-72173330D02*
X136065380Y-72270092D01*
X136065380Y-72270092D02*
X136113761Y-72318473D01*
X136113761Y-72318473D02*
X136210523Y-72366853D01*
X136210523Y-72366853D02*
X136597571Y-72366853D01*
X136597571Y-72366853D02*
X136597571Y-71350853D01*
X136597571Y-71350853D02*
X136258904Y-71350853D01*
X136258904Y-71350853D02*
X136162142Y-71399234D01*
X136162142Y-71399234D02*
X136113761Y-71447615D01*
X136113761Y-71447615D02*
X136065380Y-71544377D01*
X136065380Y-71544377D02*
X136065380Y-71641139D01*
X136065380Y-71641139D02*
X136113761Y-71737901D01*
X136113761Y-71737901D02*
X136162142Y-71786282D01*
X136162142Y-71786282D02*
X136258904Y-71834663D01*
X136258904Y-71834663D02*
X136597571Y-71834663D01*
X135629952Y-72076568D02*
X135146142Y-72076568D01*
X135726714Y-72366853D02*
X135388047Y-71350853D01*
X135388047Y-71350853D02*
X135049380Y-72366853D01*
X134855857Y-71350853D02*
X134275285Y-71350853D01*
X134565571Y-72366853D02*
X134565571Y-71350853D01*
X120535095Y-96750853D02*
X119954523Y-96750853D01*
X120244809Y-97766853D02*
X120244809Y-96750853D01*
X119712619Y-96750853D02*
X119035285Y-97766853D01*
X119035285Y-96750853D02*
X119712619Y-97766853D01*
X120740714Y-79696568D02*
X120256904Y-79696568D01*
X120837476Y-79986853D02*
X120498809Y-78970853D01*
X120498809Y-78970853D02*
X120160142Y-79986853D01*
X119918238Y-78970853D02*
X119289285Y-78970853D01*
X119289285Y-78970853D02*
X119627952Y-79357901D01*
X119627952Y-79357901D02*
X119482809Y-79357901D01*
X119482809Y-79357901D02*
X119386047Y-79406282D01*
X119386047Y-79406282D02*
X119337666Y-79454663D01*
X119337666Y-79454663D02*
X119289285Y-79551425D01*
X119289285Y-79551425D02*
X119289285Y-79793330D01*
X119289285Y-79793330D02*
X119337666Y-79890092D01*
X119337666Y-79890092D02*
X119386047Y-79938473D01*
X119386047Y-79938473D02*
X119482809Y-79986853D01*
X119482809Y-79986853D02*
X119773095Y-79986853D01*
X119773095Y-79986853D02*
X119869857Y-79938473D01*
X119869857Y-79938473D02*
X119918238Y-79890092D01*
X119930332Y-94972853D02*
X120268999Y-94489044D01*
X120510904Y-94972853D02*
X120510904Y-93956853D01*
X120510904Y-93956853D02*
X120123856Y-93956853D01*
X120123856Y-93956853D02*
X120027094Y-94005234D01*
X120027094Y-94005234D02*
X119978713Y-94053615D01*
X119978713Y-94053615D02*
X119930332Y-94150377D01*
X119930332Y-94150377D02*
X119930332Y-94295520D01*
X119930332Y-94295520D02*
X119978713Y-94392282D01*
X119978713Y-94392282D02*
X120027094Y-94440663D01*
X120027094Y-94440663D02*
X120123856Y-94489044D01*
X120123856Y-94489044D02*
X120510904Y-94489044D01*
X119591666Y-93956853D02*
X118914332Y-94972853D01*
X118914332Y-93956853D02*
X119591666Y-94972853D01*
X136766904Y-95099853D02*
X136766904Y-94083853D01*
X136766904Y-94083853D02*
X136524999Y-94083853D01*
X136524999Y-94083853D02*
X136379856Y-94132234D01*
X136379856Y-94132234D02*
X136283094Y-94228996D01*
X136283094Y-94228996D02*
X136234713Y-94325758D01*
X136234713Y-94325758D02*
X136186332Y-94519282D01*
X136186332Y-94519282D02*
X136186332Y-94664425D01*
X136186332Y-94664425D02*
X136234713Y-94857949D01*
X136234713Y-94857949D02*
X136283094Y-94954711D01*
X136283094Y-94954711D02*
X136379856Y-95051473D01*
X136379856Y-95051473D02*
X136524999Y-95099853D01*
X136524999Y-95099853D02*
X136766904Y-95099853D01*
X135267094Y-94083853D02*
X135750904Y-94083853D01*
X135750904Y-94083853D02*
X135799285Y-94567663D01*
X135799285Y-94567663D02*
X135750904Y-94519282D01*
X135750904Y-94519282D02*
X135654142Y-94470901D01*
X135654142Y-94470901D02*
X135412237Y-94470901D01*
X135412237Y-94470901D02*
X135315475Y-94519282D01*
X135315475Y-94519282D02*
X135267094Y-94567663D01*
X135267094Y-94567663D02*
X135218713Y-94664425D01*
X135218713Y-94664425D02*
X135218713Y-94906330D01*
X135218713Y-94906330D02*
X135267094Y-95003092D01*
X135267094Y-95003092D02*
X135315475Y-95051473D01*
X135315475Y-95051473D02*
X135412237Y-95099853D01*
X135412237Y-95099853D02*
X135654142Y-95099853D01*
X135654142Y-95099853D02*
X135750904Y-95051473D01*
X135750904Y-95051473D02*
X135799285Y-95003092D01*
X120740714Y-82236568D02*
X120256904Y-82236568D01*
X120837476Y-82526853D02*
X120498809Y-81510853D01*
X120498809Y-81510853D02*
X120160142Y-82526853D01*
X119386047Y-81849520D02*
X119386047Y-82526853D01*
X119627952Y-81462473D02*
X119869857Y-82188187D01*
X119869857Y-82188187D02*
X119240904Y-82188187D01*
X136718523Y-97718473D02*
X136573380Y-97766853D01*
X136573380Y-97766853D02*
X136331475Y-97766853D01*
X136331475Y-97766853D02*
X136234713Y-97718473D01*
X136234713Y-97718473D02*
X136186332Y-97670092D01*
X136186332Y-97670092D02*
X136137951Y-97573330D01*
X136137951Y-97573330D02*
X136137951Y-97476568D01*
X136137951Y-97476568D02*
X136186332Y-97379806D01*
X136186332Y-97379806D02*
X136234713Y-97331425D01*
X136234713Y-97331425D02*
X136331475Y-97283044D01*
X136331475Y-97283044D02*
X136524999Y-97234663D01*
X136524999Y-97234663D02*
X136621761Y-97186282D01*
X136621761Y-97186282D02*
X136670142Y-97137901D01*
X136670142Y-97137901D02*
X136718523Y-97041139D01*
X136718523Y-97041139D02*
X136718523Y-96944377D01*
X136718523Y-96944377D02*
X136670142Y-96847615D01*
X136670142Y-96847615D02*
X136621761Y-96799234D01*
X136621761Y-96799234D02*
X136524999Y-96750853D01*
X136524999Y-96750853D02*
X136283094Y-96750853D01*
X136283094Y-96750853D02*
X136137951Y-96799234D01*
X135121951Y-97670092D02*
X135170332Y-97718473D01*
X135170332Y-97718473D02*
X135315475Y-97766853D01*
X135315475Y-97766853D02*
X135412237Y-97766853D01*
X135412237Y-97766853D02*
X135557380Y-97718473D01*
X135557380Y-97718473D02*
X135654142Y-97621711D01*
X135654142Y-97621711D02*
X135702523Y-97524949D01*
X135702523Y-97524949D02*
X135750904Y-97331425D01*
X135750904Y-97331425D02*
X135750904Y-97186282D01*
X135750904Y-97186282D02*
X135702523Y-96992758D01*
X135702523Y-96992758D02*
X135654142Y-96895996D01*
X135654142Y-96895996D02*
X135557380Y-96799234D01*
X135557380Y-96799234D02*
X135412237Y-96750853D01*
X135412237Y-96750853D02*
X135315475Y-96750853D01*
X135315475Y-96750853D02*
X135170332Y-96799234D01*
X135170332Y-96799234D02*
X135121951Y-96847615D01*
X134202713Y-97766853D02*
X134686523Y-97766853D01*
X134686523Y-97766853D02*
X134686523Y-96750853D01*
X122421952Y-66996568D02*
X121938142Y-66996568D01*
X122518714Y-67286853D02*
X122180047Y-66270853D01*
X122180047Y-66270853D02*
X121841380Y-67286853D01*
X120922142Y-67286853D02*
X121260809Y-66803044D01*
X121502714Y-67286853D02*
X121502714Y-66270853D01*
X121502714Y-66270853D02*
X121115666Y-66270853D01*
X121115666Y-66270853D02*
X121018904Y-66319234D01*
X121018904Y-66319234D02*
X120970523Y-66367615D01*
X120970523Y-66367615D02*
X120922142Y-66464377D01*
X120922142Y-66464377D02*
X120922142Y-66609520D01*
X120922142Y-66609520D02*
X120970523Y-66706282D01*
X120970523Y-66706282D02*
X121018904Y-66754663D01*
X121018904Y-66754663D02*
X121115666Y-66803044D01*
X121115666Y-66803044D02*
X121502714Y-66803044D01*
X120486714Y-66754663D02*
X120148047Y-66754663D01*
X120002904Y-67286853D02*
X120486714Y-67286853D01*
X120486714Y-67286853D02*
X120486714Y-66270853D01*
X120486714Y-66270853D02*
X120002904Y-66270853D01*
X119228809Y-66754663D02*
X119567476Y-66754663D01*
X119567476Y-67286853D02*
X119567476Y-66270853D01*
X119567476Y-66270853D02*
X119083666Y-66270853D01*
X136742714Y-82272853D02*
X136742714Y-81256853D01*
X136742714Y-81256853D02*
X136500809Y-81256853D01*
X136500809Y-81256853D02*
X136355666Y-81305234D01*
X136355666Y-81305234D02*
X136258904Y-81401996D01*
X136258904Y-81401996D02*
X136210523Y-81498758D01*
X136210523Y-81498758D02*
X136162142Y-81692282D01*
X136162142Y-81692282D02*
X136162142Y-81837425D01*
X136162142Y-81837425D02*
X136210523Y-82030949D01*
X136210523Y-82030949D02*
X136258904Y-82127711D01*
X136258904Y-82127711D02*
X136355666Y-82224473D01*
X136355666Y-82224473D02*
X136500809Y-82272853D01*
X136500809Y-82272853D02*
X136742714Y-82272853D01*
X135194523Y-82272853D02*
X135775095Y-82272853D01*
X135484809Y-82272853D02*
X135484809Y-81256853D01*
X135484809Y-81256853D02*
X135581571Y-81401996D01*
X135581571Y-81401996D02*
X135678333Y-81498758D01*
X135678333Y-81498758D02*
X135775095Y-81547139D01*
X134807476Y-81353615D02*
X134759095Y-81305234D01*
X134759095Y-81305234D02*
X134662333Y-81256853D01*
X134662333Y-81256853D02*
X134420428Y-81256853D01*
X134420428Y-81256853D02*
X134323666Y-81305234D01*
X134323666Y-81305234D02*
X134275285Y-81353615D01*
X134275285Y-81353615D02*
X134226904Y-81450377D01*
X134226904Y-81450377D02*
X134226904Y-81547139D01*
X134226904Y-81547139D02*
X134275285Y-81692282D01*
X134275285Y-81692282D02*
X134855857Y-82272853D01*
X134855857Y-82272853D02*
X134226904Y-82272853D01*
X136791095Y-76430853D02*
X136791095Y-77253330D01*
X136791095Y-77253330D02*
X136742714Y-77350092D01*
X136742714Y-77350092D02*
X136694333Y-77398473D01*
X136694333Y-77398473D02*
X136597571Y-77446853D01*
X136597571Y-77446853D02*
X136404047Y-77446853D01*
X136404047Y-77446853D02*
X136307285Y-77398473D01*
X136307285Y-77398473D02*
X136258904Y-77350092D01*
X136258904Y-77350092D02*
X136210523Y-77253330D01*
X136210523Y-77253330D02*
X136210523Y-76430853D01*
X135775095Y-77398473D02*
X135629952Y-77446853D01*
X135629952Y-77446853D02*
X135388047Y-77446853D01*
X135388047Y-77446853D02*
X135291285Y-77398473D01*
X135291285Y-77398473D02*
X135242904Y-77350092D01*
X135242904Y-77350092D02*
X135194523Y-77253330D01*
X135194523Y-77253330D02*
X135194523Y-77156568D01*
X135194523Y-77156568D02*
X135242904Y-77059806D01*
X135242904Y-77059806D02*
X135291285Y-77011425D01*
X135291285Y-77011425D02*
X135388047Y-76963044D01*
X135388047Y-76963044D02*
X135581571Y-76914663D01*
X135581571Y-76914663D02*
X135678333Y-76866282D01*
X135678333Y-76866282D02*
X135726714Y-76817901D01*
X135726714Y-76817901D02*
X135775095Y-76721139D01*
X135775095Y-76721139D02*
X135775095Y-76624377D01*
X135775095Y-76624377D02*
X135726714Y-76527615D01*
X135726714Y-76527615D02*
X135678333Y-76479234D01*
X135678333Y-76479234D02*
X135581571Y-76430853D01*
X135581571Y-76430853D02*
X135339666Y-76430853D01*
X135339666Y-76430853D02*
X135194523Y-76479234D01*
X134420428Y-76914663D02*
X134275285Y-76963044D01*
X134275285Y-76963044D02*
X134226904Y-77011425D01*
X134226904Y-77011425D02*
X134178523Y-77108187D01*
X134178523Y-77108187D02*
X134178523Y-77253330D01*
X134178523Y-77253330D02*
X134226904Y-77350092D01*
X134226904Y-77350092D02*
X134275285Y-77398473D01*
X134275285Y-77398473D02*
X134372047Y-77446853D01*
X134372047Y-77446853D02*
X134759095Y-77446853D01*
X134759095Y-77446853D02*
X134759095Y-76430853D01*
X134759095Y-76430853D02*
X134420428Y-76430853D01*
X134420428Y-76430853D02*
X134323666Y-76479234D01*
X134323666Y-76479234D02*
X134275285Y-76527615D01*
X134275285Y-76527615D02*
X134226904Y-76624377D01*
X134226904Y-76624377D02*
X134226904Y-76721139D01*
X134226904Y-76721139D02*
X134275285Y-76817901D01*
X134275285Y-76817901D02*
X134323666Y-76866282D01*
X134323666Y-76866282D02*
X134420428Y-76914663D01*
X134420428Y-76914663D02*
X134759095Y-76914663D01*
X120740714Y-72076568D02*
X120256904Y-72076568D01*
X120837476Y-72366853D02*
X120498809Y-71350853D01*
X120498809Y-71350853D02*
X120160142Y-72366853D01*
X119627952Y-71350853D02*
X119531190Y-71350853D01*
X119531190Y-71350853D02*
X119434428Y-71399234D01*
X119434428Y-71399234D02*
X119386047Y-71447615D01*
X119386047Y-71447615D02*
X119337666Y-71544377D01*
X119337666Y-71544377D02*
X119289285Y-71737901D01*
X119289285Y-71737901D02*
X119289285Y-71979806D01*
X119289285Y-71979806D02*
X119337666Y-72173330D01*
X119337666Y-72173330D02*
X119386047Y-72270092D01*
X119386047Y-72270092D02*
X119434428Y-72318473D01*
X119434428Y-72318473D02*
X119531190Y-72366853D01*
X119531190Y-72366853D02*
X119627952Y-72366853D01*
X119627952Y-72366853D02*
X119724714Y-72318473D01*
X119724714Y-72318473D02*
X119773095Y-72270092D01*
X119773095Y-72270092D02*
X119821476Y-72173330D01*
X119821476Y-72173330D02*
X119869857Y-71979806D01*
X119869857Y-71979806D02*
X119869857Y-71737901D01*
X119869857Y-71737901D02*
X119821476Y-71544377D01*
X119821476Y-71544377D02*
X119773095Y-71447615D01*
X119773095Y-71447615D02*
X119724714Y-71399234D01*
X119724714Y-71399234D02*
X119627952Y-71350853D01*
X122591285Y-100306853D02*
X122591285Y-99290853D01*
X122591285Y-99290853D02*
X122010713Y-100306853D01*
X122010713Y-100306853D02*
X122010713Y-99290853D01*
X121333380Y-99290853D02*
X121139856Y-99290853D01*
X121139856Y-99290853D02*
X121043094Y-99339234D01*
X121043094Y-99339234D02*
X120946332Y-99435996D01*
X120946332Y-99435996D02*
X120897951Y-99629520D01*
X120897951Y-99629520D02*
X120897951Y-99968187D01*
X120897951Y-99968187D02*
X120946332Y-100161711D01*
X120946332Y-100161711D02*
X121043094Y-100258473D01*
X121043094Y-100258473D02*
X121139856Y-100306853D01*
X121139856Y-100306853D02*
X121333380Y-100306853D01*
X121333380Y-100306853D02*
X121430142Y-100258473D01*
X121430142Y-100258473D02*
X121526904Y-100161711D01*
X121526904Y-100161711D02*
X121575285Y-99968187D01*
X121575285Y-99968187D02*
X121575285Y-99629520D01*
X121575285Y-99629520D02*
X121526904Y-99435996D01*
X121526904Y-99435996D02*
X121430142Y-99339234D01*
X121430142Y-99339234D02*
X121333380Y-99290853D01*
X120510904Y-100258473D02*
X120365761Y-100306853D01*
X120365761Y-100306853D02*
X120123856Y-100306853D01*
X120123856Y-100306853D02*
X120027094Y-100258473D01*
X120027094Y-100258473D02*
X119978713Y-100210092D01*
X119978713Y-100210092D02*
X119930332Y-100113330D01*
X119930332Y-100113330D02*
X119930332Y-100016568D01*
X119930332Y-100016568D02*
X119978713Y-99919806D01*
X119978713Y-99919806D02*
X120027094Y-99871425D01*
X120027094Y-99871425D02*
X120123856Y-99823044D01*
X120123856Y-99823044D02*
X120317380Y-99774663D01*
X120317380Y-99774663D02*
X120414142Y-99726282D01*
X120414142Y-99726282D02*
X120462523Y-99677901D01*
X120462523Y-99677901D02*
X120510904Y-99581139D01*
X120510904Y-99581139D02*
X120510904Y-99484377D01*
X120510904Y-99484377D02*
X120462523Y-99387615D01*
X120462523Y-99387615D02*
X120414142Y-99339234D01*
X120414142Y-99339234D02*
X120317380Y-99290853D01*
X120317380Y-99290853D02*
X120075475Y-99290853D01*
X120075475Y-99290853D02*
X119930332Y-99339234D01*
X121575285Y-87558473D02*
X121430142Y-87606853D01*
X121430142Y-87606853D02*
X121188237Y-87606853D01*
X121188237Y-87606853D02*
X121091475Y-87558473D01*
X121091475Y-87558473D02*
X121043094Y-87510092D01*
X121043094Y-87510092D02*
X120994713Y-87413330D01*
X120994713Y-87413330D02*
X120994713Y-87316568D01*
X120994713Y-87316568D02*
X121043094Y-87219806D01*
X121043094Y-87219806D02*
X121091475Y-87171425D01*
X121091475Y-87171425D02*
X121188237Y-87123044D01*
X121188237Y-87123044D02*
X121381761Y-87074663D01*
X121381761Y-87074663D02*
X121478523Y-87026282D01*
X121478523Y-87026282D02*
X121526904Y-86977901D01*
X121526904Y-86977901D02*
X121575285Y-86881139D01*
X121575285Y-86881139D02*
X121575285Y-86784377D01*
X121575285Y-86784377D02*
X121526904Y-86687615D01*
X121526904Y-86687615D02*
X121478523Y-86639234D01*
X121478523Y-86639234D02*
X121381761Y-86590853D01*
X121381761Y-86590853D02*
X121139856Y-86590853D01*
X121139856Y-86590853D02*
X120994713Y-86639234D01*
X119978713Y-87510092D02*
X120027094Y-87558473D01*
X120027094Y-87558473D02*
X120172237Y-87606853D01*
X120172237Y-87606853D02*
X120268999Y-87606853D01*
X120268999Y-87606853D02*
X120414142Y-87558473D01*
X120414142Y-87558473D02*
X120510904Y-87461711D01*
X120510904Y-87461711D02*
X120559285Y-87364949D01*
X120559285Y-87364949D02*
X120607666Y-87171425D01*
X120607666Y-87171425D02*
X120607666Y-87026282D01*
X120607666Y-87026282D02*
X120559285Y-86832758D01*
X120559285Y-86832758D02*
X120510904Y-86735996D01*
X120510904Y-86735996D02*
X120414142Y-86639234D01*
X120414142Y-86639234D02*
X120268999Y-86590853D01*
X120268999Y-86590853D02*
X120172237Y-86590853D01*
X120172237Y-86590853D02*
X120027094Y-86639234D01*
X120027094Y-86639234D02*
X119978713Y-86687615D01*
X119543285Y-87606853D02*
X119543285Y-86590853D01*
X118962713Y-87606853D02*
X119398142Y-87026282D01*
X118962713Y-86590853D02*
X119543285Y-87171425D01*
X122373571Y-92686853D02*
X122373571Y-91670853D01*
X122373571Y-91670853D02*
X122034904Y-92396568D01*
X122034904Y-92396568D02*
X121696237Y-91670853D01*
X121696237Y-91670853D02*
X121696237Y-92686853D01*
X121212428Y-92686853D02*
X121212428Y-91670853D01*
X120776999Y-92638473D02*
X120631856Y-92686853D01*
X120631856Y-92686853D02*
X120389951Y-92686853D01*
X120389951Y-92686853D02*
X120293189Y-92638473D01*
X120293189Y-92638473D02*
X120244808Y-92590092D01*
X120244808Y-92590092D02*
X120196427Y-92493330D01*
X120196427Y-92493330D02*
X120196427Y-92396568D01*
X120196427Y-92396568D02*
X120244808Y-92299806D01*
X120244808Y-92299806D02*
X120293189Y-92251425D01*
X120293189Y-92251425D02*
X120389951Y-92203044D01*
X120389951Y-92203044D02*
X120583475Y-92154663D01*
X120583475Y-92154663D02*
X120680237Y-92106282D01*
X120680237Y-92106282D02*
X120728618Y-92057901D01*
X120728618Y-92057901D02*
X120776999Y-91961139D01*
X120776999Y-91961139D02*
X120776999Y-91864377D01*
X120776999Y-91864377D02*
X120728618Y-91767615D01*
X120728618Y-91767615D02*
X120680237Y-91719234D01*
X120680237Y-91719234D02*
X120583475Y-91670853D01*
X120583475Y-91670853D02*
X120341570Y-91670853D01*
X120341570Y-91670853D02*
X120196427Y-91719234D01*
X119567475Y-91670853D02*
X119373951Y-91670853D01*
X119373951Y-91670853D02*
X119277189Y-91719234D01*
X119277189Y-91719234D02*
X119180427Y-91815996D01*
X119180427Y-91815996D02*
X119132046Y-92009520D01*
X119132046Y-92009520D02*
X119132046Y-92348187D01*
X119132046Y-92348187D02*
X119180427Y-92541711D01*
X119180427Y-92541711D02*
X119277189Y-92638473D01*
X119277189Y-92638473D02*
X119373951Y-92686853D01*
X119373951Y-92686853D02*
X119567475Y-92686853D01*
X119567475Y-92686853D02*
X119664237Y-92638473D01*
X119664237Y-92638473D02*
X119760999Y-92541711D01*
X119760999Y-92541711D02*
X119809380Y-92348187D01*
X119809380Y-92348187D02*
X119809380Y-92009520D01*
X119809380Y-92009520D02*
X119760999Y-91815996D01*
X119760999Y-91815996D02*
X119664237Y-91719234D01*
X119664237Y-91719234D02*
X119567475Y-91670853D01*
X136766904Y-90146853D02*
X136766904Y-89130853D01*
X136766904Y-89130853D02*
X136524999Y-89130853D01*
X136524999Y-89130853D02*
X136379856Y-89179234D01*
X136379856Y-89179234D02*
X136283094Y-89275996D01*
X136283094Y-89275996D02*
X136234713Y-89372758D01*
X136234713Y-89372758D02*
X136186332Y-89566282D01*
X136186332Y-89566282D02*
X136186332Y-89711425D01*
X136186332Y-89711425D02*
X136234713Y-89904949D01*
X136234713Y-89904949D02*
X136283094Y-90001711D01*
X136283094Y-90001711D02*
X136379856Y-90098473D01*
X136379856Y-90098473D02*
X136524999Y-90146853D01*
X136524999Y-90146853D02*
X136766904Y-90146853D01*
X135702523Y-90146853D02*
X135508999Y-90146853D01*
X135508999Y-90146853D02*
X135412237Y-90098473D01*
X135412237Y-90098473D02*
X135363856Y-90050092D01*
X135363856Y-90050092D02*
X135267094Y-89904949D01*
X135267094Y-89904949D02*
X135218713Y-89711425D01*
X135218713Y-89711425D02*
X135218713Y-89324377D01*
X135218713Y-89324377D02*
X135267094Y-89227615D01*
X135267094Y-89227615D02*
X135315475Y-89179234D01*
X135315475Y-89179234D02*
X135412237Y-89130853D01*
X135412237Y-89130853D02*
X135605761Y-89130853D01*
X135605761Y-89130853D02*
X135702523Y-89179234D01*
X135702523Y-89179234D02*
X135750904Y-89227615D01*
X135750904Y-89227615D02*
X135799285Y-89324377D01*
X135799285Y-89324377D02*
X135799285Y-89566282D01*
X135799285Y-89566282D02*
X135750904Y-89663044D01*
X135750904Y-89663044D02*
X135702523Y-89711425D01*
X135702523Y-89711425D02*
X135605761Y-89759806D01*
X135605761Y-89759806D02*
X135412237Y-89759806D01*
X135412237Y-89759806D02*
X135315475Y-89711425D01*
X135315475Y-89711425D02*
X135267094Y-89663044D01*
X135267094Y-89663044D02*
X135218713Y-89566282D01*
X136742714Y-100258473D02*
X136597571Y-100306853D01*
X136597571Y-100306853D02*
X136355666Y-100306853D01*
X136355666Y-100306853D02*
X136258904Y-100258473D01*
X136258904Y-100258473D02*
X136210523Y-100210092D01*
X136210523Y-100210092D02*
X136162142Y-100113330D01*
X136162142Y-100113330D02*
X136162142Y-100016568D01*
X136162142Y-100016568D02*
X136210523Y-99919806D01*
X136210523Y-99919806D02*
X136258904Y-99871425D01*
X136258904Y-99871425D02*
X136355666Y-99823044D01*
X136355666Y-99823044D02*
X136549190Y-99774663D01*
X136549190Y-99774663D02*
X136645952Y-99726282D01*
X136645952Y-99726282D02*
X136694333Y-99677901D01*
X136694333Y-99677901D02*
X136742714Y-99581139D01*
X136742714Y-99581139D02*
X136742714Y-99484377D01*
X136742714Y-99484377D02*
X136694333Y-99387615D01*
X136694333Y-99387615D02*
X136645952Y-99339234D01*
X136645952Y-99339234D02*
X136549190Y-99290853D01*
X136549190Y-99290853D02*
X136307285Y-99290853D01*
X136307285Y-99290853D02*
X136162142Y-99339234D01*
X135726714Y-100306853D02*
X135726714Y-99290853D01*
X135726714Y-99290853D02*
X135484809Y-99290853D01*
X135484809Y-99290853D02*
X135339666Y-99339234D01*
X135339666Y-99339234D02*
X135242904Y-99435996D01*
X135242904Y-99435996D02*
X135194523Y-99532758D01*
X135194523Y-99532758D02*
X135146142Y-99726282D01*
X135146142Y-99726282D02*
X135146142Y-99871425D01*
X135146142Y-99871425D02*
X135194523Y-100064949D01*
X135194523Y-100064949D02*
X135242904Y-100161711D01*
X135242904Y-100161711D02*
X135339666Y-100258473D01*
X135339666Y-100258473D02*
X135484809Y-100306853D01*
X135484809Y-100306853D02*
X135726714Y-100306853D01*
X134759095Y-100016568D02*
X134275285Y-100016568D01*
X134855857Y-100306853D02*
X134517190Y-99290853D01*
X134517190Y-99290853D02*
X134178523Y-100306853D01*
X121297094Y-68859234D02*
X121393856Y-68810853D01*
X121393856Y-68810853D02*
X121538999Y-68810853D01*
X121538999Y-68810853D02*
X121684142Y-68859234D01*
X121684142Y-68859234D02*
X121780904Y-68955996D01*
X121780904Y-68955996D02*
X121829285Y-69052758D01*
X121829285Y-69052758D02*
X121877666Y-69246282D01*
X121877666Y-69246282D02*
X121877666Y-69391425D01*
X121877666Y-69391425D02*
X121829285Y-69584949D01*
X121829285Y-69584949D02*
X121780904Y-69681711D01*
X121780904Y-69681711D02*
X121684142Y-69778473D01*
X121684142Y-69778473D02*
X121538999Y-69826853D01*
X121538999Y-69826853D02*
X121442237Y-69826853D01*
X121442237Y-69826853D02*
X121297094Y-69778473D01*
X121297094Y-69778473D02*
X121248713Y-69730092D01*
X121248713Y-69730092D02*
X121248713Y-69391425D01*
X121248713Y-69391425D02*
X121442237Y-69391425D01*
X120813285Y-69826853D02*
X120813285Y-68810853D01*
X120813285Y-68810853D02*
X120232713Y-69826853D01*
X120232713Y-69826853D02*
X120232713Y-68810853D01*
X119748904Y-69826853D02*
X119748904Y-68810853D01*
X119748904Y-68810853D02*
X119506999Y-68810853D01*
X119506999Y-68810853D02*
X119361856Y-68859234D01*
X119361856Y-68859234D02*
X119265094Y-68955996D01*
X119265094Y-68955996D02*
X119216713Y-69052758D01*
X119216713Y-69052758D02*
X119168332Y-69246282D01*
X119168332Y-69246282D02*
X119168332Y-69391425D01*
X119168332Y-69391425D02*
X119216713Y-69584949D01*
X119216713Y-69584949D02*
X119265094Y-69681711D01*
X119265094Y-69681711D02*
X119361856Y-69778473D01*
X119361856Y-69778473D02*
X119506999Y-69826853D01*
X119506999Y-69826853D02*
X119748904Y-69826853D01*
X136742714Y-85066853D02*
X136742714Y-84050853D01*
X136742714Y-84050853D02*
X136500809Y-84050853D01*
X136500809Y-84050853D02*
X136355666Y-84099234D01*
X136355666Y-84099234D02*
X136258904Y-84195996D01*
X136258904Y-84195996D02*
X136210523Y-84292758D01*
X136210523Y-84292758D02*
X136162142Y-84486282D01*
X136162142Y-84486282D02*
X136162142Y-84631425D01*
X136162142Y-84631425D02*
X136210523Y-84824949D01*
X136210523Y-84824949D02*
X136258904Y-84921711D01*
X136258904Y-84921711D02*
X136355666Y-85018473D01*
X136355666Y-85018473D02*
X136500809Y-85066853D01*
X136500809Y-85066853D02*
X136742714Y-85066853D01*
X135194523Y-85066853D02*
X135775095Y-85066853D01*
X135484809Y-85066853D02*
X135484809Y-84050853D01*
X135484809Y-84050853D02*
X135581571Y-84195996D01*
X135581571Y-84195996D02*
X135678333Y-84292758D01*
X135678333Y-84292758D02*
X135775095Y-84341139D01*
X134226904Y-85066853D02*
X134807476Y-85066853D01*
X134517190Y-85066853D02*
X134517190Y-84050853D01*
X134517190Y-84050853D02*
X134613952Y-84195996D01*
X134613952Y-84195996D02*
X134710714Y-84292758D01*
X134710714Y-84292758D02*
X134807476Y-84341139D01*
X120740714Y-77156568D02*
X120256904Y-77156568D01*
X120837476Y-77446853D02*
X120498809Y-76430853D01*
X120498809Y-76430853D02*
X120160142Y-77446853D01*
X119869857Y-76527615D02*
X119821476Y-76479234D01*
X119821476Y-76479234D02*
X119724714Y-76430853D01*
X119724714Y-76430853D02*
X119482809Y-76430853D01*
X119482809Y-76430853D02*
X119386047Y-76479234D01*
X119386047Y-76479234D02*
X119337666Y-76527615D01*
X119337666Y-76527615D02*
X119289285Y-76624377D01*
X119289285Y-76624377D02*
X119289285Y-76721139D01*
X119289285Y-76721139D02*
X119337666Y-76866282D01*
X119337666Y-76866282D02*
X119918238Y-77446853D01*
X119918238Y-77446853D02*
X119289285Y-77446853D01*
X136766904Y-92686853D02*
X136766904Y-91670853D01*
X136766904Y-91670853D02*
X136524999Y-91670853D01*
X136524999Y-91670853D02*
X136379856Y-91719234D01*
X136379856Y-91719234D02*
X136283094Y-91815996D01*
X136283094Y-91815996D02*
X136234713Y-91912758D01*
X136234713Y-91912758D02*
X136186332Y-92106282D01*
X136186332Y-92106282D02*
X136186332Y-92251425D01*
X136186332Y-92251425D02*
X136234713Y-92444949D01*
X136234713Y-92444949D02*
X136283094Y-92541711D01*
X136283094Y-92541711D02*
X136379856Y-92638473D01*
X136379856Y-92638473D02*
X136524999Y-92686853D01*
X136524999Y-92686853D02*
X136766904Y-92686853D01*
X135315475Y-91670853D02*
X135508999Y-91670853D01*
X135508999Y-91670853D02*
X135605761Y-91719234D01*
X135605761Y-91719234D02*
X135654142Y-91767615D01*
X135654142Y-91767615D02*
X135750904Y-91912758D01*
X135750904Y-91912758D02*
X135799285Y-92106282D01*
X135799285Y-92106282D02*
X135799285Y-92493330D01*
X135799285Y-92493330D02*
X135750904Y-92590092D01*
X135750904Y-92590092D02*
X135702523Y-92638473D01*
X135702523Y-92638473D02*
X135605761Y-92686853D01*
X135605761Y-92686853D02*
X135412237Y-92686853D01*
X135412237Y-92686853D02*
X135315475Y-92638473D01*
X135315475Y-92638473D02*
X135267094Y-92590092D01*
X135267094Y-92590092D02*
X135218713Y-92493330D01*
X135218713Y-92493330D02*
X135218713Y-92251425D01*
X135218713Y-92251425D02*
X135267094Y-92154663D01*
X135267094Y-92154663D02*
X135315475Y-92106282D01*
X135315475Y-92106282D02*
X135412237Y-92057901D01*
X135412237Y-92057901D02*
X135605761Y-92057901D01*
X135605761Y-92057901D02*
X135702523Y-92106282D01*
X135702523Y-92106282D02*
X135750904Y-92154663D01*
X135750904Y-92154663D02*
X135799285Y-92251425D01*
X136766904Y-74374663D02*
X136428237Y-74374663D01*
X136283094Y-74906853D02*
X136766904Y-74906853D01*
X136766904Y-74906853D02*
X136766904Y-73890853D01*
X136766904Y-73890853D02*
X136283094Y-73890853D01*
X135847666Y-74906853D02*
X135847666Y-73890853D01*
X135847666Y-73890853D02*
X135267094Y-74906853D01*
X135267094Y-74906853D02*
X135267094Y-73890853D01*
X136742714Y-87606853D02*
X136742714Y-86590853D01*
X136742714Y-86590853D02*
X136500809Y-86590853D01*
X136500809Y-86590853D02*
X136355666Y-86639234D01*
X136355666Y-86639234D02*
X136258904Y-86735996D01*
X136258904Y-86735996D02*
X136210523Y-86832758D01*
X136210523Y-86832758D02*
X136162142Y-87026282D01*
X136162142Y-87026282D02*
X136162142Y-87171425D01*
X136162142Y-87171425D02*
X136210523Y-87364949D01*
X136210523Y-87364949D02*
X136258904Y-87461711D01*
X136258904Y-87461711D02*
X136355666Y-87558473D01*
X136355666Y-87558473D02*
X136500809Y-87606853D01*
X136500809Y-87606853D02*
X136742714Y-87606853D01*
X135194523Y-87606853D02*
X135775095Y-87606853D01*
X135484809Y-87606853D02*
X135484809Y-86590853D01*
X135484809Y-86590853D02*
X135581571Y-86735996D01*
X135581571Y-86735996D02*
X135678333Y-86832758D01*
X135678333Y-86832758D02*
X135775095Y-86881139D01*
X134565571Y-86590853D02*
X134468809Y-86590853D01*
X134468809Y-86590853D02*
X134372047Y-86639234D01*
X134372047Y-86639234D02*
X134323666Y-86687615D01*
X134323666Y-86687615D02*
X134275285Y-86784377D01*
X134275285Y-86784377D02*
X134226904Y-86977901D01*
X134226904Y-86977901D02*
X134226904Y-87219806D01*
X134226904Y-87219806D02*
X134275285Y-87413330D01*
X134275285Y-87413330D02*
X134323666Y-87510092D01*
X134323666Y-87510092D02*
X134372047Y-87558473D01*
X134372047Y-87558473D02*
X134468809Y-87606853D01*
X134468809Y-87606853D02*
X134565571Y-87606853D01*
X134565571Y-87606853D02*
X134662333Y-87558473D01*
X134662333Y-87558473D02*
X134710714Y-87510092D01*
X134710714Y-87510092D02*
X134759095Y-87413330D01*
X134759095Y-87413330D02*
X134807476Y-87219806D01*
X134807476Y-87219806D02*
X134807476Y-86977901D01*
X134807476Y-86977901D02*
X134759095Y-86784377D01*
X134759095Y-86784377D02*
X134710714Y-86687615D01*
X134710714Y-86687615D02*
X134662333Y-86639234D01*
X134662333Y-86639234D02*
X134565571Y-86590853D01*
X120825380Y-62206853D02*
X121164047Y-61723044D01*
X121405952Y-62206853D02*
X121405952Y-61190853D01*
X121405952Y-61190853D02*
X121018904Y-61190853D01*
X121018904Y-61190853D02*
X120922142Y-61239234D01*
X120922142Y-61239234D02*
X120873761Y-61287615D01*
X120873761Y-61287615D02*
X120825380Y-61384377D01*
X120825380Y-61384377D02*
X120825380Y-61529520D01*
X120825380Y-61529520D02*
X120873761Y-61626282D01*
X120873761Y-61626282D02*
X120922142Y-61674663D01*
X120922142Y-61674663D02*
X121018904Y-61723044D01*
X121018904Y-61723044D02*
X121405952Y-61723044D01*
X120438333Y-62158473D02*
X120293190Y-62206853D01*
X120293190Y-62206853D02*
X120051285Y-62206853D01*
X120051285Y-62206853D02*
X119954523Y-62158473D01*
X119954523Y-62158473D02*
X119906142Y-62110092D01*
X119906142Y-62110092D02*
X119857761Y-62013330D01*
X119857761Y-62013330D02*
X119857761Y-61916568D01*
X119857761Y-61916568D02*
X119906142Y-61819806D01*
X119906142Y-61819806D02*
X119954523Y-61771425D01*
X119954523Y-61771425D02*
X120051285Y-61723044D01*
X120051285Y-61723044D02*
X120244809Y-61674663D01*
X120244809Y-61674663D02*
X120341571Y-61626282D01*
X120341571Y-61626282D02*
X120389952Y-61577901D01*
X120389952Y-61577901D02*
X120438333Y-61481139D01*
X120438333Y-61481139D02*
X120438333Y-61384377D01*
X120438333Y-61384377D02*
X120389952Y-61287615D01*
X120389952Y-61287615D02*
X120341571Y-61239234D01*
X120341571Y-61239234D02*
X120244809Y-61190853D01*
X120244809Y-61190853D02*
X120002904Y-61190853D01*
X120002904Y-61190853D02*
X119857761Y-61239234D01*
X119567476Y-61190853D02*
X118986904Y-61190853D01*
X119277190Y-62206853D02*
X119277190Y-61190853D01*
X120789095Y-63730853D02*
X120160142Y-63730853D01*
X120160142Y-63730853D02*
X120498809Y-64117901D01*
X120498809Y-64117901D02*
X120353666Y-64117901D01*
X120353666Y-64117901D02*
X120256904Y-64166282D01*
X120256904Y-64166282D02*
X120208523Y-64214663D01*
X120208523Y-64214663D02*
X120160142Y-64311425D01*
X120160142Y-64311425D02*
X120160142Y-64553330D01*
X120160142Y-64553330D02*
X120208523Y-64650092D01*
X120208523Y-64650092D02*
X120256904Y-64698473D01*
X120256904Y-64698473D02*
X120353666Y-64746853D01*
X120353666Y-64746853D02*
X120643952Y-64746853D01*
X120643952Y-64746853D02*
X120740714Y-64698473D01*
X120740714Y-64698473D02*
X120789095Y-64650092D01*
X119869857Y-63730853D02*
X119531190Y-64746853D01*
X119531190Y-64746853D02*
X119192523Y-63730853D01*
X120740714Y-84776568D02*
X120256904Y-84776568D01*
X120837476Y-85066853D02*
X120498809Y-84050853D01*
X120498809Y-84050853D02*
X120160142Y-85066853D01*
X119337666Y-84050853D02*
X119821476Y-84050853D01*
X119821476Y-84050853D02*
X119869857Y-84534663D01*
X119869857Y-84534663D02*
X119821476Y-84486282D01*
X119821476Y-84486282D02*
X119724714Y-84437901D01*
X119724714Y-84437901D02*
X119482809Y-84437901D01*
X119482809Y-84437901D02*
X119386047Y-84486282D01*
X119386047Y-84486282D02*
X119337666Y-84534663D01*
X119337666Y-84534663D02*
X119289285Y-84631425D01*
X119289285Y-84631425D02*
X119289285Y-84873330D01*
X119289285Y-84873330D02*
X119337666Y-84970092D01*
X119337666Y-84970092D02*
X119386047Y-85018473D01*
X119386047Y-85018473D02*
X119482809Y-85066853D01*
X119482809Y-85066853D02*
X119724714Y-85066853D01*
X119724714Y-85066853D02*
X119821476Y-85018473D01*
X119821476Y-85018473D02*
X119869857Y-84970092D01*
X136742714Y-79986853D02*
X136742714Y-78970853D01*
X136742714Y-78970853D02*
X136500809Y-78970853D01*
X136500809Y-78970853D02*
X136355666Y-79019234D01*
X136355666Y-79019234D02*
X136258904Y-79115996D01*
X136258904Y-79115996D02*
X136210523Y-79212758D01*
X136210523Y-79212758D02*
X136162142Y-79406282D01*
X136162142Y-79406282D02*
X136162142Y-79551425D01*
X136162142Y-79551425D02*
X136210523Y-79744949D01*
X136210523Y-79744949D02*
X136258904Y-79841711D01*
X136258904Y-79841711D02*
X136355666Y-79938473D01*
X136355666Y-79938473D02*
X136500809Y-79986853D01*
X136500809Y-79986853D02*
X136742714Y-79986853D01*
X135194523Y-79986853D02*
X135775095Y-79986853D01*
X135484809Y-79986853D02*
X135484809Y-78970853D01*
X135484809Y-78970853D02*
X135581571Y-79115996D01*
X135581571Y-79115996D02*
X135678333Y-79212758D01*
X135678333Y-79212758D02*
X135775095Y-79261139D01*
X134855857Y-78970853D02*
X134226904Y-78970853D01*
X134226904Y-78970853D02*
X134565571Y-79357901D01*
X134565571Y-79357901D02*
X134420428Y-79357901D01*
X134420428Y-79357901D02*
X134323666Y-79406282D01*
X134323666Y-79406282D02*
X134275285Y-79454663D01*
X134275285Y-79454663D02*
X134226904Y-79551425D01*
X134226904Y-79551425D02*
X134226904Y-79793330D01*
X134226904Y-79793330D02*
X134275285Y-79890092D01*
X134275285Y-79890092D02*
X134323666Y-79938473D01*
X134323666Y-79938473D02*
X134420428Y-79986853D01*
X134420428Y-79986853D02*
X134710714Y-79986853D01*
X134710714Y-79986853D02*
X134807476Y-79938473D01*
X134807476Y-79938473D02*
X134855857Y-79890092D01*
X112661095Y-76430853D02*
X112661095Y-77253330D01*
X112661095Y-77253330D02*
X112612714Y-77350092D01*
X112612714Y-77350092D02*
X112564333Y-77398473D01*
X112564333Y-77398473D02*
X112467571Y-77446853D01*
X112467571Y-77446853D02*
X112274047Y-77446853D01*
X112274047Y-77446853D02*
X112177285Y-77398473D01*
X112177285Y-77398473D02*
X112128904Y-77350092D01*
X112128904Y-77350092D02*
X112080523Y-77253330D01*
X112080523Y-77253330D02*
X112080523Y-76430853D01*
X111645095Y-77398473D02*
X111499952Y-77446853D01*
X111499952Y-77446853D02*
X111258047Y-77446853D01*
X111258047Y-77446853D02*
X111161285Y-77398473D01*
X111161285Y-77398473D02*
X111112904Y-77350092D01*
X111112904Y-77350092D02*
X111064523Y-77253330D01*
X111064523Y-77253330D02*
X111064523Y-77156568D01*
X111064523Y-77156568D02*
X111112904Y-77059806D01*
X111112904Y-77059806D02*
X111161285Y-77011425D01*
X111161285Y-77011425D02*
X111258047Y-76963044D01*
X111258047Y-76963044D02*
X111451571Y-76914663D01*
X111451571Y-76914663D02*
X111548333Y-76866282D01*
X111548333Y-76866282D02*
X111596714Y-76817901D01*
X111596714Y-76817901D02*
X111645095Y-76721139D01*
X111645095Y-76721139D02*
X111645095Y-76624377D01*
X111645095Y-76624377D02*
X111596714Y-76527615D01*
X111596714Y-76527615D02*
X111548333Y-76479234D01*
X111548333Y-76479234D02*
X111451571Y-76430853D01*
X111451571Y-76430853D02*
X111209666Y-76430853D01*
X111209666Y-76430853D02*
X111064523Y-76479234D01*
X110290428Y-76914663D02*
X110145285Y-76963044D01*
X110145285Y-76963044D02*
X110096904Y-77011425D01*
X110096904Y-77011425D02*
X110048523Y-77108187D01*
X110048523Y-77108187D02*
X110048523Y-77253330D01*
X110048523Y-77253330D02*
X110096904Y-77350092D01*
X110096904Y-77350092D02*
X110145285Y-77398473D01*
X110145285Y-77398473D02*
X110242047Y-77446853D01*
X110242047Y-77446853D02*
X110629095Y-77446853D01*
X110629095Y-77446853D02*
X110629095Y-76430853D01*
X110629095Y-76430853D02*
X110290428Y-76430853D01*
X110290428Y-76430853D02*
X110193666Y-76479234D01*
X110193666Y-76479234D02*
X110145285Y-76527615D01*
X110145285Y-76527615D02*
X110096904Y-76624377D01*
X110096904Y-76624377D02*
X110096904Y-76721139D01*
X110096904Y-76721139D02*
X110145285Y-76817901D01*
X110145285Y-76817901D02*
X110193666Y-76866282D01*
X110193666Y-76866282D02*
X110290428Y-76914663D01*
X110290428Y-76914663D02*
X110629095Y-76914663D01*
X112612714Y-79986853D02*
X112612714Y-78970853D01*
X112612714Y-78970853D02*
X112370809Y-78970853D01*
X112370809Y-78970853D02*
X112225666Y-79019234D01*
X112225666Y-79019234D02*
X112128904Y-79115996D01*
X112128904Y-79115996D02*
X112080523Y-79212758D01*
X112080523Y-79212758D02*
X112032142Y-79406282D01*
X112032142Y-79406282D02*
X112032142Y-79551425D01*
X112032142Y-79551425D02*
X112080523Y-79744949D01*
X112080523Y-79744949D02*
X112128904Y-79841711D01*
X112128904Y-79841711D02*
X112225666Y-79938473D01*
X112225666Y-79938473D02*
X112370809Y-79986853D01*
X112370809Y-79986853D02*
X112612714Y-79986853D01*
X111064523Y-79986853D02*
X111645095Y-79986853D01*
X111354809Y-79986853D02*
X111354809Y-78970853D01*
X111354809Y-78970853D02*
X111451571Y-79115996D01*
X111451571Y-79115996D02*
X111548333Y-79212758D01*
X111548333Y-79212758D02*
X111645095Y-79261139D01*
X110725857Y-78970853D02*
X110096904Y-78970853D01*
X110096904Y-78970853D02*
X110435571Y-79357901D01*
X110435571Y-79357901D02*
X110290428Y-79357901D01*
X110290428Y-79357901D02*
X110193666Y-79406282D01*
X110193666Y-79406282D02*
X110145285Y-79454663D01*
X110145285Y-79454663D02*
X110096904Y-79551425D01*
X110096904Y-79551425D02*
X110096904Y-79793330D01*
X110096904Y-79793330D02*
X110145285Y-79890092D01*
X110145285Y-79890092D02*
X110193666Y-79938473D01*
X110193666Y-79938473D02*
X110290428Y-79986853D01*
X110290428Y-79986853D02*
X110580714Y-79986853D01*
X110580714Y-79986853D02*
X110677476Y-79938473D01*
X110677476Y-79938473D02*
X110725857Y-79890092D01*
X96610714Y-82236568D02*
X96126904Y-82236568D01*
X96707476Y-82526853D02*
X96368809Y-81510853D01*
X96368809Y-81510853D02*
X96030142Y-82526853D01*
X95256047Y-81849520D02*
X95256047Y-82526853D01*
X95497952Y-81462473D02*
X95739857Y-82188187D01*
X95739857Y-82188187D02*
X95110904Y-82188187D01*
X95800332Y-94972853D02*
X96138999Y-94489044D01*
X96380904Y-94972853D02*
X96380904Y-93956853D01*
X96380904Y-93956853D02*
X95993856Y-93956853D01*
X95993856Y-93956853D02*
X95897094Y-94005234D01*
X95897094Y-94005234D02*
X95848713Y-94053615D01*
X95848713Y-94053615D02*
X95800332Y-94150377D01*
X95800332Y-94150377D02*
X95800332Y-94295520D01*
X95800332Y-94295520D02*
X95848713Y-94392282D01*
X95848713Y-94392282D02*
X95897094Y-94440663D01*
X95897094Y-94440663D02*
X95993856Y-94489044D01*
X95993856Y-94489044D02*
X96380904Y-94489044D01*
X95461666Y-93956853D02*
X94784332Y-94972853D01*
X94784332Y-93956853D02*
X95461666Y-94972853D01*
X112636904Y-92686853D02*
X112636904Y-91670853D01*
X112636904Y-91670853D02*
X112394999Y-91670853D01*
X112394999Y-91670853D02*
X112249856Y-91719234D01*
X112249856Y-91719234D02*
X112153094Y-91815996D01*
X112153094Y-91815996D02*
X112104713Y-91912758D01*
X112104713Y-91912758D02*
X112056332Y-92106282D01*
X112056332Y-92106282D02*
X112056332Y-92251425D01*
X112056332Y-92251425D02*
X112104713Y-92444949D01*
X112104713Y-92444949D02*
X112153094Y-92541711D01*
X112153094Y-92541711D02*
X112249856Y-92638473D01*
X112249856Y-92638473D02*
X112394999Y-92686853D01*
X112394999Y-92686853D02*
X112636904Y-92686853D01*
X111185475Y-91670853D02*
X111378999Y-91670853D01*
X111378999Y-91670853D02*
X111475761Y-91719234D01*
X111475761Y-91719234D02*
X111524142Y-91767615D01*
X111524142Y-91767615D02*
X111620904Y-91912758D01*
X111620904Y-91912758D02*
X111669285Y-92106282D01*
X111669285Y-92106282D02*
X111669285Y-92493330D01*
X111669285Y-92493330D02*
X111620904Y-92590092D01*
X111620904Y-92590092D02*
X111572523Y-92638473D01*
X111572523Y-92638473D02*
X111475761Y-92686853D01*
X111475761Y-92686853D02*
X111282237Y-92686853D01*
X111282237Y-92686853D02*
X111185475Y-92638473D01*
X111185475Y-92638473D02*
X111137094Y-92590092D01*
X111137094Y-92590092D02*
X111088713Y-92493330D01*
X111088713Y-92493330D02*
X111088713Y-92251425D01*
X111088713Y-92251425D02*
X111137094Y-92154663D01*
X111137094Y-92154663D02*
X111185475Y-92106282D01*
X111185475Y-92106282D02*
X111282237Y-92057901D01*
X111282237Y-92057901D02*
X111475761Y-92057901D01*
X111475761Y-92057901D02*
X111572523Y-92106282D01*
X111572523Y-92106282D02*
X111620904Y-92154663D01*
X111620904Y-92154663D02*
X111669285Y-92251425D01*
X98461285Y-100306853D02*
X98461285Y-99290853D01*
X98461285Y-99290853D02*
X97880713Y-100306853D01*
X97880713Y-100306853D02*
X97880713Y-99290853D01*
X97203380Y-99290853D02*
X97009856Y-99290853D01*
X97009856Y-99290853D02*
X96913094Y-99339234D01*
X96913094Y-99339234D02*
X96816332Y-99435996D01*
X96816332Y-99435996D02*
X96767951Y-99629520D01*
X96767951Y-99629520D02*
X96767951Y-99968187D01*
X96767951Y-99968187D02*
X96816332Y-100161711D01*
X96816332Y-100161711D02*
X96913094Y-100258473D01*
X96913094Y-100258473D02*
X97009856Y-100306853D01*
X97009856Y-100306853D02*
X97203380Y-100306853D01*
X97203380Y-100306853D02*
X97300142Y-100258473D01*
X97300142Y-100258473D02*
X97396904Y-100161711D01*
X97396904Y-100161711D02*
X97445285Y-99968187D01*
X97445285Y-99968187D02*
X97445285Y-99629520D01*
X97445285Y-99629520D02*
X97396904Y-99435996D01*
X97396904Y-99435996D02*
X97300142Y-99339234D01*
X97300142Y-99339234D02*
X97203380Y-99290853D01*
X96380904Y-100258473D02*
X96235761Y-100306853D01*
X96235761Y-100306853D02*
X95993856Y-100306853D01*
X95993856Y-100306853D02*
X95897094Y-100258473D01*
X95897094Y-100258473D02*
X95848713Y-100210092D01*
X95848713Y-100210092D02*
X95800332Y-100113330D01*
X95800332Y-100113330D02*
X95800332Y-100016568D01*
X95800332Y-100016568D02*
X95848713Y-99919806D01*
X95848713Y-99919806D02*
X95897094Y-99871425D01*
X95897094Y-99871425D02*
X95993856Y-99823044D01*
X95993856Y-99823044D02*
X96187380Y-99774663D01*
X96187380Y-99774663D02*
X96284142Y-99726282D01*
X96284142Y-99726282D02*
X96332523Y-99677901D01*
X96332523Y-99677901D02*
X96380904Y-99581139D01*
X96380904Y-99581139D02*
X96380904Y-99484377D01*
X96380904Y-99484377D02*
X96332523Y-99387615D01*
X96332523Y-99387615D02*
X96284142Y-99339234D01*
X96284142Y-99339234D02*
X96187380Y-99290853D01*
X96187380Y-99290853D02*
X95945475Y-99290853D01*
X95945475Y-99290853D02*
X95800332Y-99339234D01*
X112612714Y-85066853D02*
X112612714Y-84050853D01*
X112612714Y-84050853D02*
X112370809Y-84050853D01*
X112370809Y-84050853D02*
X112225666Y-84099234D01*
X112225666Y-84099234D02*
X112128904Y-84195996D01*
X112128904Y-84195996D02*
X112080523Y-84292758D01*
X112080523Y-84292758D02*
X112032142Y-84486282D01*
X112032142Y-84486282D02*
X112032142Y-84631425D01*
X112032142Y-84631425D02*
X112080523Y-84824949D01*
X112080523Y-84824949D02*
X112128904Y-84921711D01*
X112128904Y-84921711D02*
X112225666Y-85018473D01*
X112225666Y-85018473D02*
X112370809Y-85066853D01*
X112370809Y-85066853D02*
X112612714Y-85066853D01*
X111064523Y-85066853D02*
X111645095Y-85066853D01*
X111354809Y-85066853D02*
X111354809Y-84050853D01*
X111354809Y-84050853D02*
X111451571Y-84195996D01*
X111451571Y-84195996D02*
X111548333Y-84292758D01*
X111548333Y-84292758D02*
X111645095Y-84341139D01*
X110096904Y-85066853D02*
X110677476Y-85066853D01*
X110387190Y-85066853D02*
X110387190Y-84050853D01*
X110387190Y-84050853D02*
X110483952Y-84195996D01*
X110483952Y-84195996D02*
X110580714Y-84292758D01*
X110580714Y-84292758D02*
X110677476Y-84341139D01*
X112636904Y-74374663D02*
X112298237Y-74374663D01*
X112153094Y-74906853D02*
X112636904Y-74906853D01*
X112636904Y-74906853D02*
X112636904Y-73890853D01*
X112636904Y-73890853D02*
X112153094Y-73890853D01*
X111717666Y-74906853D02*
X111717666Y-73890853D01*
X111717666Y-73890853D02*
X111137094Y-74906853D01*
X111137094Y-74906853D02*
X111137094Y-73890853D01*
X98243571Y-92686853D02*
X98243571Y-91670853D01*
X98243571Y-91670853D02*
X97904904Y-92396568D01*
X97904904Y-92396568D02*
X97566237Y-91670853D01*
X97566237Y-91670853D02*
X97566237Y-92686853D01*
X97082428Y-92686853D02*
X97082428Y-91670853D01*
X96646999Y-92638473D02*
X96501856Y-92686853D01*
X96501856Y-92686853D02*
X96259951Y-92686853D01*
X96259951Y-92686853D02*
X96163189Y-92638473D01*
X96163189Y-92638473D02*
X96114808Y-92590092D01*
X96114808Y-92590092D02*
X96066427Y-92493330D01*
X96066427Y-92493330D02*
X96066427Y-92396568D01*
X96066427Y-92396568D02*
X96114808Y-92299806D01*
X96114808Y-92299806D02*
X96163189Y-92251425D01*
X96163189Y-92251425D02*
X96259951Y-92203044D01*
X96259951Y-92203044D02*
X96453475Y-92154663D01*
X96453475Y-92154663D02*
X96550237Y-92106282D01*
X96550237Y-92106282D02*
X96598618Y-92057901D01*
X96598618Y-92057901D02*
X96646999Y-91961139D01*
X96646999Y-91961139D02*
X96646999Y-91864377D01*
X96646999Y-91864377D02*
X96598618Y-91767615D01*
X96598618Y-91767615D02*
X96550237Y-91719234D01*
X96550237Y-91719234D02*
X96453475Y-91670853D01*
X96453475Y-91670853D02*
X96211570Y-91670853D01*
X96211570Y-91670853D02*
X96066427Y-91719234D01*
X95437475Y-91670853D02*
X95243951Y-91670853D01*
X95243951Y-91670853D02*
X95147189Y-91719234D01*
X95147189Y-91719234D02*
X95050427Y-91815996D01*
X95050427Y-91815996D02*
X95002046Y-92009520D01*
X95002046Y-92009520D02*
X95002046Y-92348187D01*
X95002046Y-92348187D02*
X95050427Y-92541711D01*
X95050427Y-92541711D02*
X95147189Y-92638473D01*
X95147189Y-92638473D02*
X95243951Y-92686853D01*
X95243951Y-92686853D02*
X95437475Y-92686853D01*
X95437475Y-92686853D02*
X95534237Y-92638473D01*
X95534237Y-92638473D02*
X95630999Y-92541711D01*
X95630999Y-92541711D02*
X95679380Y-92348187D01*
X95679380Y-92348187D02*
X95679380Y-92009520D01*
X95679380Y-92009520D02*
X95630999Y-91815996D01*
X95630999Y-91815996D02*
X95534237Y-91719234D01*
X95534237Y-91719234D02*
X95437475Y-91670853D01*
X112636904Y-90146853D02*
X112636904Y-89130853D01*
X112636904Y-89130853D02*
X112394999Y-89130853D01*
X112394999Y-89130853D02*
X112249856Y-89179234D01*
X112249856Y-89179234D02*
X112153094Y-89275996D01*
X112153094Y-89275996D02*
X112104713Y-89372758D01*
X112104713Y-89372758D02*
X112056332Y-89566282D01*
X112056332Y-89566282D02*
X112056332Y-89711425D01*
X112056332Y-89711425D02*
X112104713Y-89904949D01*
X112104713Y-89904949D02*
X112153094Y-90001711D01*
X112153094Y-90001711D02*
X112249856Y-90098473D01*
X112249856Y-90098473D02*
X112394999Y-90146853D01*
X112394999Y-90146853D02*
X112636904Y-90146853D01*
X111572523Y-90146853D02*
X111378999Y-90146853D01*
X111378999Y-90146853D02*
X111282237Y-90098473D01*
X111282237Y-90098473D02*
X111233856Y-90050092D01*
X111233856Y-90050092D02*
X111137094Y-89904949D01*
X111137094Y-89904949D02*
X111088713Y-89711425D01*
X111088713Y-89711425D02*
X111088713Y-89324377D01*
X111088713Y-89324377D02*
X111137094Y-89227615D01*
X111137094Y-89227615D02*
X111185475Y-89179234D01*
X111185475Y-89179234D02*
X111282237Y-89130853D01*
X111282237Y-89130853D02*
X111475761Y-89130853D01*
X111475761Y-89130853D02*
X111572523Y-89179234D01*
X111572523Y-89179234D02*
X111620904Y-89227615D01*
X111620904Y-89227615D02*
X111669285Y-89324377D01*
X111669285Y-89324377D02*
X111669285Y-89566282D01*
X111669285Y-89566282D02*
X111620904Y-89663044D01*
X111620904Y-89663044D02*
X111572523Y-89711425D01*
X111572523Y-89711425D02*
X111475761Y-89759806D01*
X111475761Y-89759806D02*
X111282237Y-89759806D01*
X111282237Y-89759806D02*
X111185475Y-89711425D01*
X111185475Y-89711425D02*
X111137094Y-89663044D01*
X111137094Y-89663044D02*
X111088713Y-89566282D01*
X98291952Y-66996568D02*
X97808142Y-66996568D01*
X98388714Y-67286853D02*
X98050047Y-66270853D01*
X98050047Y-66270853D02*
X97711380Y-67286853D01*
X96792142Y-67286853D02*
X97130809Y-66803044D01*
X97372714Y-67286853D02*
X97372714Y-66270853D01*
X97372714Y-66270853D02*
X96985666Y-66270853D01*
X96985666Y-66270853D02*
X96888904Y-66319234D01*
X96888904Y-66319234D02*
X96840523Y-66367615D01*
X96840523Y-66367615D02*
X96792142Y-66464377D01*
X96792142Y-66464377D02*
X96792142Y-66609520D01*
X96792142Y-66609520D02*
X96840523Y-66706282D01*
X96840523Y-66706282D02*
X96888904Y-66754663D01*
X96888904Y-66754663D02*
X96985666Y-66803044D01*
X96985666Y-66803044D02*
X97372714Y-66803044D01*
X96356714Y-66754663D02*
X96018047Y-66754663D01*
X95872904Y-67286853D02*
X96356714Y-67286853D01*
X96356714Y-67286853D02*
X96356714Y-66270853D01*
X96356714Y-66270853D02*
X95872904Y-66270853D01*
X95098809Y-66754663D02*
X95437476Y-66754663D01*
X95437476Y-67286853D02*
X95437476Y-66270853D01*
X95437476Y-66270853D02*
X94953666Y-66270853D01*
X112612714Y-82272853D02*
X112612714Y-81256853D01*
X112612714Y-81256853D02*
X112370809Y-81256853D01*
X112370809Y-81256853D02*
X112225666Y-81305234D01*
X112225666Y-81305234D02*
X112128904Y-81401996D01*
X112128904Y-81401996D02*
X112080523Y-81498758D01*
X112080523Y-81498758D02*
X112032142Y-81692282D01*
X112032142Y-81692282D02*
X112032142Y-81837425D01*
X112032142Y-81837425D02*
X112080523Y-82030949D01*
X112080523Y-82030949D02*
X112128904Y-82127711D01*
X112128904Y-82127711D02*
X112225666Y-82224473D01*
X112225666Y-82224473D02*
X112370809Y-82272853D01*
X112370809Y-82272853D02*
X112612714Y-82272853D01*
X111064523Y-82272853D02*
X111645095Y-82272853D01*
X111354809Y-82272853D02*
X111354809Y-81256853D01*
X111354809Y-81256853D02*
X111451571Y-81401996D01*
X111451571Y-81401996D02*
X111548333Y-81498758D01*
X111548333Y-81498758D02*
X111645095Y-81547139D01*
X110677476Y-81353615D02*
X110629095Y-81305234D01*
X110629095Y-81305234D02*
X110532333Y-81256853D01*
X110532333Y-81256853D02*
X110290428Y-81256853D01*
X110290428Y-81256853D02*
X110193666Y-81305234D01*
X110193666Y-81305234D02*
X110145285Y-81353615D01*
X110145285Y-81353615D02*
X110096904Y-81450377D01*
X110096904Y-81450377D02*
X110096904Y-81547139D01*
X110096904Y-81547139D02*
X110145285Y-81692282D01*
X110145285Y-81692282D02*
X110725857Y-82272853D01*
X110725857Y-82272853D02*
X110096904Y-82272853D01*
X96610714Y-84776568D02*
X96126904Y-84776568D01*
X96707476Y-85066853D02*
X96368809Y-84050853D01*
X96368809Y-84050853D02*
X96030142Y-85066853D01*
X95207666Y-84050853D02*
X95691476Y-84050853D01*
X95691476Y-84050853D02*
X95739857Y-84534663D01*
X95739857Y-84534663D02*
X95691476Y-84486282D01*
X95691476Y-84486282D02*
X95594714Y-84437901D01*
X95594714Y-84437901D02*
X95352809Y-84437901D01*
X95352809Y-84437901D02*
X95256047Y-84486282D01*
X95256047Y-84486282D02*
X95207666Y-84534663D01*
X95207666Y-84534663D02*
X95159285Y-84631425D01*
X95159285Y-84631425D02*
X95159285Y-84873330D01*
X95159285Y-84873330D02*
X95207666Y-84970092D01*
X95207666Y-84970092D02*
X95256047Y-85018473D01*
X95256047Y-85018473D02*
X95352809Y-85066853D01*
X95352809Y-85066853D02*
X95594714Y-85066853D01*
X95594714Y-85066853D02*
X95691476Y-85018473D01*
X95691476Y-85018473D02*
X95739857Y-84970092D01*
X112636904Y-95099853D02*
X112636904Y-94083853D01*
X112636904Y-94083853D02*
X112394999Y-94083853D01*
X112394999Y-94083853D02*
X112249856Y-94132234D01*
X112249856Y-94132234D02*
X112153094Y-94228996D01*
X112153094Y-94228996D02*
X112104713Y-94325758D01*
X112104713Y-94325758D02*
X112056332Y-94519282D01*
X112056332Y-94519282D02*
X112056332Y-94664425D01*
X112056332Y-94664425D02*
X112104713Y-94857949D01*
X112104713Y-94857949D02*
X112153094Y-94954711D01*
X112153094Y-94954711D02*
X112249856Y-95051473D01*
X112249856Y-95051473D02*
X112394999Y-95099853D01*
X112394999Y-95099853D02*
X112636904Y-95099853D01*
X111137094Y-94083853D02*
X111620904Y-94083853D01*
X111620904Y-94083853D02*
X111669285Y-94567663D01*
X111669285Y-94567663D02*
X111620904Y-94519282D01*
X111620904Y-94519282D02*
X111524142Y-94470901D01*
X111524142Y-94470901D02*
X111282237Y-94470901D01*
X111282237Y-94470901D02*
X111185475Y-94519282D01*
X111185475Y-94519282D02*
X111137094Y-94567663D01*
X111137094Y-94567663D02*
X111088713Y-94664425D01*
X111088713Y-94664425D02*
X111088713Y-94906330D01*
X111088713Y-94906330D02*
X111137094Y-95003092D01*
X111137094Y-95003092D02*
X111185475Y-95051473D01*
X111185475Y-95051473D02*
X111282237Y-95099853D01*
X111282237Y-95099853D02*
X111524142Y-95099853D01*
X111524142Y-95099853D02*
X111620904Y-95051473D01*
X111620904Y-95051473D02*
X111669285Y-95003092D01*
X96695380Y-62206853D02*
X97034047Y-61723044D01*
X97275952Y-62206853D02*
X97275952Y-61190853D01*
X97275952Y-61190853D02*
X96888904Y-61190853D01*
X96888904Y-61190853D02*
X96792142Y-61239234D01*
X96792142Y-61239234D02*
X96743761Y-61287615D01*
X96743761Y-61287615D02*
X96695380Y-61384377D01*
X96695380Y-61384377D02*
X96695380Y-61529520D01*
X96695380Y-61529520D02*
X96743761Y-61626282D01*
X96743761Y-61626282D02*
X96792142Y-61674663D01*
X96792142Y-61674663D02*
X96888904Y-61723044D01*
X96888904Y-61723044D02*
X97275952Y-61723044D01*
X96308333Y-62158473D02*
X96163190Y-62206853D01*
X96163190Y-62206853D02*
X95921285Y-62206853D01*
X95921285Y-62206853D02*
X95824523Y-62158473D01*
X95824523Y-62158473D02*
X95776142Y-62110092D01*
X95776142Y-62110092D02*
X95727761Y-62013330D01*
X95727761Y-62013330D02*
X95727761Y-61916568D01*
X95727761Y-61916568D02*
X95776142Y-61819806D01*
X95776142Y-61819806D02*
X95824523Y-61771425D01*
X95824523Y-61771425D02*
X95921285Y-61723044D01*
X95921285Y-61723044D02*
X96114809Y-61674663D01*
X96114809Y-61674663D02*
X96211571Y-61626282D01*
X96211571Y-61626282D02*
X96259952Y-61577901D01*
X96259952Y-61577901D02*
X96308333Y-61481139D01*
X96308333Y-61481139D02*
X96308333Y-61384377D01*
X96308333Y-61384377D02*
X96259952Y-61287615D01*
X96259952Y-61287615D02*
X96211571Y-61239234D01*
X96211571Y-61239234D02*
X96114809Y-61190853D01*
X96114809Y-61190853D02*
X95872904Y-61190853D01*
X95872904Y-61190853D02*
X95727761Y-61239234D01*
X95437476Y-61190853D02*
X94856904Y-61190853D01*
X95147190Y-62206853D02*
X95147190Y-61190853D01*
X112588523Y-97718473D02*
X112443380Y-97766853D01*
X112443380Y-97766853D02*
X112201475Y-97766853D01*
X112201475Y-97766853D02*
X112104713Y-97718473D01*
X112104713Y-97718473D02*
X112056332Y-97670092D01*
X112056332Y-97670092D02*
X112007951Y-97573330D01*
X112007951Y-97573330D02*
X112007951Y-97476568D01*
X112007951Y-97476568D02*
X112056332Y-97379806D01*
X112056332Y-97379806D02*
X112104713Y-97331425D01*
X112104713Y-97331425D02*
X112201475Y-97283044D01*
X112201475Y-97283044D02*
X112394999Y-97234663D01*
X112394999Y-97234663D02*
X112491761Y-97186282D01*
X112491761Y-97186282D02*
X112540142Y-97137901D01*
X112540142Y-97137901D02*
X112588523Y-97041139D01*
X112588523Y-97041139D02*
X112588523Y-96944377D01*
X112588523Y-96944377D02*
X112540142Y-96847615D01*
X112540142Y-96847615D02*
X112491761Y-96799234D01*
X112491761Y-96799234D02*
X112394999Y-96750853D01*
X112394999Y-96750853D02*
X112153094Y-96750853D01*
X112153094Y-96750853D02*
X112007951Y-96799234D01*
X110991951Y-97670092D02*
X111040332Y-97718473D01*
X111040332Y-97718473D02*
X111185475Y-97766853D01*
X111185475Y-97766853D02*
X111282237Y-97766853D01*
X111282237Y-97766853D02*
X111427380Y-97718473D01*
X111427380Y-97718473D02*
X111524142Y-97621711D01*
X111524142Y-97621711D02*
X111572523Y-97524949D01*
X111572523Y-97524949D02*
X111620904Y-97331425D01*
X111620904Y-97331425D02*
X111620904Y-97186282D01*
X111620904Y-97186282D02*
X111572523Y-96992758D01*
X111572523Y-96992758D02*
X111524142Y-96895996D01*
X111524142Y-96895996D02*
X111427380Y-96799234D01*
X111427380Y-96799234D02*
X111282237Y-96750853D01*
X111282237Y-96750853D02*
X111185475Y-96750853D01*
X111185475Y-96750853D02*
X111040332Y-96799234D01*
X111040332Y-96799234D02*
X110991951Y-96847615D01*
X110072713Y-97766853D02*
X110556523Y-97766853D01*
X110556523Y-97766853D02*
X110556523Y-96750853D01*
X112128904Y-71834663D02*
X111983761Y-71883044D01*
X111983761Y-71883044D02*
X111935380Y-71931425D01*
X111935380Y-71931425D02*
X111886999Y-72028187D01*
X111886999Y-72028187D02*
X111886999Y-72173330D01*
X111886999Y-72173330D02*
X111935380Y-72270092D01*
X111935380Y-72270092D02*
X111983761Y-72318473D01*
X111983761Y-72318473D02*
X112080523Y-72366853D01*
X112080523Y-72366853D02*
X112467571Y-72366853D01*
X112467571Y-72366853D02*
X112467571Y-71350853D01*
X112467571Y-71350853D02*
X112128904Y-71350853D01*
X112128904Y-71350853D02*
X112032142Y-71399234D01*
X112032142Y-71399234D02*
X111983761Y-71447615D01*
X111983761Y-71447615D02*
X111935380Y-71544377D01*
X111935380Y-71544377D02*
X111935380Y-71641139D01*
X111935380Y-71641139D02*
X111983761Y-71737901D01*
X111983761Y-71737901D02*
X112032142Y-71786282D01*
X112032142Y-71786282D02*
X112128904Y-71834663D01*
X112128904Y-71834663D02*
X112467571Y-71834663D01*
X111499952Y-72076568D02*
X111016142Y-72076568D01*
X111596714Y-72366853D02*
X111258047Y-71350853D01*
X111258047Y-71350853D02*
X110919380Y-72366853D01*
X110725857Y-71350853D02*
X110145285Y-71350853D01*
X110435571Y-72366853D02*
X110435571Y-71350853D01*
X96610714Y-77156568D02*
X96126904Y-77156568D01*
X96707476Y-77446853D02*
X96368809Y-76430853D01*
X96368809Y-76430853D02*
X96030142Y-77446853D01*
X95739857Y-76527615D02*
X95691476Y-76479234D01*
X95691476Y-76479234D02*
X95594714Y-76430853D01*
X95594714Y-76430853D02*
X95352809Y-76430853D01*
X95352809Y-76430853D02*
X95256047Y-76479234D01*
X95256047Y-76479234D02*
X95207666Y-76527615D01*
X95207666Y-76527615D02*
X95159285Y-76624377D01*
X95159285Y-76624377D02*
X95159285Y-76721139D01*
X95159285Y-76721139D02*
X95207666Y-76866282D01*
X95207666Y-76866282D02*
X95788238Y-77446853D01*
X95788238Y-77446853D02*
X95159285Y-77446853D01*
X112612714Y-100258473D02*
X112467571Y-100306853D01*
X112467571Y-100306853D02*
X112225666Y-100306853D01*
X112225666Y-100306853D02*
X112128904Y-100258473D01*
X112128904Y-100258473D02*
X112080523Y-100210092D01*
X112080523Y-100210092D02*
X112032142Y-100113330D01*
X112032142Y-100113330D02*
X112032142Y-100016568D01*
X112032142Y-100016568D02*
X112080523Y-99919806D01*
X112080523Y-99919806D02*
X112128904Y-99871425D01*
X112128904Y-99871425D02*
X112225666Y-99823044D01*
X112225666Y-99823044D02*
X112419190Y-99774663D01*
X112419190Y-99774663D02*
X112515952Y-99726282D01*
X112515952Y-99726282D02*
X112564333Y-99677901D01*
X112564333Y-99677901D02*
X112612714Y-99581139D01*
X112612714Y-99581139D02*
X112612714Y-99484377D01*
X112612714Y-99484377D02*
X112564333Y-99387615D01*
X112564333Y-99387615D02*
X112515952Y-99339234D01*
X112515952Y-99339234D02*
X112419190Y-99290853D01*
X112419190Y-99290853D02*
X112177285Y-99290853D01*
X112177285Y-99290853D02*
X112032142Y-99339234D01*
X111596714Y-100306853D02*
X111596714Y-99290853D01*
X111596714Y-99290853D02*
X111354809Y-99290853D01*
X111354809Y-99290853D02*
X111209666Y-99339234D01*
X111209666Y-99339234D02*
X111112904Y-99435996D01*
X111112904Y-99435996D02*
X111064523Y-99532758D01*
X111064523Y-99532758D02*
X111016142Y-99726282D01*
X111016142Y-99726282D02*
X111016142Y-99871425D01*
X111016142Y-99871425D02*
X111064523Y-100064949D01*
X111064523Y-100064949D02*
X111112904Y-100161711D01*
X111112904Y-100161711D02*
X111209666Y-100258473D01*
X111209666Y-100258473D02*
X111354809Y-100306853D01*
X111354809Y-100306853D02*
X111596714Y-100306853D01*
X110629095Y-100016568D02*
X110145285Y-100016568D01*
X110725857Y-100306853D02*
X110387190Y-99290853D01*
X110387190Y-99290853D02*
X110048523Y-100306853D01*
X98243571Y-89892853D02*
X98243571Y-88876853D01*
X98243571Y-88876853D02*
X97904904Y-89602568D01*
X97904904Y-89602568D02*
X97566237Y-88876853D01*
X97566237Y-88876853D02*
X97566237Y-89892853D01*
X96888904Y-88876853D02*
X96695380Y-88876853D01*
X96695380Y-88876853D02*
X96598618Y-88925234D01*
X96598618Y-88925234D02*
X96501856Y-89021996D01*
X96501856Y-89021996D02*
X96453475Y-89215520D01*
X96453475Y-89215520D02*
X96453475Y-89554187D01*
X96453475Y-89554187D02*
X96501856Y-89747711D01*
X96501856Y-89747711D02*
X96598618Y-89844473D01*
X96598618Y-89844473D02*
X96695380Y-89892853D01*
X96695380Y-89892853D02*
X96888904Y-89892853D01*
X96888904Y-89892853D02*
X96985666Y-89844473D01*
X96985666Y-89844473D02*
X97082428Y-89747711D01*
X97082428Y-89747711D02*
X97130809Y-89554187D01*
X97130809Y-89554187D02*
X97130809Y-89215520D01*
X97130809Y-89215520D02*
X97082428Y-89021996D01*
X97082428Y-89021996D02*
X96985666Y-88925234D01*
X96985666Y-88925234D02*
X96888904Y-88876853D01*
X96066428Y-89844473D02*
X95921285Y-89892853D01*
X95921285Y-89892853D02*
X95679380Y-89892853D01*
X95679380Y-89892853D02*
X95582618Y-89844473D01*
X95582618Y-89844473D02*
X95534237Y-89796092D01*
X95534237Y-89796092D02*
X95485856Y-89699330D01*
X95485856Y-89699330D02*
X95485856Y-89602568D01*
X95485856Y-89602568D02*
X95534237Y-89505806D01*
X95534237Y-89505806D02*
X95582618Y-89457425D01*
X95582618Y-89457425D02*
X95679380Y-89409044D01*
X95679380Y-89409044D02*
X95872904Y-89360663D01*
X95872904Y-89360663D02*
X95969666Y-89312282D01*
X95969666Y-89312282D02*
X96018047Y-89263901D01*
X96018047Y-89263901D02*
X96066428Y-89167139D01*
X96066428Y-89167139D02*
X96066428Y-89070377D01*
X96066428Y-89070377D02*
X96018047Y-88973615D01*
X96018047Y-88973615D02*
X95969666Y-88925234D01*
X95969666Y-88925234D02*
X95872904Y-88876853D01*
X95872904Y-88876853D02*
X95630999Y-88876853D01*
X95630999Y-88876853D02*
X95485856Y-88925234D01*
X95050428Y-89892853D02*
X95050428Y-88876853D01*
X96405095Y-96750853D02*
X95824523Y-96750853D01*
X96114809Y-97766853D02*
X96114809Y-96750853D01*
X95582619Y-96750853D02*
X94905285Y-97766853D01*
X94905285Y-96750853D02*
X95582619Y-97766853D01*
X96610714Y-72076568D02*
X96126904Y-72076568D01*
X96707476Y-72366853D02*
X96368809Y-71350853D01*
X96368809Y-71350853D02*
X96030142Y-72366853D01*
X95497952Y-71350853D02*
X95401190Y-71350853D01*
X95401190Y-71350853D02*
X95304428Y-71399234D01*
X95304428Y-71399234D02*
X95256047Y-71447615D01*
X95256047Y-71447615D02*
X95207666Y-71544377D01*
X95207666Y-71544377D02*
X95159285Y-71737901D01*
X95159285Y-71737901D02*
X95159285Y-71979806D01*
X95159285Y-71979806D02*
X95207666Y-72173330D01*
X95207666Y-72173330D02*
X95256047Y-72270092D01*
X95256047Y-72270092D02*
X95304428Y-72318473D01*
X95304428Y-72318473D02*
X95401190Y-72366853D01*
X95401190Y-72366853D02*
X95497952Y-72366853D01*
X95497952Y-72366853D02*
X95594714Y-72318473D01*
X95594714Y-72318473D02*
X95643095Y-72270092D01*
X95643095Y-72270092D02*
X95691476Y-72173330D01*
X95691476Y-72173330D02*
X95739857Y-71979806D01*
X95739857Y-71979806D02*
X95739857Y-71737901D01*
X95739857Y-71737901D02*
X95691476Y-71544377D01*
X95691476Y-71544377D02*
X95643095Y-71447615D01*
X95643095Y-71447615D02*
X95594714Y-71399234D01*
X95594714Y-71399234D02*
X95497952Y-71350853D01*
X96659095Y-63730853D02*
X96030142Y-63730853D01*
X96030142Y-63730853D02*
X96368809Y-64117901D01*
X96368809Y-64117901D02*
X96223666Y-64117901D01*
X96223666Y-64117901D02*
X96126904Y-64166282D01*
X96126904Y-64166282D02*
X96078523Y-64214663D01*
X96078523Y-64214663D02*
X96030142Y-64311425D01*
X96030142Y-64311425D02*
X96030142Y-64553330D01*
X96030142Y-64553330D02*
X96078523Y-64650092D01*
X96078523Y-64650092D02*
X96126904Y-64698473D01*
X96126904Y-64698473D02*
X96223666Y-64746853D01*
X96223666Y-64746853D02*
X96513952Y-64746853D01*
X96513952Y-64746853D02*
X96610714Y-64698473D01*
X96610714Y-64698473D02*
X96659095Y-64650092D01*
X95739857Y-63730853D02*
X95401190Y-64746853D01*
X95401190Y-64746853D02*
X95062523Y-63730853D01*
X97445285Y-87558473D02*
X97300142Y-87606853D01*
X97300142Y-87606853D02*
X97058237Y-87606853D01*
X97058237Y-87606853D02*
X96961475Y-87558473D01*
X96961475Y-87558473D02*
X96913094Y-87510092D01*
X96913094Y-87510092D02*
X96864713Y-87413330D01*
X96864713Y-87413330D02*
X96864713Y-87316568D01*
X96864713Y-87316568D02*
X96913094Y-87219806D01*
X96913094Y-87219806D02*
X96961475Y-87171425D01*
X96961475Y-87171425D02*
X97058237Y-87123044D01*
X97058237Y-87123044D02*
X97251761Y-87074663D01*
X97251761Y-87074663D02*
X97348523Y-87026282D01*
X97348523Y-87026282D02*
X97396904Y-86977901D01*
X97396904Y-86977901D02*
X97445285Y-86881139D01*
X97445285Y-86881139D02*
X97445285Y-86784377D01*
X97445285Y-86784377D02*
X97396904Y-86687615D01*
X97396904Y-86687615D02*
X97348523Y-86639234D01*
X97348523Y-86639234D02*
X97251761Y-86590853D01*
X97251761Y-86590853D02*
X97009856Y-86590853D01*
X97009856Y-86590853D02*
X96864713Y-86639234D01*
X95848713Y-87510092D02*
X95897094Y-87558473D01*
X95897094Y-87558473D02*
X96042237Y-87606853D01*
X96042237Y-87606853D02*
X96138999Y-87606853D01*
X96138999Y-87606853D02*
X96284142Y-87558473D01*
X96284142Y-87558473D02*
X96380904Y-87461711D01*
X96380904Y-87461711D02*
X96429285Y-87364949D01*
X96429285Y-87364949D02*
X96477666Y-87171425D01*
X96477666Y-87171425D02*
X96477666Y-87026282D01*
X96477666Y-87026282D02*
X96429285Y-86832758D01*
X96429285Y-86832758D02*
X96380904Y-86735996D01*
X96380904Y-86735996D02*
X96284142Y-86639234D01*
X96284142Y-86639234D02*
X96138999Y-86590853D01*
X96138999Y-86590853D02*
X96042237Y-86590853D01*
X96042237Y-86590853D02*
X95897094Y-86639234D01*
X95897094Y-86639234D02*
X95848713Y-86687615D01*
X95413285Y-87606853D02*
X95413285Y-86590853D01*
X94832713Y-87606853D02*
X95268142Y-87026282D01*
X94832713Y-86590853D02*
X95413285Y-87171425D01*
X96610714Y-79696568D02*
X96126904Y-79696568D01*
X96707476Y-79986853D02*
X96368809Y-78970853D01*
X96368809Y-78970853D02*
X96030142Y-79986853D01*
X95788238Y-78970853D02*
X95159285Y-78970853D01*
X95159285Y-78970853D02*
X95497952Y-79357901D01*
X95497952Y-79357901D02*
X95352809Y-79357901D01*
X95352809Y-79357901D02*
X95256047Y-79406282D01*
X95256047Y-79406282D02*
X95207666Y-79454663D01*
X95207666Y-79454663D02*
X95159285Y-79551425D01*
X95159285Y-79551425D02*
X95159285Y-79793330D01*
X95159285Y-79793330D02*
X95207666Y-79890092D01*
X95207666Y-79890092D02*
X95256047Y-79938473D01*
X95256047Y-79938473D02*
X95352809Y-79986853D01*
X95352809Y-79986853D02*
X95643095Y-79986853D01*
X95643095Y-79986853D02*
X95739857Y-79938473D01*
X95739857Y-79938473D02*
X95788238Y-79890092D01*
X97167094Y-68859234D02*
X97263856Y-68810853D01*
X97263856Y-68810853D02*
X97408999Y-68810853D01*
X97408999Y-68810853D02*
X97554142Y-68859234D01*
X97554142Y-68859234D02*
X97650904Y-68955996D01*
X97650904Y-68955996D02*
X97699285Y-69052758D01*
X97699285Y-69052758D02*
X97747666Y-69246282D01*
X97747666Y-69246282D02*
X97747666Y-69391425D01*
X97747666Y-69391425D02*
X97699285Y-69584949D01*
X97699285Y-69584949D02*
X97650904Y-69681711D01*
X97650904Y-69681711D02*
X97554142Y-69778473D01*
X97554142Y-69778473D02*
X97408999Y-69826853D01*
X97408999Y-69826853D02*
X97312237Y-69826853D01*
X97312237Y-69826853D02*
X97167094Y-69778473D01*
X97167094Y-69778473D02*
X97118713Y-69730092D01*
X97118713Y-69730092D02*
X97118713Y-69391425D01*
X97118713Y-69391425D02*
X97312237Y-69391425D01*
X96683285Y-69826853D02*
X96683285Y-68810853D01*
X96683285Y-68810853D02*
X96102713Y-69826853D01*
X96102713Y-69826853D02*
X96102713Y-68810853D01*
X95618904Y-69826853D02*
X95618904Y-68810853D01*
X95618904Y-68810853D02*
X95376999Y-68810853D01*
X95376999Y-68810853D02*
X95231856Y-68859234D01*
X95231856Y-68859234D02*
X95135094Y-68955996D01*
X95135094Y-68955996D02*
X95086713Y-69052758D01*
X95086713Y-69052758D02*
X95038332Y-69246282D01*
X95038332Y-69246282D02*
X95038332Y-69391425D01*
X95038332Y-69391425D02*
X95086713Y-69584949D01*
X95086713Y-69584949D02*
X95135094Y-69681711D01*
X95135094Y-69681711D02*
X95231856Y-69778473D01*
X95231856Y-69778473D02*
X95376999Y-69826853D01*
X95376999Y-69826853D02*
X95618904Y-69826853D01*
X112612714Y-87606853D02*
X112612714Y-86590853D01*
X112612714Y-86590853D02*
X112370809Y-86590853D01*
X112370809Y-86590853D02*
X112225666Y-86639234D01*
X112225666Y-86639234D02*
X112128904Y-86735996D01*
X112128904Y-86735996D02*
X112080523Y-86832758D01*
X112080523Y-86832758D02*
X112032142Y-87026282D01*
X112032142Y-87026282D02*
X112032142Y-87171425D01*
X112032142Y-87171425D02*
X112080523Y-87364949D01*
X112080523Y-87364949D02*
X112128904Y-87461711D01*
X112128904Y-87461711D02*
X112225666Y-87558473D01*
X112225666Y-87558473D02*
X112370809Y-87606853D01*
X112370809Y-87606853D02*
X112612714Y-87606853D01*
X111064523Y-87606853D02*
X111645095Y-87606853D01*
X111354809Y-87606853D02*
X111354809Y-86590853D01*
X111354809Y-86590853D02*
X111451571Y-86735996D01*
X111451571Y-86735996D02*
X111548333Y-86832758D01*
X111548333Y-86832758D02*
X111645095Y-86881139D01*
X110435571Y-86590853D02*
X110338809Y-86590853D01*
X110338809Y-86590853D02*
X110242047Y-86639234D01*
X110242047Y-86639234D02*
X110193666Y-86687615D01*
X110193666Y-86687615D02*
X110145285Y-86784377D01*
X110145285Y-86784377D02*
X110096904Y-86977901D01*
X110096904Y-86977901D02*
X110096904Y-87219806D01*
X110096904Y-87219806D02*
X110145285Y-87413330D01*
X110145285Y-87413330D02*
X110193666Y-87510092D01*
X110193666Y-87510092D02*
X110242047Y-87558473D01*
X110242047Y-87558473D02*
X110338809Y-87606853D01*
X110338809Y-87606853D02*
X110435571Y-87606853D01*
X110435571Y-87606853D02*
X110532333Y-87558473D01*
X110532333Y-87558473D02*
X110580714Y-87510092D01*
X110580714Y-87510092D02*
X110629095Y-87413330D01*
X110629095Y-87413330D02*
X110677476Y-87219806D01*
X110677476Y-87219806D02*
X110677476Y-86977901D01*
X110677476Y-86977901D02*
X110629095Y-86784377D01*
X110629095Y-86784377D02*
X110580714Y-86687615D01*
X110580714Y-86687615D02*
X110532333Y-86639234D01*
X110532333Y-86639234D02*
X110435571Y-86590853D01*
X96610714Y-74616568D02*
X96126904Y-74616568D01*
X96707476Y-74906853D02*
X96368809Y-73890853D01*
X96368809Y-73890853D02*
X96030142Y-74906853D01*
X95159285Y-74906853D02*
X95739857Y-74906853D01*
X95449571Y-74906853D02*
X95449571Y-73890853D01*
X95449571Y-73890853D02*
X95546333Y-74035996D01*
X95546333Y-74035996D02*
X95643095Y-74132758D01*
X95643095Y-74132758D02*
X95739857Y-74181139D01*
D11*
X144533333Y-69154819D02*
X144533333Y-69869104D01*
X144533333Y-69869104D02*
X144580952Y-70011961D01*
X144580952Y-70011961D02*
X144676190Y-70107200D01*
X144676190Y-70107200D02*
X144819047Y-70154819D01*
X144819047Y-70154819D02*
X144914285Y-70154819D01*
X144057142Y-70154819D02*
X144057142Y-69154819D01*
X144057142Y-69154819D02*
X143676190Y-69154819D01*
X143676190Y-69154819D02*
X143580952Y-69202438D01*
X143580952Y-69202438D02*
X143533333Y-69250057D01*
X143533333Y-69250057D02*
X143485714Y-69345295D01*
X143485714Y-69345295D02*
X143485714Y-69488152D01*
X143485714Y-69488152D02*
X143533333Y-69583390D01*
X143533333Y-69583390D02*
X143580952Y-69631009D01*
X143580952Y-69631009D02*
X143676190Y-69678628D01*
X143676190Y-69678628D02*
X144057142Y-69678628D01*
X143104761Y-69250057D02*
X143057142Y-69202438D01*
X143057142Y-69202438D02*
X142961904Y-69154819D01*
X142961904Y-69154819D02*
X142723809Y-69154819D01*
X142723809Y-69154819D02*
X142628571Y-69202438D01*
X142628571Y-69202438D02*
X142580952Y-69250057D01*
X142580952Y-69250057D02*
X142533333Y-69345295D01*
X142533333Y-69345295D02*
X142533333Y-69440533D01*
X142533333Y-69440533D02*
X142580952Y-69583390D01*
X142580952Y-69583390D02*
X143152380Y-70154819D01*
X143152380Y-70154819D02*
X142533333Y-70154819D01*
X144533333Y-58354819D02*
X144533333Y-59069104D01*
X144533333Y-59069104D02*
X144580952Y-59211961D01*
X144580952Y-59211961D02*
X144676190Y-59307200D01*
X144676190Y-59307200D02*
X144819047Y-59354819D01*
X144819047Y-59354819D02*
X144914285Y-59354819D01*
X144057142Y-59354819D02*
X144057142Y-58354819D01*
X144057142Y-58354819D02*
X143676190Y-58354819D01*
X143676190Y-58354819D02*
X143580952Y-58402438D01*
X143580952Y-58402438D02*
X143533333Y-58450057D01*
X143533333Y-58450057D02*
X143485714Y-58545295D01*
X143485714Y-58545295D02*
X143485714Y-58688152D01*
X143485714Y-58688152D02*
X143533333Y-58783390D01*
X143533333Y-58783390D02*
X143580952Y-58831009D01*
X143580952Y-58831009D02*
X143676190Y-58878628D01*
X143676190Y-58878628D02*
X144057142Y-58878628D01*
X143152380Y-58354819D02*
X142533333Y-58354819D01*
X142533333Y-58354819D02*
X142866666Y-58735771D01*
X142866666Y-58735771D02*
X142723809Y-58735771D01*
X142723809Y-58735771D02*
X142628571Y-58783390D01*
X142628571Y-58783390D02*
X142580952Y-58831009D01*
X142580952Y-58831009D02*
X142533333Y-58926247D01*
X142533333Y-58926247D02*
X142533333Y-59164342D01*
X142533333Y-59164342D02*
X142580952Y-59259580D01*
X142580952Y-59259580D02*
X142628571Y-59307200D01*
X142628571Y-59307200D02*
X142723809Y-59354819D01*
X142723809Y-59354819D02*
X143009523Y-59354819D01*
X143009523Y-59354819D02*
X143104761Y-59307200D01*
X143104761Y-59307200D02*
X143152380Y-59259580D01*
X144533333Y-66554819D02*
X144533333Y-67269104D01*
X144533333Y-67269104D02*
X144580952Y-67411961D01*
X144580952Y-67411961D02*
X144676190Y-67507200D01*
X144676190Y-67507200D02*
X144819047Y-67554819D01*
X144819047Y-67554819D02*
X144914285Y-67554819D01*
X144057142Y-67554819D02*
X144057142Y-66554819D01*
X144057142Y-66554819D02*
X143676190Y-66554819D01*
X143676190Y-66554819D02*
X143580952Y-66602438D01*
X143580952Y-66602438D02*
X143533333Y-66650057D01*
X143533333Y-66650057D02*
X143485714Y-66745295D01*
X143485714Y-66745295D02*
X143485714Y-66888152D01*
X143485714Y-66888152D02*
X143533333Y-66983390D01*
X143533333Y-66983390D02*
X143580952Y-67031009D01*
X143580952Y-67031009D02*
X143676190Y-67078628D01*
X143676190Y-67078628D02*
X144057142Y-67078628D01*
X142533333Y-67554819D02*
X143104761Y-67554819D01*
X142819047Y-67554819D02*
X142819047Y-66554819D01*
X142819047Y-66554819D02*
X142914285Y-66697676D01*
X142914285Y-66697676D02*
X143009523Y-66792914D01*
X143009523Y-66792914D02*
X143104761Y-66840533D01*
X144483333Y-74804819D02*
X144483333Y-75519104D01*
X144483333Y-75519104D02*
X144530952Y-75661961D01*
X144530952Y-75661961D02*
X144626190Y-75757200D01*
X144626190Y-75757200D02*
X144769047Y-75804819D01*
X144769047Y-75804819D02*
X144864285Y-75804819D01*
X144007142Y-75804819D02*
X144007142Y-74804819D01*
X144007142Y-74804819D02*
X143626190Y-74804819D01*
X143626190Y-74804819D02*
X143530952Y-74852438D01*
X143530952Y-74852438D02*
X143483333Y-74900057D01*
X143483333Y-74900057D02*
X143435714Y-74995295D01*
X143435714Y-74995295D02*
X143435714Y-75138152D01*
X143435714Y-75138152D02*
X143483333Y-75233390D01*
X143483333Y-75233390D02*
X143530952Y-75281009D01*
X143530952Y-75281009D02*
X143626190Y-75328628D01*
X143626190Y-75328628D02*
X144007142Y-75328628D01*
X143102380Y-74804819D02*
X142435714Y-74804819D01*
X142435714Y-74804819D02*
X142864285Y-75804819D01*
X144533333Y-85554819D02*
X144533333Y-86269104D01*
X144533333Y-86269104D02*
X144580952Y-86411961D01*
X144580952Y-86411961D02*
X144676190Y-86507200D01*
X144676190Y-86507200D02*
X144819047Y-86554819D01*
X144819047Y-86554819D02*
X144914285Y-86554819D01*
X144057142Y-86554819D02*
X144057142Y-85554819D01*
X144057142Y-85554819D02*
X143676190Y-85554819D01*
X143676190Y-85554819D02*
X143580952Y-85602438D01*
X143580952Y-85602438D02*
X143533333Y-85650057D01*
X143533333Y-85650057D02*
X143485714Y-85745295D01*
X143485714Y-85745295D02*
X143485714Y-85888152D01*
X143485714Y-85888152D02*
X143533333Y-85983390D01*
X143533333Y-85983390D02*
X143580952Y-86031009D01*
X143580952Y-86031009D02*
X143676190Y-86078628D01*
X143676190Y-86078628D02*
X144057142Y-86078628D01*
X142628571Y-85554819D02*
X142819047Y-85554819D01*
X142819047Y-85554819D02*
X142914285Y-85602438D01*
X142914285Y-85602438D02*
X142961904Y-85650057D01*
X142961904Y-85650057D02*
X143057142Y-85792914D01*
X143057142Y-85792914D02*
X143104761Y-85983390D01*
X143104761Y-85983390D02*
X143104761Y-86364342D01*
X143104761Y-86364342D02*
X143057142Y-86459580D01*
X143057142Y-86459580D02*
X143009523Y-86507200D01*
X143009523Y-86507200D02*
X142914285Y-86554819D01*
X142914285Y-86554819D02*
X142723809Y-86554819D01*
X142723809Y-86554819D02*
X142628571Y-86507200D01*
X142628571Y-86507200D02*
X142580952Y-86459580D01*
X142580952Y-86459580D02*
X142533333Y-86364342D01*
X142533333Y-86364342D02*
X142533333Y-86126247D01*
X142533333Y-86126247D02*
X142580952Y-86031009D01*
X142580952Y-86031009D02*
X142628571Y-85983390D01*
X142628571Y-85983390D02*
X142723809Y-85935771D01*
X142723809Y-85935771D02*
X142914285Y-85935771D01*
X142914285Y-85935771D02*
X143009523Y-85983390D01*
X143009523Y-85983390D02*
X143057142Y-86031009D01*
X143057142Y-86031009D02*
X143104761Y-86126247D01*
X144533333Y-60954819D02*
X144533333Y-61669104D01*
X144533333Y-61669104D02*
X144580952Y-61811961D01*
X144580952Y-61811961D02*
X144676190Y-61907200D01*
X144676190Y-61907200D02*
X144819047Y-61954819D01*
X144819047Y-61954819D02*
X144914285Y-61954819D01*
X144057142Y-61954819D02*
X144057142Y-60954819D01*
X144057142Y-60954819D02*
X143676190Y-60954819D01*
X143676190Y-60954819D02*
X143580952Y-61002438D01*
X143580952Y-61002438D02*
X143533333Y-61050057D01*
X143533333Y-61050057D02*
X143485714Y-61145295D01*
X143485714Y-61145295D02*
X143485714Y-61288152D01*
X143485714Y-61288152D02*
X143533333Y-61383390D01*
X143533333Y-61383390D02*
X143580952Y-61431009D01*
X143580952Y-61431009D02*
X143676190Y-61478628D01*
X143676190Y-61478628D02*
X144057142Y-61478628D01*
X142628571Y-61288152D02*
X142628571Y-61954819D01*
X142866666Y-60907200D02*
X143104761Y-61621485D01*
X143104761Y-61621485D02*
X142485714Y-61621485D01*
X144483333Y-77354819D02*
X144483333Y-78069104D01*
X144483333Y-78069104D02*
X144530952Y-78211961D01*
X144530952Y-78211961D02*
X144626190Y-78307200D01*
X144626190Y-78307200D02*
X144769047Y-78354819D01*
X144769047Y-78354819D02*
X144864285Y-78354819D01*
X144007142Y-78354819D02*
X144007142Y-77354819D01*
X144007142Y-77354819D02*
X143626190Y-77354819D01*
X143626190Y-77354819D02*
X143530952Y-77402438D01*
X143530952Y-77402438D02*
X143483333Y-77450057D01*
X143483333Y-77450057D02*
X143435714Y-77545295D01*
X143435714Y-77545295D02*
X143435714Y-77688152D01*
X143435714Y-77688152D02*
X143483333Y-77783390D01*
X143483333Y-77783390D02*
X143530952Y-77831009D01*
X143530952Y-77831009D02*
X143626190Y-77878628D01*
X143626190Y-77878628D02*
X144007142Y-77878628D01*
X142864285Y-77783390D02*
X142959523Y-77735771D01*
X142959523Y-77735771D02*
X143007142Y-77688152D01*
X143007142Y-77688152D02*
X143054761Y-77592914D01*
X143054761Y-77592914D02*
X143054761Y-77545295D01*
X143054761Y-77545295D02*
X143007142Y-77450057D01*
X143007142Y-77450057D02*
X142959523Y-77402438D01*
X142959523Y-77402438D02*
X142864285Y-77354819D01*
X142864285Y-77354819D02*
X142673809Y-77354819D01*
X142673809Y-77354819D02*
X142578571Y-77402438D01*
X142578571Y-77402438D02*
X142530952Y-77450057D01*
X142530952Y-77450057D02*
X142483333Y-77545295D01*
X142483333Y-77545295D02*
X142483333Y-77592914D01*
X142483333Y-77592914D02*
X142530952Y-77688152D01*
X142530952Y-77688152D02*
X142578571Y-77735771D01*
X142578571Y-77735771D02*
X142673809Y-77783390D01*
X142673809Y-77783390D02*
X142864285Y-77783390D01*
X142864285Y-77783390D02*
X142959523Y-77831009D01*
X142959523Y-77831009D02*
X143007142Y-77878628D01*
X143007142Y-77878628D02*
X143054761Y-77973866D01*
X143054761Y-77973866D02*
X143054761Y-78164342D01*
X143054761Y-78164342D02*
X143007142Y-78259580D01*
X143007142Y-78259580D02*
X142959523Y-78307200D01*
X142959523Y-78307200D02*
X142864285Y-78354819D01*
X142864285Y-78354819D02*
X142673809Y-78354819D01*
X142673809Y-78354819D02*
X142578571Y-78307200D01*
X142578571Y-78307200D02*
X142530952Y-78259580D01*
X142530952Y-78259580D02*
X142483333Y-78164342D01*
X142483333Y-78164342D02*
X142483333Y-77973866D01*
X142483333Y-77973866D02*
X142530952Y-77878628D01*
X142530952Y-77878628D02*
X142578571Y-77831009D01*
X142578571Y-77831009D02*
X142673809Y-77783390D01*
X144533333Y-83054819D02*
X144533333Y-83769104D01*
X144533333Y-83769104D02*
X144580952Y-83911961D01*
X144580952Y-83911961D02*
X144676190Y-84007200D01*
X144676190Y-84007200D02*
X144819047Y-84054819D01*
X144819047Y-84054819D02*
X144914285Y-84054819D01*
X144057142Y-84054819D02*
X144057142Y-83054819D01*
X144057142Y-83054819D02*
X143676190Y-83054819D01*
X143676190Y-83054819D02*
X143580952Y-83102438D01*
X143580952Y-83102438D02*
X143533333Y-83150057D01*
X143533333Y-83150057D02*
X143485714Y-83245295D01*
X143485714Y-83245295D02*
X143485714Y-83388152D01*
X143485714Y-83388152D02*
X143533333Y-83483390D01*
X143533333Y-83483390D02*
X143580952Y-83531009D01*
X143580952Y-83531009D02*
X143676190Y-83578628D01*
X143676190Y-83578628D02*
X144057142Y-83578628D01*
X142580952Y-83054819D02*
X143057142Y-83054819D01*
X143057142Y-83054819D02*
X143104761Y-83531009D01*
X143104761Y-83531009D02*
X143057142Y-83483390D01*
X143057142Y-83483390D02*
X142961904Y-83435771D01*
X142961904Y-83435771D02*
X142723809Y-83435771D01*
X142723809Y-83435771D02*
X142628571Y-83483390D01*
X142628571Y-83483390D02*
X142580952Y-83531009D01*
X142580952Y-83531009D02*
X142533333Y-83626247D01*
X142533333Y-83626247D02*
X142533333Y-83864342D01*
X142533333Y-83864342D02*
X142580952Y-83959580D01*
X142580952Y-83959580D02*
X142628571Y-84007200D01*
X142628571Y-84007200D02*
X142723809Y-84054819D01*
X142723809Y-84054819D02*
X142961904Y-84054819D01*
X142961904Y-84054819D02*
X143057142Y-84007200D01*
X143057142Y-84007200D02*
X143104761Y-83959580D01*
D13*
%TO.C,JP2*%
X145250000Y-69400000D02*
X145250000Y-70000000D01*
X145950000Y-70700000D02*
X147350000Y-70700000D01*
X147350000Y-68700000D02*
X145950000Y-68700000D01*
X148050000Y-70000000D02*
X148050000Y-69400000D01*
X145950000Y-68700000D02*
G75*
G03*
X145250000Y-69400000I-1J-699999D01*
G01*
X145250000Y-70000000D02*
G75*
G03*
X145950000Y-70700000I699999J-1D01*
G01*
X148050000Y-69400000D02*
G75*
G03*
X147350000Y-68700000I-700000J0D01*
G01*
X147350000Y-70700000D02*
G75*
G03*
X148050000Y-70000000I0J700000D01*
G01*
%TO.C,JP3*%
X145250000Y-58550000D02*
X145250000Y-59150000D01*
X145950000Y-59850000D02*
X147350000Y-59850000D01*
X147350000Y-57850000D02*
X145950000Y-57850000D01*
X148050000Y-59150000D02*
X148050000Y-58550000D01*
X145950000Y-57850000D02*
G75*
G03*
X145250000Y-58550000I-1J-699999D01*
G01*
X145250000Y-59150000D02*
G75*
G03*
X145950000Y-59850000I699999J-1D01*
G01*
X148050000Y-58550000D02*
G75*
G03*
X147350000Y-57850000I-700000J0D01*
G01*
X147350000Y-59850000D02*
G75*
G03*
X148050000Y-59150000I0J700000D01*
G01*
%TO.C,JP1*%
X145250000Y-66800000D02*
X145250000Y-67400000D01*
X145950000Y-68100000D02*
X147350000Y-68100000D01*
X147350000Y-66100000D02*
X145950000Y-66100000D01*
X148050000Y-67400000D02*
X148050000Y-66800000D01*
X145950000Y-66100000D02*
G75*
G03*
X145250000Y-66800000I-1J-699999D01*
G01*
X145250000Y-67400000D02*
G75*
G03*
X145950000Y-68100000I699999J-1D01*
G01*
X148050000Y-66800000D02*
G75*
G03*
X147350000Y-66100000I-700000J0D01*
G01*
X147350000Y-68100000D02*
G75*
G03*
X148050000Y-67400000I0J700000D01*
G01*
%TO.C,JP7*%
X145250000Y-75000000D02*
X145250000Y-75600000D01*
X145950000Y-76300000D02*
X147350000Y-76300000D01*
X147350000Y-74300000D02*
X145950000Y-74300000D01*
X148050000Y-75600000D02*
X148050000Y-75000000D01*
X145950000Y-74300000D02*
G75*
G03*
X145250000Y-75000000I-1J-699999D01*
G01*
X145250000Y-75600000D02*
G75*
G03*
X145950000Y-76300000I699999J-1D01*
G01*
X148050000Y-75000000D02*
G75*
G03*
X147350000Y-74300000I-700000J0D01*
G01*
X147350000Y-76300000D02*
G75*
G03*
X148050000Y-75600000I0J700000D01*
G01*
%TO.C,JP6*%
X145250000Y-85900000D02*
X145250000Y-86500000D01*
X145950000Y-87200000D02*
X147350000Y-87200000D01*
X147350000Y-85200000D02*
X145950000Y-85200000D01*
X148050000Y-86500000D02*
X148050000Y-85900000D01*
X145950000Y-85200000D02*
G75*
G03*
X145250000Y-85900000I-1J-699999D01*
G01*
X145250000Y-86500000D02*
G75*
G03*
X145950000Y-87200000I699999J-1D01*
G01*
X148050000Y-85900000D02*
G75*
G03*
X147350000Y-85200000I-700000J0D01*
G01*
X147350000Y-87200000D02*
G75*
G03*
X148050000Y-86500000I0J700000D01*
G01*
%TO.C,JP4*%
X145250000Y-61200000D02*
X145250000Y-61800000D01*
X145950000Y-62500000D02*
X147350000Y-62500000D01*
X147350000Y-60500000D02*
X145950000Y-60500000D01*
X148050000Y-61800000D02*
X148050000Y-61200000D01*
X145950000Y-60500000D02*
G75*
G03*
X145250000Y-61200000I-1J-699999D01*
G01*
X145250000Y-61800000D02*
G75*
G03*
X145950000Y-62500000I699999J-1D01*
G01*
X148050000Y-61200000D02*
G75*
G03*
X147350000Y-60500000I-700000J0D01*
G01*
X147350000Y-62500000D02*
G75*
G03*
X148050000Y-61800000I0J700000D01*
G01*
%TO.C,JP8*%
X145250000Y-77600000D02*
X145250000Y-78200000D01*
X145950000Y-78900000D02*
X147350000Y-78900000D01*
X147350000Y-76900000D02*
X145950000Y-76900000D01*
X148050000Y-78200000D02*
X148050000Y-77600000D01*
X145950000Y-76900000D02*
G75*
G03*
X145250000Y-77600000I-1J-699999D01*
G01*
X145250000Y-78200000D02*
G75*
G03*
X145950000Y-78900000I699999J-1D01*
G01*
X148050000Y-77600000D02*
G75*
G03*
X147350000Y-76900000I-700000J0D01*
G01*
X147350000Y-78900000D02*
G75*
G03*
X148050000Y-78200000I0J700000D01*
G01*
%TO.C,JP5*%
X145250000Y-83300000D02*
X145250000Y-83900000D01*
X145950000Y-84600000D02*
X147350000Y-84600000D01*
X147350000Y-82600000D02*
X145950000Y-82600000D01*
X148050000Y-83900000D02*
X148050000Y-83300000D01*
X145950000Y-82600000D02*
G75*
G03*
X145250000Y-83300000I-1J-699999D01*
G01*
X145250000Y-83900000D02*
G75*
G03*
X145950000Y-84600000I699999J-1D01*
G01*
X148050000Y-83300000D02*
G75*
G03*
X147350000Y-82600000I-700000J0D01*
G01*
X147350000Y-84600000D02*
G75*
G03*
X148050000Y-83900000I0J700000D01*
G01*
%TD*%
M02*
