%TF.GenerationSoftware,KiCad,Pcbnew,7.0.10-7.0.10~ubuntu22.04.1*%
%TF.CreationDate,2024-08-19T10:48:18-07:00*%
%TF.ProjectId,iorodeo_feather_tripler_enc1,696f726f-6465-46f5-9f66-656174686572,rev?*%
%TF.SameCoordinates,Original*%
%TF.FileFunction,Copper,L2,Bot*%
%TF.FilePolarity,Positive*%
%FSLAX46Y46*%
G04 Gerber Fmt 4.6, Leading zero omitted, Abs format (unit mm)*
G04 Created by KiCad (PCBNEW 7.0.10-7.0.10~ubuntu22.04.1) date 2024-08-19 10:48:18*
%MOMM*%
%LPD*%
G01*
G04 APERTURE LIST*
%TA.AperFunction,ComponentPad*%
%ADD10O,4.500000X2.300000*%
%TD*%
%TA.AperFunction,ComponentPad*%
%ADD11O,2.000000X4.500000*%
%TD*%
%TA.AperFunction,WasherPad*%
%ADD12C,3.048000*%
%TD*%
%TA.AperFunction,ComponentPad*%
%ADD13C,3.048000*%
%TD*%
%TA.AperFunction,ComponentPad*%
%ADD14C,1.778000*%
%TD*%
%TA.AperFunction,ViaPad*%
%ADD15C,1.000000*%
%TD*%
%TA.AperFunction,ViaPad*%
%ADD16C,0.800000*%
%TD*%
%TA.AperFunction,Conductor*%
%ADD17C,0.500000*%
%TD*%
%TA.AperFunction,Conductor*%
%ADD18C,0.250000*%
%TD*%
G04 APERTURE END LIST*
D10*
%TO.P,J1,1*%
%TO.N,/VUSB*%
X62086300Y-105239700D03*
%TO.P,J1,2*%
%TO.N,GND*%
X62086300Y-99039700D03*
D11*
%TO.P,J1,3*%
X57286300Y-102289700D03*
%TD*%
D12*
%TO.P,U1,*%
%TO.N,*%
X88519000Y-103657400D03*
D13*
X88519000Y-57937400D03*
D12*
X70739000Y-103657400D03*
D13*
X70739000Y-57937400D03*
D14*
%TO.P,U1,1,SDA*%
%TO.N,/SDA*%
X89789000Y-99847400D03*
%TO.P,U1,2,SCL*%
%TO.N,/SCL*%
X89789000Y-97307400D03*
%TO.P,U1,3,D5*%
%TO.N,/D5*%
X89789000Y-94767400D03*
%TO.P,U1,4,D6*%
%TO.N,/D6*%
X89789000Y-92227400D03*
%TO.P,U1,5,D9*%
%TO.N,/D9*%
X89789000Y-89687400D03*
%TO.P,U1,6,D10*%
%TO.N,/D10*%
X89789000Y-87147400D03*
%TO.P,U1,7,D11*%
%TO.N,/D11*%
X89789000Y-84607400D03*
%TO.P,U1,8,D12*%
%TO.N,/D12*%
X89789000Y-82067400D03*
%TO.P,U1,9,D13*%
%TO.N,/D13*%
X89789000Y-79527400D03*
%TO.P,U1,10,VUSB*%
%TO.N,/5V*%
X89789000Y-76987400D03*
%TO.P,U1,11,EN*%
%TO.N,/EN*%
X89789000Y-74447400D03*
%TO.P,U1,12,BAT*%
%TO.N,/BAT*%
X89789000Y-71907400D03*
%TO.P,U1,13,RST*%
%TO.N,/RST*%
X69469000Y-61747400D03*
%TO.P,U1,14,3V3*%
%TO.N,/3V3*%
X69469000Y-64287400D03*
%TO.P,U1,15,AREF*%
%TO.N,/AREF*%
X69469000Y-66827400D03*
%TO.P,U1,16,GND*%
%TO.N,GND*%
X69469000Y-69367400D03*
%TO.P,U1,17,A0*%
%TO.N,/A0*%
X69469000Y-71907400D03*
%TO.P,U1,18,A1*%
%TO.N,/A1*%
X69469000Y-74447400D03*
%TO.P,U1,19,A2*%
%TO.N,/A2*%
X69469000Y-76987400D03*
%TO.P,U1,20,A3*%
%TO.N,/A3*%
X69469000Y-79527400D03*
%TO.P,U1,21,A4*%
%TO.N,/A4*%
X69469000Y-82067400D03*
%TO.P,U1,22,A5*%
%TO.N,/A5*%
X69469000Y-84607400D03*
%TO.P,U1,23,SCK*%
%TO.N,/SCK*%
X69469000Y-87147400D03*
%TO.P,U1,24,MOSI*%
%TO.N,/MOSI*%
X69469000Y-89687400D03*
%TO.P,U1,25,MISO*%
%TO.N,/MISO*%
X69469000Y-92227400D03*
%TO.P,U1,26,RX*%
%TO.N,/RX*%
X69469000Y-94767400D03*
%TO.P,U1,27,TX*%
%TO.N,/TX*%
X69469000Y-97307400D03*
%TO.P,U1,28,NOS*%
%TO.N,unconnected-(U1-NOS-Pad28)*%
X69469000Y-99847400D03*
%TD*%
D12*
%TO.P,U3,*%
%TO.N,*%
X136779000Y-103657400D03*
D13*
X136779000Y-57937400D03*
D12*
X118999000Y-103657400D03*
D13*
X118999000Y-57937400D03*
D14*
%TO.P,U3,1,SDA*%
%TO.N,/SDA*%
X138049000Y-99847400D03*
%TO.P,U3,2,SCL*%
%TO.N,/SCL*%
X138049000Y-97307400D03*
%TO.P,U3,3,D5*%
%TO.N,/D5*%
X138049000Y-94767400D03*
%TO.P,U3,4,D6*%
%TO.N,/D6*%
X138049000Y-92227400D03*
%TO.P,U3,5,D9*%
%TO.N,/D9*%
X138049000Y-89687400D03*
%TO.P,U3,6,D10*%
%TO.N,/D10*%
X138049000Y-87147400D03*
%TO.P,U3,7,D11*%
%TO.N,/D11*%
X138049000Y-84607400D03*
%TO.P,U3,8,D12*%
%TO.N,/D12*%
X138049000Y-82067400D03*
%TO.P,U3,9,D13*%
%TO.N,/D13*%
X138049000Y-79527400D03*
%TO.P,U3,10,VUSB*%
%TO.N,/5V*%
X138049000Y-76987400D03*
%TO.P,U3,11,EN*%
%TO.N,/EN*%
X138049000Y-74447400D03*
%TO.P,U3,12,BAT*%
%TO.N,/BAT*%
X138049000Y-71907400D03*
%TO.P,U3,13,RST*%
%TO.N,/RST*%
X117729000Y-61747400D03*
%TO.P,U3,14,3V3*%
%TO.N,/3V3*%
X117729000Y-64287400D03*
%TO.P,U3,15,AREF*%
%TO.N,/AREF*%
X117729000Y-66827400D03*
%TO.P,U3,16,GND*%
%TO.N,GND*%
X117729000Y-69367400D03*
%TO.P,U3,17,A0*%
%TO.N,/A0*%
X117729000Y-71907400D03*
%TO.P,U3,18,A1*%
%TO.N,/A1*%
X117729000Y-74447400D03*
%TO.P,U3,19,A2*%
%TO.N,/A2*%
X117729000Y-76987400D03*
%TO.P,U3,20,A3*%
%TO.N,/A3*%
X117729000Y-79527400D03*
%TO.P,U3,21,A4*%
%TO.N,/A4*%
X117729000Y-82067400D03*
%TO.P,U3,22,A5*%
%TO.N,/A5*%
X117729000Y-84607400D03*
%TO.P,U3,23,SCK*%
%TO.N,/SCK*%
X117729000Y-87147400D03*
%TO.P,U3,24,MOSI*%
%TO.N,/MOSI*%
X117729000Y-89687400D03*
%TO.P,U3,25,MISO*%
%TO.N,/MISO*%
X117729000Y-92227400D03*
%TO.P,U3,26,RX*%
%TO.N,/RX*%
X117729000Y-94767400D03*
%TO.P,U3,27,TX*%
%TO.N,/TX*%
X117729000Y-97307400D03*
%TO.P,U3,28,NOS*%
%TO.N,unconnected-(U3-NOS-Pad28)*%
X117729000Y-99847400D03*
%TD*%
D12*
%TO.P,U2,*%
%TO.N,*%
X112649000Y-103657400D03*
D13*
X112649000Y-57937400D03*
D12*
X94869000Y-103657400D03*
D13*
X94869000Y-57937400D03*
D14*
%TO.P,U2,1,SDA*%
%TO.N,/SDA*%
X113919000Y-99847400D03*
%TO.P,U2,2,SCL*%
%TO.N,/SCL*%
X113919000Y-97307400D03*
%TO.P,U2,3,D5*%
%TO.N,/D5*%
X113919000Y-94767400D03*
%TO.P,U2,4,D6*%
%TO.N,/D6*%
X113919000Y-92227400D03*
%TO.P,U2,5,D9*%
%TO.N,/D9*%
X113919000Y-89687400D03*
%TO.P,U2,6,D10*%
%TO.N,/D10*%
X113919000Y-87147400D03*
%TO.P,U2,7,D11*%
%TO.N,/D11*%
X113919000Y-84607400D03*
%TO.P,U2,8,D12*%
%TO.N,/D12*%
X113919000Y-82067400D03*
%TO.P,U2,9,D13*%
%TO.N,/D13*%
X113919000Y-79527400D03*
%TO.P,U2,10,VUSB*%
%TO.N,/5V*%
X113919000Y-76987400D03*
%TO.P,U2,11,EN*%
%TO.N,/EN*%
X113919000Y-74447400D03*
%TO.P,U2,12,BAT*%
%TO.N,/BAT*%
X113919000Y-71907400D03*
%TO.P,U2,13,RST*%
%TO.N,/RST*%
X93599000Y-61747400D03*
%TO.P,U2,14,3V3*%
%TO.N,/3V3*%
X93599000Y-64287400D03*
%TO.P,U2,15,AREF*%
%TO.N,/AREF*%
X93599000Y-66827400D03*
%TO.P,U2,16,GND*%
%TO.N,GND*%
X93599000Y-69367400D03*
%TO.P,U2,17,A0*%
%TO.N,/A0*%
X93599000Y-71907400D03*
%TO.P,U2,18,A1*%
%TO.N,/A1*%
X93599000Y-74447400D03*
%TO.P,U2,19,A2*%
%TO.N,/A2*%
X93599000Y-76987400D03*
%TO.P,U2,20,A3*%
%TO.N,/A3*%
X93599000Y-79527400D03*
%TO.P,U2,21,A4*%
%TO.N,/A4*%
X93599000Y-82067400D03*
%TO.P,U2,22,A5*%
%TO.N,/A5*%
X93599000Y-84607400D03*
%TO.P,U2,23,SCK*%
%TO.N,/SCK*%
X93599000Y-87147400D03*
%TO.P,U2,24,MOSI*%
%TO.N,/MOSI*%
X93599000Y-89687400D03*
%TO.P,U2,25,MISO*%
%TO.N,/MISO*%
X93599000Y-92227400D03*
%TO.P,U2,26,RX*%
%TO.N,/RX*%
X93599000Y-94767400D03*
%TO.P,U2,27,TX*%
%TO.N,/TX*%
X93599000Y-97307400D03*
%TO.P,U2,28,NOS*%
%TO.N,unconnected-(U2-NOS-Pad28)*%
X93599000Y-99847400D03*
%TD*%
D15*
%TO.N,GND*%
X140119600Y-99402400D03*
X140102496Y-82897488D03*
X139167000Y-67284600D03*
D16*
%TO.N,/A0*%
X135001700Y-68171100D03*
D15*
%TO.N,/3V3*%
X141249400Y-64287400D03*
X141224000Y-97282000D03*
D16*
X68757800Y-110084000D03*
D15*
X141231164Y-78756564D03*
D16*
%TO.N,/EN*%
X115596600Y-76354100D03*
%TD*%
D17*
%TO.N,GND*%
X93599000Y-69367400D02*
X117729000Y-69367400D01*
X130683000Y-69367400D02*
X132766000Y-67284600D01*
X140016000Y-68133600D02*
X139167000Y-67284600D01*
X140081000Y-99363800D02*
X140081000Y-82918984D01*
X132766000Y-67284600D02*
X139167000Y-67284600D01*
X140016000Y-82810992D02*
X140016000Y-68133600D01*
X69469000Y-69367400D02*
X93599000Y-69367400D01*
X117729000Y-69367400D02*
X130683000Y-69367400D01*
X140081000Y-82918984D02*
X140102496Y-82897488D01*
X140102496Y-82897488D02*
X140016000Y-82810992D01*
X140119600Y-99402400D02*
X140081000Y-99363800D01*
D18*
%TO.N,/D10*%
X112649000Y-88417400D02*
X113919000Y-87147400D01*
X89789000Y-87147400D02*
X91059000Y-88417400D01*
X91059000Y-88417400D02*
X112649000Y-88417400D01*
%TO.N,/A0*%
X92329000Y-70637400D02*
X116459000Y-70637400D01*
X69469000Y-71907400D02*
X78206600Y-71907400D01*
X117443700Y-71622100D02*
X117729000Y-71907400D01*
X117443700Y-71622100D02*
X131550700Y-71622100D01*
X131550700Y-71622100D02*
X135001700Y-68171100D01*
X116459000Y-70637400D02*
X117443700Y-71622100D01*
X79476600Y-70637400D02*
X92329000Y-70637400D01*
X92329000Y-70637400D02*
X93599000Y-71907400D01*
X78206600Y-71907400D02*
X79476600Y-70637400D01*
%TO.N,/3V3*%
X69469000Y-64287400D02*
X66090800Y-67665600D01*
D17*
X141224000Y-97282000D02*
X141224000Y-78763728D01*
X141249400Y-64287400D02*
X141224000Y-64312800D01*
D18*
X66090800Y-107417000D02*
X68757800Y-110084000D01*
D17*
X141249400Y-64287400D02*
X117729000Y-64287400D01*
X141224000Y-78749400D02*
X141231164Y-78756564D01*
X93599000Y-64287400D02*
X117729000Y-64287400D01*
X141224000Y-64312800D02*
X141224000Y-78749400D01*
X141224000Y-78763728D02*
X141231164Y-78756564D01*
X69469000Y-64287400D02*
X93599000Y-64287400D01*
D18*
X66090800Y-67665600D02*
X66090800Y-107417000D01*
%TO.N,/D11*%
X136779000Y-83337400D02*
X138049000Y-84607400D01*
X113919000Y-84607400D02*
X115825900Y-84607400D01*
X115825900Y-84607400D02*
X117095900Y-83337400D01*
X117095900Y-83337400D02*
X136779000Y-83337400D01*
%TO.N,/A1*%
X94817800Y-75666200D02*
X93599000Y-74447400D01*
X115256600Y-75666200D02*
X94817800Y-75666200D01*
X117729000Y-74447400D02*
X116475400Y-74447400D01*
X93599000Y-74447400D02*
X92380200Y-75666200D01*
X92380200Y-75666200D02*
X70687800Y-75666200D01*
X70687800Y-75666200D02*
X69469000Y-74447400D01*
X116475400Y-74447400D02*
X115256600Y-75666200D01*
%TO.N,/RX*%
X93599000Y-94767400D02*
X92329000Y-96037400D01*
X70739000Y-96037400D02*
X69469000Y-94767400D01*
X92329000Y-96037400D02*
X70739000Y-96037400D01*
%TO.N,/TX*%
X117729000Y-97307400D02*
X116459000Y-96037400D01*
X116459000Y-96037400D02*
X94869000Y-96037400D01*
X94869000Y-96037400D02*
X93599000Y-97307400D01*
%TO.N,/SDA*%
X112649000Y-98577400D02*
X91059000Y-98577400D01*
X113919000Y-99847400D02*
X112649000Y-98577400D01*
X91059000Y-98577400D02*
X89789000Y-99847400D01*
%TO.N,/D13*%
X112700200Y-80746200D02*
X91007800Y-80746200D01*
X113919000Y-79527400D02*
X112700200Y-80746200D01*
X91007800Y-80746200D02*
X89789000Y-79527400D01*
%TO.N,/EN*%
X115596600Y-76354100D02*
X116233200Y-75717500D01*
X116233200Y-75717500D02*
X136778900Y-75717500D01*
X136778900Y-75717500D02*
X138049000Y-74447400D01*
%TO.N,/BAT*%
X113919000Y-71907400D02*
X112700200Y-73126200D01*
X91007800Y-73126200D02*
X89789000Y-71907400D01*
X136830200Y-73126200D02*
X138049000Y-71907400D01*
X112700200Y-73126200D02*
X91007800Y-73126200D01*
X115137800Y-73126200D02*
X136830200Y-73126200D01*
X113919000Y-71907400D02*
X115137800Y-73126200D01*
%TO.N,/RST*%
X93599000Y-61747400D02*
X117729000Y-61747400D01*
X69469000Y-61747400D02*
X93599000Y-61747400D01*
%TO.N,/AREF*%
X69469000Y-66827400D02*
X93599000Y-66827400D01*
X93599000Y-66827400D02*
X117729000Y-66827400D01*
%TO.N,/A2*%
X94869000Y-78257400D02*
X93599000Y-76987400D01*
X116459000Y-78257400D02*
X94869000Y-78257400D01*
X117729000Y-76987400D02*
X116459000Y-78257400D01*
%TO.N,/A4*%
X117726800Y-82067400D02*
X116456800Y-83337400D01*
X117729000Y-82067400D02*
X117726800Y-82067400D01*
X94869000Y-83337400D02*
X93599000Y-82067400D01*
X116456800Y-83337400D02*
X94869000Y-83337400D01*
%TO.N,/MISO*%
X117729000Y-92227400D02*
X116510200Y-93446200D01*
X116510200Y-93446200D02*
X94817800Y-93446200D01*
X92380200Y-93446200D02*
X70687800Y-93446200D01*
X94817800Y-93446200D02*
X93599000Y-92227400D01*
X70687800Y-93446200D02*
X69469000Y-92227400D01*
X93599000Y-92227400D02*
X92380200Y-93446200D01*
%TD*%
M02*
